<?xml version="1.0" encoding="utf-8"?>
<!-- Generator: Adobe Illustrator 24.1.2, SVG Export Plug-In . SVG Version: 6.00 Build 0)  -->
<svg version="1.1" id="Icons" xmlns="http://www.w3.org/2000/svg" xmlns:xlink="http://www.w3.org/1999/xlink" x="0px" y="0px"
	 viewBox="0 0 93.3 75.4" style="enable-background:new 0 0 93.3 75.4;" xml:space="preserve">
<style type="text/css">
	.st0{fill:#FFFFFF;}
</style>
<path class="st0" d="M92.7,30.4L47.4,0.2c-0.5-0.3-1.2-0.3-1.7,0L32.4,9.2V1.5c0-0.8-0.7-1.5-1.5-1.5h-3.3c-0.8,0-1.5,0.7-1.5,1.5
	v11.9l-25.5,17c-0.7,0.5-0.9,1.4-0.4,2.1s1.4,0.9,2.1,0.4l10-6.7v47.8c0,0.8,0.7,1.5,1.5,1.5l0,0h64.4c0.8,0,1.5-0.7,1.5-1.5l0,0
	V25.4L91,32.9c0.2,0.2,0.5,0.3,0.8,0.2c0.8,0,1.5-0.7,1.5-1.5C93.3,31.1,93.1,30.6,92.7,30.4L92.7,30.4z M29.1,3h0.3v8.2l-0.3,0.2V3
	z M53.1,72.4V49.6h11.8v22.8H53.1z M76.7,72.4h-8.8V48.1c0-0.8-0.7-1.5-1.5-1.5H51.6c-0.8,0-1.5,0.7-1.5,1.5v24.3H15.3V24.2
	l13.1-8.8l0,0l0.8-0.6L46.6,3.3l30.2,20.1V72.4z"/>
<path class="st0" d="M40.7,30.1H23.9c-0.8,0-1.5,0.7-1.5,1.5v16.9c0,0.8,0.7,1.5,1.5,1.5h16.9c0.8,0,1.5-0.7,1.5-1.5V31.6
	C42.2,30.8,41.6,30.1,40.7,30.1z M39.2,47H25.4V33.1h13.9V47z"/>
</svg>
