<?xml version="1.0" encoding="utf-8"?>
<!-- Generator: Adobe Illustrator 24.1.2, SVG Export Plug-In . SVG Version: 6.00 Build 0)  -->
<svg version="1.1" id="Icons" xmlns="http://www.w3.org/2000/svg" xmlns:xlink="http://www.w3.org/1999/xlink" x="0px" y="0px"
	 viewBox="0 0 37.5 94.7" style="enable-background:new 0 0 37.5 94.7;" xml:space="preserve">
<style type="text/css">
	.st0{fill:#FFFFFF;}
</style>
<path class="st0" d="M18.7,15c4.1,0,7.5-3.4,7.5-7.5S22.9,0,18.7,0s-7.5,3.4-7.5,7.5l0,0C11.2,11.6,14.6,15,18.7,15
	C18.7,15,18.7,15,18.7,15z M14.7,7.5c0-2.2,1.8-4,3.9-4c2.2,0,4,1.8,4,3.9c0,2.2-1.7,3.9-3.9,4C16.6,11.5,14.8,9.7,14.7,7.5z"/>
<rect x="17" y="54.2" class="st0" width="3.6" height="40.5"/>
<polygon class="st0" points="10.5,27.8 6.9,27.8 6.9,54.2 8.7,54.2 8.7,94.7 12.3,94.7 12.3,54.2 10.5,54.2 "/>
<polygon class="st0" points="27,54.2 25.2,54.2 25.2,94.7 28.8,94.7 28.8,54.2 30.5,54.2 30.5,27.8 27,27.8 "/>
<path class="st0" d="M31.2,18.3H6.3c-3.5,0-6.3,2.8-6.3,6.3l0,0v29.6h3.6V24.6c0-1.5,1.2-2.8,2.8-2.8h24.8c1.5,0,2.8,1.2,2.8,2.8
	v29.6h3.6V24.6C37.5,21.1,34.6,18.3,31.2,18.3z"/>
<rect x="19" y="38.6" class="st0" width="6.2" height="2.1"/>
<polygon class="st0" points="21.7,31.1 21.7,33.1 19,33.1 19,38 25.2,38 25.2,33.1 22.5,33.1 22.5,31.1 "/>
</svg>
