<?xml version="1.0" encoding="utf-8"?>
<!-- Generator: Adobe Illustrator 24.1.3, SVG Export Plug-In . SVG Version: 6.00 Build 0)  -->
<svg version="1.1" id="Icons" xmlns="http://www.w3.org/2000/svg" xmlns:xlink="http://www.w3.org/1999/xlink" x="0px" y="0px"
	 viewBox="0 0 180 180" style="enable-background:new 0 0 180 180;" xml:space="preserve">
<style type="text/css">
	.st0{fill:#FFFFFF;}
</style>
<path class="st0" d="M136.1,0H77.5c-6.6,0-11.9,5.3-11.9,11.9v57.9L38.9,96.4v57.9h-7.6v24.6h5.9v-18.6H107v18.6h5.9v-24.5h-5.5
	c6-4.9,9.6-12.3,9.6-20.2v-15.6h19.1c6.6,0,11.9-5.3,11.9-11.9v-95C148,5.3,142.7,0,136.1,0z M111.1,134.3c0,11.1-9,20.1-20.2,20.2
	h-46V98.9l20.8-20.8v18.3l-7.6,7.6l4.2,4.2l32.9-32.9c5.9,8,5.1,19.2-2,26.3l-8.7,8.7l-0.8,2.1v8.6c0,11.1-9,20.1-20.1,20.2v5.9
	c14.4,0,26.1-11.7,26.1-26.1v-2.3h21.5L111.1,134.3z M85.5,24.4c-0.1-1.7,1.1-3.1,2.8-3.3h36.9c1.7,0.2,2.9,1.7,2.8,3.3V83
	c0.1,1.7-1.1,3.1-2.8,3.3H105c-0.2-6.6-2.9-12.8-7.6-17.4h-4.2l-7.7,7.7L85.5,24.4L85.5,24.4z M142,106.9c0,3.3-2.7,5.9-5.9,5.9
	H90.5l6.9-7c1.4-1.4,2.6-2.9,3.6-4.5c-0.2,0.6-0.3,1.2-0.3,1.9c-0.1,3.4,2.6,6.3,6,6.3c3.4,0.1,6.3-2.6,6.3-6c0.1-3.4-2.6-6.3-6-6.3
	c-1.8,0-3.6,0.7-4.8,2.1c1.1-2.1,1.9-4.4,2.3-6.8h21.1c4.9-0.4,8.6-4.6,8.3-9.5V24.7c0.3-4.9-3.4-9.1-8.3-9.5H88
	c-4.9,0.4-8.6,4.6-8.3,9.5v57.9l-8,8V11.8c0-3.3,2.7-5.9,5.9-5.9h58.7c3.3,0,5.9,2.7,5.9,5.9L142,106.9z M106.6,103.1
	c0-0.1,0.1-0.2,0.2-0.2c0.1,0,0.2,0.1,0.2,0.2C107,103.3,106.6,103.3,106.6,103.1z"/>
</svg>
