<?xml version="1.0" encoding="utf-8"?>
<!-- Generator: Adobe Illustrator 24.1.2, SVG Export Plug-In . SVG Version: 6.00 Build 0)  -->
<svg version="1.1" id="Icons" xmlns="http://www.w3.org/2000/svg" xmlns:xlink="http://www.w3.org/1999/xlink" x="0px" y="0px"
	 viewBox="0 0 112.3 99.8" style="enable-background:new 0 0 112.3 99.8;" xml:space="preserve">
<style type="text/css">
	.st0{fill:#FFFFFF;}
</style>
<path class="st0" d="M61.3,12.1H51v8.5h-8.5v10.4H51v8.6h10.4v-8.6h8.6V20.7h-8.6V12.1z M66.9,23.7v4.4h-8.6v8.6H54v-8.6h-8.5v-4.4
	H54v-8.5h4.4v8.5H66.9z"/>
<path class="st0" d="M85.9,43.7V0H26.4v43.7H0v56.1h112.3V43.7H85.9z M3,46.7h23.4v50.1H3V46.7z M68.9,96.8H57.7V82.2h11.3V96.8z
	 M54.7,96.8H43.4V82.2h11.3V96.8z M71.9,96.8V79.2H40.4v17.5h-11V3h53.5v93.8H71.9z M109.3,96.8H85.9V46.7h23.4V96.8z"/>
<rect x="89.9" y="51.9" class="st0" width="15.5" height="3"/>
<rect x="89.9" y="60.2" class="st0" width="15.5" height="3"/>
<rect x="89.9" y="68.4" class="st0" width="15.5" height="3"/>
<rect x="7" y="51.9" class="st0" width="15.5" height="3"/>
<rect x="7" y="60.2" class="st0" width="15.5" height="3"/>
<rect x="7" y="68.4" class="st0" width="15.5" height="3"/>
<rect x="48.4" y="51.9" class="st0" width="15.5" height="3"/>
<rect x="48.4" y="60.2" class="st0" width="15.5" height="3"/>
<rect x="48.4" y="68.4" class="st0" width="15.5" height="3"/>
</svg>
