<?xml version="1.0" encoding="utf-8"?>
<!-- Generator: Adobe Illustrator 24.1.3, SVG Export Plug-In . SVG Version: 6.00 Build 0)  -->
<svg version="1.1" id="Icons" xmlns="http://www.w3.org/2000/svg" xmlns:xlink="http://www.w3.org/1999/xlink" x="0px" y="0px"
	 viewBox="0 0 180 180" style="enable-background:new 0 0 180 180;" xml:space="preserve">
<style type="text/css">
	.st0{fill:#FFFFFF;}
</style>
<g id="Path_652">
	<path class="st0" d="M7.3,180l-4.9-5.2l18.7-31.9c-30.3-38-24-93.4,14-123.7C50.7,6.7,70.1,0,90,0l0,0c48.6,0,88.1,39.4,88,88.1
		s-39.4,88.1-88.1,88c-16.7,0-33.1-4.8-47.3-13.8L7.3,180z M41.4,154.8l3.7,0.2c37,24.8,87.1,15,112-22s15-87.1-22-112
		c-13.3-8.9-29-13.7-45-13.7l0,0C45.5,7.4,9.4,43.5,9.4,88.1c0,19,6.8,37.5,19,52l0.4,4.3l-13.7,23.5L41.4,154.8z"/>
</g>
</svg>
