<svg id="Icons" xmlns="http://www.w3.org/2000/svg" viewBox="0 0 180 180"><defs><style>.cls-1{fill:#425563;}</style></defs><path class="cls-1" d="M80.47,84h-3a11.17,11.17,0,0,0,6.41,10.09v28.83h3V92l-1-.36A8.15,8.15,0,0,1,80.47,84Z"/><path class="cls-1" d="M102.72,62.1,101.84,65l4.78,1.47a39,39,0,0,1-6.9,2.81V57.11h-3V70a33.43,33.43,0,0,1-3.41.5V57.11h-3V70.65c-1.18,0-2.31,0-3.42,0V57.11h-3V70.44c-1.16-.07-2.29-.14-3.42-.17V57.11h-3V70.29a18.12,18.12,0,0,0-9.75,3.16l1.7,2.47a15,15,0,0,1,8-2.63v8.65h3V73.27c1,0,2.12.1,3.25.17h.17V84.91h3V73.61c1.09,0,2.23.06,3.42,0V84.91h3V73.49c1.1-.1,2.24-.25,3.41-.46v8.91h3V72.35a42.24,42.24,0,0,0,8.15-3.19l-1.39,4.55,2.86.88L112.28,65Z"/><path class="cls-1" d="M91.31,91.64l-1,.35v30.9h3V94.06A11.15,11.15,0,0,0,99.73,84h-3A8.15,8.15,0,0,1,91.31,91.64Z"/></svg>