<svg id="Icons" xmlns="http://www.w3.org/2000/svg" viewBox="0 0 180 180"><defs><style>.cls-1{fill:#425563;}</style></defs><g id="Group_356" data-name="Group 356"><g id="Path_418" data-name="Path 418"><path class="cls-1" d="M90,113.91,68.21,92.21c-.26-.26-.53-.5-.8-.74l-.18-.17A14.5,14.5,0,0,1,77,66.09h.06A14.5,14.5,0,0,1,90,74.2a14.5,14.5,0,0,1,27.49,6.44h0a14.42,14.42,0,0,1-4.76,10.69l-.19.16c-.27.24-.54.48-.8.74ZM77,69.09a11.5,11.5,0,0,0-7.75,20l.17.16c.31.27.62.55.91.84L90,109.68,109.64,90.1l.91-.85.18-.15a11.39,11.39,0,0,0,3.77-8.46h0a11.5,11.5,0,0,0-23,0v.06h-3V80.6A11.49,11.49,0,0,0,77.05,69.09Z"/></g></g></svg>