<?xml version="1.0" encoding="utf-8"?>
<!-- Generator: Adobe Illustrator 24.1.2, SVG Export Plug-In . SVG Version: 6.00 Build 0)  -->
<svg version="1.1" id="Icons" xmlns="http://www.w3.org/2000/svg" xmlns:xlink="http://www.w3.org/1999/xlink" x="0px" y="0px"
	 viewBox="0 0 124.9 126" style="enable-background:new 0 0 124.9 126;" xml:space="preserve">
<style type="text/css">
	.st0{fill:#FFFFFF;}
</style>
<polygon class="st0" points="0,43.9 2.7,55 10,53.4 10,85.4 24.7,85.4 24.7,40.3 13.4,40.3 "/>
<polygon class="st0" points="29.1,52.9 49.5,52.9 30.1,85.4 46.3,85.4 65.8,51.9 65.8,40.6 29.1,40.6 "/>
<path class="st0" d="M112.6,60.9c-7.5,0-12.2,5.7-12.2,12.5v0.1c0,6.8,4.9,12.5,12.2,12.5s12.2-5.7,12.2-12.5v-0.1
	C124.9,66.6,120.1,60.9,112.6,60.9z M116,73.6c0,2.8-1.7,4.4-3.3,4.4s-3.3-1.7-3.3-4.4v-0.1c0-2.8,1.5-4.4,3.3-4.4s3.3,1.7,3.3,4.4
	V73.6z"/>
<path class="st0" d="M92.5,52.6v-0.1c0-6.8-4.7-12.5-12.2-12.5s-12.2,5.7-12.2,12.5v0.1c0,6.8,4.9,12.5,12.2,12.5
	S92.5,59.4,92.5,52.6z M77,52.6v-0.1c0-2.8,1.5-4.4,3.3-4.4s3.3,1.7,3.3,4.4v0.1c0,2.8-1.7,4.4-3.3,4.4S77,55.3,77,52.6z"/>
<polygon class="st0" points="109.8,40.6 73.5,85.4 83.1,85.4 119.5,40.6 "/>
</svg>
