<?xml version="1.0" encoding="utf-8"?>
<!-- Generator: Adobe Illustrator 24.1.2, SVG Export Plug-In . SVG Version: 6.00 Build 0)  -->
<svg version="1.1" id="Icons" xmlns="http://www.w3.org/2000/svg" xmlns:xlink="http://www.w3.org/1999/xlink" x="0px" y="0px"
	 viewBox="0 0 79.1 74.6" style="enable-background:new 0 0 79.1 74.6;" xml:space="preserve">
<style type="text/css">
	.st0{fill:#FFFFFF;}
</style>
<path class="st0" d="M39.6,13h0.1c3.5-0.1,6.4-2.9,6.4-6.5l0,0V6.4C46,2.9,43.2,0,39.6,0h-0.2c-3.6,0.1-6.4,3-6.4,6.6c0,0,0,0,0,0
	C33.2,10.1,36,13,39.6,13z M36.4,3.4c0.8-0.9,2-1.4,3.2-1.4l0,0C42,2,44,3.9,44.1,6.3v0.1c0,2.5-1.9,4.5-4.4,4.6c0,0,0,0,0,0
	c-1.2,0-2.3-0.4-3.2-1.3C34.7,8,34.6,5.1,36.4,3.4L36.4,3.4z"/>
<path class="st0" d="M13.9,17.4H14c3.6-0.1,6.4-3,6.4-6.6v-0.1c-0.1-3.5-2.9-6.3-6.4-6.3h-0.2c-3.6,0-6.5,3-6.5,6.5
	C7.3,14.6,10.3,17.5,13.9,17.4L13.9,17.4z M13.8,6.4h0.1c2.4,0,4.4,2,4.4,4.4V11c0,2.4-2,4.4-4.4,4.4h-0.1c-2.5,0-4.5-2-4.5-4.5
	S11.3,6.4,13.8,6.4L13.8,6.4z"/>
<path class="st0" d="M65.3,17.4h0.1c3.6-0.1,6.4-3,6.4-6.6c0,0,0,0,0,0v-0.1c-0.1-3.5-3-6.3-6.4-6.3h-0.2c-3.6,0.1-6.4,3-6.4,6.6
	c0,1.7,0.7,3.4,2,4.6C62,16.8,63.6,17.4,65.3,17.4z M65.3,6.4L65.3,6.4c2.4,0,4.4,2,4.4,4.4V11c0,2.4-2,4.4-4.4,4.4
	c-2.5,0-4.5-1.9-4.6-4.4C60.8,8.5,62.8,6.5,65.3,6.4C65.3,6.4,65.3,6.4,65.3,6.4L65.3,6.4z"/>
<path class="st0" d="M45.6,70.2L45.6,70.2c0,1.4-1.1,2.5-2.5,2.5s-2.5-1.1-2.5-2.5V45.4h-2v24.8l0,0c0,1.4-1.1,2.5-2.5,2.5
	s-2.5-1.1-2.5-2.5V24.8h-2v45.4h1h-1c0.1,2.4,2.1,4.3,4.5,4.3h0.2c1.3,0,2.5-0.6,3.3-1.6c1.6,1.9,4.4,2.2,6.3,0.7
	c1-0.8,1.6-2,1.7-3.3h-1h1V24.8h-2V70.2z"/>
<path class="st0" d="M19.9,70.2c0,1.4-1.1,2.5-2.5,2.5s-2.5-1.1-2.5-2.5V45.4h-2v24.8c-0.1,1.3-1.1,2.3-2.4,2.3
	c-0.7,0-1.3-0.2-1.8-0.6c-0.5-0.4-0.8-1-0.8-1.7V29.3h-2v41h1h-1c0.1,2.4,2.1,4.3,4.5,4.3h0.2c1.3-0.1,2.5-0.7,3.3-1.7
	c1.6,1.9,4.4,2.2,6.3,0.7c1-0.8,1.6-2,1.7-3.3h-1h1v-41h-2V70.2z"/>
<path class="st0" d="M74.4,20.3H56.3v2h18c1.5,0,2.8,1.2,2.8,2.8v20.3h2V25.1C79.1,22.4,77,20.3,74.4,20.3z"/>
<path class="st0" d="M71.3,70.2c0,1.4-1.1,2.5-2.5,2.5c-1.4,0-2.5-1.1-2.5-2.5V45.4h-2v24.8c0,1.4-1.1,2.5-2.5,2.5s-2.5-1.1-2.5-2.5
	V29.3h-2v41h1h-1c0.1,2.4,2.1,4.3,4.5,4.3H62c1.3-0.1,2.5-0.7,3.3-1.7c1.6,1.9,4.4,2.2,6.3,0.7c1-0.8,1.6-2,1.7-3.3h-1h1v-41h-2
	L71.3,70.2z"/>
<path class="st0" d="M4.8,20.3c-2.6,0-4.8,2.1-4.8,4.8v20.3h2V25.1c0-1.6,1.3-2.8,2.8-2.8h18v-2H4.8z"/>
<path class="st0" d="M48.6,15.9H30.6c-2.7,0-4.8,2.1-4.8,4.8v24.7h2V20.7c0-1.5,1.3-2.8,2.8-2.8h18c1.5,0,2.8,1.2,2.8,2.8v24.7h2
	V20.6C53.4,18,51.3,15.9,48.6,15.9z"/>
</svg>
