<svg id="Icons" xmlns="http://www.w3.org/2000/svg" viewBox="0 0 180 180"><defs><style>.cls-1{fill:#fff;}</style></defs><path class="cls-1" d="M178.26,45.6a8.07,8.07,0,0,1-2.62-4.37c-.23-.92-.83-3.38-3.6-3.25-2.23.07-4.86.57-5.45,3.8-.26,1.44-.47,2.91-.64,4.41a4.07,4.07,0,0,1-3.25,3.68c-1.34.38-2.69.72-4,1.06l-2.37.61a6.88,6.88,0,0,0-5.56,6.27c-.25,1.95-.54,2.25-2.38,2.52a13.12,13.12,0,0,1-1.69.08,3.75,3.75,0,0,0-2.82,1.1,3.55,3.55,0,0,0-.82,2.75.61.61,0,0,1-.06.33,23.79,23.79,0,0,1-8.52,6,2.45,2.45,0,0,1-.69-.25l.11-.51c0-.16.07-.31.1-.45a1.58,1.58,0,0,1,.25-.46l.08-.11a5.69,5.69,0,0,0-.26-6.64,3.25,3.25,0,0,0-2.4-1.62h-.35c.07-.42.14-.85.18-1.28v-.16a5,5,0,0,0-3.79-4.41l.18-1.4a2.75,2.75,0,0,1-.15-.25,2.41,2.41,0,0,0-1.59-1.4c-.33-.07-.68-.15-1-.24a6.87,6.87,0,0,0-4.23-.15c-1.82.74-2.91.5-4.14-.91a4.36,4.36,0,0,0-5.64-.9c-.54.27-1.06.56-1.59.86l-.31.18.49-.41-.35-2.52a9.53,9.53,0,0,0-1.66-.56l-.14,0c-.9-.12-1.81-.22-2.71-.32s-1.84-.21-2.79-.34a41.56,41.56,0,0,1-4.44-.75,10.39,10.39,0,0,1-2.12-1l-.1-.06a1.46,1.46,0,0,1-.21-.16,2.44,2.44,0,0,0-1.78-.68c-1,.09-1.94.24-2.87.39a23.69,23.69,0,0,1-4.42.43h-.67c-10-.18-20.35-.37-30.5-.94-7.33-.42-14.71-1.4-21.23-2.27-3.91-.52-7.89-1.25-11.73-2-1.59-.3-3.19-.59-4.79-.87-2.6-.45-4,.49-4.49,3-.88-.43-1.73-.83-2.59-1.21l-.1,0a12,12,0,0,0-1.84-.51L6.41,40.78A7,7,0,0,0,6.15,43l0,.23C7,47.47,6.36,51.69,4,57A44.62,44.62,0,0,0,1.7,65.21a7.46,7.46,0,0,0-.05,2.15,3.61,3.61,0,0,1,0,1.25c-2.22,4.78-.77,9,.63,13.12l.37,1.11A28.19,28.19,0,0,1,4,87.68,15.24,15.24,0,0,0,6.66,94.8a3.53,3.53,0,0,1,.71,1.73,4.57,4.57,0,0,0,2.53,4c.77.41,1.53.87,2.28,1.32l.67.39c2.76,1.64,4.33,3.4,5.09,5.72.49,1.49,2.37,2.16,2.94,2.33a19.81,19.81,0,0,0,2.4.51,17.13,17.13,0,0,1,2.07.44c1.77.55,3.56,1.15,5.29,1.74,2.94,1,6,2,9,2.81l1.69.46c3.73,1,7.58,2.11,11.78.83a.7.7,0,0,1,.29,0l.21.07a10.11,10.11,0,0,1,7.28,6.4,10.22,10.22,0,0,0,2.93,3.91c2.77,2.32,4.05,2,6.5-.17a3.63,3.63,0,0,1,2.38-1.12,3.17,3.17,0,0,1,1.94,1.57,67,67,0,0,1,4.89,8,10.39,10.39,0,0,0,7.61,6.11,4.81,4.81,0,0,0,1,.12,2.56,2.56,0,0,0,1.84-.67,3.09,3.09,0,0,0,.69-2.76l0-.11a13.77,13.77,0,0,1-.38-3.19c.17-2.11,1.37-3.53,3.88-4.59,1.68-.71,3.5-1.65,4.25-3.19l0-.12a1.65,1.65,0,0,1,1.48-1h.2a6.53,6.53,0,0,0,1.54-.38,4.23,4.23,0,0,1,3.43,0l.14.06a3.28,3.28,0,0,0,2.81-.33l.14-.1a.76.76,0,0,1,1,0l.11.1c2.15,1.75,4.45,1.78,7,.08a70.37,70.37,0,0,1,7.93-4.5,6,6,0,0,1,6.61.51l.28.17a4.77,4.77,0,0,0,3.72.13,4.59,4.59,0,0,1,4,.29,3.87,3.87,0,0,1,1.84,2.89,14.79,14.79,0,0,0,4.71,9.05c.95.91,1.89,1.83,2.83,2.75l.59.58c1.44,1.41,2.68,1.45,3.45,1.23s1.82-.88,2.34-2.84a10.9,10.9,0,0,0-1.21-8.43l-.21-.38c-1.87-3.3-3.79-6.72-5.55-10.13-1.5-2.92-1.09-5.54,1.39-8.77,1.38-1.79,2.93-3.52,4.44-5.2,3.05-3.41,6.21-6.94,8.23-11.26l-.19-1.58a8.13,8.13,0,0,0-.64-.7l-.11-.11a4.22,4.22,0,0,0-1.37-4,3.46,3.46,0,0,0,1.86-1.29,3.35,3.35,0,0,0,.61-2.5,32.19,32.19,0,0,0-.77-3.67,2.88,2.88,0,0,0,1.41-.76c1-1,1-2.64.84-4.11a2.85,2.85,0,0,1,1.49-2.88l.1-.06,1-.64.31-.2.56-1.86-.13-.28-.38-.23a16.66,16.66,0,0,1,2.56-1,15.41,15.41,0,0,0,3.8-1.74l.39-2.07c-2.71-4-2.58-5.28.84-8.57a46.36,46.36,0,0,1,4.05-3.2,3.25,3.25,0,0,0,1.5-2.47A3,3,0,0,0,178.26,45.6Zm-2,2.45a47.5,47.5,0,0,0-4.31,3.42c-4.1,3.94-4.73,6.7-2.18,11.06-.57.25-1.18.47-1.81.69-2.12.74-4.52,1.57-6.2,4.11l.68,1.13a5.83,5.83,0,0,0-2,5.15,4.71,4.71,0,0,1,0,1.59,3.63,3.63,0,0,1-1,0L157.8,77c.12.5.24,1,.37,1.52a32.24,32.24,0,0,1,.79,3.69.43.43,0,0,1-.07.3.46.46,0,0,1-.3.17l-.21,0a2.82,2.82,0,0,0-2.38,1.8,2.71,2.71,0,0,0,.94,2.76c1.09,1.13,1.13,1.31.87,1.92a2.21,2.21,0,0,0,.8,2.41c-1.84,3.53-4.5,6.5-7.31,9.64-1.54,1.72-3.13,3.5-4.57,5.38-3.21,4.16-3.74,8-1.69,12,1.78,3.47,3.73,6.91,5.61,10.23l.23.43a7.92,7.92,0,0,1,.9,6.14,2.45,2.45,0,0,1-.25.66,2.61,2.61,0,0,1-.54-.43l-.59-.57c-1-.93-1.9-1.86-2.89-2.81a11.84,11.84,0,0,1-3.78-7.23,6.77,6.77,0,0,0-3.25-5.07,7.61,7.61,0,0,0-6.65-.53,1.76,1.76,0,0,1-1.24,0,9,9,0,0,0-9.68-.68,72.61,72.61,0,0,0-8.19,4.66c-1.64,1.08-2.48.89-3.43.13a3.76,3.76,0,0,0-4.85-.27.23.23,0,0,1-.16,0,7.13,7.13,0,0,0-5.69,0,3.17,3.17,0,0,1-.69.17,4.56,4.56,0,0,0-4.19,2.84,6,6,0,0,1-2.7,1.71c-3.6,1.52-5.46,3.87-5.71,7.18v.12a17.15,17.15,0,0,0,.41,3.71,7.5,7.5,0,0,1-5.44-4.44A68.71,68.71,0,0,0,77.13,126a5.91,5.91,0,0,0-4-2.83,4.89,4.89,0,0,0-.54,0,6.44,6.44,0,0,0-4.19,1.88,9.62,9.62,0,0,1-1.3,1,4.68,4.68,0,0,1-1.31-.92,7.39,7.39,0,0,1-2.06-2.71,13,13,0,0,0-9.31-8.2,3.76,3.76,0,0,0-1.79-.16l-.22.05c-3.41,1.08-6.72.16-10.22-.81l-1.73-.47c-3-.78-5.94-1.78-8.83-2.76-1.75-.59-3.56-1.19-5.36-1.75a19.1,19.1,0,0,0-2.46-.54,15.77,15.77,0,0,1-2-.42,2.89,2.89,0,0,1-1-.51,13.54,13.54,0,0,0-6.38-7.25l-.65-.39c-.79-.47-1.58-.94-2.46-1.42a1.55,1.55,0,0,1-.89-1.4v-.15A6.48,6.48,0,0,0,9.09,93,12.26,12.26,0,0,1,7,87.32l0-.15a31.92,31.92,0,0,0-1.53-5.34l-.36-1.06c-1.27-3.71-2.46-7.21-.75-10.9a5.12,5.12,0,0,0,.28-2.76,4.77,4.77,0,0,1,0-1.31,41.16,41.16,0,0,1,2.15-7.7c2.45-5.5,3.22-10.27,2.43-15,.87.4,1.73.82,2.64,1.26l1.25.6,2.11-1,.08-.38c.1-.45.22-1,.33-1.54a2.91,2.91,0,0,1,.21-.74,3,3,0,0,1,.82.07l4.76.86c3.88.71,7.89,1.45,11.88,2,6.57.87,14,1.86,21.45,2.28,10.2.58,20.58.77,30.62,1H86A28.62,28.62,0,0,0,91,47c.8-.12,1.56-.24,2.32-.32h0a5.79,5.79,0,0,0,.61.42,14.31,14.31,0,0,0,2.76,1.33l.17,0a45.18,45.18,0,0,0,4.81.82c.95.13,1.89.23,2.84.34l.94.1-3.13,2.64L103,55a9.2,9.2,0,0,0,6.18-1.13c.63-.3,1.22-.63,1.8-1s1-.56,1.5-.81l.16-.1a1.38,1.38,0,0,1,1.8.28A6.06,6.06,0,0,0,122,54a1.81,1.81,0,0,1,.83,0l-.17,0c-.91.19-1.85.39-2.78.64-2.51.68-4,2.49-4.63,5.54l1,.83a26.71,26.71,0,0,0-.46,3.45v.15a48.28,48.28,0,0,0,.74,7.2l.06.22a3.62,3.62,0,0,0,2.6,2.37l.59,0a4.14,4.14,0,0,0,2.92-2A7,7,0,0,0,123,66a4.26,4.26,0,0,1,1-5.51,4.53,4.53,0,0,0,1.11-1.82c.44-1.31.66-1.28,1.14-1.22,1.23.17,2.17,1,2.23,1.62a13.47,13.47,0,0,1-.61,2.73l0,.14c0,.22-.09.44-.15.78l-.14.69L129.68,65a8.28,8.28,0,0,0,1.65-1.09l.16-.17.06.1.09.11a2.71,2.71,0,0,1,.17,3.14,4.52,4.52,0,0,0-.74,1.45l0,.16c0,.14-.06.29-.1.45-.23,1.06-.52,2.36.45,3.18s2.78,1.65,4.12,1a26.69,26.69,0,0,0,9.78-6.88l.13-.17A3.59,3.59,0,0,0,146,64a1.2,1.2,0,0,1,0-.5,1.17,1.17,0,0,1,.64-.13c.66,0,1.33,0,2-.11,3.21-.46,4.56-1.85,5-5.22A3.93,3.93,0,0,1,157,54.47c.81-.22,1.62-.42,2.44-.63,1.38-.35,2.76-.7,4-1.06a7,7,0,0,0,5.51-6.32c.15-1.37.35-2.77.6-4.15.13-.7.23-1.25,2.6-1.33a.55.55,0,0,1,.24,0,2.35,2.35,0,0,1,.34.93,11.06,11.06,0,0,0,3.59,6l.06,0Zm-56,19.21a4,4,0,0,1-.12,3.69,1.11,1.11,0,0,1-.47.44.58.58,0,0,1-.17-.21,43.4,43.4,0,0,1-.66-6.54,24.54,24.54,0,0,1,.7-4.34l-1-.8a2.92,2.92,0,0,1,2.09-1.92c.59-.16,1.18-.3,1.79-.43-.09.23-.15.43-.2.58a1.72,1.72,0,0,1-.34.6A7.19,7.19,0,0,0,120.24,67.26Z"/></svg>