<?xml version="1.0" encoding="utf-8"?>
<!-- Generator: Adobe Illustrator 24.1.2, SVG Export Plug-In . SVG Version: 6.00 Build 0)  -->
<svg version="1.1" id="Icons" xmlns="http://www.w3.org/2000/svg" xmlns:xlink="http://www.w3.org/1999/xlink" x="0px" y="0px"
	 viewBox="0 0 76 76.3" style="enable-background:new 0 0 76 76.3;" xml:space="preserve">
<style type="text/css">
	.st0{fill:#FFFFFF;}
</style>
<path class="st0" d="M76,25.4V10.2H0v15.2h3.6v39.2H1.5v3h73v-3h-2.1V25.4H76z M20.4,64.6H6.6V25.4h13.8V64.6z M36.4,64.6h-13V36h13
	V64.6z M52.6,64.6H39.4V36h13.2L52.6,64.6z M52.6,33H23.4v-7.6h29.2L52.6,33z M69.4,64.6H55.6V25.4h13.8L69.4,64.6z M3,22.4v-9.2h70
	v9.2H3z"/>
<rect x="32.1" y="47.9" class="st0" width="3" height="4.2"/>
<rect x="40.8" y="47.9" class="st0" width="3" height="4.2"/>
</svg>
