<svg id="Icons" xmlns="http://www.w3.org/2000/svg" viewBox="0 0 180 180"><defs><style>.cls-1{fill:#425563;}</style></defs><polygon class="cls-1" points="76.36 59.15 103.64 59.15 104.45 65.91 107.43 65.55 106.31 56.15 73.69 56.15 72.57 65.55 75.55 65.91 76.36 59.15"/><path class="cls-1" d="M110.85,68.24H69.15v3h2l3.4,52.61h30.9l3.4-52.61h2Zm-8.21,52.61H77.37L74.16,71.24h31.69Z"/><path class="cls-1" d="M90,103.11a8.84,8.84,0,1,0-8.84-8.84A8.85,8.85,0,0,0,90,103.11Zm0-14.68a5.84,5.84,0,1,1-5.84,5.84A5.85,5.85,0,0,1,90,88.43Z"/></svg>