<?xml version="1.0" encoding="utf-8"?>
<!-- Generator: Adobe Illustrator 24.1.3, SVG Export Plug-In . SVG Version: 6.00 Build 0)  -->
<svg version="1.1" id="Icons" xmlns="http://www.w3.org/2000/svg" xmlns:xlink="http://www.w3.org/1999/xlink" x="0px" y="0px"
	 viewBox="0 0 180 179.7" style="enable-background:new 0 0 180 179.7;" xml:space="preserve">
<style type="text/css">
	.st0{fill:#FFFFFF;}
</style>
<g id="Group_436">
	<g id="Path_651">
		<path class="st0" d="M90.2,167.2L19,96.2c-0.9-0.9-1.8-1.7-2.7-2.5l-0.6-0.5c-19.1-17.4-20.4-47-3.1-66
			c8.9-9.7,21.4-15.3,34.6-15.3h0.2C66.1,12,82.9,23.3,90.2,40.5c10.1-23.7,37.6-34.8,61.3-24.7c17.3,7.4,28.4,24.3,28.4,43.1
			c0,13.2-5.6,25.6-15.4,34.4l-0.7,0.7c-0.8,0.8-1.7,1.5-2.5,2.4L90.2,167.2z M47.2,19.4c-21.7,0-39.3,17.7-39.3,39.3
			c0,11,4.7,21.5,12.8,28.9l0.6,0.5c1,0.9,2,1.8,3,2.8l65.9,65.7L156.2,91c0.9-0.9,1.9-1.8,2.8-2.5l0.7-0.6c8.2-7.4,12.9-18,12.8-29
			c0-21.6-17.5-39.3-39.2-39.4S94,37,94,58.7v0.2h-7.5v-0.2c0-21.6-17.5-39.2-39.1-39.3H47.2z"/>
	</g>
</g>
</svg>
