<?xml version="1.0" encoding="utf-8"?>
<!-- Generator: Adobe Illustrator 24.1.3, SVG Export Plug-In . SVG Version: 6.00 Build 0)  -->
<svg version="1.1" id="Icons" xmlns="http://www.w3.org/2000/svg" xmlns:xlink="http://www.w3.org/1999/xlink" x="0px" y="0px"
	 viewBox="0 0 180 180" style="enable-background:new 0 0 180 180;" xml:space="preserve">
<style type="text/css">
	.st0{fill:#FFFFFF;}
</style>
<path class="st0" d="M178.1,77.4L155.4,31c-0.6-1.3-1.7-2.3-3-2.7c-1.3-0.4-2.8-0.4-4,0.2L127,39c-2.7,1.3-3.8,4.5-2.5,7.2l0,0
	c-5.5,2.8-11.6,4.4-17.8,4.6c-2.9,0-5.8-0.4-8.6-1.3c-3.3-1.1-6.5-2.4-9.5-4c-4.3-2-8.4-4-12.7-4l0,0c-4.7,0-9,2.4-13.1,7.2
	l-0.2,0.2c-0.2,0.2-0.4,0.4-0.6,0.7c-7.9,9.9-22,19.3-24.3,20.6c-4.7,2.7-6.4,8.8-3.6,13.5c0,0,0,0,0,0c0.3,0.5,0.7,1.1,1.1,1.5
	L6.9,97.7c-5.1,2.2-7.5,8.1-5.3,13.3c1.2,2.8,3.6,4.9,6.5,5.7c-2.8,4.8-1.2,11,3.6,13.8c1.5,0.9,3.3,1.4,5.1,1.4
	c1,0,1.9-0.1,2.8-0.4l2.3-0.6c-0.8,5.2,2.8,10.1,8,10.9c0.5,0.1,1,0.1,1.5,0.1h0.3c-1.2,4.8,1.8,9.6,6.6,10.8
	c0.7,0.2,1.4,0.3,2.2,0.3c0.8,0,1.6-0.1,2.4-0.3l49.2-10.5c0.7-0.2,1.4-0.4,2-0.7l7.7-3.7l29.2-29.1l0,0l0.7-0.7
	c3.9-3.9,12.6-12.6,15.8-15.1c0.6,1.1,1.7,2,2.9,2.4c0.6,0.2,1.2,0.3,1.8,0.3c0.5,0,1.1-0.1,1.6-0.2h0.7l0.5-0.5l20.9-10.2
	C178.3,83.3,179.4,80.1,178.1,77.4C178.1,77.4,178.1,77.4,178.1,77.4z M7,108.4c-0.7-2,0.3-4.3,2.3-5.1l31.5-13.9
	c2.5,1.1,5.3,1.7,8.1,1.6l0,0c3.1,0,6.2-0.7,9-2.2c0.9,0.8,1.8,1.7,2.6,2.6l0.5,0.6l-34.1,14.5L12,110.9
	C9.9,111.5,7.7,110.4,7,108.4z M17.8,125.7c-2.1,0.8-4.4-0.3-5.2-2.4c-0.8-2.1,0.3-4.4,2.4-5.2l13.9-5.9l0.8-0.3l0,0l35.3-15
	l0.7,0.8c1.9,2.2,3.9,4.6,6.1,7l-41.7,17.7l0,0L17.8,125.7z M28,133.5c-0.6-1.8,0.3-3.8,2-4.5l46.2-19.6c2.1,2.3,4.3,4.6,6.6,6.7
	l-38.4,16.4l-12.1,3.2C30.4,136.2,28.6,135.2,28,133.5L28,133.5z M98,132.7l-6.7,3.3c-0.2,0.1-0.5,0.2-0.7,0.3l-49.2,10.5h-0.2
	c-1.5,0.6-3.2-0.2-3.8-1.7c-0.6-1.5,0.2-3.2,1.7-3.8l7.2-3.1h0.2l0,0l41.2-17.7c1.4,1.1,2.7,2,4,2.9l3.3-5.1
	c-8.3-5.4-17.8-16.5-24.7-24.7c-1.2-1.4-2.2-2.6-3.3-3.8l-0.2-0.5h-0.2l-1.9-2.1c-0.7-0.7-1.3-1.4-2-2c5.2-3.8,8.7-6.9,11.1-8.9
	c1.3-1.2,2.6-2.3,4-3.3c1.1,0.9,2,1.8,2.9,2.9c1.5,1.7,3.4,3.8,5.4,6.3c7.2,8.4,17,20,26,25.8l0,0l3.3-5.1
	c-8.2-5.3-17.7-16.5-24.7-24.6c-2.1-2.5-4-4.7-5.6-6.4C83,69.2,80.9,67,78,67l0,0c-2.6,0-4.6,1.7-8.1,4.8c-4.5,4-9.2,7.8-14.2,11.2
	c-2.1,1.4-4.6,2.1-7.1,2c-3.2,0.1-6.4-1.1-8.8-3.2c-0.3-0.3-0.6-0.6-0.8-1c-1.1-1.8-0.4-4.2,1.4-5.2c0,0,0,0,0,0
	c2.7-1.6,17.4-11.4,26-22.1l0.4-0.5l0.3-0.3c4-4.6,6.8-5.1,8.6-5.1c3,0,6.3,1.6,10.1,3.5c3.3,1.8,6.8,3.2,10.4,4.4
	c3.4,1,6.9,1.5,10.4,1.5l0,0c7.1-0.2,14-2,20.3-5.2l17.3,35.7c-6,5.1-11.8,10.5-17.2,16.2L98,132.7z M152.2,89.3L133,50l-0.8-1.6
	l0,0l-2-4.2l20.2-9.9l22.1,45.1L152.2,89.3z"/>
</svg>
