<?xml version="1.0" encoding="utf-8"?>
<!-- Generator: Adobe Illustrator 24.1.2, SVG Export Plug-In . SVG Version: 6.00 Build 0)  -->
<svg version="1.1" id="Icons" xmlns="http://www.w3.org/2000/svg" xmlns:xlink="http://www.w3.org/1999/xlink" x="0px" y="0px"
	 viewBox="0 0 93.5 87.3" style="enable-background:new 0 0 93.5 87.3;" xml:space="preserve">
<style type="text/css">
	.st0{fill:#FFFFFF;}
</style>
<path class="st0" d="M26.5,58.9l3.8-6.6l4.2,2.1l-6.8-21.7L5.1,37.9l4.3,2.5L0,57.2v3.3l13.1,21.9h30.1l-0.3-23.7L26.5,58.9z
	 M13.1,76.5l-10-16.8V58l9.1-16.1l1.5-2.6l-0.3-0.2l12.3-2.9l3.9,12.3l-0.4-0.2L13.1,76.5z M14.9,79.4l9.9-17.4h1.8l13.3-0.2
	l0.3,17.7L14.9,79.4z"/>
<path class="st0" d="M78.7,32.3L58.3,44.3l8.3,14h-7.6l-0.2-4.7L43.2,70.4l15.7,16.9v-5h19.3l2.8-1.7l12.5-22.2L78.7,32.3z
	 M62.4,45.4l15.2-9l12.5,22H70l-0.9-1.5L62.4,45.4z M78.8,78.4l-1.4,0.8H58.8h-3v0.4l-8.6-9.3l8.8-9.4v0.4h32.3L78.8,78.4z"/>
<path class="st0" d="M47.1,24.1l4.1,6.4l-3.8,2.7l22.4,4.2l5.9-22.3l-4.2,2.7L61.1,1.5L58.2,0L32.8,1.2L18.6,27.7l21.1,10.8
	L47.1,24.1z M57.5,3.1L59,3.9l9.9,15.6l1.6,2.5l0.3-0.2L67.6,34l-12.7-2.4l0.3-0.2L38,4L57.5,3.1z M22.7,26.5L34.6,4.2l10.7,16.9
	l-0.8,1.6l-6.1,11.8L22.7,26.5z"/>
</svg>
