<?xml version="1.0" encoding="utf-8"?>
<!-- Generator: Adobe Illustrator 24.1.2, SVG Export Plug-In . SVG Version: 6.00 Build 0)  -->
<svg version="1.1" id="Icons" xmlns="http://www.w3.org/2000/svg" xmlns:xlink="http://www.w3.org/1999/xlink" x="0px" y="0px"
	 viewBox="0 0 74.7 74.8" style="enable-background:new 0 0 74.7 74.8;" xml:space="preserve">
<style type="text/css">
	.st0{fill:#FFFFFF;}
</style>
<path class="st0" d="M56.2,18.9l-16,16.3V21.8c0-0.8-0.7-1.5-1.5-1.5s-1.5,0.7-1.5,1.5v17l0,0c0,0.2,0,0.4,0.1,0.6l0,0
	c0.1,0.2,0.2,0.3,0.3,0.5l0,0c0.1,0.1,0.3,0.2,0.5,0.3l0,0c0.2,0.1,0.4,0.1,0.5,0.1c0.2,0,0.4,0,0.6-0.1l0,0
	c0.2-0.1,0.4-0.2,0.5-0.3l0,0L58.4,21c0.6-0.6,0.6-1.5,0.1-2.1S56.9,18.2,56.2,18.9C56.3,18.8,56.2,18.8,56.2,18.9L56.2,18.9z"/>
<path class="st0" d="M38.4,12.5c0.8,0,1.5-0.7,1.5-1.5V6.4c0-0.8-0.7-1.5-1.5-1.5s-1.5,0.7-1.5,1.5V11
	C36.9,11.9,37.5,12.5,38.4,12.5z"/>
<path class="st0" d="M23.4,10c-0.4-0.7-1.3-1-2.1-0.5c-0.7,0.4-1,1.3-0.5,2.1l0,0l2.4,4c0.5,0.7,1.4,0.9,2.1,0.4
	c0.6-0.4,0.8-1.2,0.5-1.9L23.4,10z"/>
<path class="st0" d="M15.5,23.1l-4.1-2.3c-0.7-0.4-1.6-0.2-2.1,0.5C8.9,22,9.2,23,9.9,23.4c0.1,0,0.1,0.1,0.2,0.1l4.1,2.3
	c0.2,0.1,0.5,0.2,0.7,0.2c0.5,0,1.1-0.3,1.3-0.8C16.5,24.4,16.3,23.5,15.5,23.1C15.5,23.1,15.5,23.1,15.5,23.1z"/>
<path class="st0" d="M13.2,36.9c0-0.8-0.7-1.5-1.5-1.5c0,0,0,0,0,0l0,0H7c-0.8,0-1.5,0.7-1.5,1.5c0,0,0,0,0,0c0,0.8,0.7,1.5,1.5,1.5
	l0,0h4.7C12.5,38.4,13.2,37.7,13.2,36.9z"/>
<path class="st0" d="M67.3,35.4L67.3,35.4h-4.7c-0.8,0-1.5,0.7-1.5,1.5s0.7,1.5,1.5,1.5l0,0h4.7c0.8,0,1.5-0.7,1.5-1.5
	S68.1,35.4,67.3,35.4L67.3,35.4z"/>
<path class="st0" d="M50.1,16.1c0.2,0.1,0.5,0.2,0.8,0.2c0.5,0,1-0.3,1.3-0.7l2.4-4c0.4-0.7,0.2-1.6-0.5-2.1
	C53.4,9.1,52.4,9.3,52,10c0,0,0,0,0,0l-2.4,4C49.2,14.7,49.4,15.7,50.1,16.1C50.1,16.1,50.1,16.1,50.1,16.1z"/>
<path class="st0" d="M60.6,25.9c0.3,0,0.5-0.1,0.7-0.2l4-2.3c0.7-0.4,1-1.3,0.5-2.1c-0.4-0.7-1.3-0.9-2-0.6l-4.1,2.3
	c-0.7,0.4-1,1.3-0.6,2C59.5,25.7,60,25.9,60.6,25.9L60.6,25.9z"/>
<path class="st0" d="M37.1,60.8c-0.8,0-1.5,0.7-1.5,1.5V67c0,0.8,0.7,1.5,1.5,1.5s1.5-0.7,1.5-1.5l0,0v-4.7
	C38.6,61.5,37.9,60.8,37.1,60.8z"/>
<path class="st0" d="M52.2,57.8c-0.4-0.7-1.3-1-2.1-0.5s-1,1.3-0.5,2.1l0,0l2.4,4c0.4,0.7,1.3,1,2,0.7c0.7-0.4,1-1.3,0.7-2
	c0-0.1-0.1-0.1-0.1-0.2L52.2,57.8z"/>
<path class="st0" d="M65.4,49.9l-4-2.3c-0.7-0.4-1.6-0.1-2,0.6s-0.1,1.6,0.6,2l4.1,2.2c0.7,0.4,1.6,0.2,2.1-0.5
	c0.4-0.7,0.2-1.6-0.5-2.1C65.5,49.9,65.4,49.9,65.4,49.9L65.4,49.9z"/>
<path class="st0" d="M25.3,57.3c-0.7-0.4-1.6-0.2-2,0.5l-2.4,4c-0.4,0.7-0.1,1.6,0.6,2c0.7,0.4,1.5,0.2,2-0.5l2.4-4
	C26.2,58.7,26,57.8,25.3,57.3C25.3,57.3,25.3,57.3,25.3,57.3z"/>
<path class="st0" d="M14.1,47.6L10,49.9c-0.7,0.4-1,1.3-0.6,2c0.3,0.5,0.8,0.8,1.3,0.8c0.3,0,0.5-0.1,0.7-0.2l4.1-2.2
	c0.7-0.4,1-1.3,0.6-2C15.7,47.5,14.8,47.2,14.1,47.6z"/>
<path class="st0" d="M74.7,37.3C74.7,16.7,57.9,0,37.3,0S0,16.8,0,37.4v0.1c0,20.6,16.8,37.3,37.4,37.3S74.7,58,74.7,37.3L74.7,37.3
	z M71.7,37.5c0,19-15.4,34.4-34.4,34.4S3,56.5,3,37.5l0,0c0,0,0-0.1,0-0.1c0-0.1,0-0.1,0-0.1l0,0C3,18.3,18.4,3,37.4,3
	s34.4,15.4,34.4,34.3l0,0c0,0,0,0.1,0,0.1C71.7,37.4,71.7,37.5,71.7,37.5z"/>
</svg>
