<?xml version="1.0" encoding="utf-8"?>
<!-- Generator: Adobe Illustrator 24.1.2, SVG Export Plug-In . SVG Version: 6.00 Build 0)  -->
<svg version="1.1" id="Icons" xmlns="http://www.w3.org/2000/svg" xmlns:xlink="http://www.w3.org/1999/xlink" x="0px" y="0px"
	 viewBox="0 0 180 155.7" style="enable-background:new 0 0 180 155.7;" xml:space="preserve">
<style type="text/css">
	.st0{fill:#FFFFFF;}
</style>
<g id="Group_436">
	<g id="Path_651">
		<path class="st0" d="M90,155.7L18.6,84.5c-0.9-0.9-1.8-1.7-2.7-2.5l-0.6-0.5C-3.8,64.1-5.2,34.4,12.2,15.3C21.1,5.6,33.7,0,46.9,0
			h0.2C65.8,0.1,82.7,11.4,90,28.6c10.1-23.8,37.7-34.9,61.5-24.8C168.8,11.2,180,28.2,180,47c0,13.2-5.6,25.7-15.4,34.5l-0.7,0.7
			c-0.8,0.8-1.7,1.5-2.5,2.4L90,155.7z M46.9,7.5C25.1,7.5,7.5,25.2,7.5,46.9c0,11,4.7,21.6,12.8,29l0.6,0.5c1,0.9,2,1.8,3,2.8
			L90,145.1l66.1-65.8c0.9-0.9,1.9-1.8,2.8-2.5l0.7-0.6c8.2-7.4,12.9-18,12.8-29.1c0-21.7-17.5-39.4-39.3-39.5S93.8,25.1,93.8,46.9
			v0.2h-7.5v-0.2c0-21.7-17.5-39.3-39.2-39.4H46.9z"/>
	</g>
</g>
</svg>
