<?xml version="1.0" encoding="utf-8"?>
<!-- Generator: Adobe Illustrator 24.1.2, SVG Export Plug-In . SVG Version: 6.00 Build 0)  -->
<svg version="1.1" id="Icons" xmlns="http://www.w3.org/2000/svg" xmlns:xlink="http://www.w3.org/1999/xlink" x="0px" y="0px"
	 viewBox="0 0 107.8 100.1" style="enable-background:new 0 0 107.8 100.1;" xml:space="preserve">
<style type="text/css">
	.st0{fill:#FFFFFF;}
</style>
<path class="st0" d="M69.6,30.2c0.6-0.7,0.9-1.5,0.9-2.4v-5.3c0-1.3-0.7-2.6-1.9-3.2l3-4.2c1.2-1.7,0.9-4.1-0.8-5.3
	c-0.1-0.1-0.2-0.2-0.4-0.2l-7.1-4l0.1-0.8c0-0.2,0-0.3,0-0.5c0-2.3-1.9-4.2-4.2-4.2H48.7c-0.2,0-0.3,0-0.5,0c-2.3,0.3-4,2.4-3.7,4.7
	l0.1,0.8l-7.1,4c-1.8,1-2.5,3.4-1.4,5.2c0.1,0.1,0.2,0.3,0.2,0.3l3,4.3c-1.2,0.7-1.9,1.9-1.9,3.2v5.3c0,1.3,0.7,2.5,1.8,3.2
	c-4,7.5-20,38.2-20,48c0,11.6,15.6,21,34.7,21s34.7-9.4,34.7-21C88.6,70.8,72.3,36.1,69.6,30.2z M62.9,8.8l5.9,3.3l0.1,0
	c0.2,0.1,0.3,0.3,0.3,0.5c0,0.2,0,0.5-0.2,0.6l-3.9,5.5h-1.4l-0.2-0.2l-0.2,0.2h-1.5L62.9,8.8z M67.4,22.6v5.3
	c0,0.4-0.3,0.7-0.7,0.7h-8.8l6.5-6.5l2.1,0.1l0.3-0.4C67.2,21.8,67.5,22.2,67.4,22.6L67.4,22.6z M53.6,28.6h-6.2l6.8-6.8h6.3
	L53.6,28.6z M48.5,3h10.6c0.7,0,1.2,0.6,1.2,1.2c0,0,0,0,0,0v0.1l-1.4,14.5h-4.6l-0.4-0.2l-0.4,0.2h-0.2l-0.2-0.2l-0.2,0.2h-4
	l-0.1-1.2L47.4,4.4C47.4,3.7,47.9,3.1,48.5,3L48.5,3z M47.5,21.8h2.4l-6.8,6.8h-2c-0.4,0-0.7-0.3-0.7-0.7v-5.3
	c0-0.4,0.3-0.7,0.7-0.7l0.2,0.3L47.5,21.8z M38.7,13.3l-0.1-0.1c-0.1-0.2-0.1-0.4-0.1-0.6c0.1-0.2,0.2-0.4,0.4-0.5l6-3.3l1,10.1
	h-3.3L38.7,13.3z M53.9,97.1c-17.5,0-31.7-8.1-31.7-18c0-9.5,17.2-42,20.1-47.5H44l0.2,0.2l0.2-0.2h10.1l0.2,0.2l0.2-0.2h12
	c5.6,11.8,18.7,40.9,18.7,47.5C85.6,89.1,71.4,97.1,53.9,97.1z"/>
<path class="st0" d="M56.4,59.6v-6.5c1.9,0.5,3.7,1.4,5.3,2.5l2.9-5c-2.3-1.7-5.1-2.7-7.9-3.1V45h-4.4v2.5c-5.4,0.6-9,3.7-9,8.3v0.1
	c0,5.1,3,7.4,9.2,9v6.8c-2.5-0.6-4.9-1.8-6.9-3.4l-3.3,4.9c3,2.2,6.4,3.6,10.1,4v4.3h4.4v-4.2c5.4-0.6,9-3.6,9-8.4v-0.1
	C65.7,64,62.9,61.4,56.4,59.6z M52.4,58.6L52.4,58.6c-2.3-0.8-2.9-1.7-2.9-3.1v-0.1c0-1.4,0.8-2.4,2.9-2.6V58.6z M59.4,69.2
	c0,1.5-1,2.4-3,2.7v-6l0,0c2.3,0.8,3,1.8,3,3.2V69.2z"/>
</svg>
