<?xml version="1.0" encoding="utf-8"?>
<!-- Generator: Adobe Illustrator 24.1.2, SVG Export Plug-In . SVG Version: 6.00 Build 0)  -->
<svg version="1.1" id="Icons" xmlns="http://www.w3.org/2000/svg" xmlns:xlink="http://www.w3.org/1999/xlink" x="0px" y="0px"
	 viewBox="0 0 84.1 80.8" style="enable-background:new 0 0 84.1 80.8;" xml:space="preserve">
<style type="text/css">
	.st0{fill:#FFFFFF;}
</style>
<path class="st0" d="M56.3,26.4c-0.2-5.5-4.8-9.8-10.3-9.6c-5.2,0.2-9.5,4.4-9.6,9.6l-0.1,4.2h3l0.1-4.2c0-3.8,3.1-7,6.9-7
	c3.8,0,7,3.1,7,6.9c0,3.8-3.1,7-6.9,7c0,0,0,0,0,0H0v3h46.3C51.8,36.3,56.2,31.9,56.3,26.4z"/>
<rect x="0.3" y="50" class="st0" width="83.7" height="3"/>
<path class="st0" d="M71.8,33.5c3.9-14.1-4.4-28.7-18.5-32.5S24.6,5.4,20.7,19.5c-0.6,2.2-0.9,4.5-0.9,6.9v4.3h3v-4.3
	c0-13,10.5-23.5,23.5-23.5s23.5,10.5,23.5,23.5c0,2.8-0.5,5.5-1.4,8.1l-0.7,2h16.6v-3L71.8,33.5z"/>
<rect x="36.5" y="55.6" class="st0" width="3" height="25.1"/>
<rect x="19.8" y="55.8" class="st0" width="3" height="25"/>
<rect x="28.2" y="55.8" class="st0" width="3" height="8.3"/>
<rect x="28.2" y="69.7" class="st0" width="3" height="8.3"/>
<rect x="0.4" y="41.7" class="st0" width="8.3" height="3"/>
<rect x="14.3" y="41.7" class="st0" width="8.3" height="3"/>
<rect x="28.2" y="41.7" class="st0" width="8.3" height="3"/>
<rect x="42.2" y="41.7" class="st0" width="8.3" height="3"/>
<rect x="61.8" y="41.7" class="st0" width="8.3" height="3"/>
<rect x="75.7" y="41.7" class="st0" width="8.3" height="3"/>
<path class="st0" d="M54.9,39.1l1.7,2.5c2.6-1.8,4.8-4.3,6.1-7.2L60,33C58.9,35.4,57.1,37.5,54.9,39.1z"/>
<path class="st0" d="M32.4,14.4c-2.1,2.5-3.6,5.4-4.2,8.7l3,0.6c0.5-2.7,1.7-5.2,3.5-7.2L32.4,14.4z"/>
<path class="st0" d="M46.2,11.1v-3l0,0c-3.2,0-6.4,0.8-9.1,2.4l1.5,2.6C40.9,11.9,43.5,11.2,46.2,11.1L46.2,11.1z"/>
<path class="st0" d="M60.4,20.6c1,2.4,1.3,5,1,7.6l3,0.3c0.4-3.1-0.1-6.2-1.2-9.1L60.4,20.6z"/>
<path class="st0" d="M52.2,9.1l-1,2.8c2.5,0.9,4.8,2.4,6.5,4.4l2.2-2C57.9,12,55.2,10.2,52.2,9.1z"/>
</svg>
