<?xml version="1.0" encoding="utf-8"?>
<!-- Generator: Adobe Illustrator 24.1.2, SVG Export Plug-In . SVG Version: 6.00 Build 0)  -->
<svg version="1.1" id="Icons" xmlns="http://www.w3.org/2000/svg" xmlns:xlink="http://www.w3.org/1999/xlink" x="0px" y="0px"
	 viewBox="0 0 76.2 91" style="enable-background:new 0 0 76.2 91;" xml:space="preserve">
<style type="text/css">
	.st0{fill:#FFFFFF;}
</style>
<path class="st0" d="M67.5,36.5c0.7,2.5,1.1,5.1,1.1,7.8c0,12.7-5.8,43.8-16.5,43.8c-8.2,0-11-1.6-12.9-2.6c-2-1.5-4.7-1.5-6.7,0
	c-1.9,1-4.8,2.6-12.9,2.6C8.8,88.1,3,57,3,44.3c0-14.5,8.4-19.6,15.6-19.6c4.2-0.2,8.4,0.6,12.3,2.1c1.5,0.7,3.1,1.1,4.8,1.2v-3
	c-1.3-0.1-2.5-0.4-3.7-1c-2.6-1-6.2-2.4-13.4-2.4C7.5,21.6,0,30.7,0,44.2C0,54.1,4.9,91,19.5,91c8.9,0,12.2-1.8,14.4-3
	c0.6-0.4,1.2-0.7,1.9-0.8c0.7,0.1,1.4,0.3,1.9,0.8c2.2,1.2,5.4,3,14.4,3c14.6,0,19.5-36.9,19.5-46.8c0-2.9-0.4-5.8-1.2-8.6
	L67.5,36.5z"/>
<path class="st0" d="M34.3,18.5h3C37.3,8.3,29,0,18.7,0c0,0,0,0,0,0v3C27.3,3,34.3,9.9,34.3,18.5C34.3,18.5,34.3,18.5,34.3,18.5z"/>
<path class="st0" d="M75.5,12c-10.2-6.8-24-4.1-30.8,6.1c-2.2,3.3-3.4,7-3.7,10.9L41,29.9l0.7,0.5c10.2,6.8,24,4,30.8-6.2
	c2.2-3.2,3.4-7,3.7-10.9v-0.9L75.5,12z M70,22.6c-5.7,8.5-17.1,11.1-25.9,5.8c0.3-3.1,1.4-6,3.1-8.6c5.7-8.5,17.1-11.1,25.9-5.8
	C72.8,17.1,71.7,20,70,22.6z"/>
</svg>
