<?xml version="1.0" encoding="utf-8"?>
<!-- Generator: Adobe Illustrator 24.1.2, SVG Export Plug-In . SVG Version: 6.00 Build 0)  -->
<svg version="1.1" id="Icons" xmlns="http://www.w3.org/2000/svg" xmlns:xlink="http://www.w3.org/1999/xlink" x="0px" y="0px"
	 viewBox="0 0 124.2 78.8" style="enable-background:new 0 0 124.2 78.8;" xml:space="preserve">
<style type="text/css">
	.st0{fill:#FFFFFF;}
</style>
<path class="st0" d="M122.8,0H1.5C0.7,0,0,0.7,0,1.5v13.2c0,0.8,0.7,1.5,1.5,1.5h21.9v23.5c-0.2,21.4,17,38.9,38.4,39.1
	s38.9-17,39.1-38.4c0,0,0-0.1,0-0.2v-0.6l0,0V16.2h7.7v33.9l-8.4,8.4c-0.6,0.6-0.6,1.5,0,2.1c0.3,0.3,0.7,0.4,1.1,0.4
	c0.4,0,0.8-0.2,1.1-0.4l7.8-7.8l7.5,7.5c0.6,0.6,1.6,0.5,2.1-0.1c0.5-0.6,0.5-1.5,0-2l-8.1-8.1V16.2h11.1c0.8,0,1.5-0.7,1.5-1.5V1.5
	C124.2,0.7,123.6,0,122.8,0z M62.1,75.4c-18.7,0-34.2-14.4-35.6-33c1.3,0.1,2.6-0.6,3.8-2c6-7.3,16.8-8.3,24.1-2.3
	c4,3.3,6.2,8.1,6.2,13.2c0,0.8,0.7,1.5,1.5,1.5s1.5-0.7,1.5-1.5c0-9.5,7.7-17.1,17.1-17.1c0,0,0,0,0,0l0,0c5.3,0,10.4,2.5,13.6,6.7
	c0.7,1.2,2,1.9,3.3,2.1C96,61.4,80.6,75.4,62.1,75.4z M97.9,39.8C97.9,39.8,97.9,39.8,97.9,39.8c0,0.2-0.1,0.2-0.2,0.2
	s-0.3-0.1-1-0.9c-3.8-5-9.7-7.9-16-7.9l0,0c-8.2,0-15.5,4.9-18.6,12.5c-4.2-10.3-16-15.2-26.3-11C32.8,34,30.1,36,28,38.5
	c-0.6,0.8-1.1,0.9-1.2,0.9c-0.2,0-0.3-0.1-0.4-0.3v-23h71.5V39.8z M99.4,13.2H3V3h105.6v10.2H99.4z M121.3,13.2h-9.6V3h9.6V13.2z"/>
</svg>
