<?xml version="1.0" encoding="utf-8"?>
<!-- Generator: Adobe Illustrator 24.1.0, SVG Export Plug-In . SVG Version: 6.00 Build 0)  -->
<svg version="1.1" id="Layer_1" xmlns="http://www.w3.org/2000/svg" xmlns:xlink="http://www.w3.org/1999/xlink" x="0px" y="0px"
	 viewBox="0 0 484.9420166 112.3103104" style="enable-background:new 0 0 484.9420166 112.3103104;" xml:space="preserve">
<style type="text/css">
	.st0{fill:#E2231A;}
	.st1{fill:#FFFFFF;}
	.st2{fill:#E1251B;}
	.st3{fill:#0E2D72;}
</style>
<g>
	<g>
		<g>
			<path class="st0" d="M475.7086182,1.5865345L64.3291473,0.000104
				c-8.1860085-0.0303823-18.1955528,6.5995607-22.2435226,14.7355833L1.7102519,95.8754883
				c-4.0469513,8.1350479-0.6624306,14.8179016,7.5226192,14.8482742l411.3793945,1.586441
				c8.1860046,0.0303802,18.1955566-6.599556,22.2445374-14.7355804l40.3742981-81.1398163
				C487.2791443,8.2997751,483.8945007,1.6179036,475.7086182,1.5865345"/>
		</g>
		<path class="st1" d="M367.5246582,79.0785065l10.1408691-21.041172
			c5.7588806-10.554409,7.1042175-17.2744827-9.7243652-17.4969215
			c-15.1540833-0.2165642-24.5639038,5.5226631-29.5750732,14.3318672h15.3538513c0,0,0.867218-0.9789047,1.3914795-1.4796295
			c0.6643677-0.634964,1.5139771-1.2140846,2.3585815-1.5550919c0.8123169-0.3282547,1.680481-0.5212975,2.5604858-0.5810623
			c0.828949-0.0548744,1.7843323-0.0431213,2.5848999,0.2390823c0.3733215,0.1322937,0.7271423,0.3645287,0.9299011,0.7074814
			c0.2626648,0.4448776,0.2273865,1.0034103,0.067688,1.4835587c-0.5154114,1.5531197-2.0695801,2.670208-3.6432495,3.0366783
			c-0.9945984,0.2312469-2.0107117,0.2871094-3.0268555,0.3478584c-2.0960388,0.1234741-4.1860657,0.3370934-6.2546997,0.6653481
			c-2.0832214,0.3311996-4.1468201,0.7790108-6.1634216,1.3787003c-1.9999695,0.5948029-3.9538879,1.3385429-5.8147583,2.2655182
			c-1.8509216,0.9220734-3.6079712,2.0264053-5.210083,3.3267136c-0.8574219,0.696701-1.6687622,1.4473038-2.426178,2.2527847
			c-3.7098694,3.9371872-9.3970947,12.8267593-3.355072,17.5125885c0.3291626,0.2547684,0.6799927,0.4830856,1.042572,0.6878815
			c1.5687561,0.886795,3.3952637,1.2131042,5.1581726,1.2209396c5.4294739,0,10.9286499-1.0337753,17.3332214-5.1159973
			c0.0196228-0.018631,0.0196228,0.0039215,0.0137634,0.0440903c0.1342163,0.429184,1.3257141,3.859787,4.975769,3.859787
			c0,0,8.3467712,0,8.3477173-0.0019608l3.0808411-0.0039139C367.6707153,85.1636353,366.2723999,82.3160629,367.5246582,79.0785065
			 M359.1055298,65.5560226c-3.1259155,5.9626389-7.293457,9.6891556-12.7062988,9.5284653
			c-1.6766357-0.0607681-4.2380981-0.7221756-3.6266174-3.0043564c0.8730774-3.2542114,5.6098633-4.7583466,8.4829102-5.2669067
			l7.9126587-1.397316C359.1485901,65.4609833,359.131958,65.5031204,359.1055298,65.5560226"/>
		<path class="st1" d="M390.5777893,92.7747192h0.1714172c0.1068115,0,0.2117004-0.0107651,0.3174438-0.0117493
			c-2.9406128-0.0568314-7.2197571-0.483078-9.5020142-1.2425079
			C383.9732056,92.3220215,387.6429138,92.7570953,390.5777893,92.7747192"/>
		<path class="st1" d="M428.296875,50.3428307c-0.2470093-7.2874413-6.0097351-9.8763084-13.6891785-10.0575867
			c-0.2419739,0.0029449-0.4850464,0.0127373-0.7270203,0.0205727c-0.1842041-0.0078354-0.3743896-0.0107803-0.5614624-0.016655
			c-12.3916931,0.1930428-24.8549194,6.4457207-32.8723755,21.6016769
			c-7.9616089,14.9962387-2.4399109,24.0974503,9.4833374,24.4952927c0.2116089-0.0049057,0.4223633-0.0088196,0.6349182-0.016655
			c0.2107849,0.0107803,0.4272766,0.01371,0.6418762,0.0205765c10.389801-0.1440506,22.148468-5.1826401,30.5500183-18.6923752
			h-0.980835h-0.4517822h-0.980835h-11.8086853h-0.9808655h-0.159668c-2.3096619,3.5628662-5.4883423,6.6593246-9.4216309,6.6593246
			c-4.4918213-0.0891724-4.3027039-4.559433-0.661499-11.435318c2.8358459-5.3237419,5.8587646-10.3211861,11.5480347-10.5877075
			c1.6521301-0.1254311,2.9916077,0.4409485,3.5404053,1.4864922c0.6554871,0.9985046,0.6986694,2.5143929,0.25177,4.1184807
			l13.9320984,0.0431099c0,0,0.0009766-0.0019608,0.0009766-0.0029335l1.4316711,0.0039177
			c0.943512-2.9426155,1.3433838-5.4423103,1.2865906-7.5510406
			C428.2046509,50.4584656,428.2204285,50.417305,428.296875,50.3428307"/>
		<path class="st2" d="M182.9061432,68.0363235l-0.0225525-0.0029297v0.0039139
			C182.8904114,68.0373077,182.8982544,68.0363235,182.9061432,68.0363235"/>
		<path class="st2" d="M268.6896057,45.475914c0.1459045,0.3645287,0.2840881,0.7417793,0.4085999,1.1386337l0.5790405-1.1386337
			H268.6896057z"/>
		<path class="st3" d="M100.1791077,38.8501854h-8.2301483H91.000473l-6.1419601,12.2016029h0.9495087h6.992485
			c3.5403214-0.0548706,5.5109253-0.3811836,7.1639481-1.381649c0.990715-0.5987206,1.8676758-1.4404373,2.8995438-2.6114006
			c1.687355-1.9901619,2.7025299-4.6495857,1.7294617-6.3947639
			C103.9918518,39.5821724,102.62883,38.8501854,100.1791077,38.8501854"/>
		<path class="st3" d="M129.3633728,72.0803299c-0.6124268,2.2821732,1.9489594,2.9436035,3.6265717,3.0033646
			c5.4128876,0.1607056,9.5803528-3.5648422,12.705246-9.5274658c0.0264435-0.0529099,0.0440826-0.095047,0.0626831-0.1401291
			l-7.9126282,1.3973236C134.9722595,67.321991,130.2364502,68.8261185,129.3633728,72.0803299"/>
		<path class="st3" d="M247.7865448,52.9313087c-0.4292908-1.3737984-1.8421936-2.0107231-3.6658478-1.9538918
			c-3.3962555,0.1048431-7.3981018,3.1170311-10.9384918,7.042469l14.3328094-0.0225334
			C248.508667,55.4251404,248.1676483,53.9709778,247.7865448,52.9313087"/>
		<path class="st3" d="M342.7727356,72.0803299c-0.6114807,2.2821732,1.9499817,2.9436035,3.6264954,3.0033646
			c5.4129639,0.1607056,9.5803833-3.5648422,12.7062988-9.5274658c0.0264282-0.0529099,0.0430603-0.095047,0.0626526-0.1401291
			l-7.9125671,1.3973236C348.3825989,67.321991,343.645813,68.8261185,342.7727356,72.0803299"/>
		<polygon class="st1" points="313.5147705,39.1056404 320.6796265,25.9055462 304.098999,25.9055462 271.0198364,26.0446892 
			263.9607239,39.1056404 280.0592957,39.1056404 256.6056824,85.2486801 274.7542114,85.2486801 298.3538818,39.1056404 		"/>
		<path class="st1" d="M106.3937302,57.5189667c5.2806091-1.398304,10.6749039-4.2625122,14.5935059-8.5113144
			c1.465889-1.5903664,2.7319031-3.367897,3.6990509-5.3443336c0.8221207-1.6903,1.3542252-3.3012505,1.6079941-4.813221
			c1.120018-6.6779404-3.3208237-11.4176731-13.3735504-12.5445576c-1.51194-0.1685371-3.1424789-0.2606411-4.9082413-0.2606411
			H78.9038773L48.4792557,85.2488708h19.4077301l11.0884171-21.0127487h6.7543945
			c2.6956482,0.2126312,6.7347641,1.3992767,4.140007,6.9238968l-5.2404099,10.1987076h-0.001976
			c0,0-0.0225525,0.0431061-0.051918,0.1038513c-0.290062,0.5957794-1.672699,3.7549438,1.6353836,3.7549438h15.3343506
			l0.0009613-0.0019608l0.5095596-0.0009689l2.5722122-0.0019608c0,0-1.5962677-1.6031036-0.1714706-4.5466919l3.8186035-7.2374649
			l0.2782898-0.525238C114.3308182,61.7599335,110.5396042,59.8511086,106.3937302,57.5189667 M102.8641739,47.0586357
			c-1.0318604,1.1709747-1.9088821,2.0126953-2.8995361,2.6114159c-1.6530914,1.0014496-3.6236343,1.3267746-7.1649704,1.381649
			h-6.9914627H84.858696l6.1418915-12.2016029h0.9475937h8.2310486c2.4497223,0,3.8117828,0.731987,4.4144058,1.8137894
			C105.5667114,42.4090614,104.5515289,45.0684891,102.8641739,47.0586357"/>
		<path class="st1" d="M341.4789734,40.5362854c-1.5541687-0.2518196-11.324585-1.4933395-19.3901367,2.9827919
			c-0.2321777,0.3174896,1.3757935-2.8407021,1.3757935-2.8407021h-15.287323l-21.875061,44.5703049h16.2240601
			c0,0,10.8631287-23.3351021,13.462738-26.5050468c4.4202576-5.3913536,6.731842-6.1899643,19.3430176-6.1899643
			L341.4789734,40.5362854z"/>
		<path class="st1" d="M212.6703033,58.3111038c6.7680817-12.4612579-3.3356018-17.675251-11.8527527-17.675251
			c-12.6102295,0.0009842-25.5016632,6.3212738-33.6533508,21.5134888
			c-8.1036987,15.0226936-2.1773529,24.0249519,10.1516571,24.1043205
			c12.8698425,0.0832977,23.5085144-4.6946564,31.223175-18.3945007h-15.4038544
			c-2.3095856,3.5030975-6.3006897,6.5476303-10.2799835,6.5476303c-4.4693146-0.0872192-5.0954437-3.6353989-1.4659576-10.396637
			c2.8417053-5.2326088,8.2947998-11.127636,13.2471161-11.2569847c1.6315613-0.0421333,2.9789124,0.4341011,3.5344696,1.4610138
			c0.5948334,0.9828377,0.6781006,2.4732437,0.2214661,4.0498962L212.6703033,58.3111038z"/>
		<path class="st1" d="M164.2552795,58.0373344c5.7588196-10.554409,7.1051636-17.2744827-9.7234955-17.4969215
			c-15.1549835-0.2165642-24.5648346,5.5226631-29.5789337,14.4200668h15.3539124c0,0,0.8701324-1.0671043,1.3943481-1.5678291
			c0.6653595-0.634964,1.5139771-1.2140846,2.3586426-1.5550919c0.8123016-0.3282547,1.681488-0.5212975,2.5613861-0.5810623
			c0.8280334-0.0548744,1.7844238-0.0431213,2.5839996,0.2390823c0.3733215,0.1322937,0.7280273,0.3645287,0.9298859,0.7074814
			c0.262619,0.4448776,0.2273254,1.0034103,0.0686035,1.4835587c-0.5154266,1.5531197-2.0704956,2.670208-3.6442108,3.0366783
			c-0.9935913,0.2312469-2.0107422,0.2871094-3.0259094,0.3478584c-2.0969238,0.1234741-4.1860657,0.3370934-6.2546387,0.6653481
			c-2.0841827,0.3311996-4.1478424,0.7790108-6.164444,1.3787003c-1.9999695,0.5948029-3.9538879,1.3385429-5.8146896,2.2655182
			c-1.850029,0.9220734-3.6079636,2.0264053-5.2090759,3.3267136c-0.857399,0.696701-1.6697693,1.4473038-2.4262161,2.2527847
			c-3.709877,3.9371872-9.3981323,12.8267593-3.3561172,17.5125885c0.3302002,0.2547684,0.6809692,0.4830856,1.042572,0.6878815
			c1.5688171,0.886795,3.3953476,1.2131042,5.1581802,1.2209396c5.4295273,0,10.9296875-1.0337753,17.3332367-5.1159973
			c0.0196228-0.018631,0.0205841,0.0039215,0.0137634,0.0440903c0.1351624,0.429184,1.3267059,3.859787,4.9758148,3.859787
			c0,0,8.3467102,0,8.3477325-0.0019608l3.0817108-0.0039139c0,0-1.3992615-2.8475723-0.1469421-6.0851288L164.2552795,58.0373344z
			 M145.6951904,65.5560226c-3.1248932,5.9626389-7.2923584,9.6891556-12.705246,9.5284653
			c-1.6776123-0.0607681-4.2390594-0.7221756-3.6266327-3.0043564c0.8731384-3.2542114,5.6088867-4.7583466,8.4819336-5.2669067
			l7.9126282-1.397316C145.7392731,65.4609833,145.7216339,65.5031204,145.6951904,65.5560226"/>
		<path class="st1" d="M231.4035339,74.4063873c-3.9097595-0.0764313-4.8779297-2.8005295-2.6290283-8.0076599h28.7646484
			l4.3006592-8.4152946h-0.0372009c5.5854492-12.1849327-4.3330688-17.3479691-12.4358215-17.3479691
			c-12.6111908,0.0009727-25.5015564,6.3212585-33.6542969,21.5134735
			c-8.103714,15.0227089-2.1772461,24.0249519,10.1516418,24.1043205
			c12.8699036,0.0832977,23.5086365-4.6946564,30.1444092-16.7424011h-15.4049072
			C239.3738708,71.3628464,235.382782,74.4063873,231.4035339,74.4063873 M244.120575,50.977211
			c1.8235321-0.0568352,3.236557,0.5801048,3.6657257,1.9539032c0.3811035,1.039669,0.7230835,2.4938164-0.2714081,5.0660286
			l-14.3329163,0.0225487C236.7223511,54.0952263,240.7242126,51.0820694,244.120575,50.977211"/>
		<path class="st3" d="M433.6826782,42.635807c-2.3811951-4.392849-9.5118408-8.6436081-20.5933838-8.7347412h-0.1607666
			c-9.6116943,0-18.4601135,3.1346588-25.8425598,8.8983765c-0.2009583-0.4899445-0.4272766-0.976944-0.7065735-1.4551392
			c-3.6187134-6.1899681-11.7106934-7.0846024-18.3474426-7.171814c-7.0052795-0.1097488-12.770874,0.9367828-17.51651,2.6829453
			l0.6202087-1.2121239l-8.6425781-1.3953743c-1.385498-0.2234116-6.4917603-0.9034576-12.5886841,0.0607643h-6.5378418
			l8.01651-14.7718563h-27.3125l-36.8565369,0.1548271l-8.7817993,16.2456074
			c-3.0435181-1.1690178-6.255661-1.6697426-9.0630341-1.6697426h-0.00383c-10.9924316,0-21.0108185,4.0567474-28.9871521,11.436306
			c-0.3440094-0.9553986-0.7575226-1.8108444-1.2003326-2.5535965c-3.8961182-6.5495949-12.0379944-8.8827095-18.3572693-8.8827095
			h-0.0029297c-10.0007629,0-19.1950684,3.3590736-26.780426,9.5186577
			c-0.2528076-0.8270187-0.600647-1.6432762-1.0680389-2.4418907c-3.6187897-6.1899681-11.7097015-7.0846024-18.3465118-7.171814
			c-9.3442383-0.1499252-16.470993,1.754982-21.9132538,4.6427231c0.4507141-4.1478767-0.525238-7.9665108-2.8877563-11.095293
			c-3.2444534-4.2987862-8.6935959-6.9043102-16.1916962-7.7430992c-1.7873535-0.199894-3.6765594-0.3018055-5.6177444-0.3018055
			H75.0154114L38.0451355,91.6175766h33.6827698L82.815361,70.6067734h0.1783447l-4.0371399,7.852829l-0.1107635,0.2224426
			c-1.5756378,3.2453918-1.5590057,6.5740814,0.044136,9.1345291c1.5002213,2.3968048,4.1684189,3.7715912,7.3207703,3.7715912
			l27.8013916-0.0244904c1.9480591,0.7770538,4.1194992,1.1778259,6.4976959,1.1876297
			c5.7587662,0,10.7836914-1.0494614,15.7183685-3.3375092c1.7795258,1.2924728,4.0009003,2.1253891,6.6035004,2.1253891
			l7.0473785-0.0009842c0.3537598,0,0.8044739-0.0009766,1.3091431-0.0362625v0.0343018l3.0807495-0.0039215l17.0550232,0.4262543
			c1.848053,0.4223328,3.837265,0.65065,5.951828,0.6653442c0.1224823,0.0009842,0.2420349,0.0009842,0.3635712,0.0009842
			c11.979126,0,21.5820465-3.8313675,29.0889282-11.6136627c0.3821716,1.0367279,0.8319244,1.9627304,1.3131409,2.7740631
			c3.3452911,5.64711,9.659668,8.7856979,17.7820435,8.8386154c0.1204529,0.0009842,0.2351532,0.0009842,0.3536987,0.0009842
			c8.7376709-0.0009842,16.3533478-2.0940323,22.6492004-6.1302032l-2.6035614,5.122879h29.8602295h2.5682678h27.9346313
			l1.7148132-3.6814499c3.3061523-7.1022491,7.2022705-15.1324539,9.8460388-20.2298355l-0.0158081,0.0989685
			c0,0,1.7844238-3.7333832,7.4089966-5.4922829l-2.8211365,5.0258522
			c-2.2008057,3.3669052-4.3525696,7.9821854-3.9724426,12.8404846c0.2929382,3.756897,2.0460205,6.98172,5.0738525,9.3305206
			c0.554657,0.4282074,1.1612244,0.8299637,1.8040466,1.196434c2.3772278,1.3434372,5.1580505,2.0323029,8.2947388,2.0450363
			c5.7587585,0,10.7846375-1.0494614,15.7184448-3.3375092c1.7804565,1.2924728,4.0018311,2.1253891,6.6044312,2.1253891
			l25.3223572-0.0186157c2.2821655,0.759407,6.5622253,1.1856613,9.5019226,1.2424927
			c0.1636047,0.0039139,0.3390808,0.0107803,0.4919739,0.0117645h0.1713867
			c14.5641479-0.0009842,27.8298645-7.9067307,36.415741-21.7133942c0,0,3.7990112-5.5716476,6.0233765-12.2378502
			c0.0028687-0.0019569,0.0107727-0.0068474,0.0126648-0.0088043c3.0259094-7.9625969,1.125946-13.3647308-0.4830017-16.0878525
			L433.6826782,42.635807z M108.5531464,72.9036255l-0.2773285,0.5252151l-3.8195572,7.2365036
			c-1.4248047,2.9435883,0.171463,4.5466919,0.171463,4.5466919l-2.5722122,0.0029297l-0.5085449,0.0009842l-0.0010147,0.0019608
			H86.2107086c-3.3081436,0-1.9255142-3.1601562-1.6354446-3.7549438c0.0303802-0.0617371,0.0519104-0.1048431,0.0519104-0.1048431
			h0.001976l5.2414322-10.1987c2.5937424-5.5236359-1.4453735-6.7102814-4.1410294-6.9229279h-6.7543869L67.8867493,85.248291
			H48.4790154l30.4246178-59.2039909h29.1086121c1.7657623,0,3.3963013,0.093092,4.9083023,0.2616291
			c10.053627,1.1258965,14.493515,5.8656292,13.373497,12.5445576c-0.2528076,1.5119705-0.7848587,3.121933-1.6079941,4.813221
			c-0.9661331,1.9754524-2.2321472,3.753952-3.6990509,5.3443184c-3.918602,4.2488022-9.3118896,7.1130219-14.5935059,8.5103416
			C110.5394211,59.8505135,114.330574,61.7593346,108.5531464,72.9036255 M154.2611084,85.1630325l-3.0817261,0.0039215
			c-0.0010071,0.0019608-8.3477173,0.0019608-8.3477173,0.0019608c-3.6491089,0-4.8406677-3.4305878-4.9758911-3.8588181
			c0.0068817-0.0401688,0.0059204-0.0636749-0.0127411-0.0440903c-6.4045715,4.082222-11.9046707,5.1150284-17.334259,5.1150284
			c-1.7627716-0.0068512-3.5893021-0.3331604-5.1581192-1.2209473c-0.3615952-0.2047958-0.7123642-0.4321213-1.0426254-0.6878738
			c-6.041954-4.684845-0.3527451-13.5744171,3.3561707-17.5125961c0.7564468-0.8044891,1.5687561-1.5560608,2.4261627-2.2527618
			c1.6011734-1.3003235,3.3591003-2.4046593,5.209137-3.3257599c1.8607941-0.927948,3.8147125-1.6707153,5.814621-2.2664757
			c2.0166626-0.5987167,4.0802765-1.0465279,6.164505-1.3787155c2.0695343-0.3282547,4.1586761-0.5418739,6.2546387-0.6653481
			c1.0151825-0.059761,2.0323334-0.1165924,3.0259094-0.3468704c1.5746765-0.3664856,3.1287842-1.4845314,3.6442108-3.0376625
			c0.1587372-0.4791679,0.1940155-1.0376968-0.0675812-1.4825745c-0.2028656-0.3429527-0.5575867-0.5751877-0.9309082-0.7074814
			c-0.7996368-0.2822037-1.7559509-0.2949409-2.5829773-0.2390976c-0.8809662,0.0588074-1.7500916,0.2528229-2.5624695,0.5810776
			c-0.8446655,0.340023-1.6932068,0.9201279-2.3585663,1.5541039c-0.5242157,0.5007248-1.3943634,1.5688019-1.3943634,1.5688019
			h-15.3539047c5.0141068-8.8973885,14.4239578-14.6366158,29.5789413-14.4210396
			c16.8296051,0.2234116,15.4832611,6.9425316,9.7244415,17.4979095L154.114151,79.0779114
			C152.862793,82.316452,154.2611084,85.1630325,154.2611084,85.1630325 M198.170929,54.2141838
			c-0.555542-1.0279007-1.9028931-1.5031471-3.5344543-1.4610138c-4.9523163,0.1293488-10.4064331,6.0243607-13.2471161,11.2569695
			c-3.6294861,6.7612534-3.0033722,10.309433,1.4659424,10.396637c3.9793091,0,7.9703979-3.0445175,10.2799988-6.5476151h15.4038391
			c-7.7146606,13.6998444-18.3533173,18.4777832-31.2231598,18.3945007
			c-12.32901-0.0793839-18.2553711-9.0816269-10.1526642-24.1043205
			c8.1526794-15.1922302,21.0441284-21.5125198,33.6543579-21.5134888c8.5171509,0,18.6208344,5.2139931,11.8527527,17.675251
			l-14.2780151-0.047039C198.8480835,56.6874275,198.7647705,55.1970215,198.170929,54.2141838 M182.9062653,68.0365143
			c-0.0079041,0-0.0157318,0.0009766-0.0235596,0.0009766v-0.0039215L182.9062653,68.0365143z M225.8646088,86.2536621
			c-12.32901-0.0793839-18.2553558-9.0816269-10.1527252-24.1043205
			c8.153717-15.1922302,21.0442047-21.5125198,33.6544189-21.5134888c8.1037292,0,18.0221252,5.1620522,12.4367981,17.3479691
			h0.0372009l-4.3007812,8.4152946h-28.765625c-2.2479248,5.2061615-1.2797546,7.9312363,2.6299896,8.0076599
			c3.9793701,0,7.970459-3.0445175,9.2002258-4.8955154h15.4038544
			C249.3731232,81.5590057,238.7345276,86.3369446,225.8646088,86.2536621 M274.7542114,85.248291h-18.1485291
			l23.4537354-46.1430397h-16.0986938l7.0592346-13.0609512l33.0790405-0.1381702h16.5798035l-7.164032,13.1991215h-15.1608887
			L274.7542114,85.248291z M268.6897278,45.4755249h0.9877625l-0.5791626,1.1386337
			C268.9739075,46.2173042,268.8357544,45.8400383,268.6897278,45.4755249 M315.9890442,58.7432327
			c-2.5997314,3.170929-13.462738,26.5050583-13.462738,26.5050583h-16.2240601l21.875061-44.5703049h15.287323
			c0,0-1.6080933,3.1581764-1.3757935,2.8407021c8.0654297-4.4761467,17.835968-3.2346268,19.3900146-2.9827919
			l-6.1467896,12.0173836C322.7208862,52.5532799,320.4093018,53.3518753,315.9890442,58.7432327 M364.5896606,85.166954
			l-8.3477478,0.0019608c-3.6500549,0-4.8416748-3.4305878-4.9758911-3.8588181
			c0.0058594-0.0401688,0.0058594-0.0636749-0.0127869-0.0440903c-6.4044495,4.082222-11.9046021,5.1150284-17.334198,5.1150284
			c-1.7627869-0.0068512-3.5892944-0.3331604-5.1572266-1.2209473c-0.3634949-0.2047958-0.7142334-0.4321213-1.0435181-0.6878738
			c-6.0420227-4.684845-0.3536987-13.5744171,3.3551025-17.5125961c0.7575073-0.8044891,1.5688782-1.5560608,2.4262695-2.2527618
			c1.6021423-1.3003235,3.3590393-2.4046593,5.210083-3.3257599c1.8607483-0.927948,3.8146667-1.6707153,5.8146362-2.2664757
			c2.0166016-0.5987167,4.0802002-1.0465279,6.1635437-1.3787155c2.0694885-0.3282547,4.1596375-0.5418739,6.2545776-0.6653481
			c1.0161438-0.059761,2.0322571-0.1165924,3.026886-0.3468704c1.5747375-0.3664856,3.1287842-1.4845314,3.6432495-3.0376625
			c0.159668-0.4791679,0.1949463-1.0376968-0.0666504-1.4825745c-0.2028503-0.3429527-0.5575256-0.5751877-0.9308472-0.7074814
			c-0.8005676-0.2822037-1.7559509-0.2949409-2.5840454-0.2390976c-0.8808594,0.0588074-1.7490234,0.2528229-2.5613098,0.5810776
			c-0.8447266,0.340023-1.6942444,0.9201279-2.3587036,1.5541039c-0.5241699,0.5007248-1.3913879,1.4796448-1.3913879,1.4796448
			h-15.3539429c5.0121155-8.8082314,14.4210815-14.5474586,29.5750427-14.3318825
			c16.8296509,0.2234116,15.4842224,6.9425316,9.7254639,17.4979095l-10.1418457,21.0401878
			c-1.2514038,3.2385406,0.1468811,6.0851212,0.1468811,6.0851212L364.5896606,85.166954z M427.01651,57.9828339
			l-1.4317017-0.0039177l-0.000946,0.0029488l-13.9330444-0.0431213c0.4467468-1.6040764,0.4036865-3.1199608-0.2519226-4.1184692
			c-0.5477295-1.0445709-1.8871765-1.6119232-3.5402527-1.4865036c-5.688324,0.2665329-8.7112427,5.2639771-11.5470886,10.587719
			c-3.6421814,6.8758888-3.8303223,11.3461418,0.6614685,11.4353142c3.933197,0,7.1119995-3.0964508,9.4216309-6.6593399h0.1587524
			h0.980835h11.8096313h0.9808655h0.4517822h0.980835c-8.4015503,13.5097504-20.1602173,18.5483475-30.5500183,18.6923904
			c-0.2155457-0.0068588-0.4310913-0.0097885-0.6418762-0.0205688c-0.2125549,0.0088196-0.4242554,0.0117493-0.6358643,0.016655
			c-11.9234009-0.3978424-17.4440002-9.499054-9.4823914-24.4952965
			c8.0163879-15.1559563,20.4806824-21.4086494,32.8713989-21.6016769c0.1880493,0.0058746,0.3771667,0.0088196,0.562439,0.016655
			c0.2419739-0.0078354,0.4850464-0.017643,0.7270203-0.0205727c7.6794434,0.1812782,13.4421387,2.7711334,13.6890259,10.0575867
			c-0.076416,0.0744743-0.0921021,0.1156349,0.0049133,0.0891724
			C428.3598938,52.5405388,427.960022,55.0402336,427.01651,57.9828339"/>
		<path class="st3" d="M425.661499,81.5962372c-2.7456665,0-4.9396362,2.1596832-4.9396362,4.768158
			c0,2.6976242,2.1939697,4.8533859,4.9396362,4.8533859c2.66922,0,4.8847351-2.1557617,4.8847351-4.8533859
			C430.5462341,83.7559204,428.330719,81.5962372,425.661499,81.5962372 M425.661499,90.2378845
			c-2.1420898,0-3.9098816-1.7148056-3.9098816-3.8734894c0-2.0999146,1.7677917-3.8637161,3.9098816-3.8637161
			c2.0910034,0,3.8401184,1.7638016,3.8401184,3.8637161C429.5016174,88.5230789,427.7525024,90.2378845,425.661499,90.2378845"/>
		<path class="st3" d="M427.5274963,85.5603867c0-0.2939758-0.0744019-0.5546188-0.2253723-0.7819595
			c-0.1498718-0.2263565-0.3595581-0.3890228-0.6290283-0.4879837c-0.2695007-0.0979843-0.7564697-0.1479645-1.4600525-0.1479645
			h-1.3101501v4.5290604h0.68396h0.273468v-1.8206406h0.8740234l0.8132629,1.8206406h0.9456787l-0.8730774-1.9862442
			c0.3350525-0.1264038,0.5692444-0.2782898,0.7045288-0.4546585
			C427.4608765,86.054245,427.5274963,85.8298492,427.5274963,85.5603867 M426.3389893,85.9307709
			c-0.196991,0.1469955-0.4342041,0.2224426-0.714325,0.2224426h-0.7643433v-1.2209473h0.7643433
			c0.3174438,0,0.547699,0.0558624,0.6917114,0.1675644c0.144043,0.1117096,0.2155457,0.2508545,0.2155457,0.4193878
			C426.5319214,85.6946182,426.4673462,85.8308334,426.3389893,85.9307709"/>
	</g>
</g>
</svg>
