<?xml version="1.0" encoding="utf-8"?>
<!-- Generator: Adobe Illustrator 24.1.2, SVG Export Plug-In . SVG Version: 6.00 Build 0)  -->
<svg version="1.1" id="Layer_1" xmlns="http://www.w3.org/2000/svg" xmlns:xlink="http://www.w3.org/1999/xlink" x="0px" y="0px"
	 viewBox="0 0 469.1809082 200.0444183" style="enable-background:new 0 0 469.1809082 200.0444183;" xml:space="preserve">
<style type="text/css">
	.st0{fill:#75253D;}
	.st1{fill:#FFFFFF;}
	.st2{fill:#F8BE15;}
</style>
<g>
	<path class="st0" d="M459.0198364,177.4419098c5.6560059,0,10.1610107,4.598999,10.1610107,10.3460083
		c0,5.8399963-4.5050049,10.394989-10.210083,10.394989c-5.657959,0-10.2550049-4.5549927-10.2550049-10.394989
		c0-5.7470093,4.5970459-10.3460083,10.2550049-10.3460083H459.0198364z M458.9707642,179.0489197
		c-4.552002,0-8.2789307,3.9109955-8.2789307,8.7389984c0,4.92099,3.7269287,8.7849884,8.3280029,8.7849884
		c4.598999,0.0480042,8.2769775-3.8639984,8.2769775-8.7389984c0-4.8739929-3.6779785-8.7849884-8.2769775-8.7849884H458.9707642z
		 M457.039856,193.812912h-1.8391113v-11.5429993c0.9660645-0.1399994,1.8861084-0.276001,3.2640381-0.276001
		c1.7480469,0,2.8980713,0.3659973,3.5880127,0.8730011c0.6899414,0.5059967,1.0600586,1.2879944,1.0600586,2.3939972
		c0,1.5149994-1.0111084,2.4349976-2.2540283,2.8040009v0.0919952c1.0079346,0.1840057,1.6999512,1.1010132,1.9299316,2.8059998
		c0.2740479,1.7950134,0.5510254,2.4830017,0.7349854,2.8500061h-1.9309082
		c-0.2740479-0.3670044-0.552002-1.4250031-0.7819824-2.9420013c-0.2740479-1.470993-1.012085-2.022995-2.4851074-2.022995
		h-1.2858887V193.812912z M457.039856,187.4219055h1.3339844c1.5179443,0,2.8059082-0.5539856,2.8059082-1.9809875
		c0-1.0080109-0.7349854-2.0210114-2.8059082-2.0210114c-0.5960693,0-1.0100098,0.0450134-1.3339844,0.0900116V187.4219055z"/>
	<path class="st1" d="M441.2860718,53.3514252l-5.2520752-0.8659973
		c-55.3029785-9.1340027-112.427002-12.4759827-169.7800293-9.9319763
		c-45.8739014,2.0350037-92.0009766,7.8150024-137.1029053,17.1829834
		C52.3140297,75.6994476,4.1959863,96.9384308,3.7200344,97.1514435l-3.7180176,1.6569824L0.0000636,200.0444183h441.3029785
		L441.2860718,53.3514252z"/>
	<path class="st0" d="M435.0205688,60.6424103C194.7484741,20.960434,6.2744775,104.7884369,6.2744775,104.7884369v88.9809723
		h428.7460938V60.6424103z"/>
	<path class="st2" d="M435.0205688,58.8019257C194.7484741,19.1259308,6.2744775,102.9539337,6.2744775,102.9539337v24.1089935
		c0,0,170.0419922-89.0639801,428.7460938-63.8949738V58.8019257z"/>
	<path class="st1" d="M409.9143677,58.6105194c-1.5870361-6.7819824-4.1981201-14.9749756-10.3570557-18.197998
		c-1.8509521-0.9719849-5.3079834-2.7849731-10.7469482-1.822998c-2.7080078,0.4890137-6.0410156,1.5980225-8.9770508,2.9389954
		c-0.1540527-0.3079834-0.2669678-0.6139832-0.4499512-0.92099c-2.9510498-4.901001-9.0570068-6.5100098-13.25-5.2290039
		c-1.9820557,0.6069946-4.7980957,1.947998-6.4840088,2.8210144c-0.0130615-0.026001-0.0250244-0.0599976-0.0330811-0.0840149
		l-0.0679932-0.1549988c-1.6629639-4.3599854-6.5599365-7.1499939-10.3039551-7.5229797
		c-3.4069824-0.3400269-7.7280273,1.0090027-9.9949951,1.8409729c-0.5639648,0.2080078-1.1190186,0.4730225-1.6810303,0.6920166
		c0-0.0100098,0.0030518-0.0239868,0.0030518-0.0339966c0-0.3569946-0.019043-0.6860046-0.0469971-0.9830017
		c-0.4770508-4.8170166-2.4880371-7.4769897-4.5270996-8.9830017c0.1201172-0.0379944,0.276001-0.1019897,0.3920898-0.1360168
		c0.0679932-0.0189819,0.1749268-0.0509949,0.2419434-0.0739746c0.7879639-0.2510071,2.3250732-0.6560059,2.9389648-0.7160034
		c1.736084-0.1910095,3.3250732-0.8150024,4.5720215-1.7669983c0.0290527-0.0200195,0.0560303-0.0429993,0.0830078-0.0639954
		c1.1190186-0.882019,3.2940674-3.1540222,3.2940674-7.4840078c0-1.1220093-0.1459961-2.381012-0.4920654-3.7910156
		c-0.4780273-1.9459844-1.230957-4.2249761-3.2119141-6.1989751c-2.9770508-3.0250244-7.0211182-2.7840271-8.5471191-2.6950073
		c-2.605957,0.164978-6.9318848,1.5180054-9.8519287,2.6309814c0.0050049-0.0029907-0.5870361,0.2180176-0.5870361,0.2180176
		c-2.8580322,1.0489807-9.552002,3.5059814-18.3719482,9.2469788c-6.0880127,3.9540091-11.9660645,9.1360159-17.9580078,15.8450003
		c-3.0250244,3.3830261-6.6660156,9.4400024-7.5119629,13.7080078c-0.1560059,0.7720032-0.2290039,1.5920105-0.2290039,2.4410095
		c0,3.3970032,1.2039795,7.2519836,3.375,10.5669861c0.2799072,0.4330139,0.638916,0.7710266,0.9689941,1.1470032
		c-1.5650635,2.223999-3.1610107,4.6430054-4.5480957,7.1170044c-0.6799316,1.2120056-2.8139648,5.4810181-2.8139648,11.2170105
		c0,0.2460022,0.0059814,0.4949951,0.0100098,0.7460022c0.4570312,13.4539795,7.5870361,16.4199829,10.6340332,17.0699768
		c4.8029785,1.0250244,9.3950195,0.1850281,14.0489502-2.5669861c4.5510254-2.696991,12.4920654-9.4129944,20.9000244-16.5239868
		c3.7080078-3.1390076,7.4869385-6.3280029,10.3969727-8.6650085c-0.013916,0.117981-0.0479736,0.2839966-0.0549316,0.3869934
		c-0.0740967,0.7550049-0.1130371,1.5050049-0.1130371,2.2470093c0,3.4869995,0.8110352,6.789978,2.31604,9.3179932
		c2.8948975,4.8330078,9.1069336,5.7390137,13.1009521,3.5610046c2.6850586-1.4620056,5.8909912-4.5020142,10.1829834-8.9290161
		l0.8470459-0.8659973c0.1660156-0.1619873,0.3170166-0.3009949,0.4799805-0.4620056
		c0.6519775,2.5210266,1.7950439,4.8480225,3.6929932,6.3240051c2.9489746,2.3170166,6.9470215,2.7600098,10.3929443,1.125
		c1.9920654-0.9629822,3.0270996-2.0699768,4.3450928-3.4729919l0.5620117-0.5960083
		c1.0849609-1.1559753,5.5570068-5.1069946,9.2779541-7.242981c1.3189697-0.7620239,4.006958-1.7990112,5.3320312-2.1880188
		c0.2369385,0.3670044,0.4439697,0.7870178,0.7489014,1.4750061c0.1860352,0.4240112,0.7611084,1.8800049,1.8231201,5.7619934
		c0.032959,0.1119995,0.1469727,0.552002,0.1469727,0.552002c2.3349609,8.9219971,8.414917,8.1690063,10.2209473,7.7230225
		c5.5-1.3760071,6.4400635-7.7070007,6.5720215-8.9650269C411.031311,66.2805328,410.7932739,62.354538,409.9143677,58.6105194"/>
	<path class="st0" d="M337.7068481,16.303299c0.4539795-0.3549795,0.9869385-1.6109915,0.3588867-4.1509695
		c-0.3929443-1.5860291-0.763916-2.3400269-1.3789062-2.9560242c-0.6500244-0.6619873-1.7200928-0.7639771-3.2270508-0.6749878
		c-1.282959,0.0849915-4.5689697,0.9580078-7.7929688,2.1870117c-2.0059814,0.7589722-8.644043,2.9429932-17.6170654,8.7869864
		c-3.4359131,2.2269897-9.1289062,6.3259888-16.5489502,14.6279907c-2.4689941,2.7640076-5.3349609,7.7279968-5.8730469,10.4200134
		c-0.3659668,1.8529968,0.3300781,5.0789795,2.144043,7.8540039c1.0379639,1.5820007,2.5799561,1.7299805,3.7490234,1.6029968
		c2.1829834-0.2310181,3.8740234-1.4100037,3.8740234-1.4100037s-6.6660156,7.6090088-10.9591064,15.2479858
		c-0.7399902,1.3340149-2.0319824,4.4819946-1.9069824,8.3340149c0.1380615,4.0549927,1.1669922,9.644989,5.1430664,10.4979858
		c3.2910156,0.6990051,6.1810303-0.0570068,9.0549316-1.7529907c7.2480469-4.3040161,28.0159912-23.3210144,34.6680908-27.7869873
		c7.6179199-5.1240234,12.4769287-6.651001,13.5949707-7.1160278c0.7390137-0.3099976,1.1749268-0.2889709,1.2640381-0.1719971
		c0.0939941,0.1180115-0.1860352,0.6400146-0.2700195,0.8420105c-0.6779785,1.4880066-5.5889893,9.4410095-6.2440186,10.8730164
		c-0.6590576,1.4339905-1.2819824,4.1139832-1.3930664,5.243988c-0.2600098,2.6139832,0.1560059,5.4689941,1.2570801,7.3169861
		c0.9069824,1.5050049,3.0579834,1.4240112,3.8179932,1.0120239c2.8179932-1.5280151,8.4189453-7.6119995,9.5119629-8.6720276
		c1.4780273-1.4309998,6.0870361-5.8579712,8.3470459-7.5379944c2.526001-1.8739929,5.0439453-3.1789856,6.7279053-3.9289856
		c0.1660156-0.0760193,0.2590332,0,0.1710205,0.1749878c-0.6019287,1.2929993-3.2669678,6.9980164-3.5819092,9.1560059
		c-0.5,3.4689941,0.5449219,6.697998,1.5689697,7.4909973c1.0919189,0.8609924,2.3399658,0.7359924,3.1689453,0.3349915
		c0.9069824-0.4359741,1.2449951-0.8809814,2.8310547-2.5619812c1.5859375-1.684021,6.6119385-6.0500183,10.8530273-8.4819946
		c2.1639404-1.2510071,6.6829834-2.9640198,8.2619629-3.184021c0.3110352-0.0409851,2.8809814-0.6259766,4.473999,0.9940186
		c1.5389404,1.5690002,2.1989746,2.6080017,3.1119385,4.6629944c0.9040527,2.0469971,2.0150146,6.1600037,2.2150879,6.875
		c0.43396,1.6029968,0.7919922,3.5310059,1.9819336,3.2380066c0.5930176-0.1430054,1.2210693-1.8880005,1.3300781-2.9570007
		c0.0570068-0.5039978,0.5639648-4.2990112-0.5450439-9.0599976c-1.1140137-4.7580261-3.0949707-11.6679993-6.8110352-13.6130066
		c-1.7600098-0.9290161-3.3779297-1.6610107-6.3109131-1.1350098c-2.9320068,0.5240173-6.7871094,1.9949951-9.3850098,3.4590149
		c-2.0040283,0.9329834-6.3310547,3.8410034-6.3310547,3.8410034s0.3139648-2.085022,0.2619629-3.7530212
		c-0.0559082-1.9289856-0.2719727-3.3979797-1.0979004-4.7649841c-1.1740723-1.9490051-3.8730469-2.6159973-5.2800293-2.1920166
		c-1.7270508,0.5339966-5.1870117,2.2279968-6.1660156,2.7980042c-3.9179688,2.2950134-8.06604,5.3080139-8.06604,5.3080139
		s0.4990234-2.4320068,0.4770508-3.4020081c-0.0849609-3.8150024-0.967041-5.375-1.2919922-6.2019958
		c-0.6380615-1.6679993-3.1640625-3.0310059-4.5369873-3.1650085c-1.4510498-0.1470032-4.2559814,0.4760132-6.9100342,1.4460144
		c-2.5109863,0.9239807-12.1960449,4.5559998-21.8580322,12.0379944
		c-2.4520264,1.8989868-16.0620117,12.3710022-19.2249756,15.1000061c-2.4069824,2.0699768-4.9720459,3.9069824-6.1779785,4.5999756
		c-0.3050537,0.1800232-1.0860596,0.7360229-1.6400146,0.7440186c-0.2810059,0-0.43396-0.098999-0.2819824-0.4299927
		c1.7529297-3.7750244,9.6500244-15.5300293,18.9630127-23.348999c7.8939209-6.6130066,15.7989502-11.2960205,17.7689209-12.4390259
		c1.2060547-0.690979,1.5480957-1.3809814,1.4440918-2.4079895c-0.1920166-1.9700012-0.8540039-4.2149963-2.9490967-4.6669922
		c-1.9370117-0.4210205-10.0928955,2.8829956-13.25,4.1479797c-7.1099854,2.82901-16.7080078,8.8250122-17.0919189,9.0200195
		c-0.2940674,0.1589966-0.6270752,0.4109802-0.8029785,0.3429871c-0.2050781-0.0740051-0.2320557-0.3479919-0.0440674-0.5209961
		c-0.1660156,0.144989,1.4110107-2.4689941,5.8620605-6.75c9.6560059-9.2869873,22.4949951-16.1289978,29.1469727-18.0239868
		c-0.2000732,0.0619812,2.6229248-0.8450012,4.4050293-1.0209961
		C337.0237427,16.6453094,337.4328003,16.5193024,337.7068481,16.303299"/>
	<path class="st2" d="M335.1917114,13.7937174c0.4599609-0.3619995,0.9899902-1.6139832,0.3609619-4.1539917
		c-0.3850098-1.5859985-0.7659912-2.335999-1.3790283-2.954987c-0.6479492-0.6589966-1.717041-0.7619934-3.223999-0.6730042
		c-1.282959,0.0780029-4.5720215,0.9559937-7.7910156,2.183991c-2.0129395,0.7579956-8.6479492,2.9429932-17.6229248,8.7860098
		c-3.4400635,2.230011-9.1270752,6.32901-16.5460205,14.6329956c-2.4680176,2.7619934-5.3370361,7.7210083-5.8740234,10.4190063
		c-0.3690186,1.8529968,0.3270264,5.0740051,2.1400146,7.8559875c1.0389404,1.5800171,2.5849609,1.7210083,3.7519531,1.6010132
		c2.184082-0.230011,3.8720703-1.4120178,3.8720703-1.4120178s-6.6660156,7.6060181-10.947998,15.2440186
		c-0.7470703,1.3349915-2.0400391,4.4879761-1.9150391,8.3339844c0.1379395,4.0599976,1.1700439,9.6459961,5.1379395,10.5029907
		c3.2950439,0.7010193,6.1890869-0.0559998,9.0600586-1.7519836c7.2480469-4.3040161,28.0150146-23.321991,34.6719971-27.7929993
		c7.6140137-5.1199951,12.4720459-6.6480103,13.5899658-7.1220093c0.7399902-0.3009949,1.1779785-0.2799988,1.2659912-0.164978
		c0.0900879,0.1169739-0.18396,0.644989-0.2719727,0.8399963c-0.6760254,1.492981-5.5870361,9.4429932-6.2419434,10.875
		c-0.6560059,1.4339905-1.2821045,4.1159973-1.3920898,5.2449951c-0.2650146,2.6139832,0.1569824,5.4679871,1.2590332,7.3150024
		c0.9040527,1.5109863,3.0550537,1.4279785,3.80896,1.0180054c2.8200684-1.5310059,8.4210205-7.6130066,9.5170898-8.6750183
		c1.4749756-1.4299927,6.0809326-5.8609924,8.3499756-7.5409851c2.526001-1.8740234,5.0450439-3.1740112,6.7230225-3.928009
		c0.1699219-0.0759888,0.2650146,0,0.177002,0.1830139c-0.6030273,1.2819824-3.2709961,6.9919739-3.585083,9.1499939
		c-0.4949951,3.4700012,0.5469971,6.6990051,1.5710449,7.492981c1.0899658,0.855011,2.3339844,0.730011,3.1689453,0.3320007
		c0.901001-0.4369812,1.2420654-0.8819885,2.8280029-2.5610046c1.5900879-1.6879883,6.6120605-6.0499878,10.8560791-8.4839783
		c2.1610107-1.2480164,6.6760254-2.9609985,8.2559814-3.1809998c0.3139648-0.0400085,2.8850098-0.6270142,4.4749756,0.9960022
		c1.5390625,1.5679932,2.2010498,2.6080017,3.1120605,4.6609802c0.9099121,2.0480042,2.0219727,6.1570129,2.2149658,6.875
		c0.4360352,1.605011,0.7969971,3.5299988,1.980957,3.2350159c0.5960693-0.1440125,1.2220459-1.8850098,1.335083-2.95401
		c0.0549316-0.5039978,0.5629883-4.303009-0.5469971-9.0619812c-1.1120605-4.7580261-3.0941162-11.6679993-6.8110352-13.6160278
		c-1.7630615-0.9229736-3.3809814-1.6559753-6.3120117-1.1299744c-2.9279785,0.5279846-6.782959,1.992981-9.3830566,3.4579773
		c-2.0029297,0.9330139-6.3330078,3.8410034-6.3330078,3.8410034s0.31604-2.0830078,0.2640381-3.7529907
		c-0.0599365-1.9309998-0.2709961-3.4020081-1.1019287-4.7690125c-1.1700439-1.9419861-3.8690186-2.6139832-5.2750244-2.1829834
		c-1.7299805,0.5289917-5.1900635,2.223999-6.1669922,2.7949829c-3.9160156,2.2940063-8.0700684,5.3059998-8.0700684,5.3059998
		s0.5020752-2.4309998,0.4810791-3.4019775c-0.0880127-3.8160095-0.967041-5.3780212-1.2919922-6.2030029
		c-0.6361084-1.6679993-3.1660156-3.026001-4.5350342-3.1610107c-1.4550781-0.1499939-4.2640381,0.4720154-6.9119873,1.4460144
		c-2.5140381,0.9179993-12.2000732,4.5559998-21.8649902,12.0329895
		c-2.4470215,1.901001-16.0550537,12.3680115-19.2189941,15.098999c-2.4071045,2.0769958-4.9730225,3.9119873-6.177002,4.6029968
		c-0.309082,0.1809998-1.0910645,0.7359924-1.6409912,0.7489929c-0.2800293,0-0.4360352-0.1040039-0.2840576-0.4360046
		c1.7540283-3.7709961,9.6550293-15.526001,18.9620361-23.3449707c7.8919678-6.6160278,15.8039551-11.303009,17.7739258-12.4420166
		c1.2039795-0.6910095,1.5480957-1.375,1.4460449-2.4079895c-0.197998-1.9730225-0.8580322-4.2149963-2.9489746-4.6660156
		c-1.9429932-0.4190063-10.0999756,2.8800049-13.2570801,4.1470032c-7.1109619,2.8340149-16.7030029,8.8280029-17.0889893,9.0200195
		c-0.2939453,0.1569824-0.6300049,0.4099731-0.8059082,0.3479919c-0.2030029-0.0800171-0.2301025-0.3520203-0.0421143-0.5230103
		c-0.1658936,0.151001,1.4100342-2.4700012,5.8660889-6.7479858c9.6489258-9.2910156,22.4890137-16.1350098,29.1450195-18.0270081
		c-0.2030029,0.0589905,2.6239014-0.8470154,4.4029541-1.0230103
		C334.5116577,14.1327372,334.9205933,14.0067301,335.1917114,13.7937174"/>
	<path class="st1" d="M149.9442749,164.737915l2.2030029-0.5879974l-1.5360107,5.644989l-0.1889648,0.75l-4.9689941,1.1809998
		h-0.0040283c-1.493042,0.3350067-3.1309814,0.4980011-4.8779297,0.4980011c-1.861084,0-3.6461182-0.2649994-5.3120117-0.7919922
		c-1.6730957-0.5390015-3.1810303-1.3150024-4.4700928-2.3070068c-1.3419189-1.0309906-2.4179688-2.3679962-3.2030029-3.973999
		c-0.7799072-1.6060028-1.1759033-3.4369965-1.1759033-5.4550018l0.1069336-2.6210022l0.44104-2.9799957l0.7330322-3.571991
		l1.0479736-4.8280029c0,0,3.822998-17.2420044,4.3399658-19.5590057c-0.7109375,0.0099945-1.3969727,0.0209961-1.3969727,0.0209961
		l-4.0050049,0.1549988l-5.0500488,0.0170135l-3.1619873,3.246994l-6.151001,6.4530029c0,0-4.5460205,5.0189972-5.4060059,5.9629974
		c1.0219727,2.7899933,4.6380615,12.6549988,4.6380615,12.6549988c1.6610107,4.5310059,3.5169678,9.2290039,5.5150146,13.9680023
		l0.1019287,0.246994v0.5769958l-0.0809326,1.3710022l-4.5220947-0.2229919h-7.7819824l-3.4219971,0.1580048l-1.0019531,0.1149902
		l-1.4100342-3.8009949l-1.5689697-4.5469971l-1.7580566-4.8530121c0,0-0.447998-1.1349945-0.8909912-2.2519989
		c-1.1119385,1.2250061-13.4399414,15.381012-13.4399414,15.381012l-25.8380089-0.201004H35.9762611l-10.7839375,0.201004
		l0.6119385-1.779007c0.6800537-1.9600067,1.4940186-4.826004,2.4250488-8.5079956l2.9689941-12.3980103l3.0760517-14.2789917
		l2.8149414-14.2870026l2.2939453-12.5629883l1.4000244-9.0280151l0.1950684-1.243988l1.2180176,0.1069946
		c3.0939941,0.2550049,6.664917,0.3999939,10.605957,0.4339905l11.6379356,0.0510254l10.1459961-0.1520081l10.4940186-0.4389954
		c0,0-2.157959,5.0679932-2.4819336,11.0109863c-2.5910645-0.2259827-5.526001-0.5069885-5.526001-0.5069885l-4.4610596-0.3139954
		l-6.1550293-0.2030029c0,0-6.490963-0.0350037-8.0999718-0.0440063c-1.0720215,3.8339844-2.0709229,7.6929932-2.9229736,11.4869843
		c0,0-1.4189453,6.5750122-1.9040527,8.8360138h11.6411095l3.8939209-0.0950012l3.4420166-0.1959991l5.5390625-0.326004
		c0,0-1.9360352,5.647995-2.4960938,11.0569916c-0.6209717-0.1259918-8.9509277-0.8320007-13.1249962-0.9339905
		c0,0-9.1359863-0.1230011-10.9129639-0.1450043c-0.3599854,1.7920074-2.5500488,12.6410065-2.5500488,12.6410065
		c-0.7679443,4.0429993-1.3739014,8.1679993-1.8979492,12.269989h6.8260498c4.80896,0,20.09692-0.4959869,25.589962-0.7339935
		l3.0209961-3.1589966c0,0,9.0389404-9.2870026,10.0549316-10.3350067
		c-0.4569092-1.2039948-6.8499756-17.326004-12.0369873-29.0449982c1.9169922,0.3050079,5.6810303,0.8040009,9.9050293,0.8040009
		c4.2249756,0,8.1879883-0.5709991,8.1879883-0.5709991s3.427002,9.0919952,3.427002,9.0950012
		c0,0,1.6800537,4.1940002,2.6049805,6.5169983c1.0570068-1.1929932,2.2270508-2.5119934,2.2270508-2.5119934l2.9940186-3.6500092
		c0,0,2.9499512-3.9290009,2.9499512-3.9329987l4.092041-5.5699921c11.7550049,0.9839935,16.8519287,0.29599,17.7409668,0.29599
		c0.2399902-1.5209961,0.6569824-4.121994,0.6569824-4.121994s0.5720215-3.8320007,1.0620117-7.0820007
		c7.677002-2.0769958,19.7280273-8.223999,19.7280273-8.223999s-3.4310303,11.4370117-4.8339844,19.4279938h2.2600098
		c0,0,2.362915-0.0399933,2.3669434-0.0399933l5.1099854-0.2070007c0,0-1.8839111,3.4599915-2.0499268,8.1679993
		c-1.0380859,0-5.0789795-0.2129974-9.2860107-0.2129974c-0.3239746,1.4290009-1.1800537,5.2129974-1.1800537,5.2129974
		l-2.0339355,9.0979919l-1.8759766,8.7890015c0,0-1.0330811,5.2350006-1.0430908,5.279007l-0.7199707,4.0579987
		l-0.1949463,2.7030029c0,1.4489899,0.3349609,2.4329987,0.9959717,2.9359894
		c0.7700195,0.5820007,1.9249268,0.8800049,3.4370117,0.8800049
		C148.0442505,165.1079102,149.0153198,164.9849091,149.9442749,164.737915 M194.0852661,134.533905l0.6660156-0.2089996
		l1.6739502-0.7419891l0.0440674-0.7980042c0.131958-2.4109955,0.4219971-4.5579987,0.8520508-6.3890076
		c0.4268799-1.7979889,1.2479248-3.8849945,2.4509277-6.2059937l0.6400146-1.2350006c0,0-2.5460205-1.822998-6.1960449-1.822998
		c-2.3809814,0-4.5789795,0.5870056-6.5169678,1.746994c-1.8409424,1.0980072-3.480957,2.3970032-4.875,3.8650055
		c-0.5219727,0.5449982-0.9830322,1.1080017-1.4370117,1.6600037c0.3659668-1.5579987,1.4689941-6.3110046,1.4689941-6.3110046
		l-1.8719482,0.1959991l-2.927002,0.3390045l-3.4749756,0.1439972l-3.6990967-0.1439972l-4.3669434-0.4680023l-0.2290039,1.2310028
		c-1.1710205,7.651001-2.7340088,15.8159943-4.6309814,24.2599945c-1.9110107,8.4970093-4.0679932,17.053009-6.4110107,25.4360046
		l-0.4870605,1.746994l5.2000732-0.246994h7.9420166l4.552002,0.2089996l0.289917-1.1300049l3.1230469-16.7079926
		c0.8289795-4.0299988,1.55896-7.1820068,2.1739502-9.3560028c0.0061035-0.0390015,1.1170654-3.6130066,1.1170654-3.6130066
		c0.4389648-1.2200012,1.0749512-2.3809967,1.9000244-3.4570007c0.7889404-1.0349884,1.8330078-1.9169922,3.0969238-2.6269989
		c1.2220459-0.6839905,2.8190918-1.0289917,4.736084-1.0289917c1.5759277,0,2.3919678,0.2129974,2.7999268,0.4019928
		L194.0852661,134.533905z M236.9003296,163.6249084l1.6610107,4.7810059l-0.7950439,0.576004
		c-1.0510254,0.7529907-2.2550049,1.4019928-3.5550537,1.9259949h-0.0059814
		c-1.3959961,0.5610046-3.2440186,0.8240051-5.6519775,0.8240051c-2.0410156,0-3.7740479-0.2940063-5.1529541-0.8760071
		c-1.387085-0.5970001-2.5140381-1.371994-3.335083-2.3159943c-0.697998-0.7920074-1.2069092-1.6440125-1.5789795-2.5149994
		c-1.4320068,1.9389954-3.039917,3.3939972-4.7969971,4.3209991c-2.3669434,1.2449951-5.3969727,1.8779907-8.9929199,1.8779907
		c-4.5321045,0-8.2110596-1.3199921-10.94104-3.9250031c-2.7480469-2.6229858-4.1450195-6.2649994-4.1450195-10.8149872
		c0-3.602005,1.0450439-6.9910126,3.1080322-10.0660095c2.0830078-3.1139984,5.1289062-5.302002,9.039917-6.5099945
		c1.6640625-0.503006,3.7370605-0.9420013,6.1690674-1.302002l6.8380127-0.9490051l3.8779297-0.5619965
		c0.809082-0.1419983,1.4420166-0.3690033,1.8790283-0.673996c0.3499756-0.2519989,0.5939941-0.6240082,0.7540283-1.1459961
		c0.2089844-0.6790009,0.3139648-1.7000122,0.3139648-3.0330048c0-1.3699951-0.2299805-2.4819946-0.6789551-3.2949982
		c-0.4649658-0.848999-1.0460205-1.5189972-1.7719727-2.0350037c-0.7320557-0.529007-1.5421143-0.8869934-2.4630127-1.095993
		c-0.9870605-0.2240143-1.9650879-0.3380127-2.9119873-0.3380127c-1.9910889,0-3.8190918,0.3280029-5.4429932,0.980011
		c-1.6621094,0.6589966-2.9710693,1.6089935-4.552002,2.8109894l-0.3540039,0.2740021l-2.4110107-0.0029907
		c0,0,2.6619873-6.3140106,2.6619873-9.0839996c1.9439697-1.9480133,10.5959473-4.3240051,17.2810059-4.3240051
		c2.1040039,0,4.1870117,0.2200012,6.1939697,0.6580048c2.0610352,0.4529877,3.9420166,1.2109985,5.5999756,2.2689972
		c1.7070312,1.0839996,3.1020508,2.5589905,4.144043,4.3699951c1.0610352,1.8359985,1.5939941,4.1159973,1.5939941,6.7720032
		c0,1.602005-0.1750488,3.3739929-0.5230713,5.2610016c0,0-0.93396,4.548996-0.9239502,4.5319977
		c0,0-2.81604,13.0769958-2.8210449,13.0879974c-0.5509033,2.3870087-0.8929443,4.1589966-1.0249023,5.2550049l-0.1990967,2.6119995
		c0,0.6849976,0.1500244,1.451004,0.4440918,2.2819977c0.1140137,0.3139954,0.2799072,0.595993,1.065918,0.595993
		l0.2380371-0.0369873L236.9003296,163.6249084z M219.8213501,144.7709045c-2.1380615,0.3650055-3.9880371,0.7160034-5.25,1.029007
		c-1.5230713,0.378006-2.8341064,0.9250031-3.9121094,1.6230011c-1.4239502,0.8930054-2.414917,2.2189941-3.0159912,4.0319977
		c-0.6499023,1.9669952-0.9749756,3.878006-0.9749756,5.6909943c0,1.6160126,0.3360596,3.006012,1.032959,4.2510071v0.0039978
		c0.3570557,0.6309967,1.0750732,1.4799957,3.1990967,1.4799957c1.30896,0,2.3459473-0.3179932,3.1549072-0.973999
		c0.9030762-0.7220001,1.651001-1.6469879,2.2250977-2.7389984c0.6090088-1.1620026,1.0799561-2.4689941,1.3999023-3.8919983
		c0,0,0.9381104-4.2919922,0.9350586-4.2679901C218.6152954,151.0079193,219.3922729,146.9769135,219.8213501,144.7709045"/>
	<path class="st2" d="M319.8126831,97.1606293c-2.4959717,0.1439819-4.8050537,0.0010071-7.2719727-0.5290222
		c-6.1950684,9.757019-27.2890625,41.8370056-31.6080322,48.1460114
		c-3.3250732-11.3270111-7.907959-26.2360077-12.4840088-48.1769867c-1.723999,0.3499756-3.4599609,0.644989-5.2259521,0.6849976
		c-1.9641113,0.0480042-3.8620605-0.3260193-5.776001-0.7420044c-2.4140625,11.7489929-10.5080566,47.8469849-16.6860352,74.394989
		c3.2850342-0.151001,7.7390137-0.3359985,11.0219727-0.048996c2.9119873-15.7369995,8.3470459-38.1529999,9.1170654-41.4329987
		c3.0148926,11.6849976,9.0979004,38.7889862,9.7919922,42.2249908c1.4849854-0.5009918,2.9580078-0.5410004,4.4060059-0.1519928
		c2.75-4.0690002,4.8709717-7.6370087,7.2539062-11.9309998c6.0390625-10.822998,11.1750488-18.5890045,18.1990967-28.7819977
		c-1.7540283,12.6859894-3.5770264,22.9899902-6.197998,35.5319977c-0.335083,1.5930023-0.6660156,3.1920013-1.0061035,4.7910004
		c5.5469971-0.2740021,12.56604-0.375,18.1220703-0.2020111c2.8719482-18.8379974,8.2280273-53.0509949,12.6999512-74.3549805
		C322.7346802,96.7596283,321.2597046,97.0806122,319.8126831,97.1606293 M377.9157104,100.7156219
		c0-0.0039978,2.8679199-11.3190002,2.8679199-11.3190002l-1.9169922,0.2000122l-3.8079834,0.3809814l-3.9510498,0.0960083
		l-4.2349854-0.1400146l-4.9709473-0.4499817l-0.2270508,1.190979l-1.8800049,10.4670105l-2.6099854,13.326004
		l-3.0780029,14.8069916l-3.2849121,14.9450073l-3.3341064,13.7859955
		c-1.098999,4.2879944-2.1439209,8.0029907-3.1149902,11.0339966l-0.5679932,1.7890015l5.7869873-0.2420044h8.4100342
		l4.7399902,0.2089996l0.2590332-1.1360016c1.1779785-6.7589874,2.4559326-13.5019989,3.8060303-20.0299988l4.1259766-19.9809875
		c-0.0030518,0.0139923,2.3909912-10.5480042,2.3909912-10.5480042l2.2960205-9.3709869L377.9157104,100.7156219z
		 M423.2697144,137.1316071l-0.2750244,4.1829987l-0.5770264,4.0590057l-0.1689453,1.1490021l-12.2000732-0.4100037
		l-7.8800049-0.1210022h-8.0219727c0,0-1.8540039,0.0740051-3.0169678,0.1150055
		c-0.098999,0.7509918-0.2070312,1.576004-0.2070312,1.576004l-0.1199951,2.8239899c0,3.8800049,0.8909912,7,2.651001,9.2700043
		c1.6970215,2.1959991,4.4699707,3.2700043,8.467041,3.2700043c1.7869873,0,3.8339844-0.4150085,6.0780029-1.227005
		c2.2078857-0.8009949,4.2729492-2.1889954,6.1379395-4.1230011l0.6469727-0.6669922l2.4119873,1.1259918l1.1000977,0.5460052
		c0,0-1.460083,3.7949982-1.460083,3.8000031l-1.4709473,4.7359924l-0.3620605,0.2570038
		c-2.3800049,1.6940002-5.0549316,2.8139954-7.9499512,3.3309937c-2.7869873,0.4930115-5.6419678,0.7450104-8.4749756,0.7450104
		c-4.19104,0-7.9110107-0.6460114-11.059082-1.9240112c-3.1829834-1.2869873-5.8349609-3.1089935-7.8789062-5.4079895
		c-2.0410156-2.2830048-3.5770264-4.947998-4.5710449-7.9250031c-0.9870605-2.9389954-1.4820557-6.0509949-1.4820557-9.2490082
		c0-3.5419922,0.5960693-7.1259918,1.7919922-10.6569977c1.1950684-3.5509949,3.0200195-6.7879944,5.4160156-9.621994
		c2.4071045-2.8410034,5.4320068-5.1779938,8.9920654-6.9579926c3.5820312-1.7890015,7.7929688-2.6960144,12.5040283-2.6960144
		c6.8249512,0,12.0880127,1.8700104,15.6429443,5.5700073C421.4736938,126.3916168,423.2697144,131.2426147,423.2697144,137.1316071
		 M407.8566284,131.4036102c0-1.9980011-0.4049072-3.7599945-1.2059326-5.2319946
		c-0.6630859-1.2290039-1.9949951-1.8249969-4.06604-1.8249969c-1.4609375,0-2.6889648,0.3880005-3.7509766,1.1959991
		c-1.1419678,0.8690033-2.1550293,2.0399933-3.0030518,3.4919891c-0.8900146,1.5110016-1.6369629,3.2670135-2.2279053,5.2110138
		c0,0-0.7860107,2.9299927-1.2480469,4.6399994c0.0629883,0.0059967,0.1539307,0.0130005,0.1539307,0.0130005l1.7220459,0.0439911
		h8.1450195c0,0,2.5689697-0.0439911,2.572998-0.0439911c0,0,1.1560059-0.0470123,2.0699463-0.0800018
		c0.1960449-1.0319977,0.486084-2.598999,0.486084-2.598999
		C407.7366333,134.7556152,407.8566284,133.133606,407.8566284,131.4036102 M348.1416626,118.03862l-1.9389648,0.1689911
		l-3.3320312,0.3600006c-0.0019531,0-4.43396,0.1520081-4.43396,0.1520081l-4.0200195-0.1520081l-4.9520264-0.4920044
		l-0.1619873,1.2960052c-0.2730713,2.5930023-0.8129883,6.0189972-1.6070557,10.1800079l-2.7059326,13.3419952
		l-3.2270508,14.0079956c-1.1419678,4.628006-2.2440186,8.7189941-3.276001,12.1609955l-0.5319824,1.7710114l5.3909912-0.2470093
		h8.5130615l4.7419434,0.2129974l0.2160645-1.1940002c0.4139404-3.2429962,1.0759277-7.2899933,1.9749756-12.0429993
		l2.9669189-14.473999l3.2270508-13.5879974C344.9856567,129.4976196,348.1416626,118.03862,348.1416626,118.03862
		 M342.3267212,108.8126068c5.0739746,0,9.1818848-4.1119995,9.1818848-9.1829834
		c0-5.071991-4.1079102-9.1849976-9.1818848-9.1849976c-5.0720215,0-9.1820068,4.1130066-9.1820068,9.1849976
		C333.1447144,104.7006073,337.2546997,108.8126068,342.3267212,108.8126068"/>
	<path class="st1" d="M416.5116577,159.3918152c-0.0910645-0.0409851-0.7790527-0.3609924-1.4140625-0.6569977
		c-2.0019531,2.0570068-4.2280273,3.5490112-6.6140137,4.4170074c-2.4019775,0.8659973-4.6049805,1.3059998-6.5629883,1.3059998
		c-3.0970459,0-5.5389404-0.6119995-7.4160156-1.8359985c0.1430664,0.2169952,0.2879639,0.4400024,0.4460449,0.644989
		c1.9919434,2.5690002,5.1279297,3.8200073,9.5889893,3.8200073c1.9580078,0,4.1689453-0.4429932,6.5670166-1.3119965
		c1.3509521-0.4850006,2.6409912-1.1990051,3.8769531-2.0800018c0.2659912-0.8699951,0.4959717-1.6080017,0.4959717-1.6080017
		C415.5016479,162.0188293,416.081604,160.5118256,416.5116577,159.3918152"/>
	<path class="st1" d="M408.1550903,126.0624084c0.7279053,1.5630035,1.1169434,3.3470001,1.1169434,5.3410034
		c0,1.803009-0.1259766,3.5-0.3649902,5.0410004c-0.0109863,0.0370026-0.7010498,3.7450104-0.7010498,3.7450104l-3.1970215,0.125
		c-0.032959,0-2.612915,0.0429993-2.612915,0.0429993h-8.1669922c-0.0100098,0-0.1779785-0.003006-0.4030762-0.0100098
		l-0.2139893,0.7980042l-0.4420166,1.6690063l1.9331055,0.1279907c0,0,1.7159424,0.0379944,1.7489014,0.0379944h8.1680908
		c0,0,2.5749512-0.0409851,2.6119385-0.0409851l3.2010498-0.125c0,0,0.6870117-3.7110138,0.690918-3.7490082
		c0.2470703-1.5390015,0.3690186-3.2330017,0.3690186-5.0359955c0-2.2389984-0.4580078-4.2230072-1.3699951-5.9130096
		C410.0029907,127.1604156,409.2069702,126.4814148,408.1550903,126.0624084"/>
	<path class="st1" d="M338.31427,106.2655182c-0.710083-1.1729736-1.1260986-2.5439758-1.1260986-4.0109863
		c0-4.2789917,3.4799805-7.7649841,7.762085-7.7649841c1.4699707,0,2.8428955,0.4159851,4.013916,1.1289978
		c-1.3599854-2.2480164-3.8249512-3.7580261-6.6379395-3.7580261c-4.2780762,0-7.7630615,3.4869995-7.7630615,7.7690125
		C334.5631714,102.4415436,336.071228,104.9055328,338.31427,106.2655182"/>
	<path class="st1" d="M283.0415649,150.6594086l1.6849365-2.4559937c4.18396-6.1210022,24.4709473-36.9660034,31.1309814-47.4029846
		c1.9169922,0.3399963,3.8389893,0.4880066,5.9329834,0.4159851c0.2020264-1.0109863,0.3950195-1.9969788,0.5880127-2.947998
		c-0.6179199,0.0750122-2.4830322,0.3070068-2.4830322,0.3070068c-2.3869629,0.1329956-4.5219727-0.0159912-6.6589355-0.3930054
		c-6.6660156,10.4320068-26.9520264,41.276001-31.1380615,47.3970032l-0.3869629,0.5709991L283.0415649,150.6594086z"/>
	<path class="st1" d="M379.036438,158.4878082c-0.9370117-2.79599-1.4171143-5.7539978-1.4171143-8.798996
		c0-3.3889923,0.5791016-6.821991,1.7189941-10.2019958c1.1430664-3.3820038,2.875-6.4620056,5.1671143-9.1589966
		c2.276001-2.6880035,5.1499023-4.9140015,8.5349121-6.6100006c3.3859863-1.6890106,7.3840332-2.5470123,11.875-2.5470123
		c5.5,0,9.8830566,1.279007,13.0950928,3.7850037c-0.3441162-0.4409943-0.7060547-0.8659973-1.0980225-1.272995
		c-3.2780762-3.4080048-8.1960449-5.1340027-14.6210938-5.1340027c-4.4888916,0-8.4859619,0.8560028-11.8709717,2.5440063
		c-3.388916,1.6949921-6.2659912,3.9219971-8.5439453,6.6089935c-2.2819824,2.6990051-4.0180664,5.7819977-5.1560059,9.1620026
		c-1.1419678,3.3820038-1.7189941,6.8130035-1.7189941,10.2019958c0,3.0449982,0.4730225,6.0039978,1.4110107,8.7929993
		c0.9329834,2.8050079,2.3740234,5.3000031,4.2839355,7.4320068c0.6220703,0.7039948,1.322998,1.3309937,2.0689697,1.9349976
		C381.1403198,163.2438202,379.8713989,160.9938202,379.036438,158.4878082"/>
	<path class="st1" d="M264.897522,131.7305145l-1.9550781,0.0170135
		c2.8880615,11.5859985,7.5560303,32.2769928,8.8590088,38.3349915c0.6779785-0.1089935,1.3530273-0.1349945,2.0310059-0.0939941
		C271.8804321,161.1535187,267.3704224,141.3145142,264.897522,131.7305145"/>
	<path class="st1" d="M261.1759644,100.8248138c1.5349121,0.2980042,3.0739746,0.5400085,4.7049561,0.5
		c0.7219238-0.0159912,1.4200439-0.0769958,2.1019287-0.1609802c-0.2059326-0.9670105-0.4189453-1.9380188-0.6309814-2.9320068
		c-1.3049316,0.2319946-2.6589355,0.4389954-4.0949707,0.4700012c-1.631958,0.0360107-3.1710205-0.20401-4.7049561-0.5020142
		c-2.6330566,12.6150208-10.0930176,45.8540039-15.9940186,71.2710114c1.0999756-0.0410004,2.1820068-0.0740051,3.2529297-0.0950012
		C251.6039429,144.3558197,258.6299438,112.9938202,261.1759644,100.8248138"/>
	<path class="st1" d="M298.3627319,169.2556152c2.7169189-12.9879913,4.5159912-23.3019867,6.2169189-35.6230011
		l-2.5720215-0.9979858c-0.1209717,0.1759949-0.2349854,0.348999-0.3540039,0.5219879
		c-1.6159668,11.3800049-3.362915,21.2540131-5.9179688,33.477005c0,0.0010071-0.5759277,2.7839966-0.6309814,3.0209961
		c1.0460205-0.0410004,2.1209717-0.0769958,3.1970215-0.1019897
		C298.3346558,169.3866272,298.3627319,169.2556152,298.3627319,169.2556152"/>
	<path class="st1" d="M323.3161011,169.1710052c0.7889404-2.7909851,1.6069336-5.9109955,2.4459229-9.3239899
		c0,0,3.2330322-14.0120087,3.2399902-14.0469971c0,0,2.7089844-13.3350067,2.7149658-13.355011
		c0.7880859-4.1669922,1.3260498-7.5999908,1.6070557-10.2009888c1.4730225,0.1489868,3.6080322,0.3619995,3.6679688,0.3639984
		c0,0,4.0180664,0.1499939,4.1240234,0.1499939c0,0,3.3709717-0.1170044,4.2990723-0.1470032
		c0.2419434-0.8769989,0.513916-1.8600006,0.8239746-2.9799957c-0.2249756,0.0240021-3.2160645,0.3450012-3.2160645,0.3450012
		c-0.1069336,0.0090027-4.5349121,0.1609955-4.5349121,0.1609955c-0.1020508,0-4.1260986-0.1519928-4.1260986-0.1519928
		c-0.0579834-0.0090027-2.190918-0.2180023-3.664917-0.3619995c-0.2750244,2.5950012-0.8200684,6.0319977-1.6051025,10.1999969
		c-0.0048828,0.0110016-2.7149658,13.3509979-2.7149658,13.3509979c-0.0079346,0.0370026-3.2330322,14.0480042-3.2330322,14.0480042
		c-1.1339111,4.598999-2.2288818,8.6539917-3.2598877,12.102005c1.5828857-0.0710144,3.3979492-0.1530151,3.3979492-0.1530151
		H323.3161011z"/>
	<path class="st1" d="M351.4876099,160.9641113c0,0,3.3349609-13.7879944,3.3409424-13.8179932
		c0,0,3.2879639-14.9470062,3.2910156-14.9629974c0,0,3.0749512-14.8040009,3.0809326-14.822998
		c0,0,2.6040039-13.3250122,2.6120605-13.3429871c0,0,1.8010254-10.0450134,1.8590088-10.3870239
		c1.4759521,0.1370239,3.7230225,0.3359985,3.7779541,0.3399963c0,0,4.2349854,0.1450195,4.3179932,0.1450195
		c0,0,3.9470215-0.0950012,4.0570068-0.1029968c0,0,0.1280518-0.0130005,0.335083-0.0320129
		c0.2249756-0.8699951,0.4689941-1.8469849,0.7539062-2.9660034c-0.1879883,0.0200195-3.7149658,0.375-3.7149658,0.375
		c-0.1080322,0.0119934-4.0539551,0.1040039-4.0539551,0.1040039c-0.0810547-0.0019836-4.3170166-0.144989-4.3170166-0.144989
		c-0.059082,0-2.3000488-0.2090149-3.7780762-0.3359985c-0.0629883,0.3370056-1.8609619,10.375-1.8609619,10.375
		c-0.0090332,0.0279846-2.6119385,13.3569794-2.6119385,13.3569794c-0.0030518,0.0120087-3.0810547,14.8150024-3.0810547,14.8150024
		c-0.0040283,0.0169983-3.2939453,14.9620056-3.2939453,14.9620056c-0.0030518,0.0299988-3.335083,13.8190002-3.335083,13.8190002
		c-1.0980225,4.2619934-2.1350098,7.9429932-3.1009521,10.9909973c1.3280029-0.0579987,2.8430176-0.1159973,3.4689941-0.147995
		C349.9525757,166.7481232,350.7095337,164.0101166,351.4876099,160.9641113"/>
	<path class="st2" d="M145.3743286,167.9799194c-0.5860596-0.443985-0.9880371-1.1019897-1.2410889-1.9139862
		c0.8239746,0.2969971,1.7860107,0.4639893,2.9130859,0.4639893c1.0599365,0,2.0979004-0.1499939,3.0969238-0.401001
		c-0.3289795,1.1990051-0.6760254,2.4700012-0.8209229,3.0070038
		C147.6613159,169.0799255,146.3283081,168.7109222,145.3743286,167.9799194"/>
	<path class="st2" d="M93.8793335,146.5137177l0.3218994,0.8430023l-10.6870117,10.9840088
		c0.0090332-0.0090027-3.0119629,3.1429901-3.0119629,3.1429901l-0.394043,0.4120026l-0.5689697,0.029007
		c-5.7689209,0.2449951-20.9549522,0.7289886-25.648922,0.7289886h-5.4720459
		c-0.0419922,0.3510132-0.0889893,0.6760101-0.1359863,1.0310059l-0.2060547,1.5919952h8.4350586
		c4.6929932,0,19.8819542-0.4839935,25.6529503-0.7329865l0.5679932-0.0210114l0.3950195-0.4160004
		c0,0,3.0180664-3.151001,3.0109863-3.1419983l10.6890869-10.9869995l-0.3240967-0.8430023
		c-0.3809814-1.0039978-6.0319824-15.2709961-11.052002-26.802002c2.1470947,0.2570038,4.7590332,0.477005,7.5970459,0.477005
		c2.1300049,0,4.1519775-0.1389923,5.6820068-0.2810059c-0.4000244-1.0629883-0.7850342-2.0799866-1.0500488-2.7809906
		c-1.4949951,0.1689911-4.2799072,0.4409943-7.256958,0.4409943c-2.8349609,0-5.4489746-0.2229919-7.5899658-0.4779968
		C87.8493042,131.2427216,93.4993286,145.505722,93.8793335,146.5137177"/>
	<path class="st2" d="M207.6414185,124.8367157c2.0489502-1.5119934,9.55896-3.6669922,15.9299316-3.6669922
		c1.9980469,0,3.9870605,0.2129974,5.8919678,0.6320038c1.8970947,0.4109955,3.6280518,1.1080017,5.1409912,2.071991
		c0.1550293,0.0970001,0.2919922,0.2180023,0.4379883,0.322998c-0.8378906-1.1839905-1.855957-2.1799927-3.0599365-2.9459991
		c-1.5150146-0.9589996-3.2459717-1.6589966-5.1469727-2.0820007c-1.9040527-0.4089966-3.8809814-0.6199951-5.8880615-0.6199951
		c-6.3659668,0-13.8839111,2.1549988-15.927002,3.6640015c-0.2089844,2.0130005-1.1469727,4.8200073-1.8789062,6.7640076
		c1.4229736-1.07901,2.7078857-1.9750061,4.2539062-2.655014
		C207.5033569,125.8007202,207.5933228,125.2967224,207.6414185,124.8367157"/>
	<path class="st2" d="M106.8031616,139.0958099c0,0,3.7529297-4.2299957,3.7879639-4.2689972
		c0,0,2.9899902-3.6579895,3.0239258-3.6999969c2.3840332-3.173996,2.887085-3.8439941,3.026001-4.0439911
		c-0.0310059,0.0469971-0.0639648,0.1019897-0.0639648,0.1019897s2.901001-3.947998,3.6290283-4.9420013
		c9.480957,0.7519989,14.5100098,0.4140015,16.4260254,0.2779999l1.8579102-0.1089935c0,0,0.8380127-5.2409973,0.8380127-5.2579956
		c0,0,0.7299805-4.8479919,0.9300537-6.2009888c3.9210205-1.1560059,8.6119385-3.1300049,12.3779297-4.8420105
		c0.4400635-1.6629944,0.8630371-3.1900024,1.2070312-4.4079895c-3.8549805,1.8580017-10.7850342,5.019989-16.2059326,6.6289978
		c-0.2041016,1.3459778-0.934082,6.1989899-0.934082,6.1989899c0,0.0119934-0.8339844,5.2539978-0.8339844,5.2539978
		l-1.8609619,0.1109924c-1.9140625,0.1330109-6.9439697,0.4779968-16.4229736-0.2740021
		c-0.7330322,0.9940033-3.6290283,4.9370117-3.6290283,4.9370117s0.0279541-0.0490112,0.0599365-0.0970001
		c-0.1379395,0.1929932-0.6359863,0.8649902-3.0198975,4.0390015c-0.0371094,0.04599-3.0290527,3.6989899-3.0290527,3.6989899
		c-0.0240479,0.0299988-1.5909424,1.7929993-2.6989746,3.0480042L106.8031616,139.0958099z"/>
	<path class="st2" d="M153.5465698,119.8584137h-0.8760986c-0.0599365,0.3220062-0.1289062,0.6500092-0.1849365,0.9640045
		l-0.2890625,1.6600037h3.9720459c0,0,1.177002-0.0209961,1.8790283-0.0310059
		c0.230957-1.0549927,0.5039062-1.9989929,0.776001-2.7489929c-1.4150391,0.0540009-2.8780518,0.1179962-2.8780518,0.1179962
		C155.9104614,119.8204193,153.5465698,119.8584137,153.5465698,119.8584137"/>
	<path class="st2" d="M182.6331177,126.7086182l2.4759521,1.2200012l1.3619385-1.5829926
		c1.309082-1.3730011,2.8510742-2.5930023,4.572998-3.6269989c1.7210693-1.026001,3.6760254-1.548996,5.7969971-1.548996
		c0.2980957,0,0.5679932,0.0359955,0.8480225,0.0599976c0.2540283-0.552002,0.5250244-1.1090088,0.8260498-1.6849976
		c-0.9500732-0.4550018-2.4250488-0.9960022-4.2990723-0.9960022c-2.1239014,0-4.0718994,0.5189972-5.7939453,1.5449982
		c-1.723999,1.0309906-3.2659912,2.2529907-4.5739746,3.6289978l-0.7139893,0.8289948
		C182.8560181,125.7286224,182.6331177,126.7086182,182.6331177,126.7086182"/>
	<path class="st2" d="M222.6290894,153.9025116l1.2049561-6.2399902l0.44104-2.0690002c0,0-1.5880127,0.3099976-3.2921143,0.6459961
		l-0.980957,5.0359955c-0.0050049,0.0360107-0.9379883,4.3040009-0.9379883,4.3040009
		c-0.348999,1.5500031-0.8649902,2.9710083-1.5279541,4.2450104c-0.6690674,1.2689972-1.5390625,2.3399963-2.5910645,3.1889954
		c-1.0749512,0.8619995-2.3979492,1.2819977-4.0439453,1.2819977c-0.8400879,0-1.5500488-0.1499939-2.1900635-0.3759918
		c0.1190186,0.2669983,0.2370605,0.5339966,0.3770752,0.79599c0.8209229,1.4580078,2.3120117,2.1730042,4.4389648,2.2020111
		c3.0859375,0.0469971,5.6390381-2.927002,5.6390381-2.927002c0.3679199-0.480011,0.7030029-0.9900055,0.9938965-1.5449982
		c0.6640625-1.2660065,1.177002-2.6880035,1.5250244-4.2470093
		C221.6849976,158.1985168,222.6220093,153.9355164,222.6290894,153.9025116"/>
	<path class="st2" d="M71.769104,130.9124146l3.4439697-0.196991c0,0,0.0489502-0.0059967,0.1199951-0.0099945
		c0.2590332-1.07901,0.5250244-2.0430145,0.7540283-2.8230133c-1.6300049,0.0970001-3.4970703,0.2100067-3.4970703,0.2100067
		l-3.44104,0.197998c-0.052002,0.0010071-3.9439697,0.098999-3.9439697,0.098999h-10.240963l-0.5629883,2.6199951h13.4310265
		C67.8320923,131.0094147,71.7219849,130.9184265,71.769104,130.9124146"/>
	<path class="st2" d="M32.2315102,163.4571075c0,0,2.9639893-12.4049988,2.9729004-12.4289856
		c0,0,3.0750732-14.276001,3.0800781-14.303009c0,0,2.8189697-14.2949982,2.8220215-14.3130035
		c0,0,2.2958984-12.5649872,2.3018799-12.5999908c0,0,1.3740234-8.8580017,1.3911133-8.9700012
		c3.1109619,0.2569885,6.6759033,0.4100037,10.6229248,0.4370117c0,0,11.6340294,0.0499878,11.6619835,0.0499878
		c0,0,10.1430664-0.1430054,10.1800537-0.1459961c0,0,2.5009766-0.105011,4.9699707-0.2070007
		c0.2650146-1.0700073,0.5450439-2.0079956,0.7910156-2.7619934c-2.697998,0.1109924-8.3790283,0.3450012-8.3790283,0.3450012
		c-0.039917,0.0029907-10.1870117,0.1479797-10.1870117,0.1479797c-0.0269775,0-11.6639366-0.0499878-11.6639366-0.0499878
		c-3.9420166-0.0310059-7.5090332-0.1799927-10.6230469-0.4370117c-0.0150146,0.1150208-1.3879395,8.9710083-1.3879395,8.9710083
		c-0.0059814,0.0360107-2.2969971,12.5939941-2.2969971,12.5939941c-0.0070801,0.0200043-2.8240967,14.3180084-2.8240967,14.3180084
		c-0.0059814,0.0209961-3.0809326,14.3009949-3.0809326,14.3009949c-0.0100098,0.0310059-2.9749775,12.423996-2.9749775,12.423996
		c-0.9240723,3.6580048-1.7320557,6.5050049-2.4150391,8.503006c0.8950195-0.0169983,2.1669922-0.0429993,3.4659424-0.0610046
		C31.1414204,167.6441193,31.6624165,165.700119,32.2315102,163.4571075"/>
	<path class="st2" d="M103.9074097,169.2195129c0,0-1.5720215-4.54599-1.5770264-4.5659943
		c0,0-1.7570801-4.8569946-1.7740479-4.8930054l-0.8890381-2.2539978l-0.8399658-2.177002
		c0,0-0.4199219,0.480011-1.1069336,1.2670135l0.2128906,0.5379944c0.0150146,0.0410004,1.7730713,4.8950043,1.7730713,4.8950043
		c0.0100098,0.0189972,1.5760498,4.5629883,1.5760498,4.5629883c-0.0061035-0.0169983,0.6019287,1.6160126,1.0179443,2.7380066
		c0.1600342-0.0099945,0.8829346-0.0410004,1.6199951-0.0780029
		C103.9163208,169.2455139,103.9043579,169.2135162,103.9074097,169.2195129"/>
	<path class="st2" d="M160.0286255,169.1710052c2.039917-7.4669952,3.9368896-15.04599,5.631958-22.5820007
		c1.9029541-8.4519958,3.4599609-16.6269989,4.6350098-24.2619934c1.2939453,0.1419983,3.0919189,0.3370056,3.1560059,0.3410034
		c0,0,3.7039795,0.1409912,3.8120117,0.1409912c0,0,2.0830078-0.0839996,3.0679932-0.1210022
		c0.2049561-0.8789978,0.4719238-2.0149994,0.6939697-2.9769897c-0.2989502,0.0370026-2.8039551,0.3280029-2.8039551,0.3280029
		c-0.1060791,0.0079956-3.5830078,0.1489868-3.5830078,0.1489868c-0.1120605,0-3.8110352-0.1409912-3.8110352-0.1409912
		c-0.0670166-0.0079956-1.8630371-0.1999969-3.1529541-0.3390045c-1.1730957,7.6360016-2.736084,15.8050079-4.637085,24.2519989
		c-1.9069824,8.477005-4.0570068,17.0100098-6.3879395,25.3640137c1.5189209-0.0710144,3.2399902-0.1530151,3.2399902-0.1530151
		H160.0286255z"/>
	<path class="st2" d="M193.6539917,160.1128082c0-3.3249969,0.9649658-6.4499969,2.8638916-9.2899933
		c1.901001-2.8269958,4.6850586-4.826004,8.2790527-5.9349976c1.5930176-0.4880066,3.6020508-0.9049988,5.9499512-1.2559967
		c0,0,6.8320312-0.9440002,6.8450928-0.9440002c0,0,3.8759766-0.5709991,3.9129639-0.5740051
		c1.019043-0.1759949,1.8439941-0.4839935,2.4530029-0.9140015c0.6140137-0.4319916,1.0479736-1.0670013,1.3010254-1.8889923
		c0.2440186-0.8240051,0.3690186-1.9490051,0.3690186-3.4430084c0-1.6170044-0.2850342-2.9530029-0.8520508-3.9819946
		c-0.5739746-1.0350037-1.282959-1.852005-2.1850586-2.5c-0.1939697-0.1439972-0.3929443-0.2730103-0.6049805-0.3939972
		c0.0540771,0.0929871,0.1149902,0.1729889,0.1650391,0.2669983c0.5649414,1.0299988,0.8530273,2.3730011,0.8530273,3.9830017
		c0,1.4959869-0.1210938,2.6239929-0.3660889,3.4440002c-0.2589111,0.8190002-0.6929932,1.4579926-1.3009033,1.8889923
		c-0.6120605,0.4329987-1.4350586,0.7420044-2.4560547,0.9150085c-0.032959,0.0029907-3.9110107,0.572998-3.9110107,0.572998
		c-0.0150146,0.0069885-6.8509521,0.946991-6.8509521,0.946991c-2.3499756,0.3460083-4.3520508,0.7700043-5.9460449,1.2550049
		c-3.5939941,1.1069946-6.3790283,3.1060028-8.2779541,5.9369965c-1.901001,2.8399963-2.8649902,5.9629974-2.8649902,9.2830048
		c0,4.1499939,1.2469482,7.4429932,3.7019043,9.7870026c0.394043,0.3819885,0.8220215,0.7109985,1.2630615,1.0329895
		C194.4459839,166.1328125,193.6539917,163.3968201,193.6539917,160.1128082"/>
	<path class="st2" d="M131.4840698,167.1480103c-0.6860352-1.4039917-1.0321045-3.0269928-1.0321045-4.7689972
		c0,0,0.0960693-2.4109955,0.1030273-2.548996c0.032959-0.220993,0.4119873-2.8110046,0.4119873-2.8280029v0.003006
		c0,0,0.736084-3.5749969,0.736084-3.5610046l1.039917-4.822998l4.7330322-21.3139954c0,0-3.1330566,0.0540009-3.2189941,0.0569916
		l-4.1380615,18.6350098l-1.0419922,4.8239899c0.0030518-0.0169983-0.7290039,3.5579987-0.7290039,3.5579987s0-0.0029907,0,0
		c0,0.0160065-0.3839111,2.6070099-0.4158936,2.826004c-0.0050049,0.1390076-0.1051025,2.5509949-0.1051025,2.5509949
		c0.0040283,1.7390137,0.3500977,3.3590088,1.0321045,4.7690125c0.690918,1.4109955,1.6279297,2.5800018,2.7919922,3.4720001
		c0.177002,0.1369934,0.3679199,0.2639923,0.5539551,0.3889923
		C131.9450073,167.9960175,131.6969604,167.5900116,131.4840698,167.1480103"/>
	<path class="st1" d="M286.8041382,49.5414276c-1.3780518-2.1069946-2.0100098-4.4719849-2.0100098-6.0229797
		c0-0.3040161,0.0249023-0.5680237,0.0670166-0.7980042c0.4709473-2.3500061,3.1658936-7.0960083,5.5419922-9.7610168
		c8.1398926-9.1080017,14.2329102-13.0589905,16.237915-14.3580017c8.0159912-5.2209768,14.0700684-7.4400015,16.651001-8.3899832
		c0,0,0.6569824-0.2440186,0.6600342-0.2440186c3.1729736-1.2029724,6.2950439-2.0229802,7.3730469-2.0899968
		c0.7709961-0.04599,1.8359375-0.0679932,2.1809082,0.2780156c0.3000488,0.302002,0.5480957,0.696991,0.8179932,1.5820007
		c-0.3688965-0.0159912-0.7739258-0.0029907-1.1199951,0.0180054c-1.0789795,0.0669861-4.2039795,0.8859863-7.375,2.0929871
		l-0.6560059,0.243988c-2.5849609,0.9470215-8.6379395,3.1679993-16.6560059,8.3879995
		c-2.0039062,1.2990112-8.0909424,5.2510071-16.2338867,14.3619995c-2.3780518,2.6620178-5.0740967,7.4050293-5.5430908,9.757019
		c-0.0439453,0.2269897-0.065918,0.4979858-0.065918,0.7980042c0,1.3259888,0.4678955,3.25,1.4619141,5.0969849
		C287.5720825,50.3694305,287.1420288,50.0584259,286.8041382,49.5414276 M317.7240601,52.4234467
		c-4.0869141,3.1539917-14.9379883,11.5359802-17.6529541,13.8800049c-2.4520264,2.1169739-5.05896,3.9879761-6.3690186,4.7399902
		c0.0009766-0.0029907-0.1560059,0.0979919-0.1560059,0.0979919c-0.6049805,0.3760071-1.2480469,0.7449951-1.9379883,0.8139954
		c-0.105957,0.5410156,0.06604,0.9460144,0.2039795,1.1600037c0.1750488,0.2740173,0.598999,0.7359924,1.4840088,0.7359924
		c0.7650146-0.0189819,1.4720459-0.4199829,2.1290283-0.8320007c0,0,0.1589355-0.0950012,0.1539307-0.0950012
		c1.3120117-0.7559814,3.9180908-2.6239929,6.3720703-4.7379761c2.7139893-2.3470154,13.565918-10.7279968,17.651001-13.882019
		l1.4639893-1.1329956c6.2369385-4.8309937,13.8540039-9.0220032,21.4399414-11.8039856
		c2.5250244-0.9210205,5.1090088-1.4850159,6.2869873-1.3670044c0.4190674,0.0369873,1.012085,0.2630005,1.5891113,0.5879822
		l-0.0670166-0.1609802c-0.4160156-1.0960083-2.4090576-2.2050171-3.3990479-2.3080139
		c-1.1779785-0.1170044-3.7619629,0.4410095-6.2900391,1.3699951c-7.5830078,2.7770081-15.2019043,6.9680176-21.4429932,11.8050232
		L317.7240601,52.4234467z M296.5971069,44.0634308c0.7369385,0.2700195,1.3709717-0.1090088,1.7519531-0.3359985
		c0,0,0.1600342-0.0969849,0.1190186-0.072998l0.7370605-0.4349976c6.7579346-4.0580139,12.2049561-6.9249878,16.197998-8.5180054
		l0.2939453-0.1119995c7.8310547-3.1380005,10.7950439-3.9239807,11.8399658-3.9629822
		c-0.3179932-1.0770264-0.8449707-1.7130127-1.5799561-1.8710022c-0.7160645-0.125-3.4019775,0.4530029-12.1380615,3.9530029
		l-0.2939453,0.117981c-3.9919434,1.5899963-9.4420166,4.4550171-16.1999512,8.5169983l-0.7340088,0.4290161
		c0.0379639-0.0209961-0.1220703,0.0740051-0.1220703,0.0740051c-0.223999,0.1349792-0.5319824,0.3129883-0.8959961,0.3889771
		c-0.0250244,0.098999-0.0410156,0.1970215-0.0410156,0.2940063c0,0.105011,0.0100098,0.2099915,0.0300293,0.3129883
		C295.6670532,43.3994293,296.0470581,43.8564301,296.5971069,44.0634308 M353.0200806,50.7214508
		c-0.026001,0.1399841-0.0529785,0.2719727-0.0760498,0.394989l-0.7089844,3.42099l2.8250732-2.0529785
		c0.0429688-0.0310059,4.1339111-2.9970093,7.93396-5.2190247c0.9310303-0.5439758,4.2819824-2.1789856,5.8649902-2.6619873
		c0.4520264-0.1409912,1.3210449-0.053009,2.1330566,0.3009949c-0.0839844-0.2030029-0.1829834-0.3989868-0.3000488-0.5960083
		c-0.8459473-1.3979797-2.9119873-1.8289795-3.7130127-1.5849915c-1.5799561,0.4840088-4.9329834,2.1210022-5.8649902,2.6650085
		c-3.7989502,2.2210083-7.8900146,5.1879883-7.9310303,5.2149963L353.0200806,50.7214508z M373.2820435,53.3294525
		c-0.0299072,0.2749939-0.0609131,0.4440002-0.0609131,0.4519958l-0.4570312,3.0419922l2.5539551-1.7180176
		c0.0410156-0.0239868,4.2540283-2.8479919,6.1309814-3.723999l0.0440674-0.019989l0.0479736-0.0249939
		c2.6009521-1.4630127,6.2750244-2.8259888,8.9320068-3.2990112c2.4530029-0.4379883,3.7399902,0.1100159,5.4289551,0.9960022
		c0.0841064,0.0450134,0.1630859,0.0930176,0.2420654,0.1430054c-0.6280518-0.8930054-1.3349609-1.6069946-2.1220703-2.0220032
		c-1.6859131-0.8840027-2.9729004-1.4339905-5.4299316-0.9979858c-2.6600342,0.4769897-6.3310547,1.8359985-8.93396,3.2999878
		l-0.0419922,0.0239868l-0.0471191,0.0240173c-1.8769531,0.8720093-6.0899658,3.6959839-6.1309814,3.723999L373.2820435,53.3294525z
		 M365.5160522,64.2524261c0.0880127-0.5910034,0.5970459-2.6329956,3.4510498-8.7359924
		c0.2879639-0.5950012,0.1970215-1.2680054-0.2359619-1.7139893c-0.3990479-0.4160156-1.0010986-0.5350037-1.5740967-0.3390198
		c-0.013916,0.0610046-0.0379639,0.1170044-0.072998,0.177002c-2.8479004,6.1010132-3.3599854,8.1380005-3.4499512,8.7330017
		c-0.4449463,3.1289978,0.5529785,5.803009,1.0620117,6.2080078c0.4039307,0.3150024,0.8049316,0.3789978,1.1379395,0.3429871
		C365.4871216,67.7704315,365.2490845,66.092453,365.5160522,64.2524261 M399.5940552,62.7644501
		c-1.0179443-2.2850037-1.7779541-3.4150085-3.375-5.0440063c-0.1970215-0.2019958-0.4389648-0.3999939-0.7130127-0.5899963
		c0.8699951,1.0650024,1.4780273,2.1099854,2.2070312,3.7539978c0.6010742,1.3609924,1.355957,3.690979,2.243042,6.9339905
		l0.1669922,0.6260071c0.0739746,0.2900085,0.1779785,0.6650085,0.2800293,1.0069885
		c0.1109619-0.3309937,0.2039795-0.6940002,0.2438965-1.0189819l0.0090332-0.1010132
		c0.0820312-0.7219849,0.1230469-1.4630127,0.1369629-2.2179871
		C400.3480835,64.6824493,399.9430542,63.5544281,399.5940552,62.7644501 M283.6760864,75.8264313
		c-0.1300049-4.0419922,1.4229736-7.0419922,1.7370605-7.6019897c4.1529541-7.401001,10.6949463-14.9089966,10.7619629-14.980011
		l-1.7919922-2.0039978c0,0.0029907-0.052002,0.03302-0.1270752,0.07901l0.0360107,0.0480042
		c-0.0609131,0.0709839-6.6029053,7.5759888-10.7550049,14.9790039c-0.3149414,0.5559998-1.8709717,3.5579834-1.737915,7.5999756
		c0.0769043,2.3610229,0.5799561,7.7050171,3.4279785,8.9860229
		C284.0140991,80.7714386,283.7350464,77.5244293,283.6760864,75.8264313 M339.3401489,66.6614227
		c0.1019287-1.0069885,0.6929932-3.5249939,1.2749023-4.8049927c0.2940674-0.6399841,1.7280273-3.0639954,2.9960938-5.1990051
		c1.4659424-2.4830017,2.8588867-4.8320007,3.237915-5.6659851l0.0440674-0.0929871
		c0.2419434-0.5160217,0.6419678-1.3740234,0.0620117-2.1080017c-0.2250977-0.2940063-0.7130127-0.6790161-1.6361084-0.5840149
		c-0.072998,0.3070068-0.1999512,0.5939941-0.3049316,0.8139954l-0.0419922,0.0950012
		c-0.3800049,0.8349915-1.7719727,3.178009-3.2409668,5.6640015c-1.2680664,2.1360168-2.7020264,4.5599976-2.993042,5.197998
		c-0.5849609,1.2799988-1.1789551,3.7960205-1.2719727,4.8080139c-0.2470703,2.4309998,0.177002,4.9709778,1.0699463,6.4689941
		c0.2719727,0.4599915,0.8399658,0.5939941,1.3079834,0.6019897
		C339.3571167,70.3914337,339.163147,68.4974518,339.3401489,66.6614227"/>
</g>
<g>
</g>
<g>
</g>
<g>
</g>
<g>
</g>
<g>
</g>
<g>
</g>
</svg>
