<?xml version="1.0" encoding="utf-8"?>
<!-- Generator: Adobe Illustrator 24.1.3, SVG Export Plug-In . SVG Version: 6.00 Build 0)  -->
<svg version="1.1" id="Layer_1" xmlns="http://www.w3.org/2000/svg" xmlns:xlink="http://www.w3.org/1999/xlink" x="0px" y="0px"
	 viewBox="0 0 791.5 362.5" style="enable-background:new 0 0 791.5 362.5;" xml:space="preserve">
<style type="text/css">
	.st0{fill:#DA1A32;}
	.st1{fill-rule:evenodd;clip-rule:evenodd;}
	.st2{fill:#FFFFFF;}
</style>
<g id="iPiId8_2_">
	<g>
		<g>
			<path class="st0" d="M346.3,362.5h-10.1l-2-1.1c-0.3-0.1-0.5-0.3-0.8-0.4c-0.2-0.1-0.3-0.2-0.5-0.3c-28.1-12-55.1-27.1-80-44.7
				c-30.2-21.3-53.8-43.8-72.3-68.9c-18.1-24.6-29.7-49.6-35.4-76.6c-1.1-5.3-1.8-10.6-2.4-15.8c-0.2-1.7-0.4-3.5-0.7-5.2L142,149
				v-18.9l0.1-0.6c0.1-1,0.3-2,0.4-3c0.3-2.2,0.6-4.5,0.9-6.8c4.2-28.2,15.9-51.6,34.8-69.5c21.3-20.2,46.2-28.6,74-25.2
				c19.9,2.5,38.1,11.5,55.8,27.7c3.2-4.2,6.6-8.3,10.1-12.2C332.2,25,347,14,363.2,7.2c14.5-6.1,28.8-8.3,42.6-6.8
				c17,1.9,31.8,10.4,43.8,25c9.7,11.8,16.2,25.9,20.6,44.3c3.1,12.8,3.1,25.4,3.2,37.7c0.1,11-0.9,21.9-2.9,32.4
				c-6,31.9-18.7,62.7-37.7,91.5c-15.4,23.4-31.3,47-46.6,69.9c-8.6,12.8-17.2,25.5-25.7,38.3c-0.8,1.3-1.7,2.5-2.5,3.8
				c-3.3,4.9-6.5,9.6-9.1,14.4L346.3,362.5z M160.5,147.8c0.2,1.6,0.4,3.2,0.6,4.8c0.6,5,1.2,9.6,2.1,14.2
				c5.1,24.3,15.6,47.1,32.1,69.4c17.3,23.4,39.6,44.6,68.1,64.7c22.8,16.1,47.4,30,73.1,41.3c2-3.2,4.1-6.3,6.1-9.3
				c0.8-1.2,1.7-2.4,2.5-3.7c8.6-12.8,17.1-25.6,25.7-38.4c15.3-22.8,31.2-46.4,46.5-69.7c17.6-26.8,29.4-55.3,35-84.8
				c1.8-9.3,2.6-19,2.6-28.8c-0.1-11.7-0.1-22.8-2.7-33.5c-3.7-15.6-9.1-27.3-17-36.9c-9-11-19.3-17-31.6-18.4
				c-10.8-1.2-21.7,0.6-33.4,5.5C356.7,30,344.1,39.4,331.8,53c-9.2,10.2-17.3,21.8-24.1,34.5c-0.8,1.4-2,3.5-4.6,5.1l-17,11.2
				l2.8-20.2c0.1-0.4,0.1-0.8,0.2-1.2c0.1-1,0.3-2.2,0.5-3.4c0.8-4.5,1.8-9.7,3.5-14.9c-14.1-12.2-27.9-18.8-43.1-20.7
				c-22.4-2.8-41.7,3.8-59,20.3c-16,15.2-25.6,34.4-29.2,58.8c-0.3,2.1-0.6,4.2-0.8,6.4c-0.1,0.8-0.2,1.7-0.3,2.5V147.8z"/>
		</g>
	</g>
</g>
<g>
	<g>
		<polyline class="st1" points="107.4,229.5 121.7,190.3 110.8,190.3 96.6,229.5 60.5,229.5 94.4,136.1 130.5,136.1 118.4,169.5 
			129.2,169.5 141.3,136.1 177.4,136.1 143.6,229.5 107.4,229.5 		"/>
	</g>
	<g>
		<polyline class="st1" points="387,229.5 383.6,187.1 368.2,229.5 338,229.5 371.9,136.1 402.1,136.1 407.1,178.2 434.1,101.5 
			464.4,101.5 418.7,229.5 387,229.5 		"/>
	</g>
	<g>
		<polyline class="st1" points="446,229.5 473.1,154.8 451.7,154.8 458.5,136.1 537.4,136.1 530.7,154.8 509.2,154.8 482.1,229.5 
			446,229.5 		"/>
	</g>
	<g>
		<polyline class="st1" points="645,229.5 641.6,187.1 626.2,229.5 596,229.5 629.9,136.1 660.1,136.1 665.1,178.2 680.3,136.1 
			710.6,136.1 676.7,229.5 645,229.5 		"/>
	</g>
	<g>
		<polyline class="st1" points="53.1,251.2 56.9,241 279,241 275.2,251.2 53.1,251.2 		"/>
	</g>
	<g>
		<polyline class="st1" points="330.5,251.1 334.2,241 746.2,241 742.4,251.1 330.5,251.1 		"/>
	</g>
	<g>
		<polyline class="st1" points="0,249.6 40.6,136.2 0.1,136.2 8.4,112.3 103,112.3 94.3,136.1 78.2,136.1 37.9,249.6 0,249.6 		"/>
	</g>
	<path class="st1" d="M285.9,250.3l19.1-54.5c2.6-7.2,1.1-8.5-8-8.4l-15.1,42.1h-36.2l33.9-93.3H314c32.7-0.3,44.5,2.9,37.3,24.6
		c-6.5,19.8-16.5,18.7-27.1,20.1c0,0,18.4,1.3,14.7,13.5l-19.4,55.9H285.9z M309.9,152l-7.6,20.9c10.6-0.2,10.8-0.7,14.7-9.8
		C319.7,156.6,322,151.8,309.9,152z"/>
	<path class="st1" d="M532.4,155.7c12.1-20.4,41.3-22.7,57.4-21.3c18,1.6,27.5,11,24.8,21.3c-2.1,7.7-18.2,50.8-18.2,50.8
		c-10.8,27.9-55.8,28.3-72.8,21.5c-15.5-6.2-11.7-18.9-6.4-32.5C528.1,165.6,532.4,155.7,532.4,155.7z M567.2,157.4l-17.9,49
		c-2,5.5-3.3,9.8,2.5,9.3c1.7-0.2,5.2,1.2,9-9.5l17.6-48.6c2.2-7.1,0.8-7.5-2.8-7.6C571.9,149.9,569.7,151.5,567.2,157.4z"/>
	<path class="st1" d="M180.3,155.7c12.1-20.4,41.3-22.7,57.4-21.3c18,1.6,27.5,11,24.8,21.3c-2.1,7.7-18.2,50.8-18.2,50.8
		c-10.8,27.9-55.8,28.3-72.8,21.5c-15.5-6.2-11.7-18.9-6.4-32.5C176.1,165.6,180.3,155.7,180.3,155.7z M215.2,157.4l-17.9,49
		c-2,5.5-3.3,9.8,2.5,9.3c1.7-0.2,5.2,1.2,9-9.5l17.6-48.6c2.2-7.1,0.8-7.5-2.8-7.6C219.8,149.9,217.6,151.5,215.2,157.4z"/>
	<path class="st1" d="M730.8,196h-33.7c0,0-5.7,14.5-5.1,19.5c0.5,5.4,1.7,14.5,30.9,16c17,0.8,42.4-4.8,48.2-17.1
		c3.1-6.5,12.2-22.8,2.6-31.5c-5.4-4.8-15.9-10.2-26-14.9c-8.4-3.9-3.5-10.9-2.4-13.8c1.1-2.8,6.2-5.5,10.9-3.8
		c3.3,1.2-2.5,13.2-2.8,13.8h33.6c4.8-13.7,9.5-22.7-8.5-27.8c-8.7-2.5-39-6-58.4,7.1c-7.9,5.3-15.6,22.8-12.2,30.8
		c3.8,8.8,11.1,8.9,32.2,22.4c2.3,1.5,1.3,6.1,1,7.2c-0.3,1.2-1.9,10.1-8.8,11.5c-2.8,0.5-8.6,0.5-6.8-4.8
		C727.4,205.5,730.8,196,730.8,196z"/>
</g>
<g>
	<path d="M453.3,270.3v12.2h-2.9v-11.4c0-3.5-2.1-5.6-5.5-5.6c-4.1,0.1-6.4,3-6.4,7.3v9.7h-3v-11.4c0-3.5-2-5.6-5.5-5.6
		c-4,0.1-6.5,3-6.5,7.3v9.7h-2.9v-19.8h2.9v4.5c1.3-3.1,4-4.5,7.5-4.6c3.7,0,6.3,1.9,7.1,5.2c1.2-3.5,4-5.1,7.8-5.2
		C450.5,262.7,453.3,265.6,453.3,270.3z"/>
	<path d="M465.2,285.3c-1.2,3-3.3,4.6-5.9,4.6c-1.6,0-3-0.5-4.2-1.5l1.2-2.4c0.9,0.6,1.8,0.9,2.8,0.9c1.5,0,2.8-0.9,3.6-2.8l0.8-1.8
		l-8.2-19.6h3.1l6.6,16.3l6.3-16.3h3L465.2,285.3z"/>
	<path d="M488,281.2c-1.4,0.9-2.9,1.5-4.5,1.5c-2.9,0-5-1.7-5-5.6v-11.3h-2.8v-2.4h2.8v-5.2h2.9v5.2l6.3,0v2.4h-6.3v10.8
		c0,2.4,0.9,3.3,2.6,3.3c1,0,2.1-0.3,3.1-1L488,281.2z"/>
	<path d="M510.7,270.3v12.2h-2.9v-11.4c0-3.5-2.1-5.5-5.6-5.5c-4.2,0-6.7,3-6.7,7.2v9.7h-2.9v-27.8h2.9v12.5c1.3-3.1,4-4.5,7.7-4.5
		C507.9,262.7,510.7,265.6,510.7,270.3z"/>
	<path d="M535.2,272.6c0,5.9-4.2,10-10,10c-5.8,0-10-4.1-10-10c0-5.9,4.2-9.9,10-9.9C531.1,262.7,535.2,266.7,535.2,272.6z
		 M518.1,272.7c0,4.3,3,7.3,7.1,7.3c4.1,0,7.1-3,7.1-7.3c0-4.3-3-7.3-7.1-7.3C521.1,265.4,518.1,268.4,518.1,272.7z"/>
	<path d="M543.3,267.2c1.3-2.9,3.7-4.5,7.1-4.5v3c-4.2-0.1-6.7,2.5-7.1,6.4v10.5h-2.9v-19.8h2.9V267.2z"/>
	<path d="M572.4,270.3v12.2h-2.9v-11.4c0-3.5-2.1-5.5-5.6-5.5c-3.9,0-6.3,2.6-6.6,6.3v10.6h-2.9v-19.8h2.9v4.3c1.4-3,4-4.4,7.6-4.5
		C569.6,262.7,572.4,265.6,572.4,270.3z"/>
	<path d="M589.1,281.2c-1.4,0.9-2.9,1.5-4.5,1.5c-2.9,0-5-1.7-5-5.6v-11.3h-2.8v-2.4h2.8v-5.2h2.9v5.2l6.3,0v2.4h-6.3v10.8
		c0,2.4,0.9,3.3,2.6,3.3c1,0,2.1-0.3,3.1-1L589.1,281.2z"/>
	<path d="M611.3,272.6c0,5.9-4.2,10-10,10c-5.8,0-10-4.1-10-10c0-5.9,4.2-9.9,10-9.9C607.1,262.7,611.3,266.7,611.3,272.6z
		 M594.2,272.7c0,4.3,3,7.3,7.1,7.3c4.1,0,7.1-3,7.1-7.3c0-4.3-3-7.3-7.1-7.3C597.1,265.4,594.2,268.4,594.2,272.7z"/>
	<path d="M634.5,270.3v12.2h-2.9v-11.4c0-3.5-2.1-5.5-5.6-5.5c-3.9,0-6.3,2.6-6.6,6.3v10.6h-2.9v-19.8h2.9v4.3c1.4-3,4-4.4,7.6-4.5
		C631.7,262.7,634.5,265.6,634.5,270.3z"/>
	<path d="M652.5,264.5l-1.1,2.3c-1.5-1-3.5-1.6-5.4-1.6c-2.2,0-3.9,0.8-3.9,2.6c0,4.4,11,2.1,11,9.2c0,3.9-3.4,5.6-7.2,5.6
		c-2.8,0-5.7-1-7.6-2.8l1.1-2.2c1.7,1.6,4.2,2.5,6.6,2.5c2.3,0,4.2-0.9,4.2-2.8c0.1-4.8-10.9-2.3-10.9-9.3c0-3.8,3.3-5.4,6.9-5.4
		C648.6,262.7,650.9,263.3,652.5,264.5z"/>
	<path d="M660,280.9c0,1.1-0.8,1.9-1.8,1.9c-1.1,0-1.8-0.8-1.8-1.9c0-1.1,0.8-1.9,1.8-1.9C659.2,278.9,660,279.8,660,280.9z"/>
	<path d="M680.8,265.6l-1.6,2.1c-1.5-1.4-3.5-2.3-5.9-2.3c-4.1,0-7,3-7,7.3c0,4.3,2.9,7.3,7,7.3c2.6,0,4.7-0.9,6.1-2.5l1.7,1.8
		c-1.8,2.1-4.5,3.4-7.9,3.4c-5.7,0-9.8-4.1-9.8-10c0-5.9,4.1-10,9.8-10C676.4,262.7,679,263.7,680.8,265.6z"/>
	<path d="M703.6,272.6c0,5.9-4.2,10-10,10c-5.8,0-10-4.1-10-10c0-5.9,4.2-9.9,10-9.9C699.4,262.7,703.6,266.7,703.6,272.6z
		 M686.5,272.7c0,4.3,3,7.3,7.1,7.3c4.1,0,7.1-3,7.1-7.3c0-4.3-3-7.3-7.1-7.3C689.4,265.4,686.5,268.4,686.5,272.7z"/>
	<path d="M741.4,270.3v12.2h-2.9v-11.4c0-3.5-2.1-5.6-5.5-5.6c-4.1,0.1-6.4,3-6.4,7.3v9.7h-3v-11.4c0-3.5-2-5.6-5.5-5.6
		c-4,0.1-6.5,3-6.5,7.3v9.7h-2.9v-19.8h2.9v4.5c1.3-3.1,4-4.5,7.5-4.6c3.7,0,6.3,1.9,7.1,5.2c1.2-3.5,4-5.1,7.8-5.2
		C738.6,262.7,741.4,265.6,741.4,270.3z"/>
</g>
<g>
	<path class="st2" d="M760.8,245.8c0,3.3-2.6,5.9-5.9,5.9c-3.3,0-6-2.6-6-5.9c0-3.2,2.7-5.8,6-5.8
		C758.2,240,760.8,242.6,760.8,245.8z M750.4,245.8c0,2.6,1.9,4.6,4.5,4.6c2.5,0,4.4-2.1,4.4-4.6c0-2.6-1.9-4.7-4.5-4.7
		C752.3,241.2,750.4,243.3,750.4,245.8z M754,248.9h-1.3v-5.8c0.5-0.1,1.3-0.2,2.2-0.2c1.1,0,1.6,0.2,2,0.4c0.3,0.2,0.6,0.7,0.6,1.3
		c0,0.6-0.5,1.1-1.2,1.3v0.1c0.6,0.2,0.9,0.6,1.1,1.4c0.2,0.9,0.3,1.2,0.4,1.4h-1.4c-0.2-0.2-0.3-0.7-0.5-1.4
		c-0.1-0.6-0.5-0.9-1.2-0.9H754V248.9z M754,245.6h0.6c0.7,0,1.3-0.2,1.3-0.9c0-0.5-0.4-0.9-1.2-0.9c-0.4,0-0.6,0-0.7,0.1V245.6z"/>
</g>
</svg>
