<?xml version="1.0" encoding="utf-8"?>
<!-- Generator: Adobe Illustrator 24.1.3, SVG Export Plug-In . SVG Version: 6.00 Build 0)  -->
<svg version="1.1" id="Layer_1" xmlns="http://www.w3.org/2000/svg" xmlns:xlink="http://www.w3.org/1999/xlink" x="0px" y="0px"
	 viewBox="0 0 287.7 287.7" style="enable-background:new 0 0 287.7 287.7;" xml:space="preserve">
<style type="text/css">
	.st0{fill:#FFFFFF;}
	.st1{fill:#23AE49;}
	.st2{fill-rule:evenodd;clip-rule:evenodd;fill:#FFFFFF;}
	.st3{fill-rule:evenodd;clip-rule:evenodd;fill:#FFF200;}
	.st4{fill:#FFF200;}
</style>
<circle class="st0" cx="143.6" cy="144" r="143.6"/>
<g>
	<path class="st1" d="M121.2,1.8C42.7,14.2-10.9,88,1.5,166.5c12.4,78.5,86.2,132.1,164.7,119.7c78.5-12.4,132.1-86.2,119.7-164.7
		C273.5,42.9,199.7-10.6,121.2,1.8z M178.9,28.1c0.1,0.1,0.3,0.2,0.4,0.3c0,0.1-0.1,0.2-0.1,0.3c-0.2,0-0.4,0.1-0.6,0
		c-0.3-0.1-0.5-0.3-0.5-0.6c0,0,0-0.1,0.1-0.1C178.4,27.8,178.6,27.9,178.9,28.1z M175.1,19.2c0.6,0.2,1.2,0.4,1.8,0.6
		c0.1,0.1,0.2,0.3,0.2,0.5c0,0.1-0.1,0.3-0.2,0.3c-0.2,0.1-0.4,0.2-0.6,0.1c-0.8-0.3-1.8-0.4-2.5-1c-0.1,0-0.1-0.2-0.2-0.3
		C174.1,19.2,174.6,19.1,175.1,19.2z M183.7,74.6c-0.7,1-0.9,1.1-1.8,0.8C182.5,75.1,183,74.4,183.7,74.6z M172,6.7
		c-1-0.1-1.7-0.2-2.5-0.7C170.6,5.4,171.3,5.8,172,6.7z M181.2,69.7c0.3,0.2,0.3,0.5,0,0.7c-0.5,0.5-1.2,0.8-2.1,0.6
		C179.8,70.4,180.5,70,181.2,69.7z M153.9,8.8c0.7,0,1.4,0.1,2.3,0.2c-0.1,0.4-0.2,0.7-0.3,1.1c-0.9,0.2-1.8,0.4-2.7,0.3
		c-0.4-0.1-0.8,0-1.1,0c-0.5,0.1-0.9-0.1-1.4-0.5C151.7,9.1,152.7,8.7,153.9,8.8z M151.6,17.8c-0.1,0.3-0.2,0.6-0.3,0.6
		c-0.9,0.2-1.9,0.4-2.8,0.5c-0.4,0-0.8-0.3-1.2-0.5c0.2-0.2,0.3-0.5,0.4-0.6c0.8-0.2,1.6-0.4,2.4-0.4
		C150.5,17.3,151,17.6,151.6,17.8z M141.1,6.9c0.3,0,0.6,0.1,0.9,0.1c0.8,0,1.6-0.1,2.4,0.1c1,0.2,2.1,0,3.2,0c0.1,0,0.3,0,0.4,0
		c0.4,0.5,0.1,0.8-0.2,1.2c-0.3,0.4-0.7,0.8-1.3,0.7c-0.7-0.1-1.3-0.2-2-0.3c-0.6-0.1-1.2-0.2-1.8-0.3c-0.1,0-0.3,0-0.4,0
		c-0.7-0.2-1.5-0.4-2.2-0.7c-0.2-0.1-0.6-0.1-0.7-0.5C139.8,6.9,140.5,6.8,141.1,6.9z M153.1,135.4c0,0,0.2,0.1,0.2,0.2
		c0.1,0.3,0,0.5-0.3,0.6c0,0,0,0,0,0c0,0,0,0,0,0c0.1,0.4,0.1,0.7-0.2,1c-0.2,0.3-0.4,0.6-0.6,0.9c-0.3-0.4-0.1-0.7,0-1.1
		c0.1-0.4,0.4-0.7,0.8-0.8c0,0,0,0,0,0c0,0,0,0,0,0c0,0,0-0.1,0-0.1C152.8,135.8,152.7,135.6,153.1,135.4z M124.4,7.7
		c1.2-0.3,2.5-0.4,3.7-0.6c0.3,0,0.5,0.2,0.8,0.3c-0.1,0.5-0.1,1-0.2,1.6c-1.6,0.7-3.2,0-4.7-0.2C123.7,8.3,123.9,7.8,124.4,7.7z
		 M124.8,13.4c0.1-0.1,0.3-0.1,0.6-0.1c0.1,0.4,0.1,0.8,0.2,1.2c-0.5,0.3-0.9,0.4-1.5,0.3C124.1,14.1,124.5,13.8,124.8,13.4z
		 M126.3,32.5c0.5,0.2,0.8,0.6,0.9,1c0,0.2-0.1,0.5-0.3,0.6c-0.2,0.2-0.6,0.2-0.8,0c-0.4-0.4-0.7-0.8-1.1-1.3
		C125.4,32.4,125.8,32.3,126.3,32.5z M141.2,134.6c0.2-0.6,0.5-1.1,0.8-1.7c0.2,0,0.5-0.1,0.8-0.1c0.1,0.1,0.2,0.2,0.2,0.3
		c-0.5,1.2-0.7,2.5-1.7,3.6C140.7,135.9,141,135.2,141.2,134.6z M119.7,5.8c0.1,0.5-0.1,0.8-0.5,0.9c-1.5,0.3-3,0.7-4.6,0.1
		C116.2,6.2,117.9,6,119.7,5.8z M124,32.6c-0.7,0.4-0.7,0.4-1.5,0.3C123,32.6,123.4,32.5,124,32.6z M121.9,81.1
		c0.7-0.4,1.4-0.7,2.2-0.8c0.4-0.1,0.8-0.2,1.2-0.5c0.5-0.3,1-0.3,1.6-0.3c-0.1,0.2-0.2,0.3-0.3,0.4c-1,0.8-2,1.5-3,2.1
		c-0.2,0.1-0.4,0.2-0.5,0.2c-0.5,0.1-0.9,0.2-1.4,0.2C121.1,81.7,121.2,81.5,121.9,81.1z M147.5,228.1c-0.1,0.1-0.2,0.2-0.4,0.4
		c-0.2-0.1-0.3-0.1-0.4-0.2c-0.1-0.1,0.1-0.4,0.5-0.4C147.3,227.9,147.4,228,147.5,228.1z M143.9,212.8c-0.1,0.5-0.4,0.5-0.7,0.4
		c-0.1-0.1-0.2-0.4-0.4-0.8C143.4,212.6,143.7,212.7,143.9,212.8z M107.1,19.6c0.6,0.1,1.1-0.1,1.7,0.2c0.3,0.2,0.8,0,1.3,0.1
		c-0.2,0.5-0.7,0.3-1.1,0.4c-0.4,0.2-0.8,0.2-1.3,0.3c-0.4,0.1-0.7,0.3-1.1,0.3c-0.4,0-0.8,0-1.3,0
		C105.7,19.9,106.2,19.4,107.1,19.6z M113.8,68.8c-0.1-0.1-0.2-0.2-0.2-0.4c0-0.4,0-0.9,0-1.4c0.3,0,0.6-0.1,0.9,0.1
		c0.3,0.2,0.5,0.4,0.5,0.8c0,0.3-0.1,0.6-0.2,0.8c-0.1,0.1-0.3,0.3-0.4,0.3C114.2,69,114,68.9,113.8,68.8z M139.9,237.5
		c0.8-0.2,1.3-1.2,2.2-0.8c0.1,0.5-0.4,0.5-0.6,0.6c-1.2,0.5-2.2,1.3-3.5,1.6C138.5,238.2,139.2,237.7,139.9,237.5z M92.3,54.7
		c0.6-0.1,1.2-0.1,1.6,0.7c-0.8,0.3-1.4,0.2-2-0.3C92.1,54.9,92.2,54.7,92.3,54.7z M116.2,196.4c-0.5,0.2-0.9,0-1.1-0.3
		c-0.2-0.4-0.4-0.9-0.1-1.4c0.1-0.2,0.5-0.3,0.7-0.1C116.2,195.1,116.3,195.7,116.2,196.4z M119.4,229.8c0.2-0.4,0.6-0.4,1-0.4
		c0.2,0,0.5,0.4,0.4,0.5c-0.4,0.9-1.2,1.6-2.1,2c-0.1,0-0.2-0.1-0.5-0.2C118.7,231,119.1,230.4,119.4,229.8z M79.7,65.1
		c0.1-0.3,0.3-0.3,0.6-0.2c0.2,0.1,0.4,0.2,0.6,0.3c0.1,0,0.1,0.2,0.2,0.3C81,65.7,80.8,66,80.7,66c-0.3,0-0.5-0.1-0.8-0.3
		C79.6,65.6,79.6,65.3,79.7,65.1z M92.3,147.4c0.3-1.1,0.7-2.2,1-3.3c0.2-0.8,0.5-1.5,1.1-2.4c0,0.4,0.1,0.6,0.1,0.8
		c-0.2,0.7,0,1.3,0,2c0,1.1-0.2,2.2-0.4,3.3c-0.1,0.5-0.6,0.7-1.2,0.6C92.4,148.3,92.2,148,92.3,147.4z M74.5,44.1
		c0.4-0.2,0.7-0.1,0.8,0.3c0.1,0.4-0.2,0.6-0.7,0.7C74.6,44.7,74.6,44.4,74.5,44.1z M69.3,33.5c0.6-0.6,1.1-1,2-1.1
		c0.5,0,0.8,0.3,1,0.7c0.1,0.1,0,0.4-0.1,0.5c-0.5,0.8-2.1,0.9-2.8,0.2C69.3,33.8,69.3,33.6,69.3,33.5z M69.2,71.8
		c0,0.2,0,0.3-0.1,0.3c-0.2,0.1-0.4,0.2-0.7,0.2c-1.2,0.1-2.2,0.6-3.2,1.2c-0.1,0.1-0.3,0.1-0.4,0.1c0,0-0.1,0-0.3-0.2
		c0.4-0.5,0.6-0.8,0.9-1.2C66.8,72.2,67.9,71.6,69.2,71.8z M58.7,40.6c0.7-0.6,1.3-1.4,2.4-1.6c0,0.3,0,0.5,0,0.7c0,0.2,0,0.5,0,0.9
		c-0.4,0.1-0.7,0.2-1,0.3c-0.5,0.1-0.9,0.1-1.5,0.2C58.7,40.9,58.7,40.7,58.7,40.6z M33.9,61.1c0.4-0.7,0.8-1.3,1.2-2
		c0.1-0.1,0.3-0.1,0.4-0.1c0.1,0,0.1,0.1,0.2,0.2c0,0,0,0.1,0,0.1c-0.3,0.8-0.5,1.7-1.4,2.1c-0.1,0-0.3,0-0.4-0.1
		C33.9,61.4,33.8,61.1,33.9,61.1z M50.5,170.6c0.7,0.3,1.4,0.6,2.1,0.9c0.5,0.2,0.8,0.6,1,1c0.1,0.1,0,0.3,0,0.4
		c-0.1,0.1-0.3,0.2-0.5,0.3c-0.1,0-0.2,0-0.3-0.1c-1.2-0.5-2.4-1.2-3.5-2.5C49.9,170.6,50.3,170.5,50.5,170.6z M19.7,85.9
		c0,0,0.1,0,0.1,0c0,0.1-0.1,0.1-0.1,0.2C19.6,86,19.6,86,19.7,85.9C19.6,85.9,19.6,85.9,19.7,85.9z M7.3,179.3
		c-0.5,0.2-0.5-0.1-0.5-0.3c-0.3-1.7-0.5-3.4-0.7-5.2c-0.1-0.5-0.1-1-0.1-1.6C6.7,174.6,7,177,7.3,179.3z M12.8,203
		c0-0.1,0-0.1,0-0.2c0,0,0.1,0,0.1,0c0,0,0,0.1,0,0.1C12.9,202.9,12.8,203,12.8,203z M9.2,157.4c0.1,0.7,0,1.4-0.2,2
		c-0.1,0.2-0.3,0.3-0.5,0.4c-0.1-0.1-0.2-0.2-0.2-0.3c-0.3-1.4-0.7-2.7-0.8-4.1c-0.2-1.9-0.4-3.8-0.8-5.6c-0.2-1.3-0.1-2.5,0.6-4
		c0.4,2.3,0.8,4.3,1.2,6.2C8.7,153.9,8.9,155.6,9.2,157.4z M12.6,147.1c0.8,0.1,1,0.6,1.1,1.1c0.1,0.5,0.1,1,0,1.6
		c-0.1,0.5-0.3,1-0.5,1.5C12.8,150.3,12.5,148.8,12.6,147.1z M18.4,175.8c-0.2,0.4,0,0.9,0,1.5c-0.4,0.2-0.7,0.2-0.8-0.2
		c-0.2-0.6-0.3-1.3-0.5-2c-0.1-0.2-0.1-0.5-0.2-0.7c-0.1-0.2-0.2-0.5-0.2-0.7c-0.1-1.1-0.1-2.2-0.1-3.3c0.4-0.2,0.7-0.1,0.8,0.2
		c0.2,0.9,0.5,1.6,0.9,2.4C18.6,173.9,18.8,174.8,18.4,175.8z M26.7,173.8c-1-1.2-1.3-2.7-1.8-4c-0.1-0.3-0.1-0.7-0.1-1
		c0-0.7,0.1-1.3,0.1-2c0.1,0,0.2-0.1,0.3,0c0.4,0.5,0.9,0.9,1.2,1.4c0.3,0.8,0.3,1.8,0.9,2.6c0.1,0.2,0.1,0.6,0.1,0.8
		c0,0.6-0.1,1.2-0.2,1.7C27.1,173.5,26.8,173.6,26.7,173.8z M29.3,186.7c0-0.4,0.4-0.6,0.7-0.4c0.2,0.2,0.5,0.4,0.5,0.6
		c0.1,0.5,0.2,0.9,0.3,1.4c0.1,0.6,0.1,1.2,0.5,1.6c0.3,0.3,0.2,0.5-0.1,0.7c-0.3,0.2-0.7,0.2-0.9-0.1c-0.2-0.4-0.5-0.8-0.6-1.3
		c-0.1-0.4-0.2-0.8-0.3-1.5C29.4,187.6,29.3,187.1,29.3,186.7z M41.6,241.5c-0.3-0.1-0.6-0.2-0.7-0.4c-0.5-0.6-1.2-1.1-1.6-1.8
		c-0.5-0.8-1.2-1.5-1.7-2.3c-0.1-0.1-0.2-0.3-0.4-0.7c0.9,0.3,1.3,0.7,1.7,1.2c0.9,1,1.7,2.1,2.7,2.9c0.2,0.2,0.3,0.4,0.4,0.6
		C42.1,241.2,41.8,241.6,41.6,241.5z M39.1,221.6c-0.1,0.2-0.1,0.5-0.2,0.7c-0.2,0.6-0.2,0.6-1.1,0.6c-0.3-0.5-0.4-1.1-0.3-1.9
		c0.3-0.1,0.6-0.2,0.9-0.2C39.1,220.7,39.3,220.9,39.1,221.6z M28.8,155.2c0,0.2-0.1,0.3-0.1,0.5c-0.1,0-0.2,0-0.2,0
		c-0.5-1.1-1-2.2-1.5-3.2c-0.1-0.2-0.1-0.6-0.1-0.9c0-0.1,0.2-0.3,0.3-0.3c0.1,0,0.3,0,0.4,0.1C28.5,152.8,28.7,153.5,28.8,155.2z
		 M27.8,136.5c-0.2,0.1-0.4,0-0.5,0c-0.5-0.8-1-1.6-1.5-2.4c-0.3-0.5-0.6-1-0.7-1.6c-0.1-0.7-0.2-1.4-0.3-2.2c0-0.3,0-0.6,0-1.1
		c0.4,0.3,0.6,0.3,0.7,0.5c0.6,1.2,1.2,2.4,1.8,3.6c0.1,0.3,0.3,0.6,0.3,1c0.1,0.4,0.2,0.8,0.5,1.2C28.5,136,28.4,136.3,27.8,136.5z
		 M25.3,103.7c0.5-0.3,1.1-0.6,1.7-0.3C26.6,103.9,26.4,104,25.3,103.7z M50.2,220.9c0.1-0.7,0.1-1.4,0.3-2.1c0.2-0.6,0.6-1,1.3-1
		c0.3,0,0.7,0,1,0c0,0.2,0.1,0.4,0.1,0.5c-0.5,1-0.9,2.1-1.7,3c-0.2,0.2-0.4,0.3-0.6,0.2C50.4,221.3,50.2,221,50.2,220.9z
		 M54.3,228.2c-0.4,0.3-0.6,0.6-0.9,0.8c-0.1,0.1-0.3,0-0.4,0c-0.1-0.1-0.2-0.3-0.1-0.4c0.1-0.3,0.3-0.6,0.5-1.1
		C53.7,227.8,54,227.9,54.3,228.2z M59.8,259.4c-0.2,0-0.4,0-0.4-0.1c-0.9-0.9-2.2-1.2-3-2.3c0.6-0.4,1.1-0.3,1.5,0.1
		c0.6,0.6,1.2,1.2,1.8,1.9C59.8,259,59.8,259.2,59.8,259.4z M58.3,248.8c0.1-0.2,0.1-0.4,0.2-0.5c0.7-0.8,1.5-0.6,1.9,0.4
		c0.2,0.5,0.4,1.1,0.6,1.8C59.8,250.2,59.1,249.5,58.3,248.8z M60.7,219.1c-1.3,1.1-2.6,2.2-3.9,3.3c-0.1,0.1-0.2,0.1-0.5,0.2
		c0.3-0.5,0.4-0.9,0.7-1.2c1.1-1.2,2.1-2.5,3.2-3.7c0.3-0.3,0.7-0.7,1.3-0.5C61.5,218,61.3,218.7,60.7,219.1z M69.5,250.2
		c-0.1,0.5-0.2,1-0.3,1.5c-0.6,0.2-0.9,0.1-1.2-0.5c-0.6-1-1-2.2-1.7-3.1c-0.1-0.1-0.2-0.4-0.2-0.5c-0.2-0.9-0.4-1.8-0.5-2.7
		c0-0.1,0-0.3,0.1-0.5c0.3,0,0.6-0.1,0.8,0c0.9,0.6,1.7,1.4,1.8,2.6c0,0.8,0.3,1.4,0.9,1.9C69.5,249.2,69.5,249.7,69.5,250.2z
		 M45.9,81.7c0.6-1.1,0.7-1.2,1.9-1.5C47.5,81.1,46.7,81.2,45.9,81.7z M77,252.6c0,0.3,0,0.6-0.2,0.8c-0.2,0.3-0.5,0.4-0.8,0.4
		c-0.4-0.6-0.8-1.2-1.2-1.8c-0.3-0.5-0.4-1.1-0.4-1.8c0.3,0.1,0.5,0.1,0.7,0.2c0.5,0.4,1,0.8,1.4,1.2C76.8,251.9,77,252.2,77,252.6z
		 M78.8,242.3c-0.3,0.5-0.5,0.9-0.8,1.3c-0.6,0.7-1.1,1.6-2,2.1c-0.1-0.2-0.3-0.3-0.5-0.5c0.3-0.8,0.7-1.6,1.1-2.3
		c0.5-0.9,1.2-1.1,2.2-0.9C78.8,242.1,78.9,242.2,78.8,242.3z M74.5,236.2c0.3-1.1,0.3-1.1,1.2-1.8
		C75.9,235.4,75.2,235.7,74.5,236.2z M76.6,233.4c0-0.4-0.1-0.7,0-0.8c0.2-0.3,0.5-0.5,0.9-0.1C77.3,232.7,77,233,76.6,233.4z
		 M73.4,200.9c-0.5,0.3-1,0.7-1.7,0.8c-0.9,0.1-1.7,0.2-2.6,0.3c0-0.1,0-0.1,0-0.2c0.5-0.2,1-0.3,1.4-0.6c0.5-0.4,1.1-0.3,1.6-0.5
		c0.5-0.2,0.9-0.4,1.4-0.6C73.8,200.5,73.6,200.8,73.4,200.9z M61.1,125.2c-0.6-0.6-1.1-1.3-1.6-1.9c0,0,0,0,0,0c0,0,0,0,0,0
		c-0.4-0.5-0.5-1-0.4-1.8c0.5,0.7,0.7,1.2,0.4,1.8c0,0,0,0,0,0c0,0,0,0,0,0c0.1,0,0.3-0.1,0.4-0.1c0.7,0.1,1.2,0.5,1.6,1
		C61.7,124.5,61.6,124.7,61.1,125.2z M50.9,55.6c-0.4,0.4-0.9,0.7-1.3,1.1c-0.3-0.2-0.4-0.3-0.2-0.5c0.8-0.9,1.5-1.8,2.3-2.8
		c0.1-0.1,0.2-0.3,0.4-0.5c0.3-0.3,0.3-0.6,0-0.9c0.7-0.6,1.3-1.2,2.3-0.9c0,0.2,0.1,0.5,0,0.7c-0.3,1.2-1.2,1.9-2.1,2.6
		C51.8,54.9,51.3,55.2,50.9,55.6z M76.9,193.5C76.9,193.5,76.9,193.5,76.9,193.5c0.2,0.7,0,1.3-0.4,1.8c-0.5,0.6-1.1,0.5-1.8,0.5
		c0.3-0.9,1-1.3,1.4-1.9c0.1-0.2,0.4-0.3,0.6-0.4C76.7,193.4,76.8,193.5,76.9,193.5C76.9,193.4,76.9,193.4,76.9,193.5
		c0.1-0.1,0.2-0.2,0.2-0.3C77.1,193.2,77,193.3,76.9,193.5C76.9,193.4,76.9,193.5,76.9,193.5z M59.1,47.8c0.7-0.3,1.2-0.5,1.9-0.2
		c0.3,0.2,0.7,0.1,1.2,0.2c0.1,0.5-0.1,0.9-0.5,1.2c-0.5,0.3-1,0.4-1.5,0c-0.3-0.2-0.6-0.3-0.8-0.6C59.2,48.3,59.2,48,59.1,47.8z
		 M66.1,88.9c-0.1-0.5-0.2-0.9-0.3-1.4c0.3-0.2,0.7-0.4,1-0.6c0.1,0,0.3,0.1,0.4,0.1c0.7,0.6,1.5,1.2,2.2,1.9c0,0-0.1,0.1-0.2,0.2
		c-0.6,0.2-1.3,0.4-1.9,0.5C66.6,89.8,66.3,89.6,66.1,88.9z M74.3,115.3c0.2,0.1,0.6,0.3,0.9,0.5c0.2,0.1,0.1,0.6-0.1,0.7
		c-0.6,0.2-1,0.1-1.4-0.4C73.8,115.8,74,115.6,74.3,115.3z M96.9,265.4c-0.3-0.6-0.2-0.9,0.2-1.2c0.3-0.2,0.6-0.1,0.9,0.1
		c0.5,0.3,1.1,0.4,1.3,1.1C98.5,266,97.7,265.5,96.9,265.4z M70.8,76.6c-0.8,0.3-1.4,0.7-2.1,1.1c-0.9,0.5-1.8,1.1-2.8,1.3
		c0,0,0,0,0,0l0,0l0,0c-0.3,0-0.5,0-0.8,0.1c-0.2,0-0.3,0.2-0.2,0.4l0,0l0,0c0,0,0,0,0,0c-0.1-0.2,0-0.4,0.2-0.4
		c0.3-0.1,0.5,0,0.8-0.1l0,0c0,0,0,0,0,0c0-0.2,0-0.4,0.1-0.5c0.2-0.2,0.4-0.2,0.6-0.3c0.9-0.6,1.9-0.8,2.7-1.5
		C69.8,76.5,70.3,76.4,70.8,76.6C70.8,76.6,70.8,76.6,70.8,76.6C70.9,76.6,70.9,76.6,70.8,76.6c0-0.2,0-0.4,0-0.5
		c0.5-0.3,0.9-1,1.8-0.7C72.1,75.9,71.5,76.2,70.8,76.6C70.9,76.6,70.9,76.6,70.8,76.6C70.9,76.6,70.9,76.6,70.8,76.6z M93.4,199.3
		c-0.4,0.5-0.5,0.5-1.2-0.2c0.7-0.5,1.1-1.4,2.3-1.3C94,198.4,93.7,198.9,93.4,199.3z M65.8,38.4c0.2-0.3,0.3-0.5,0.4-0.8
		c0.6-0.1,1.1-0.2,1.6-0.3c0.6,0.3,1.2,0.7,1.7,1.4C68.2,39.5,67.1,38.6,65.8,38.4z M109.1,273.7c-0.1,0.1-0.2,0.1-0.3,0.1
		c-0.1,0-0.3,0-0.4,0c-0.1-0.1-0.3-0.2-0.4-0.4c0-0.1,0.1-0.4,0.2-0.4c0.3-0.1,0.6-0.1,0.8,0c0.1,0,0.2,0.3,0.2,0.5
		C109.4,273.5,109.2,273.6,109.1,273.7z M107.5,255.4c-0.1,0.1-0.3,0.3-0.4,0.4c0,0-0.1,0-0.1,0c-0.3-0.1-0.3-0.3-0.2-0.6
		c0-0.1,0.2-0.2,0.3-0.3c0.1-0.2,0.3-0.4,0.6-0.2C107.8,254.8,107.8,255.1,107.5,255.4z M100.5,198.2c-0.4,0.2-0.1,0.7-0.3,1
		c-0.2,0.3-0.3,0.7-0.4,1.1c-0.1,0.1,0,0.3-0.1,0.4c-0.9,0.8-1.1,2-1.6,3c-0.4,0.8-0.9,1.6-1.7,2.2c-0.4-0.4,0.3-0.8,0.1-1.2
		c1.2-2.1,1.8-4.5,3.3-6.4C100,198.2,100.3,198.2,100.5,198.2C100.6,198.1,100.6,198.1,100.5,198.2c0-0.2-0.1-0.3-0.1-0.5
		C100.5,197.9,100.5,198,100.5,198.2C100.6,198.1,100.6,198.1,100.5,198.2C100.6,198.1,100.6,198.1,100.5,198.2z M98.1,188.6
		c-0.3-0.2-0.6-0.3-0.9-0.6c0.2-0.5,0.4-0.8,0.5-1.2c0.2-0.5,0.8-0.6,1.2-0.4c0.4,0.2,0.7,0.5,1,0.7c0,0.2,0.1,0.3,0.1,0.4
		C99.8,189.1,99.4,189.4,98.1,188.6z M99.9,174.6c-0.5,0.1-0.9-0.1-1.3-0.3c-0.6-0.4-1.4-0.3-2-1.1c1.1,0.2,2,0.3,2.9,0.4
		c0.1,0,0.3,0.1,0.3,0.2c0.1,0.1,0.1,0.3,0.1,0.4C100,174.3,99.9,174.5,99.9,174.6z M126.6,279.7c-0.5,0.5-1.1,0.8-1.8,0.9
		c-1.1,0.2-2.3,0.5-3.4,0.7c-0.3,0.1-0.7,0-1,0c-0.2,0-0.3-0.3-0.4-0.5c0.1-0.1,0.2-0.2,0.3-0.2c0.9,0,1.4-0.7,2.2-0.9
		c0.8-0.2,1.3-0.7,2-1.1c0.6-0.4,1.3-0.9,2.1-0.6C126.5,278.5,126.5,279.1,126.6,279.7z M126,249.3c-0.3,0.3-0.5,0.7-0.8,1
		c-1.4,1-2.8,2.1-4.4,2.9c-0.3,0.2-0.7,0.3-1.1,0.1c0-0.8,0.2-1.5,0.9-2c0.7-0.6,1.5-1.2,2.2-1.8c0.1-0.1,0.2-0.1,0.3-0.1
		c0.8-0.2,1.7-0.4,2.5-0.7c0.1,0,0.4,0.1,0.5,0.2C126.1,248.9,126.1,249.2,126,249.3z M120.9,210.9c0,0.2-0.1,0.6-0.3,1.1
		c-0.2,0.7-0.5,1.5-0.7,2.2c-0.1,0.3-0.3,0.6-0.4,0.9c-0.5,0.7-0.9,1-1.1,0.7c-0.2-0.4,0-0.8,0.1-1.2c0.3-1.2,0.6-2.3,0.9-3.5
		c0.1-0.4,0.3-0.7,0.5-1c0.1-0.1,0.4-0.2,0.6-0.1c0.1,0,0.2,0.3,0.3,0.5C120.9,210.5,120.9,210.6,120.9,210.9z M100.6,92.8
		c0.6-0.4,0.6-0.4,2.1-0.4C101.6,92.9,101.6,92.9,100.6,92.8z M133.8,251.6c-1.1,0.7-1.5,2.1-2.9,2.6c-0.1-0.3-0.2-0.5-0.1-0.7
		c0.3-0.7,0.6-1.4,0.9-2.1c0.2-0.4,0.5-0.8,0.9-1.1c0.5-0.3,1-0.8,1.5-1.2c0.3-0.3,0.7-0.5,1.2-0.4
		C135.1,250,134.2,250.7,133.8,251.6z M103.2,69.7c-0.1-0.7,0.1-1.2,0.7-1.7c0.3,0.2,0.6,0.3,1,0.5C104.5,69.2,104.3,70,103.2,69.7z
		 M100.1,41.9c-0.4,0.1-0.7,0.2-1.1,0.2c-0.4,0-0.7-0.2-1.1-0.3c0.1-0.2,0.1-0.4,0.2-0.4c0.7-0.1,1.3-0.1,2-0.2
		c0.1,0,0.2,0.2,0.3,0.3C100.3,41.7,100.2,41.9,100.1,41.9z M98.5,21.3c-0.9,0.6-1.9,1-2.9,1.1c-1.4,0.2-2.8,0.5-4.2,0.7
		c-0.3,0-0.6,0-1.1,0c0.4-0.2,0.5-0.3,0.7-0.4c0.5-0.1,1-0.2,1.4-0.3c0.2,0,0.5,0,0.7-0.1c0.9-0.5,1.9-0.6,2.8-1
		c1.2-0.6,2.4-0.6,3.8-0.8C99.4,21.1,98.8,21.1,98.5,21.3z M133.7,226.8c-0.2,0.5-0.7,0.7-1.1,0.6c-0.1,0-0.2-0.2-0.2-0.3
		c-0.1-0.5,0.4-1,0.9-0.9c0.2,0,0.4,0.2,0.6,0.3C133.7,226.6,133.7,226.7,133.7,226.8z M100.2,14.4c-0.6,0.1-1.1,0.2-1.7,0.3
		c-0.1,0-0.3-0.3-0.4-0.5c0.8-0.3,1.6-0.4,2.6-0.4C100.4,14.1,100.3,14.3,100.2,14.4z M158.4,283.1c-0.3,0.1-0.6,0.1-0.8,0.2
		c-1.7,0.9-3.5,0.9-5.3,1.3c-0.6,0.1-1.2,0.2-1.7,0.3c-0.7,0.1-1.4,0.2-2.2,0c-0.5-0.1-1.1,0-1.6,0.1c-0.7,0.1-1.4,0.2-2.2,0.3
		c-0.4,0-0.4,0-0.9-0.6c0.3-0.1,0.6-0.2,0.8-0.2c4.1-0.7,8.2-1.3,12.2-1.9c0.8-0.1,1.5-0.2,2.2,0.4
		C158.7,282.9,158.6,283,158.4,283.1z M151.6,247.2c-0.1,0.1-0.3,0-0.6,0c0.4-0.9,0.8-1.6,1.8-2.1
		C152.5,246,152.3,246.8,151.6,247.2z M144.6,201.3c0.4-0.6,0.5-0.9,0.7-1.2c0.1,0.2,0.3,0.3,0.3,0.3c0,0.2-0.1,0.5-0.2,0.6
		C145.4,201.2,145.1,201.2,144.6,201.3z M136,135.9c-0.2,1.2-0.8,2.2-1.3,3.3c-0.1,0.1-0.4,0.1-0.6,0.2c-0.3-0.8-0.4-1.5-0.1-2.2
		c0.2-0.3,0.2-0.7,0.3-1.1c0.1-0.9,0.6-1.4,1.4-1.6C136.1,135,136.1,135.5,136,135.9z M156.5,229.4c-0.9,0.3-1.8,0.8-2.7,1.3
		c-0.3,0.2-0.6,0.2-1,0.2c-0.1,0-0.3-0.1-0.3-0.2c0-0.1,0-0.3,0.1-0.4c0.3-0.3,0.6-0.6,0.9-0.7c1.1-0.3,2.1-1.1,3.6-1
		C156.8,229,156.7,229.4,156.5,229.4z M160.5,251.8c0.7-0.9,1.3-1.4,2-1.6c0.4-0.1,0.6,0.2,0.5,0.7
		C162.3,251.2,161.7,251.7,160.5,251.8z M167.9,278.2c-0.6,0.5-1.4,0.8-2.3,0.7c-0.3,0-0.4-0.2-0.4-0.5c1-0.6,1.8-1.1,2.7-1.7
		c0.2-0.1,0.5-0.3,0.7-0.4c0.2-0.1,0.4-0.1,0.7-0.1C169.1,277.2,168.5,277.7,167.9,278.2z M130.4,17.2c-0.5-0.1-1-0.2-1.6-0.3
		c-0.1,0-0.3-0.2-0.3-0.4c0-0.1,0.2-0.3,0.3-0.4c0.5-0.1,1-0.2,1.6-0.3c0,0,0,0,0,0c0.5-0.1,1-0.2,1.4-0.2c0.4,0,0.7,0.2,0.8,0.5
		c0,0.3-0.2,0.7-0.5,0.8C131.6,17.2,131,17.3,130.4,17.2z M140.4,69.9c0.2-0.2,0.5-0.4,0.8-0.6c0.7,0.3,0.9,0.8,1,1.5
		c-0.5,0.2-1,0.4-1.5,0.2C140.2,70.7,140.1,70.2,140.4,69.9z M165.1,226c0.9-0.3,1.8-0.4,2.7-0.5c-0.3,0.7-0.7,1-1.3,1.1
		C166.1,226.6,165.6,226.6,165.1,226z M175,265.6c-0.1,0-0.3,0.1-0.5,0c-0.8-0.2-1.5-0.4-2.6-0.7c1-1,1.8-1.8,3.1-2
		C175,263.8,175,264.6,175,265.6z M175.1,214c-0.2,0.2-0.4,0.5-0.7,0.5c-0.8,0.1-1.3,1-2.2,1c0.1-0.3,0.1-0.6,0.3-0.8
		c0.5-0.8,1.4-1.1,2.3-1.4c0.1,0,0.3,0.1,0.4,0.3C175.3,213.7,175.2,214,175.1,214z M161.5,140.8c-0.3,0.3-0.8,0-0.9-0.4
		c0-0.5,0.9-2.4,1.4-2.6c0.4-0.2,0.8-0.3,1.4,0C163,139,162.3,139.9,161.5,140.8z M153.5,72.3c-0.6,0.1-1.2,0.1-1.8,0.2
		c-0.2-0.2-0.4-0.4-0.6-0.6c0.9-0.5,1.6-0.2,2.4,0.1C153.4,72,153.4,72.1,153.5,72.3z M147.6,37.9c0.2-0.2,0.5-0.5,0.7-0.7
		c0.4-0.3,0.9-0.4,1.4-0.2c0.8,0.4,1.6,0.7,2.1,1.3c0.2,0.9,0.3,1.7,0.4,2.4c0,0.2,0.1,0.5-0.2,0.6c-0.2,0.1-0.5,0.1-0.7,0
		c-0.7-0.4-1.3-0.9-1.3-1.8C148.9,39.3,147.9,39.1,147.6,37.9z M183.3,235.6c-0.4,0.7-1.2,0.9-1.8,1.4c-0.2,0.1-0.4,0.1-0.9,0.2
		c1-1.6,2-2.5,3.5-3.2C184.2,234.8,183.6,235.1,183.3,235.6z M150.7,28.2c-0.7-0.3-1.6-0.3-2-1.3c1-0.2,1.8,0.4,2.6,0.7
		c0.1,0,0.2,0.2,0.4,0.4C151.4,28.3,151,28.3,150.7,28.2z M187,245.3c0.2-0.4,0.3-0.8,0.5-1.2c0.6-0.9,1.2-1.8,1.8-2.6
		c0.4-0.4,0.9-0.7,1.4-1c0.2-0.1,0.5,0,0.8-0.1c0.1,0.6-0.2,1-0.4,1.3c-0.9,1-1.9,2.1-2.9,3.1C188,245,187.7,245.5,187,245.3z
		 M194.1,247.5c-0.3,0.3-1.5,0.9-2,1.1c0.4-1.4,1.4-1.9,2.7-2.4C194.6,246.7,194.4,247.2,194.1,247.5z M181.2,163.7
		c0.4-0.4,0.8-0.3,1.4-0.3C182.1,164.3,182.1,164.3,181.2,163.7z M180.2,149.8c-0.4,0.3-0.8,0.2-1.1-0.2c0.1-0.4,0.2-0.8,0.4-1.2
		c0-0.1,0.2-0.2,0.4-0.2c0.1,0,0.3,0.1,0.3,0.2c0.1,0.1,0.1,0.3,0.1,0.4C180.3,149.2,180.5,149.6,180.2,149.8z M164.8,49.2
		c0,0.1-0.1,0.1-0.1,0.2c-0.2-0.1-0.4-0.3-0.5-0.4c0.1-0.1,0.1-0.2,0.2-0.3C164.7,48.7,164.8,48.9,164.8,49.2z M160.5,22
		c-0.3-0.1-0.7-0.1-1,0c-0.8,0.1-1.5-0.1-2.3-0.2c0.1-0.2,0.1-0.3,0.2-0.3c0.9-0.3,1.9-0.5,2.8-0.8c0.2-0.1,0.5-0.1,0.7-0.1
		c0.9,0.1,1.8,0.3,2.8,1.1C162.4,22,161.5,22.4,160.5,22z M173.3,83.4c0-0.3,0-0.6,0-0.9c0.7-0.3,1.4-0.5,2.1-0.5
		C175.4,83.3,175.1,83.5,173.3,83.4z M188.5,159.6c-0.1-0.4-0.2-0.8-0.3-1.2c0.7,0.2,1.2,0.3,1.9,0.4
		C189.6,159.1,189.4,159.7,188.5,159.6z M205.9,253.5c-0.2,0.1-0.4,0.1-0.7,0.1c0.1-0.2,0.1-0.4,0.1-0.5c0.9-1,1.8-2,2.7-3
		c0.4-0.4,0.9-0.9,1.6-0.5c0,0.1,0.1,0.2,0,0.3c-0.9,1.1-1.7,2.3-3,3C206.5,253.1,206.2,253.4,205.9,253.5z M216.8,264.2
		c-0.4,0.2-0.7,0.5-1.1,0.6c-1.2,0.3-2.2,1-3.3,1.4c-0.2,0.1-0.4,0.1-0.6,0.1c-0.6,0.1-1.2,0.2-1.7,0.7c-0.2,0.2-0.5,0.1-0.8,0.1
		c0.7-0.9,1.3-1.7,2.3-2.2c1.8-0.9,2.7-1.3,4.3-1.5c0.2,0,0.5,0,0.7,0c0.1,0,0.3,0.2,0.3,0.3C216.9,263.9,216.9,264.1,216.8,264.2z
		 M218.3,253.3c-0.8,0.8-1.8,1.4-2.7,2.1c-0.7,0.5-1.5,1-2.3,1.5c-0.1,0.1-0.3,0.1-0.5,0.1c0,0,0,0,0,0l0,0c0,0,0,0,0,0
		c-0.1-0.4,0.1-0.6,0.4-0.8c0.8-0.7,1.7-1.4,2.6-2.1c0.7-0.6,1.5-1.2,2.2-1.8c0.5-0.4,1.1-0.7,1.7-1.1c0.1-0.1,0.3,0,0.6,0.1
		C219.8,252.2,219,252.7,218.3,253.3z M201.8,133.9c0.9,0,0.9,0,1.9,1.3C202.8,134.8,202,134.7,201.8,133.9z M205,135.6
		c0.3-0.4,0.7-0.4,1-0.3c0.3,0.1,0.6,0.3,0.8,0.5c0.1,0.1,0.1,0.4,0.1,0.5c-0.1,0.1-0.3,0.2-0.5,0.2c-0.4-0.1-0.9-0.3-1.3-0.5
		C205.1,135.9,205.1,135.7,205,135.6z M222.6,234.4c0.1,0.4,0.1,0.8-0.2,1.2c-0.3,0.4-0.6,0.5-1,0.5c-0.1,0-0.3-0.1-0.3-0.2
		c-0.1-0.1-0.1-0.3,0-0.4C221.5,235,222,234.6,222.6,234.4C222.7,234.3,222.6,234.4,222.6,234.4c0,0,0.1-0.1,0.1-0.1
		C222.7,234.3,222.7,234.3,222.6,234.4z M211.7,153.2c-0.1,0-0.1-0.1-0.2-0.1c0,0,0-0.1,0.1-0.1c0.1,0,0.1,0.1,0.2,0.1
		C211.8,153.1,211.8,153.2,211.7,153.2z M195.1,50.8c0.4-0.4,0.8-0.4,1.5-0.4C196,51,195.5,50.8,195.1,50.8z M195.8,32.6
		c-0.3-0.1-0.6-0.2-0.8-0.3c-0.2-0.1-0.5-0.3-0.5-0.5c0-0.4,0.3-0.4,0.6-0.4c0.4-0.1,0.9-0.1,1.3-0.2c0.2,0.2,0.4,0.4,0.5,0.6
		C196.8,32.3,196.2,32.7,195.8,32.6z M211.8,128.9c0.3,0.2,0.5,0.3,0.8,0.5c-0.2,0.4-0.4,0.6-0.6,0.9
		C211.5,129.9,211.6,129.5,211.8,128.9z M225.9,217.5c-0.1-0.5-0.1-0.5,0.6-0.7C226.2,217.2,226.1,217.3,225.9,217.5z M213.5,137.4
		c0.1-0.6,0.4-0.9,0.8-1.2c0.1,0,0.2,0,0.2,0c0.1,0.3,0.2,0.5,0.3,0.9C214.3,137.3,213.9,137.4,213.5,137.4z M202.1,47.9
		c1.8-1.1,3.1-0.6,4.2,0.6c-0.2,0.5-0.5,0.7-0.9,0.7c-1.2,0-2.3-0.3-3.2-1.1C202.1,48.1,202.1,48,202.1,47.9z M234.1,240.3
		c-0.1,0-0.2,0-0.3,0c0,0,0,0,0,0l0,0c0,0,0,0,0,0c0-0.1-0.1-0.2,0-0.3c0.5-1,1.1-1.9,1.6-2.9c0.2-0.4,0.5-0.4,0.8-0.4
		c0.4,0,0.6,0.4,0.5,0.7C236,238.6,235.1,239.6,234.1,240.3z M238.7,248.7c-0.2,0.1-0.6-0.1-0.7-0.4c-0.1-0.2,0.1-0.4,0.3-0.4
		c0.4-0.1,0.6,0.1,0.7,0.5C238.9,248.4,238.9,248.6,238.7,248.7z M209,38.8l-0.1,0L209,38.8L209,38.8z M241.6,218.4
		c-0.3,0.2-0.7,0.3-1.1,0c-0.2-0.1-0.4-0.3-0.5-0.5c-0.1-0.2-0.1-0.5,0-0.7c0.1-0.1,0.3-0.2,0.5-0.2c0.3,0,0.7,0.1,1,0.2
		C241.8,217.7,241.9,218.1,241.6,218.4z M214.6,54.8c-0.1,0-0.2-0.3-0.5-0.5c0.7-0.3,1.3-0.4,1.9-0.4c0.2,0,0.4,0.3,0.7,0.5
		C216,54.8,215.3,54.8,214.6,54.8z M222.8,79.7c-0.4-0.1-0.7-0.2-1.1-0.4c0.1-0.8,0.2-1.5,0.6-2C222.9,77.9,222.9,77.9,222.8,79.7z
		 M220.1,30.5c-0.5-0.2-1-0.4-1.4-0.7c-1.1-0.7-2.1-1.5-3.2-2.2c-2-1.2-3.8-2.6-5.7-3.9c-0.1,0-0.1-0.2-0.1-0.3
		c0.4-0.2,0.8,0.1,1.1,0.3c1,0.5,2,1.1,3,1.7c1.2,0.6,2.4,1.4,3.6,2.2c0.8,0.6,1.7,1.1,2.6,1.6c0.4,0.3,0.7,0.6,0.8,1.2
		C220.4,30.5,220.2,30.6,220.1,30.5z M281.7,120.5c0,0.1-0.2,0.1-0.4,0.2c-0.4-0.5-0.4-1.1-0.3-1.7c0.2,0,0.4,0,0.5,0
		C281.9,119.5,281.9,120,281.7,120.5z M279.4,106c0-0.7,0.2-1.3,0.4-2.2c0.3,1.6,1.2,2.8,1.4,4.3c-0.2,0.1-0.4,0.2-0.6,0.2
		c-0.3-0.1-0.7-0.3-0.8-0.5C279.5,107.1,279.4,106.6,279.4,106z M282.5,136.1c0.3-0.4,0.3-0.8,0.3-1.2c-0.1-0.8-0.2-1.6-0.3-2.5
		c-0.1-0.7-0.2-1.4,0-2.2c0.1-0.6,0-1.2-0.1-1.7c-0.3-2.1-0.6-4.1-0.9-6.2c0-0.3,0-0.6,0-1.1c0.3,0.1,0.3,0.1,0.3,0.2
		c0.7,1.5,1.4,3,1.5,4.6c0,0.2,0.1,0.4,0,0.6c-0.2,0.8-0.1,1.6,0.1,2.5c0.4,1.7,0.3,3.4,0.2,5.1c0,0.3-0.1,0.7,0,1
		c0.2,0.9,0,1.7-0.4,2.6c-0.2-0.1-0.4-0.1-0.5-0.2C282.2,137.1,282.1,136.5,282.5,136.1z M273.5,88.7c0-0.1,0.2-0.2,0.3-0.2
		c0.2,0,0.4,0.1,0.5,0.3c0.2,0.5,0.3,1,0.5,1.5c0.2,0.4,0.4,0.9,0.5,1.2c0,0.3,0,0.5,0,0.6c0,0.1-0.2,0.2-0.2,0.1
		c-0.5-0.4-1-0.8-1.4-1.2C273,90.2,273.3,89.4,273.5,88.7z M259.8,62.8c0.6,0.4,1.2,0.7,1.5,1.4c0.2,0.5,0.6,0.8,1,1.2
		c0.5,0.4,0.6,0.8,0.7,1.4c-0.6,0.3-1.1,0-1.6-0.2c-0.4-0.2-0.8-0.5-0.9-1c-0.1-0.4-0.3-0.7-0.5-1C259.7,64,259.6,63.5,259.8,62.8z
		 M264.2,105.8c0.2-0.6,0.5-0.8,1.1-0.9c0.1,0.3,0.2,0.5,0.3,0.7c0.2,0.8,0.3,1.6,0.4,2.4c0.1,0.9-0.3,1.6-0.8,2.2
		c0,0-0.1,0.1-0.1,0.1c-0.3,0.2-0.9,0.1-0.9-0.4C264.1,108.6,263.7,107.2,264.2,105.8z M267.3,134c0.1-1.2,0.9-2.2,1.3-3.4
		c0.2-0.7,0.6-1.3,0.9-1.9c0.5-0.2,1-0.4,1.7-0.2c-0.1,0.2-0.1,0.5-0.2,0.7c-0.9,2.4-2.2,4.6-3.3,6.9c-0.4,0.9-0.9,1.7-1.3,2.6
		c-0.2,0.3-0.4,0.5-0.8,0.3c0,0,0,0,0,0c-0.1,0.1-0.1,0.2-0.2,0.4c0.1-0.1,0.1-0.2,0.2-0.4l0,0c0,0,0,0,0,0c0-0.3-0.1-0.6,0-0.8
		c0.6-1.3,0.7-2.7,1.6-3.8C267.2,134.2,267.3,134.1,267.3,134z M262.6,120.2c0.2-0.6,0.5-1,1.1-1.3c0.3,1,0.2,1.4-0.4,1.8
		c-0.1,0.1-0.3,0.1-0.4,0C262.7,120.6,262.6,120.4,262.6,120.2z M249.7,53.1c0.2-0.1,0.4-0.2,0.7-0.2c0.1,0,0.2,0.1,0.2,0.1
		c0.2,0.2,0.5,0.4,0.7,0.6c0.5,0.5,0.9,1,1.4,1.4c0.5,0.5,1,0.9,1.5,1.3c0.1,0.1,0.2,0.2,0.3,0.3c0.3,0.3,0.3,0.6-0.1,0.8
		c-0.1,0.1-0.3,0.2-0.7,0.3c-0.5-0.7-0.9-1.2-1.2-1.9c-0.4-0.6-0.8-1.2-1.5-1.5c-0.4-0.2-0.7-0.5-1.1-0.7
		C249.6,53.5,249.5,53.2,249.7,53.1z M254.9,95.2c0.2-0.1,0.5-0.2,0.7-0.3c0.2-0.1,0.4-0.3,0.7-0.5c0.1,1-0.2,1.6-0.6,2.2
		c-0.2,0.3-0.6,0.3-0.9,0.3c-0.2,0-0.4-0.2-0.4-0.3C254.1,96,254.3,95.6,254.9,95.2z M247.2,66.8c0.7,0.3,0.4,0.9,0.4,1.3
		c-0.3,0.2-0.4,0-0.5-0.1C246.8,67.6,247,67.2,247.2,66.8z M265.9,192.3c-0.1,0.3-0.3,0.6-0.4,0.9c-0.1,0.3-0.4,0.3-0.7,0.4
		c-0.3,0-0.5-0.2-0.4-0.5c0-0.1,0-0.2,0.1-0.3c0.1-0.3,0.2-0.6,0.3-0.9C265.2,191.7,265.5,192,265.9,192.3z M243.5,55.4
		c0.1,0,0.3,0.3,0.4,0.5c0.1,0.1,0,0.3-0.1,0.4c-0.1,0.1-0.3,0.1-0.4,0.1c-0.7-0.1-1.2-0.6-1.8-1.1
		C242.4,54.7,242.9,55.6,243.5,55.4z M248.2,94.4c0.1-0.1,0.4,0,0.5,0.2c0.1,0.1,0,0.4-0.1,0.5c-0.3,0.4-0.6,0.3-1.2,0
		C247.8,94.8,248,94.6,248.2,94.4z M251.2,120.1c0.4,0.7,0.4,1.4,0.2,2.1c0,0.1-0.2,0.1-0.3,0.2c-0.1-0.1-0.2-0.1-0.2-0.2
		c-0.2-0.6-0.3-1.2-0.5-1.9C250.7,120.2,251,120.2,251.2,120.1z M241.5,76c0,0.5-0.1,0.8-0.4,0.8c-0.2,0-0.3-0.3-0.6-0.5
		C240.9,76.2,241.2,76.1,241.5,76z M246,112.5c0.1,0.1,0.2,0.2,0.2,0.3c0,0.2,0,0.4,0,0.5c-0.1,0.1-0.3,0.2-0.5,0.2
		c-0.2,0-0.5-0.1-0.6-0.3c-0.5-0.8-1.4-1.3-2.2-1.9c-0.1-0.1-0.2-0.3-0.4-0.5c0.8-0.4,1.3-0.3,1.8,0.2
		C244.9,111.6,245.5,112.1,246,112.5z M234.3,48.2c-1.1,0.2-2-0.4-3-0.5c-0.9-0.1-1.9-0.3-2.9-0.4c0-0.2,0-0.5,0.1-0.6
		c0.3-0.5,0.7-1.1,1-1.6c0.6-0.8,0.8-0.8,1.5-0.3c1.1,0.9,2.2,1.8,3.2,2.9C234.3,47.8,234.3,47.9,234.3,48.2z"/>
	<path class="st2" d="M56.9,107c0.1,0.4,0.2,0.6,0.2,0.8c0.4,2.1,0.7,4.1,1,6.2c0.1,0.3,0.1,0.7,0,1c0,0.3-0.2,0.6-0.5,0.6
		c-1.7,0.3-3.3,1.2-5.1,1.2c-0.8,0-1.5,0.2-2.3,0.3c-1.2,0.2-1.8,1.1-2.3,2c-0.1,0.2-0.1,0.7,0.1,1c0.5,0.7,0.6,1.5,0.7,2.3
		c0,0.5,0.3,0.9,0.5,1.3c0.7,1.3,1.8,2.2,2.7,3.4c0.5,0.6,0.9,1.3,1.4,1.9c0.6,0.7,1.2,1.5,1.9,2.2c1.3,1.3,2.2,2.8,3.2,4.3
		c0.8,1.2,1.6,2.4,2.6,3.5c0.8,0.9,1.7,1.5,2.4,2.5c0.2,0.3,0.5,0.5,0.8,0.5c0.6,0.1,1,0.6,1.3,1c1,1.4,2,2.8,2.7,4.4
		c0.4,0.9,0.9,1.8,1.4,2.7c0.3,0.4,0.4,0.9,0.5,1.3c0.1,0.2,0.2,0.4,0.4,0.6c1.1,1.5,2.5,1.6,4.2,1c0.2-0.7,0.5-1.4,1.1-2
		c0.1-0.1,0.3-0.3,0.3-0.5c0-1.2,0.5-2.2,0.5-3.4c0-0.9,0.1-1.9,0.4-2.9c0.2-0.8,0.2-1.6,0.4-2.4c0.1-0.4,0.1-0.9,0.2-1.3
		c0.2-0.8,0.4-1.6,0.1-2.4c-0.1-0.2,0-0.5,0-0.7c0.4-1.8,0.7-3.7,1.1-5.5c0.1-0.8,0.1-1.6,0.2-2.4c0-0.1,0-0.3,0-0.4
		c0.6-1.6,0.7-3.4,1.1-5.1c0.4-1.5,0.6-3,1.1-4.5c0.1-0.3,0-0.7,0-1c0.1-0.5,0.1-1.1,0.2-1.6c0.4-2,0.3-1.4-0.5-3.2
		c0.7-0.2,0.9-0.8,0.9-1.6c-0.6-1-1.4-1.5-2.7-1.5c-1.4-0.1-2.7,0.1-4,0.3c-0.2,0-0.5,0.1-0.7,0.1c-0.4-0.3-0.5-0.6-0.6-1
		c-0.1-1.3-0.3-2.5-0.8-3.7c-0.1-0.3-0.1-0.6-0.2-0.9c-0.1-1,0-1.2,1-1.4c0.4-0.1,0.7-0.1,1-0.5c0.1-0.2,0.4-0.2,0.7-0.3
		c1.4-0.2,2.8-0.5,4.2-0.7c2.2-0.3,4.3-0.7,6.5-1c0.7-0.1,1.3-0.2,2,0c0.3,0.1,0.8,0,1.1,0c0.9-0.1,1.8-0.4,2.7-0.1
		c0.3,0.1,0.7-0.1,1-0.1c0.3,0,0.7,0.1,1,0.1c0.2,0,0.4,0.1,0.6,0.1c1.2-0.2,2.3-0.1,3.5-0.1c1.1,0,2.1,0.1,3.2,0.1
		c0.6,0.8,0.5,1.8,0.5,2.8c-0.1,1.3-0.4,2.6-0.1,3.9c-1.2,0.7-2.3,1.3-3.7,1.2c-0.8,0-1.5,0.2-2.3,0.3c-0.8,0.2-1.4,0.6-1.7,1.4
		c-0.1,0.3-0.3,0.6-0.5,0.9c-0.3,0.5-0.4,0.9-0.3,1.5c0.1,0.4,0,0.9-0.1,1.3c-0.4,1.1-0.6,2.2-1.1,3.3c-0.2,0.6-0.6,1.2-0.4,1.9
		c0,0.2-0.1,0.5-0.2,0.7c-0.3,0.9-0.5,1.7-0.6,2.7c0,0.7-0.2,1.3-0.5,2c-0.5,1.3-0.5,2.7-1.1,3.9c0.1,0.9-0.4,1.8-0.6,2.6
		c-0.2,0.8-0.4,1.7-0.8,2.5c-0.1,0.3-0.3,0.7-0.3,1c0.1,1.2-0.3,2.3-0.4,3.4c-0.1,0.8-0.2,1.7-0.3,2.5c-0.1,0.8-0.3,1.6-0.4,2.4
		c-0.1,0.3-0.2,0.7-0.1,1c0.2,0.8,0,1.5-0.3,2.3c-0.7,2.3-1.4,4.6-2.2,6.9c-0.5,1.4-1,2.8-0.8,4.4c0,0.2-0.1,0.4-0.1,0.5
		c-0.3,1.2-0.5,2.4-0.5,3.6c0,0.3-0.1,0.7-0.2,1c-0.6,1.5-0.8,3.1-1.5,4.5c0.1,1.2-0.7,2.2-1,3.3c-0.5,1.3-0.8,2.7-1.3,4
		c-0.2,0.5-0.3,1-0.3,1.5c0,0.6-0.3,1.1-0.5,1.6c-0.2,0.8-0.3,1.6-0.6,2.4c-0.4,1-0.8,2-1.2,2.9c-0.8,1.8-1.6,3.6-2.4,5.4
		c-0.4,0.9-0.9,1.8-1.2,2.8c-0.5,1.3-1.4,2.3-2.2,3.3c-0.2,0.3-0.5,0.5-0.6,0.8c-0.1,0.4-0.4,0.6-0.7,0.9c-0.3,0.3-0.6,0.6-0.9,1
		c-0.6,0.9-1.4,1.4-2.5,1.5c-1.1,0.1-2.1,0.6-3.1,1.2c-0.3,0.2-0.6,0.2-0.9,0.4c-0.6,0.3-1.1,0.5-1.6,0.9c-1,0.8-2.2,1.1-3.4,1.2
		c-0.9,0.1-1.7,0.2-2.6,0.3c-1.2,0.2-2.4,0-3.6-0.2c-0.7-0.1-1.3-0.1-2-0.2c-0.8-0.1-1.7-0.2-2.4-0.5c-1-0.4-2-0.6-3-0.9
		c-0.6-0.2-1.2-0.3-1.8-0.6c-1.1-0.5-2.3-0.8-3.3-1.4c-0.3-0.2-0.7-0.3-0.9-0.7c-0.1-0.3-0.4-0.4-0.6-0.6c-0.5-0.4-0.8-0.9-1.1-1.5
		c-0.3-0.6-0.6-1.1-0.7-1.7c-0.3-1.1-0.6-2.2-1-3.3c-0.2-0.7-0.4-1.3-0.2-2c0.1-0.5,0.2-1.1,0.1-1.6c-0.1-0.8,0.3-1.6,0.4-2.4
		c0-0.2,0.2-0.5,0.3-0.7c1-1.9,2.6-3.3,4.5-4.4c0.6-0.4,1.3-0.7,1.9-1c0.9-0.5,1.8-0.7,2.8-0.3c0.9,0.3,1.8,0.2,2.7,0.5
		c0.4,0.1,0.9,0.2,1.2,0.4c1.1,0.6,2.3,1.2,3.2,2.1c0.7,0.6,1.1,1.3,1.3,2.2c0.1,0.8,0.2,1.7,0.8,2.3c0.3,1.2,0.7,2.3,0.2,3.5
		c-0.1,0.3-0.3,0.6-0.6,0.8c-0.4,0.4-0.9,0.7-1.3,1.1c-0.4,0.3-0.8,0.6-1,1c-0.4,0.8-1,1.4-1.6,2c0.1,0.4,0.1,0.9,0.2,1.3
		c0.3,0.2,0.6,0.3,0.8,0.5c0.7,0.4,1.4,0.6,2.2,0.5c2.2-0.3,4.3-0.7,6.5-1c0.7-0.1,1.4-0.4,2-0.8c0.1-0.1,0.2-0.3,0.3-0.3
		c1.2-0.2,1.7-1.3,2.4-2.1c0.6-0.7,1.2-1.4,1.7-2.2c1-1.5,1.7-3,1.9-4.7c0.1-0.8,0.3-1.5,0.3-2.3c0-0.4,0-0.8,0-1.2
		c-0.2-1.3-0.5-2.6-0.6-3.9c-0.1-1.4-0.7-2.6-1.3-3.8c-0.4-0.8-0.8-1.5-1-2.4c0-0.1,0-0.2-0.1-0.3c-0.7-0.7-0.7-1.8-1.3-2.6
		c-0.4-0.5-0.8-1-1.1-1.5c-0.9-1.3-1.9-2.6-2.8-3.8c-0.3-0.3-0.5-0.7-0.8-1c-0.4-0.4-0.8-0.7-0.9-1.3c0-0.1-0.2-0.2-0.3-0.3
		c-1.4-1.3-2.4-3-3.7-4.5c-1.4-1.7-2.3-3.6-3.6-5.4c-1-1.5-1.6-3.3-2.7-4.8c-0.5-1.6-1.8-2.8-2.6-4.3c-0.6-1-1.2-1.8-1.8-2.8
		c-0.5-0.7-1.2-1.3-1.4-2.1c-1-1.3-1.8-2.7-2.8-4c-0.8-1.1-1.7-2.3-2.2-3.7c-0.3-0.9-0.9-1.7-1.4-2.5c-0.1-0.2-0.3-0.4-0.4-0.6
		c-0.3-1.5-1.3-2.7-1.8-4.1c-0.1-0.3-0.3-0.5-0.3-0.8c-0.2-0.9-0.8-1.3-1.5-1.6c-0.5-0.2-1.1-0.4-1.7-0.3c-0.5,0.1-1,0-1.4-0.2
		c-0.6-0.2-1.1-0.3-1.7-0.2c-0.2,0-0.5,0.1-0.7,0.1c-0.9-0.1-1.3-0.4-1.4-1.2c-0.2-1.1-0.5-2.2-0.9-3.2c-0.1-0.3-0.2-0.7-0.2-1
		c-0.1-0.6,0.2-1.1,0.8-1.3c0.5-0.2,1.2-0.3,1.6-0.7c0.6-0.5,1.2-0.6,1.8-0.7c1.4-0.2,2.8-0.5,4.2-0.7c0.7-0.1,1.4-0.2,2.1-0.6
		c0.4-0.2,0.8-0.2,1.3-0.3c0.7-0.1,1.4-0.2,2.2-0.4c0.3-0.1,0.6-0.1,0.8-0.2c0.6-0.5,1.2-0.5,1.9-0.6c2.4-0.4,4.9-0.7,7.3-1.2
		c0.7-0.2,1.4-0.2,2.2-0.3c0.2,0,0.4-0.1,0.6,0c0.7,0.4,1.4,0.2,2.1,0c1.6-0.2,3.2-0.5,4.8-0.8C55.9,107.1,56.3,107.1,56.9,107z
		 M109.4,108.4c-1,0.2-1.5,0.8-1.4,1.8c0,0.5,0,1-0.2,1.4c-0.1,0.2-0.2,0.5-0.2,0.7c-0.2,1.1-0.7,2-1.5,2.7
		c-1.6,1.7-2.2,3.9-2.9,5.9c0,1-0.5,1.9-0.7,2.9c0,0.2-0.2,0.4-0.2,0.5c0.2,0.8-0.2,1.5-0.2,2.3c-0.1,1.3-0.3,2.5-0.2,3.8
		c-0.4,0.8-0.3,1.6-0.3,2.4c0,1.4-0.3,2.7,0,4.1c0.2,1.1,0.4,2.2,0.5,3.3c0.2,1.7,0.7,3.3,1.4,4.9c0.2,0.5,0.4,1.1,0.7,1.6
		c0.5,0.9,0.9,1.9,1.7,2.6c0.2,0.2,0.3,0.6,0.5,0.9c0.2,0.3,0.3,0.6,0.5,0.9c0.4,0.8,1.1,1.2,1.8,1.6c0.5,0.3,0.9,0.7,1,1.4
		c0.3,1.6,1.4,2.8,2.4,4.1c0.7,0.9,1.8,1.5,3,1.9c1.5,0.4,3,0.9,4.4,1.7c1.7,1,3.4,1.8,5.2,2.6c0.8,0.3,1.6,0.7,2.5,0.8
		c0.4,0,0.8,0.1,1.1,0.2c1.7,0.5,3.4,1.1,5.1,1.7c1.5,0.5,2.9,0.9,4.5,1.1c0.2,0,0.5,0.1,0.7,0.1c0.4,0,0.8,0.1,1.1,0.1
		c0.8-0.1,1.5-0.1,2.3-0.1c0.8,0,1.5-0.2,2.3-0.4c0.8-0.2,1.5-0.4,2.2-0.6c0.7-0.2,1.6-0.1,2.2-0.8c0.1-0.1,0.3-0.1,0.4-0.1
		c0.8-0.1,1.5-0.4,2.2-0.7c0.5-0.3,0.9-0.5,1.4-0.7c0.7-0.3,1.4-0.7,2-1.1c1.4-1,2.8-2,4.3-2.9c1.8-1.1,3.4-2.3,5-3.5
		c0.6-0.5,1.2-1,1.8-1.6c0.6-0.6,1.2-1.2,1.9-1.8c0.4-0.4,0.8-0.8,1.2-1.2c1-0.9,1.3-2.3,2.1-3.4c0.4-0.6,0.8-1.2,1-1.9
		c0.2-0.7,0.5-1.4,0.7-2c0.2-0.7,0.3-1.4,0.8-2c0.1-0.1,0.1-0.4,0.1-0.6c-0.1-0.9-0.3-1.8-0.4-2.7c-0.1-0.4-0.4-0.7-0.8-0.8
		c-1-0.1-2.1-0.6-3.2,0c-0.1,0.1-0.3,0.3-0.4,0.5c-0.7,1.3-1.3,2.7-2,4c-0.7,1.4-1.4,2.8-2.4,4.1c-0.5,0.6-0.9,1.2-1.5,1.8
		c-0.7,0.7-1.3,1.5-2.4,1.6c-0.7,0.8-1.8,1-2.5,1.6c-0.7,0.6-1.5,1-2.4,1.3c-1.4,0.5-2.6,1.2-3.9,1.7c-0.2,0.1-0.4,0.2-0.7,0.3
		c-1.3,0.3-2.6,0.6-3.8,0.8c-1.1,0.2-2.2,0.2-3.3,0.4c-0.7,0.1-1.4,0.1-2.1-0.2c-0.3-0.1-0.7-0.2-1-0.2c-1.6,0-3.1-0.3-4.6-1
		c-1.2-0.5-2.5-1.1-3.7-1.7c-2.4-1.1-4.6-2.5-6.8-3.9c-0.3-0.2-0.6-0.4-0.8-0.6c-0.7-1-1.6-1.9-2.3-2.9c-0.9-1.4-1.4-2.9-1.7-4.4
		c-0.3-1.6-0.5-3.2-0.9-4.7c-0.4-1.6,0.5-2.8,1-4.1c0-0.1,0.2-0.2,0.3-0.3c0.3-0.2,0.6-0.5,1-0.7c0.3-0.1,0.7-0.3,1-0.2
		c0.8,0.3,1.5,0.1,2.3,0c1.3-0.3,2.5-0.2,3.8,0c1.3,0.2,2.6-0.2,3.9-0.4c1.1-0.9,2.5-0.7,3.8-1c0.2,0,0.5-0.1,0.7,0
		c0.6,0.3,1.2,0.1,1.9,0c0.7-0.1,1.5-0.4,2.2-0.2c1.3,0.3,2.5-0.4,3.7,0.1c0.2,0.1,0.4,0,0.6,0c2.1-0.3,4.2-0.8,6.4-0.6
		c1.9-0.4,3.8-0.3,5.5-1.2c0.2-0.1,0.4-0.1,0.6-0.2c3-0.4,6-0.9,8.9-1.3c1.7-0.2,3.4-0.5,4.8-1.7c0.1-0.1,0.2-0.1,0.2-0.1
		c0.6-0.9,0.6-1.7,0.4-2.5c-0.1-0.8-0.2-1.5-0.4-2.3c-0.1-0.7-0.2-1.4-0.5-2c-0.3-0.7-0.5-1.5-0.6-2.2c-0.2-1-0.4-2-0.5-3
		c-0.2-1.2-0.7-2.3-1.5-3.3c-0.6-0.7-1.2-1.4-1.8-2.1c-0.9-1.1-1.9-2.2-3.1-3c-0.1-0.1-0.3-0.2-0.3-0.3c-0.6-1-1.6-1.6-2.5-2.3
		c-0.7-0.6-1.4-1.2-2.1-1.7c-1-0.8-2.1-1.6-3.2-2.3c-0.8-0.5-1.8-0.9-2.7-1.3c-0.8-0.3-1.5-0.7-2.2-0.9c-0.5-0.1-1,0-1.4-0.1
		c-1.4-0.3-2.9-0.6-4.4-0.9c-0.4-0.1-0.8,0-1.3-0.1c-1.1-0.3-2.1-0.5-3.2-0.6c-1.4-0.2-2.7-0.5-4.2-0.3c-0.9-0.3-1.8-0.1-2.7,0.1
		c-2.3,0.4-4.5,0.7-6.8,1.1c-1,0.2-1.9,0.6-2.9,0.9c-0.5,0.6-1.3,0.6-1.9,1c-0.6,0.3-1.2,0.8-1.8,1.1c-1.6,0.9-3.2,1.9-4.6,3.1
		c-0.9,0.7-1.8,1.5-2.6,2.3c-0.7,0.6-1.3,1.3-1.8,2.1c-0.4,0.5-0.7,1.2-1,1.8C110.1,108.3,109.8,108.3,109.4,108.4z M155,122
		c-1.9,0.3-3.7,0.6-5.6,0.9c-1.7,0.3-3.4,0.6-5.2,0.5c-0.8,0-1.5,0.2-2.3,0.3c-0.5,0.1-1,0.1-1.4,0.1c-0.8-0.1-1.6-0.1-2.4,0.2
		c-0.1,0.1-0.3,0.1-0.4,0.1c-3.4,0.2-6.7,1-10.1,1.4c-0.2,0-0.5,0.1-0.7,0.2c-0.7,0.5-1.5,0.6-2.3,0.8c-0.4,0.1-0.8,0.2-1.1,0.4
		c-0.6,0.4-1.3,0.4-2,0.5c-0.2,0-0.5-0.1-0.7-0.2c-0.8-0.5-1.4-1.1-1.5-2.2c0-0.4,0-0.8-0.1-1.1c-0.8-2.3-0.1-4.5,0.5-6.7
		c0.1-0.2,0.2-0.4,0.2-0.5c0.2-0.8,0.3-1.6,0.7-2.4c0.3-0.7,0.9-1.3,1.4-2c0.5-0.9,0.9-1.8,1.6-2.5c0.2-0.2,0.4-0.4,0.6-0.6
		c1.6-1.1,3.2-2.1,4.8-3.2c1.1-0.2,1.9-1.1,2.9-1.6c1.4-0.7,2.8-1.3,4.3-1.4c0.6,0,1.1-0.2,1.7-0.3c0.3,0,0.7,0,1,0.1
		c0.2,0,0.4,0.1,0.6,0.1c1.5-0.1,2.8,0.5,4.2,0.9c1.7,0.6,3.1,1.7,4.7,2.5c0.1,0.1,0.3,0.1,0.3,0.2c0.4,0.8,1.2,1.1,1.8,1.6
		c1.6,1.1,2.8,2.6,4.1,4c0.3,0.3,0.5,0.5,0.6,0.9c0,0.1,0.1,0.3,0.2,0.4c0.5,0.5,0.8,1,1,1.7c0.2,0.6,0.6,1.2,0.7,1.9
		c0,0.2,0.1,0.4,0.2,0.5c0.7,1.2,0.6,2.5,0.3,3.9C156.6,121.8,155.8,121.8,155,122z M191,149.8c-0.2-1.1-0.1-1.3,0.9-1.8
		c0.1-0.1,0.3-0.1,0.4-0.2c0.6-0.6,1.2-0.4,1.8,0c0.5,0.3,0.9,0.8,1.5,0.9c1.2,0.2,2.2,0.8,3.3,1.2c0.9,0.3,1.7,0.6,2.5,1
		c0.7,0.3,1.4,0.8,2.2,1.1c0.8,0.3,1.5,0.5,2.3,0.9c1.1,0.5,2.7,0.7,4.2,0.8c0.7,0,1.5,0,2.1,0.2c0.5,0.1,0.9,0.1,1.4,0.1
		c0.6-0.1,1.3-0.1,1.9-0.1c0.5,0,1.1,0,1.6,0c1.1-0.1,2.3-0.2,3.3-0.5c1.1-0.3,2.1-0.5,3.2-0.5c0.2,0,0.4-0.1,0.6-0.1
		c0.8-0.2,1.7-0.3,2.3-0.8c0.7-0.5,1.6-0.5,2.3-1.1c0.4-0.3,0.9-0.6,1.4-0.7c1.2-0.3,2.3-1,3.4-1.5c1.7-0.8,3-2.1,4.1-3.6
		c1.3-1.7,2.4-3.5,3.4-5.4c0.5-0.9,0.9-1.9,1.3-2.9c0.4-1.2,0.5-2.4,0.9-3.6c0.5-1.5,0.3-3.1,0.4-4.6c0.1-1-0.2-2.1-0.5-3.2
		c-0.2-0.7-0.5-1.4-0.9-2c-1.1-1.4-2.5-2.6-3.7-3.8c-0.7-0.7-1.8-1.2-2.6-1.8c-1.3-0.8-2.7-1.4-4.1-1.9c-1.8-0.7-3.5-1.6-5.5-1.8
		c-0.3,0-0.6-0.1-0.8-0.2c-2.5-0.9-5-1.7-7.5-2.4c-0.8-0.2-1.5-0.1-2.3-0.4c-0.4-0.1-0.7-0.3-1.1-0.3c-1.1,0.1-2.1-0.3-3.2,0.1
		c-0.1,0-0.3,0.1-0.4,0c-0.7-0.4-1.5-0.1-2.3-0.1c-0.4,0-0.8,0-1.2,0c-0.6,0-1.2,0.1-1.7,0.1c-0.6,0-1.1-0.1-1.7-0.2
		c0,0-0.1,0-0.1,0c-1.9,0.2-3.7-0.2-5.4-1.1c-1-0.5-2.1-1-3.1-1.6c-0.4-0.2-0.8-0.5-1.2-0.8c-1.2-1-1.9-2.3-2.4-3.7
		c-0.4-1.2-0.4-2.4-0.1-3.6c0.5-1.7,1.6-3.2,2.8-4.5c0.5-0.5,1-1,1.6-1.2c0.9-0.2,1.6-0.7,2.4-0.9c0.9-0.3,1.7-0.3,2.6-0.4
		c1.8-0.3,3.6-0.5,5.3-0.8c0.4-0.1,0.8-0.2,1.2-0.1c0.8,0.2,1.6,0,2.5-0.1c0.4,0,0.9,0,1.3,0c0.4,0,0.8,0.1,1.1,0.1
		c0.2,0,0.5,0,0.7,0.1c0.9,0.3,1.7,0.6,2.5,1c1.4,0.7,2.8,1.5,4.2,2.2c0.8,0.4,1.6,0.7,2.2,1.3c0.9,0.2,1.4,1,2.1,1.5
		c0.1,0.1,0.2,0.2,0.4,0.2c1,0.6,1.7,1.5,2.5,2.4c0.4,0.5,0.7,0.9,1,1.4c0.3,0.4,0.5,0.8,0.7,1.2c0.6,1,1.1,2,2,2.8
		c1.1-0.1,2.1-0.2,3.1-0.6c1-0.5,2.1-0.3,3.1-0.8c0-0.2,0-0.4,0-0.6c-0.4-2.1-0.6-4.1-0.6-6.2c0-1.6-0.1-3.2-0.4-4.8
		c-0.2-0.9-0.5-1.8-0.9-2.6c-0.5-0.9-1.2-2.6-1.3-3.5c-0.1-1.4-0.6-2.7-1.1-4c-0.2-0.5-0.5-0.8-1-0.7c-0.8,0.1-1.6,0-2.3,0.6
		c-0.2,0.2-0.5,0.2-0.8,0.3c-0.7,0.1-1.4,0.2-2.2,0.3c-0.4,0.1-0.7,0.2-1.1,0.3c0.1,2,0.3,3.8,1,5.6c-1.1,2.3-2,3-4.1,3
		c-1.4-1.3-2.8-2.7-4.1-4.2c-0.8-0.9-1.9-1.2-3-1.6c-1.3,0.1-2.5-0.5-3.7-0.4c-0.5,0-1.1,0-1.6-0.2c-0.7-0.3-1.4-0.3-2.1-0.3
		c-1,0-2-0.3-3-0.5c-0.2,0-0.4,0-0.5-0.2c-0.5-0.6-1.2-0.5-1.9-0.4c-0.8,0.1-1.6,0.4-2.3,0.3c-1-0.2-1.9,0-2.9,0.1
		c-0.2,0-0.5,0.1-0.7,0c-0.8-0.3-1.5-0.1-2.3,0.1c-1.6,0.3-3.3,0.4-4.8,1.1c-0.9,0.5-2,0.8-2.8,1.3c-0.8,0.5-1.5,1-2.2,1.6
		c-0.7,0.5-1.3,0.9-2.2,1c-0.3,0-0.6,0.1-1,0.2c-0.2,0.3-0.5,0.7-0.7,1.2c-0.4,0.7-0.8,1.3-1.1,2c-0.3,0.6-0.7,1.2-0.9,1.8
		c-0.4,2.1-1.3,4-2.3,5.9c-0.6,1.2-0.8,2.4-1.2,3.6c0.9,1.4,0.9,1.4,0.2,2.7c-0.1,0.2-0.1,0.3-0.2,0.5c0.2,0.4,0.4,0.9,0.7,1.2
		c0.5,0.6,0.7,1.3,0.7,2c0,0.3,0.1,0.6,0.1,0.9c0.1,0.8,0.3,1.6,0.9,2.3c0.5,0.6,1,1.3,1.7,1.8c1.6,1.2,3.1,2.5,4.8,3.5
		c0.5,0.3,1.1,0.6,1.7,0.8c1.4,0.5,2.8,1,4.2,1.5c1.1,0.3,2.1,0.9,3.3,1c0.7,0.1,1.5,0.3,2.2,0.5c1.9,0.5,3.8,0.7,5.8,0.9
		c0.8,0.1,1.7,0.1,2.6,0.3c1.1,0.2,2.1,0.7,3.2,0.6c1.2,0.5,2.4,0.4,3.6,0.8c1.7,0.5,3.5,0.2,5.2,0.9c1.4-0.1,2.8,0.6,4.3,0.3
		c0.2,0,0.4,0,0.6,0.1c0.6,0.1,1.2,0.3,1.8,0.4c1,0.1,1.9,0.6,2.8,1c0.5,0.2,0.8,0.7,1.2,1c0.9,0.8,1.5,1.9,2.3,2.7
		c0.6,0.6,1,1.4,1.1,2.3c0.4,2.5,0.3,2.5-0.5,5.1c-0.7,2.1-2.3,3.1-4,4.2c-0.8,0.1-1.6,0.5-2.3,0.8c-0.4,0.2-0.8,0.6-1.3,0.6
		c-1.1,0.1-2.1,0.7-3.2,0.6c-0.9-0.1-1.9,0.2-2.9,0.4c-0.6,0.1-1.1,0.1-1.7,0c-0.8-0.2-1.7-0.2-2.6-0.1c-1.3,0-2.5-0.3-3.8,0
		c-0.7-0.3-1.5,0-2.3-0.3c-1.1-0.4-2.3-0.8-3.3-1.5c-0.4-0.3-0.9-0.5-1.5-0.6c-0.5,0-0.9-0.2-1.4-0.5c-1.3-0.7-2.6-1.3-3.7-2.2
		c-0.6-0.5-1.4-0.9-2.1-1.4c-0.3-0.2-0.6-0.3-0.9-0.5c-1.6-1.1-2.8-2.6-4.2-3.9c0,0-0.1-0.1-0.1-0.1c-0.3-0.8-0.9-1.2-1.4-1.9
		c-0.2-0.3-0.5-0.6-0.6-1c-0.2-0.6-0.5-0.8-1.1-0.7c-1,0.1-2,0.3-3,0.5c-0.4,0.1-0.8,0-1.3-0.1c-0.9-0.2-1.9-0.1-2.9-0.1
		c-0.2,0-0.3,0.1-0.5,0.2c0.1,0.7,0.7,1,1,1.4c0.3,0.3,0.6,0.6,0.6,1.1c0,0.4,0.3,0.7,0.5,1c0.2,0.4,0.4,0.9,0.5,1.3
		c0.2,0.9,0.4,1.9,0.6,2.9c0.2,1,0.4,2,0.3,3c-0.1,0.7,0,1.5,0,2.2c0.1,1.3,0.3,2.6,0.7,3.8c0.7,2.1,1.4,4.2,2,6.4
		c0.2,0.6,0.4,0.8,1,0.7c0.3-0.1,0.7-0.1,1-0.3c1.1-0.5,2.3-0.8,3.5-0.9c0.8-0.1,1.4-0.3,1.8-1C191.5,152.6,191.3,151.2,191,149.8z
		 M136.7,215.7c0.3-1.1,0.6-2.1,0.7-3.2c0.1-0.9,0.3-1.7,0.6-2.5c0.7-1.4,0.8-3,1.7-4.3c0.1-0.2,0.1-0.4,0.2-0.6
		c0.2-1.5,0.9-3,0.8-4.5c0-0.1,0.1-0.3,0.1-0.4c0.2-1.2,0.8-2.4,0.5-3.7c0-0.1,0-0.2,0-0.3c0.3-0.5,0.2-1.1,0.2-1.7
		c0-0.8,0.2-1.5,0.7-2.1c0.6,0.1,1.1,0.2,1.7,0.3c0.3,0.3,0.8,0.6,1,1c0.6,1.1,1.8,1.5,2.4,2.6c1.1,0.8,1.9,1.9,2.6,3
		c0.2,0.3,0.4,0.5,0.6,0.8c0.4,0.5,0.7,0.9,1.1,1.3c1.2,1.2,1.7,3,3,4.1c0.1,0.1,0.2,0.3,0.3,0.5c0.2,0.3,0.4,0.6,0.6,0.8
		c0.7,1,1.8,1.7,2.4,2.9c0.5,0.9,1.3,1.5,1.9,2.3c0.4,0.5,0.8,0.5,1.2,0.4c0.7-1.1,0.8-2.3,1.1-3.4c-0.2-1.2,0.4-2.4,0.5-3.6
		c0-0.5,0.2-0.9,0.3-1.4c0.2-1,0.5-2,0.7-2.9c0.2-1.1,0.2-2.3,0.3-3.5c0.2-1.7,0.5-3.3,1.1-4.9c0.4-1.2,0.8-2.4,1.2-3.6
		c0-0.1,0.2-0.3,0.1-0.4c-0.2-0.7,0.3-1.2,0.4-1.8c0.2-0.8,0.3-1.6,0.6-2.4c0.5-1.7,0.9-3.4,1.4-5.2c0.3-1,0.6-1.9,0.8-2.9
		c0.8-0.2,1.4-0.5,2.1,0c0.1,0.1,0.4,0.1,0.6,0c1.2-0.2,2.5-0.4,3.7-0.6c0.4-0.7,0.6-1.2,1-1.8c0.4-0.5,0.3-1.1,0.2-1.7
		c-0.1-0.4-0.3-0.8-0.4-1.2c-0.3-0.9-0.8-1.3-1.7-1c-0.2,0.1-0.4,0.2-0.6,0.3c-0.5,0.3-1,0.5-1.5,0.3c-0.7-0.2-1.2-0.1-1.7,0.3
		c-0.1,0.1-0.3,0.1-0.4,0.1c-1.7,0.3-3.5,0.9-5.3,0.4c-0.2-0.1-0.4,0-0.6,0c-1.1,0.2-2.2,0.2-3.2,0.8c-0.6,0.3-1.4,0.4-2.1,0.6
		c-0.7,0.2-0.9,0.7-0.8,1.3c0.1,0.4,0.2,0.9,0.3,1.3c0.2,0.6,0.7,0.9,1.4,0.8c0.6-0.1,1.2-0.2,1.9-0.3c0.3,0,0.7-0.1,0.9,0
		c0.7,0.5,1.4,0.8,1.7,1.7c0.3,1,0.4,2-0.2,3c-1,0.6-1.3,1.6-1.3,2.8c0,0,0,0.1-0.1,0.1c-0.5,1.6-1,3.2-1.5,4.8
		c-0.4,1.5-1,3-0.9,4.6c0.1,1.3-0.8,2.1-2,2.1c-0.3,0-0.6,0-0.8-0.2c-0.4-0.4-0.9-0.7-1.4-1.1c0-0.4,0-0.9,0-1.3
		c-1.6-1.8-2-2.6-2.2-4.7c-0.1-0.7-0.3-1.3-0.7-1.9c-0.9-1.4-1.7-2.9-1.8-4.7c0-0.5-0.3-0.9-0.6-1.3c-0.5-0.7-1-1.3-1.3-2.1
		c-0.2-0.6-0.7-0.9-1.3-1.1c-0.4-0.1-0.8-0.2-1.1-0.2c-0.6-0.1-1-0.1-1.6,0.2c-1.4,0.7-2.9,1.3-4.3,2c-0.4,0.2-0.7,0.5-1.1,0.7
		c-0.3,0.2-0.4,0.5-0.3,0.9c0.1,0.5,0.2,1.1,0.1,1.6c-0.3,1.4-0.4,2.9-0.9,4.2c-0.3,0.7-0.6,1.4-0.6,2.1c-0.1,1.5-0.7,2.7-1.2,4
		c-0.5,1.2-0.9,2.3-1.2,3.6c-0.3,1.3-0.6,2.6-0.9,3.9c-0.1,0.3-0.1,0.7-0.1,1c0.1,1.6,0.1,1.6-1.1,2.6c-0.1,0.1-0.2,0.1-0.4,0.1
		c-0.1-0.1-0.4-0.2-0.6-0.2c-1-0.2-1.5-0.8-1.8-1.7c-0.1-0.2-0.1-0.6-0.3-0.7c-0.6-0.3-0.8-1-1.2-1.4c-0.5-0.6-0.9-1.2-1.1-2
		c0-0.2-0.3-0.3-0.3-0.5c-0.5-0.8-1-1.5-1.3-2.4c-0.2-0.6-0.5-1.1-0.8-1.7c-0.7-1.1-1.3-2.3-1.4-3.6c0-0.3-0.1-0.6-0.1-0.9
		c-0.1-0.3-0.1-0.6-0.3-0.8c-0.5-0.5-0.6-1.2-0.5-1.9c0.1-0.9,0-1.7,0-2.6c0-0.9,0.4-1.4,1.3-1.3c1.3,0.2,2.5-0.2,3.7-0.4
		c0.6-0.1,0.9-0.5,0.8-1.2c-0.3-1.5-0.4-3.1-1.5-4.4c-0.6,0.1-1.3,0.2-1.9,0.3c-4.2,0.7-8.4,1.3-12.5,2c-0.5,0.1-0.9,0.2-1.4,0.4
		c-0.5,0.1-0.9,0.4-1.4,0.4c-0.9,0.1-1.7,0.4-2.2,1.1c-0.1,0.9-0.2,1.7-0.4,2.5c-0.1,0.6,0.1,0.9,0.7,0.8c1-0.1,1.9-0.3,2.9-0.5
		c1-0.2,2-0.3,2.9,0.1c0.3,0.3,0.4,0.7,0.7,0.9c0.8,0.5,1.2,1.3,1.7,2.1c0.2,0.3,0.3,0.7,0.6,1c0.8,0.8,1.2,1.9,1.7,2.9
		c0.4,0.7,0.7,1.5,0.8,2.3c0.3,1.3,0.8,2.6,1.3,3.9c0.4,1.1,1.1,2,1.7,3c0.4,0.8,0.9,1.5,1.2,2.3c0.7,1.9,1.5,3.7,2.6,5.3
		c0.5,0.7,1.2,1.3,1.3,2.2c0,0.1,0.1,0.3,0.2,0.4c0.4,0.5,0.8,1,1.1,1.5c0.7,1.2,1.8,2.3,2.2,3.7c0.2,0.4,0.5,0.9,0.8,1.2
		c0.4,0.5,1,0.9,1.7,0.8c0.3-0.1,0.7-0.1,1.1-0.2C136.4,216.3,136.6,216,136.7,215.7z M233.2,209.9c-0.2-0.2-0.3-0.5-0.4-0.8
		c-0.2-1,0.4-1.7,1.2-2.1c0.7-0.4,1-1,1.2-1.7c0.2-0.8,0.1-1.6-0.1-2.4c-0.2-0.8-0.6-1.3-1.3-1.6c-1-0.4-2.1-0.8-3.1-1.2
		c-0.5-0.2-1-0.1-1.3,0.4c-0.6,0.9-1.5,1.4-2.3,1.9c-0.4,0.3-0.7,0.6-0.6,1.2c0.1,0.4,0.1,0.8-0.2,1.3c-0.5,0.7-0.8,1.5-0.6,2.5
		c0,0.2,0,0.4-0.1,0.6c-0.3,0.6-0.1,1.1,0.3,1.6c0.3,0.3,0.7,0.7,1.1,1c1.2,0.8,2.4,1.8,3.5,2.8c0.6,0.7,1.4,1.3,2.3,1.5
		c1.5,0.4,2.9,0.5,4.4,0.2c0.6-0.1,1-0.6,1.6-0.7c1.1-0.3,2.1-1,3.1-1.5c0.6-0.3,1.1-0.7,1.5-1.3c0.6-0.8,1.2-1.8,1.8-2.6
		c0.9-1.1,1.4-2.6,2.2-3.7c0.1-0.1,0.1-0.2,0.1-0.3c0-0.7,0.3-1.2,0.6-1.8c0.2-0.6,0.5-1.1,0.7-1.7c0.5-1.5,1-2.9,1.4-4.4
		c0.4-1.8,0.8-3.6,1.2-5.3c0.2-0.7,0.4-1.5,0.3-2.3c0-0.3,0.1-0.5,0.2-0.8c0.2-0.8,0.6-1.6,0.6-2.4c0-0.8,0.2-1.5,0.5-2.2
		c0.1-0.3,0.2-0.6,0.3-1c0.3-1.5,0.7-3,1.4-4.4c0.5-1.1,1.1-2.2,1.3-3.3c0.3-1.5,0.8-2.9,1.2-4.3c0.2-0.7,0.5-1.4,0.5-2.1
		c0-0.6,0.1-1.3,0.2-1.8c0.2-0.9,0.6-1.8,0.9-2.7c0.2-0.5,0.6-0.8,1.1-0.9c1.1-0.2,2.2-0.5,3.3-0.3c0.2,0,0.4,0.1,0.6,0
		c0.4,0,0.7-0.4,0.6-0.8c0-0.3-0.2-0.7-0.2-1c0.3-1,0-1.9-0.2-2.8c-0.5-0.4-1-0.6-1.7-0.5c-0.2,0.1-0.5,0.1-0.7,0.1
		c-1.1-0.3-2.2,0-3.3,0c-0.6,0-1.2,0-1.8,0.3c-0.3,0.2-0.8,0.3-1.1,0.2c-0.9-0.2-1.7,0-2.6,0.1c-1.5,0.2-3,0.5-4.5,0.7
		c-0.5,0.1-0.9,0.1-1.5,0.2c-0.2,0.5-0.5,1-0.5,1.5c0,0.7,0.1,1.3,0,2c-0.1,0.2,0.2,0.5,0.4,0.5c0.3,0,0.6,0,0.9-0.1
		c0.9-0.1,1.8-0.3,2.7-0.4c1-0.1,1.9,0.2,2.4,1.2c0.4,0.7,0.3,1.4,0,2c-0.6,1.4-0.6,2.8-1,4.2c-0.1,0.3-0.1,0.5-0.2,0.8
		c-0.6,1.3-1,2.6-1.6,3.9c0,0.1,0,0.2-0.1,0.3c-0.2,1.9-0.8,3.7-1.5,5.4c-0.1,0.3-0.2,0.7-0.2,1c0,1-0.5,1.9-1,2.7
		c-0.3,0.5-0.9,0.8-1.5,0.8c-0.6,0.1-1.1-0.2-1.5-0.7c-0.4-0.5-0.7-1-1.2-1.5c-0.5-0.5-0.8-1.1-1.1-1.7c-0.7-1.3-1.2-2.6-2.1-3.8
		c-0.8-1-1.3-2.2-2.1-3.2c-0.5-0.7-0.9-1.6-1.5-2.3c-0.3-0.3-0.6-0.8-0.8-1.2c-0.6-1.3-0.9-2.7-0.5-4.2c0.5-0.2,1-0.5,1.5-0.6
		c1.3-0.2,2.5-0.6,3.7-1.3c0-0.9-0.1-1.8-0.5-2.7c-1.2,0.1-2.4,0.2-3.6,0.3c-0.2,0-0.4,0.1-0.6,0.2c-0.9,0.2-1.8,0.6-2.7,0.4
		c-0.6-0.1-1.1-0.1-1.7-0.1c-1,0.2-2,0.3-3,0.2c-0.9-0.1-1.7,0.1-2.6,0.5c-0.4,0.2-0.9,0.3-1.4,0.2c-0.6,0-1.2-0.1-1.7,0.1
		c-1.2,0.6-2.4,0.7-3.7,0.9c-0.3,0.1-0.6,0.2-0.9,0.3c-0.1,0.9,0.2,1.6-0.1,2.4c-0.1,0.3,0.3,0.6,0.7,0.5c1.3-0.3,2.6,0.1,3.9-0.2
		c0.9-0.2,1.6,0.3,2.3,0.6c0.6,0.8,1.3,1.6,1.8,2.4c0.3,0.5,0.5,0.9,0.8,1.4c0.4,0.7,1,1.4,1.1,2.1c0.3,1.4,0.8,2.7,1.5,3.9
		c1.2,2.1,2.4,4.2,3.6,6.3c0.6,1.1,1,2.3,1.7,3.3c0.1,0.2,0.1,0.5,0.2,0.7c0.1,0.2,0.1,0.5,0.3,0.7c0.4,0.4,0.5,0.8,0.6,1.3
		c0.1,0.2,0.1,0.5,0.3,0.7c0.9,1.2,1.8,2.5,2.8,3.7c0.8,1,1.7,1.9,2.1,3.1c0.1,0.2,0.2,0.4,0.4,0.6c0.4,0.3,0.7,0.6,1,0.8
		c0.3,0.7,0.5,1.4,0.8,2c0.1,0.2,0.1,0.5,0.1,0.7c0,0.8,0.1,1.6,0.1,2.5c0,0.4,0.1,0.8-0.2,1.1c-0.5,0.6-0.7,1.4-1.3,1.9
		c-1.1,1-1.8,2.5-3.3,2.9c-0.3,0.5-0.8,0.5-1.3,0.6c-0.5,0.1-0.9,0.5-1.4,0.4c-0.9,0-1.8,0.1-2.5-0.5
		C233.8,210.7,233.5,210.2,233.2,209.9z M222.5,189.4c0,0.2,0,0.5-0.1,0.7c-0.5,1-0.4,2.2-1,3.2c-0.2,0.4-0.3,1-0.3,1.6
		c0.1,0.6-0.2,1-0.4,1.5c-0.3,1-1.7,1.3-2.5,0.7c-0.2-0.2-0.5-0.3-0.7-0.6c-0.3-0.6-0.8-1.2-0.9-1.8c-0.2-1.1-0.8-2.1-1.2-3.1
		c-0.5-1.2-1.3-2.4-0.9-3.8c0.1-0.2,0-0.5-0.1-0.7c-0.4-2.8-0.9-5.6-1.3-8.3c0-0.3-0.1-0.6-0.3-0.8c-0.4-0.6-0.6-1.3-0.7-2.1
		c-0.1-0.8-0.5-1.6-1-2.2c-0.4-0.5-0.8-1-1.2-1.5c-0.5-0.7-1.1-1.3-1.4-2c-0.3-0.6-0.7-1-1.3-1.3c-1.9-1.1-4-1.4-6.1-2
		c-0.6-0.2-1.2-0.4-1.8-0.5c-0.6-0.1-1.3,0.1-1.9,0c-1.5-0.3-3-0.3-4.4,0c-0.4,0.1-0.9,0.1-1.3,0.2c-1.3,0.2-2.6,0.5-3.6,1.3
		c-0.5,0.4-1.1,0.7-1.7,1c-1.3,0.8-2.6,1.6-3.8,2.5c-1.4,1.1-2.2,2.5-3.1,3.9c-0.1,0.2-0.2,0.6-0.1,0.8c0.1,0.7-0.2,1.2-0.7,1.7
		c-0.2,0.2-0.5,0.4-0.8,0.7c-0.4,0.3-0.5,0.8-0.6,1.3c0,0.5,0.1,0.8,0.5,1.1c0.3,0.3,0.4,0.7,0.6,1.1c0.1,0.3,0.3,0.6,0.6,0.8
		c0.5,0.4,1,0.9,1.7,1.1c0.4,0.1,0.7,0.3,0.9,0.7c0.4,0.6,1,0.7,1.7,0.6c0.7-0.1,1.4-0.2,2.2-0.4c0.1-1.1,0.8-1.6,1.4-2.1
		c0.2-1.2,0.3-2.2,0.4-3.3c0-0.2,0.1-0.5,0-0.7c-0.3-0.9-0.5-1.8-1.4-2.3c-0.2-0.1-0.4-0.3-0.6-0.4c-0.3-0.2-0.4-0.6-0.3-0.9
		c0-0.2,0.1-0.5,0.2-0.7c0.1-0.8,1.2-1,1.2-1.9c0,0,0.1-0.1,0.2-0.1c1.2-0.5,2.1-1.4,3.4-1.5c0.1,0,0.2-0.1,0.3-0.1
		c0.5-0.5,1.1-0.6,1.7-0.6c1.2-0.2,2.4-0.6,3.7-0.1c1.6-0.1,3,0.4,4.5,1c0.4,0.2,0.8,0.4,1.1,0.6c0.7,0.5,1.5,1.1,2.2,1.7
		c0.3,0.2,0.5,0.5,0.7,0.7c0.6,1,1.1,1.9,1.6,2.9c0.2,0.3,0.3,0.7,0.4,1.1c0.3,1.1,0,1.7-1.1,2.2c-0.2,0.1-0.5,0.2-0.7,0.2
		c-0.4,0.1-0.7,0.2-1,0.5c-0.7,0.5-1.5,0.5-2.2,0.4c-1.4-0.3-2.8-0.4-4.1,0c-1,0.3-2,0.6-3.1,0.9c-0.1,0-0.2,0.1-0.3,0.1
		c-1,0.7-2.1,1.1-3.3,1.3c-0.7,0.1-1.2,0.6-1.4,1.3c-0.2,0.7-0.6,1.3-1.1,1.9c-0.3,0.4-0.6,0.7-1,1c-0.3,0.3-0.4,0.8-0.6,1.2
		c-0.2,0.3-0.4,0.5-0.7,0.7c-0.7,0.6-1.3,1.3-2,1.9c-1.1,0.8-1.7,1.7-1.8,3c-0.1,0.4-0.2,0.8-0.3,1.3c-0.1,0.3-0.1,0.7,0,1
		c0.1,0.7,0.2,1.4,0.3,2.2c0.1,0.5,0.3,0.9,0.6,1.3c1.3,1.4,3.1,2.9,4.7,3.8c1.2,0.7,2.5,1.1,4,0.8c1.5-0.3,3-0.6,4.5-0.7
		c1.8-0.2,3.3-1.1,5.1-1.2c0.1,0,0.3-0.1,0.4-0.2c1.8-1.2,3.8-2.1,5.4-3.6c0.4-0.4,1-0.5,1.5-0.3c0.7,0.3,1.7,0.2,2,1.2
		c0.1,0.1,0.3,0.2,0.5,0.3c0.6,0.3,1.2,0.7,1.8,1c0.6,0.3,1.3,0.6,1.9,1c0.9,0.7,1.9,0.8,3,0.7c0.9-0.1,1.8-0.3,2.7-0.4
		c0.8-0.1,1.3-0.6,1.7-1.2c0.2-0.3,0.4-0.5,0.6-0.8c0.6-0.9,1.2-1.7,1.5-2.8c0.5-1.7,0.8-3.4,1.7-4.9c0.1-0.1,0.1-0.3,0.1-0.4
		c-0.1-0.8,0.1-1.6,0.2-2.4c0-0.2-0.1-0.4-0.2-0.7C224.5,189.5,223.5,188.6,222.5,189.4z M206.4,188.2c-0.1,0.3,0,0.7,0.1,1
		c0.1,0.9,0.3,1.8,0.4,2.7c0.2,1.4-0.2,2.6-1.1,3.6c-0.2,0.2-0.4,0.4-0.7,0.5c-1,0.5-2,0.9-3,1.4c-1.1,0.5-2.3,0.7-3.5,0.9
		c-0.3,0.1-0.6,0.2-0.9,0.4c-0.7,0.4-1.3,0.5-2.1,0.2c-0.8-0.3-1.6-0.5-2.4-0.6c-0.7-0.1-1.2-0.5-1.7-0.9c-0.9-0.7-1.4-1.6-1.5-2.7
		c0-0.4-0.1-0.9-0.2-1.3c-0.2-0.7,0.1-1.4,0.3-2c0.2-0.5,0.5-1,0.8-1.5c0.9-1.6,2.1-2.9,3.9-3.7c1.3-0.6,2.6-1.2,3.9-1.8
		c0.5-0.2,1-0.3,1.5-0.2c0.5,0.1,1,0,1.4,0c0.6-0.1,1.2-0.2,1.9-0.3c0.7-0.1,1.3,0.1,1.9,0.5c0.3,0.2,0.5,0.4,0.8,0.7
		C206.4,186.1,206.8,187.1,206.4,188.2z"/>
	<path class="st2" d="M56.9,107c0.1,0.4,0.2,0.6,0.2,0.8c0.4,2.1,0.7,4.1,1,6.2c0.1,0.3,0.1,0.7,0,1c0,0.3-0.2,0.6-0.5,0.6
		c-1.7,0.3-3.3,1.2-5.1,1.2c-0.8,0-1.5,0.2-2.3,0.3c-1.2,0.2-1.8,1.1-2.3,2c-0.1,0.2-0.1,0.7,0.1,1c0.5,0.7,0.6,1.5,0.7,2.3
		c0,0.5,0.3,0.9,0.5,1.3c0.7,1.3,1.8,2.2,2.7,3.4c0.5,0.6,0.9,1.3,1.4,1.9c0.6,0.7,1.2,1.5,1.9,2.2c1.3,1.3,2.2,2.8,3.2,4.3
		c0.8,1.2,1.6,2.4,2.6,3.5c0.8,0.9,1.7,1.5,2.4,2.5c0.2,0.3,0.5,0.5,0.8,0.5c0.6,0.1,1,0.6,1.3,1c1.1,1.4,2,2.8,2.7,4.4
		c0.4,0.9,0.9,1.8,1.4,2.7c0.3,0.4,0.4,0.9,0.5,1.3c0.1,0.2,0.2,0.4,0.4,0.6c1.1,1.5,2.5,1.6,4.2,1c0.2-0.7,0.5-1.4,1.1-2
		c0.1-0.1,0.3-0.3,0.3-0.5c0-1.2,0.5-2.2,0.5-3.4c0-0.9,0.1-1.9,0.4-2.9c0.2-0.8,0.2-1.6,0.4-2.4c0.1-0.4,0.1-0.9,0.2-1.3
		c0.2-0.8,0.4-1.6,0.1-2.4c-0.1-0.2,0-0.5,0-0.7c0.4-1.8,0.7-3.7,1.1-5.5c0.1-0.8,0.1-1.6,0.2-2.4c0-0.1,0-0.3,0-0.4
		c0.6-1.6,0.7-3.4,1.1-5.1c0.4-1.5,0.6-3,1.1-4.5c0.1-0.3,0-0.7,0-1c0.1-0.5,0.1-1.1,0.2-1.6c0.4-2,0.3-1.4-0.5-3.2
		c0.7-0.2,0.9-0.8,0.9-1.6c-0.6-1-1.4-1.5-2.7-1.5c-1.4-0.1-2.7,0.1-4,0.3c-0.2,0-0.5,0.1-0.7,0.1c-0.4-0.3-0.5-0.6-0.6-1
		c-0.1-1.3-0.3-2.5-0.8-3.7c-0.1-0.3-0.1-0.6-0.2-0.9c-0.1-1,0-1.2,1-1.4c0.4-0.1,0.7-0.1,1-0.5c0.1-0.2,0.4-0.2,0.7-0.3
		c1.4-0.2,2.8-0.5,4.2-0.7c2.2-0.3,4.3-0.7,6.5-1c0.7-0.1,1.3-0.3,2,0c0.3,0.1,0.8,0,1.1,0c0.9-0.1,1.8-0.4,2.7-0.1
		c0.3,0.1,0.7-0.1,1-0.1c0.3,0,0.7,0.1,1,0.1c0.2,0,0.4,0.1,0.6,0.1c1.2-0.2,2.3-0.1,3.5-0.1c1.1,0,2.1,0.1,3.2,0.1
		c0.6,0.8,0.5,1.8,0.5,2.8c-0.1,1.3-0.4,2.6-0.1,3.9c-1.2,0.7-2.3,1.3-3.7,1.2c-0.8,0-1.5,0.2-2.3,0.3c-0.8,0.2-1.4,0.6-1.7,1.4
		c-0.1,0.3-0.3,0.6-0.5,0.9c-0.3,0.5-0.4,0.9-0.3,1.5c0.1,0.4,0,0.9-0.1,1.3c-0.4,1.1-0.6,2.2-1.1,3.3c-0.2,0.6-0.6,1.2-0.4,1.9
		c0,0.2-0.1,0.5-0.2,0.7c-0.3,0.9-0.5,1.7-0.6,2.7c0,0.7-0.2,1.3-0.5,2c-0.5,1.3-0.5,2.7-1.1,3.9c0.1,0.9-0.4,1.8-0.6,2.6
		c-0.2,0.8-0.4,1.7-0.8,2.5c-0.1,0.3-0.3,0.7-0.3,1c0.1,1.2-0.3,2.3-0.4,3.4c-0.1,0.8-0.2,1.7-0.3,2.5c-0.1,0.8-0.3,1.6-0.4,2.4
		c-0.1,0.3-0.2,0.7-0.1,1c0.2,0.8,0,1.5-0.3,2.3c-0.7,2.3-1.4,4.6-2.2,6.9c-0.5,1.4-1,2.8-0.8,4.4c0,0.2-0.1,0.4-0.1,0.5
		c-0.3,1.2-0.5,2.4-0.5,3.6c0,0.3-0.1,0.7-0.2,1c-0.6,1.5-0.8,3.1-1.5,4.5c0.1,1.2-0.7,2.2-1,3.3c-0.5,1.3-0.8,2.7-1.3,4
		c-0.2,0.5-0.3,1-0.3,1.5c0,0.6-0.3,1.1-0.5,1.7c-0.2,0.8-0.3,1.6-0.6,2.4c-0.4,1-0.8,2-1.2,2.9c-0.8,1.8-1.6,3.6-2.4,5.4
		c-0.4,0.9-0.9,1.8-1.2,2.8c-0.5,1.3-1.4,2.3-2.2,3.3c-0.2,0.3-0.5,0.5-0.6,0.8c-0.1,0.4-0.4,0.6-0.7,0.9c-0.3,0.3-0.6,0.6-0.9,1
		c-0.6,0.9-1.4,1.4-2.5,1.5c-1.1,0.1-2.1,0.6-3.1,1.2c-0.3,0.2-0.6,0.2-0.9,0.4c-0.6,0.3-1.1,0.5-1.6,0.9c-1,0.8-2.1,1.1-3.4,1.2
		c-0.9,0.1-1.7,0.2-2.6,0.3c-1.2,0.2-2.4,0-3.6-0.2c-0.7-0.1-1.3-0.1-2-0.2c-0.8-0.1-1.7-0.2-2.4-0.5c-1-0.4-2-0.6-3-0.9
		c-0.6-0.2-1.2-0.3-1.8-0.6c-1.1-0.5-2.3-0.8-3.3-1.4c-0.3-0.2-0.7-0.3-0.9-0.7c-0.1-0.3-0.4-0.4-0.6-0.6c-0.5-0.4-0.8-0.9-1.1-1.5
		c-0.3-0.6-0.6-1.1-0.7-1.7c-0.3-1.1-0.6-2.2-1-3.3c-0.2-0.7-0.4-1.3-0.2-2c0.1-0.5,0.2-1.1,0.1-1.6c-0.1-0.8,0.3-1.6,0.4-2.4
		c0-0.2,0.2-0.5,0.3-0.7c1-1.9,2.6-3.3,4.5-4.4c0.6-0.4,1.3-0.6,1.9-1c0.9-0.5,1.8-0.7,2.8-0.3c0.9,0.3,1.8,0.2,2.7,0.5
		c0.4,0.1,0.9,0.2,1.2,0.4c1.1,0.6,2.3,1.2,3.2,2.1c0.7,0.6,1.1,1.3,1.3,2.2c0.1,0.8,0.2,1.6,0.8,2.3c0.3,1.2,0.7,2.3,0.2,3.5
		c-0.1,0.3-0.3,0.6-0.6,0.8c-0.4,0.4-0.9,0.7-1.3,1.1c-0.4,0.3-0.8,0.6-1,1c-0.4,0.8-1,1.4-1.6,2c0.1,0.4,0.1,0.9,0.2,1.3
		c0.3,0.2,0.6,0.3,0.8,0.5c0.7,0.4,1.4,0.6,2.2,0.5c2.2-0.3,4.3-0.7,6.5-1c0.7-0.1,1.4-0.4,2-0.8c0.1-0.1,0.2-0.3,0.3-0.3
		c1.2-0.2,1.7-1.3,2.4-2.1c0.6-0.7,1.2-1.4,1.7-2.2c1-1.5,1.7-3,1.9-4.7c0.1-0.8,0.3-1.5,0.3-2.3c0-0.4,0-0.8,0-1.2
		c-0.2-1.3-0.5-2.6-0.6-3.9c-0.1-1.4-0.7-2.6-1.3-3.8c-0.4-0.8-0.8-1.5-1-2.4c0-0.1,0-0.2-0.1-0.3c-0.7-0.7-0.7-1.8-1.3-2.6
		c-0.4-0.5-0.8-1-1.1-1.5c-0.9-1.3-1.9-2.6-2.8-3.8c-0.3-0.3-0.5-0.7-0.8-1c-0.4-0.4-0.8-0.7-0.9-1.3c0-0.1-0.2-0.2-0.3-0.3
		c-1.4-1.3-2.4-3-3.7-4.5c-1.4-1.7-2.3-3.6-3.6-5.4c-1-1.5-1.6-3.3-2.7-4.8c-0.5-1.6-1.8-2.8-2.6-4.3c-0.6-1-1.2-1.8-1.8-2.8
		c-0.5-0.7-1.2-1.3-1.4-2.2c-1-1.3-1.8-2.7-2.8-4c-0.8-1.1-1.7-2.3-2.2-3.7c-0.3-0.9-0.9-1.7-1.4-2.5c-0.1-0.2-0.3-0.4-0.4-0.6
		c-0.3-1.5-1.3-2.7-1.8-4.1c-0.1-0.3-0.3-0.5-0.3-0.8c-0.2-0.9-0.8-1.3-1.5-1.6c-0.5-0.2-1.1-0.4-1.7-0.3c-0.5,0.1-1,0-1.4-0.2
		c-0.6-0.2-1.1-0.3-1.7-0.2c-0.2,0-0.5,0.1-0.7,0.1c-0.9-0.1-1.3-0.4-1.4-1.2c-0.2-1.1-0.5-2.2-0.9-3.2c-0.1-0.3-0.2-0.7-0.2-1
		c-0.1-0.6,0.2-1.1,0.8-1.3c0.5-0.2,1.2-0.3,1.6-0.7c0.6-0.5,1.2-0.6,1.8-0.7c1.4-0.2,2.8-0.5,4.2-0.7c0.7-0.1,1.4-0.2,2.1-0.6
		c0.4-0.2,0.8-0.2,1.3-0.3c0.7-0.1,1.4-0.2,2.2-0.4c0.3-0.1,0.6-0.1,0.8-0.2c0.6-0.5,1.2-0.5,1.9-0.6c2.4-0.4,4.9-0.7,7.3-1.2
		c0.7-0.2,1.4-0.2,2.2-0.3c0.2,0,0.4-0.1,0.6,0c0.7,0.4,1.4,0.2,2.1,0c1.6-0.2,3.2-0.5,4.8-0.8C55.9,107.1,56.3,107.1,56.9,107z
		 M109.4,108.4c-1,0.2-1.5,0.8-1.4,1.8c0,0.5,0,1-0.2,1.4c-0.1,0.2-0.2,0.5-0.2,0.7c-0.2,1.1-0.7,2-1.5,2.7
		c-1.6,1.7-2.2,3.9-2.9,5.9c0,1-0.5,1.9-0.7,2.9c0,0.2-0.2,0.4-0.2,0.5c0.2,0.8-0.2,1.5-0.2,2.3c-0.1,1.3-0.3,2.5-0.2,3.8
		c-0.4,0.8-0.3,1.6-0.3,2.4c0,1.4-0.3,2.7,0,4.1c0.2,1.1,0.4,2.2,0.5,3.3c0.2,1.7,0.7,3.3,1.4,4.9c0.2,0.5,0.4,1.1,0.7,1.6
		c0.5,0.9,0.9,1.9,1.7,2.6c0.2,0.2,0.3,0.6,0.5,0.9c0.2,0.3,0.3,0.6,0.5,0.9c0.4,0.8,1.1,1.2,1.8,1.6c0.5,0.3,0.9,0.7,1,1.4
		c0.3,1.6,1.4,2.8,2.4,4.1c0.7,0.9,1.8,1.5,3,1.9c1.5,0.4,3,0.9,4.4,1.7c1.7,0.9,3.4,1.8,5.2,2.6c0.8,0.3,1.6,0.7,2.5,0.8
		c0.4,0,0.8,0.1,1.1,0.2c1.7,0.5,3.4,1.1,5.1,1.7c1.5,0.5,2.9,0.9,4.5,1.1c0.2,0,0.5,0.1,0.7,0.1c0.4,0,0.8,0.1,1.1,0.1
		c0.8-0.1,1.5-0.1,2.3-0.1c0.8,0,1.5-0.2,2.3-0.4c0.8-0.2,1.5-0.4,2.2-0.6c0.7-0.2,1.6-0.1,2.2-0.8c0.1-0.1,0.3-0.1,0.4-0.1
		c0.8-0.1,1.5-0.4,2.2-0.7c0.5-0.3,0.9-0.5,1.4-0.7c0.7-0.3,1.4-0.6,2-1.1c1.4-1,2.8-2,4.3-2.9c1.8-1.1,3.4-2.3,5-3.5
		c0.6-0.5,1.2-1,1.8-1.6c0.6-0.6,1.2-1.2,1.9-1.8c0.4-0.4,0.8-0.8,1.2-1.2c1-0.9,1.3-2.3,2.1-3.4c0.4-0.6,0.8-1.2,1-1.9
		c0.2-0.7,0.5-1.4,0.7-2c0.2-0.7,0.3-1.4,0.8-2c0.1-0.1,0.1-0.4,0.1-0.6c-0.1-0.9-0.3-1.8-0.4-2.7c-0.1-0.4-0.4-0.7-0.8-0.8
		c-1-0.1-2.1-0.6-3.2,0c-0.1,0.1-0.3,0.3-0.4,0.5c-0.7,1.3-1.3,2.7-2,4c-0.7,1.4-1.4,2.8-2.4,4.1c-0.5,0.6-0.9,1.2-1.5,1.8
		c-0.7,0.7-1.3,1.5-2.4,1.6c-0.7,0.8-1.8,1-2.5,1.6c-0.7,0.6-1.5,1-2.4,1.3c-1.4,0.5-2.6,1.2-3.9,1.7c-0.2,0.1-0.4,0.2-0.7,0.3
		c-1.3,0.3-2.6,0.6-3.8,0.8c-1.1,0.2-2.2,0.2-3.3,0.4c-0.7,0.1-1.4,0.1-2.1-0.2c-0.3-0.1-0.7-0.2-1-0.2c-1.6,0-3.1-0.3-4.6-1
		c-1.2-0.5-2.5-1.1-3.7-1.7c-2.4-1.1-4.6-2.5-6.8-3.9c-0.3-0.2-0.6-0.4-0.8-0.6c-0.7-1-1.6-1.9-2.3-2.9c-0.9-1.4-1.4-2.9-1.7-4.4
		c-0.3-1.6-0.5-3.2-0.9-4.7c-0.4-1.6,0.5-2.8,1-4.1c0-0.1,0.2-0.2,0.3-0.3c0.3-0.2,0.6-0.5,1-0.7c0.3-0.1,0.7-0.3,1-0.2
		c0.8,0.3,1.5,0.1,2.3,0c1.3-0.3,2.5-0.1,3.8,0c1.3,0.2,2.6-0.2,3.9-0.4c1.1-0.9,2.5-0.7,3.8-1c0.2,0,0.5-0.1,0.7,0
		c0.6,0.3,1.2,0.1,1.9,0c0.7-0.1,1.5-0.4,2.2-0.2c1.3,0.3,2.5-0.4,3.7,0.1c0.2,0.1,0.4,0,0.6,0c2.1-0.3,4.2-0.8,6.4-0.6
		c1.9-0.4,3.8-0.3,5.5-1.2c0.2-0.1,0.4-0.1,0.6-0.2c3-0.4,6-0.9,8.9-1.3c1.7-0.2,3.4-0.5,4.8-1.7c0.1-0.1,0.2-0.1,0.2-0.1
		c0.6-0.9,0.6-1.7,0.4-2.5c-0.1-0.8-0.2-1.5-0.4-2.3c-0.1-0.7-0.2-1.4-0.5-2c-0.3-0.7-0.5-1.5-0.6-2.2c-0.2-1-0.4-2-0.5-3
		c-0.2-1.2-0.7-2.3-1.5-3.3c-0.6-0.7-1.2-1.4-1.8-2.1c-0.9-1.1-1.9-2.2-3.1-3c-0.1-0.1-0.3-0.2-0.3-0.3c-0.6-1-1.6-1.6-2.5-2.3
		c-0.7-0.6-1.4-1.2-2.1-1.7c-1-0.8-2.1-1.6-3.2-2.3c-0.8-0.5-1.8-0.9-2.7-1.3c-0.8-0.3-1.5-0.7-2.2-0.9c-0.5-0.1-1,0-1.4-0.1
		c-1.4-0.3-2.9-0.6-4.4-0.9c-0.4-0.1-0.8,0-1.3-0.1c-1.1-0.3-2.1-0.5-3.2-0.6c-1.4-0.2-2.7-0.5-4.2-0.3c-0.9-0.3-1.8-0.1-2.7,0.1
		c-2.3,0.4-4.5,0.7-6.8,1.1c-1,0.2-1.9,0.6-2.9,0.9c-0.5,0.6-1.3,0.6-1.9,1c-0.6,0.3-1.2,0.8-1.8,1.1c-1.6,0.9-3.2,1.9-4.6,3.1
		c-0.9,0.7-1.8,1.5-2.6,2.3c-0.7,0.6-1.3,1.3-1.8,2.1c-0.4,0.5-0.7,1.2-1,1.8C110.1,108.3,109.8,108.3,109.4,108.4z M155,122
		c-1.9,0.3-3.7,0.6-5.6,0.9c-1.7,0.3-3.4,0.6-5.2,0.5c-0.8,0-1.5,0.2-2.3,0.3c-0.5,0.1-1,0.1-1.4,0.1c-0.8-0.1-1.6-0.1-2.4,0.2
		c-0.1,0.1-0.3,0.1-0.4,0.1c-3.4,0.2-6.7,1-10.1,1.4c-0.2,0-0.5,0.1-0.7,0.2c-0.7,0.5-1.5,0.6-2.3,0.8c-0.4,0.1-0.8,0.2-1.1,0.4
		c-0.6,0.4-1.3,0.4-2,0.5c-0.2,0-0.5-0.1-0.7-0.2c-0.8-0.5-1.4-1.1-1.5-2.2c0-0.4,0-0.8-0.1-1.1c-0.8-2.3-0.1-4.5,0.5-6.7
		c0.1-0.2,0.2-0.4,0.2-0.5c0.2-0.8,0.3-1.6,0.7-2.3c0.3-0.7,0.9-1.3,1.4-2c0.5-0.9,0.9-1.8,1.6-2.5c0.2-0.2,0.4-0.4,0.6-0.6
		c1.6-1.1,3.2-2.1,4.8-3.2c1.1-0.2,1.9-1.1,2.9-1.6c1.4-0.7,2.8-1.3,4.3-1.4c0.6,0,1.2-0.2,1.7-0.3c0.3,0,0.7,0,1,0.1
		c0.2,0,0.4,0.1,0.6,0.1c1.5-0.1,2.8,0.5,4.2,0.9c1.7,0.6,3.1,1.7,4.7,2.5c0.1,0.1,0.3,0.1,0.3,0.2c0.4,0.8,1.2,1.2,1.8,1.6
		c1.6,1.1,2.8,2.6,4.1,4c0.3,0.3,0.5,0.5,0.6,0.9c0,0.1,0.1,0.3,0.2,0.4c0.5,0.5,0.8,1,1,1.7c0.2,0.6,0.6,1.2,0.7,1.9
		c0,0.2,0.1,0.4,0.2,0.5c0.7,1.2,0.6,2.5,0.3,3.9C156.6,121.8,155.8,121.8,155,122z M191,149.8c-0.2-1.1-0.1-1.3,0.9-1.8
		c0.1-0.1,0.3-0.1,0.4-0.2c0.6-0.6,1.2-0.4,1.8,0c0.5,0.3,0.9,0.8,1.5,0.9c1.2,0.2,2.2,0.8,3.3,1.2c0.9,0.3,1.7,0.6,2.5,1
		c0.7,0.3,1.4,0.8,2.2,1.1c0.8,0.3,1.5,0.5,2.3,0.9c1.1,0.5,2.7,0.7,4.2,0.8c0.7,0,1.5,0,2.1,0.2c0.5,0.1,0.9,0.1,1.4,0.1
		c0.6-0.1,1.3-0.1,1.9-0.1c0.5,0,1.1,0,1.6,0c1.1-0.1,2.3-0.2,3.3-0.5c1.1-0.3,2.1-0.5,3.2-0.5c0.2,0,0.4-0.1,0.6-0.1
		c0.8-0.2,1.7-0.3,2.3-0.8c0.7-0.5,1.6-0.5,2.3-1.1c0.4-0.3,0.9-0.6,1.4-0.7c1.2-0.3,2.3-1,3.4-1.5c1.7-0.8,3-2.1,4.1-3.6
		c1.3-1.7,2.4-3.5,3.4-5.4c0.5-0.9,0.9-1.9,1.3-2.9c0.4-1.2,0.5-2.4,0.9-3.6c0.5-1.5,0.3-3.1,0.4-4.6c0.1-1-0.2-2.1-0.5-3.2
		c-0.2-0.7-0.5-1.4-0.9-2c-1.1-1.4-2.5-2.6-3.7-3.8c-0.7-0.7-1.8-1.2-2.6-1.8c-1.3-0.8-2.7-1.4-4.1-1.9c-1.8-0.7-3.5-1.6-5.5-1.8
		c-0.3,0-0.6-0.1-0.8-0.2c-2.5-0.9-5-1.7-7.5-2.4c-0.8-0.2-1.5-0.1-2.3-0.4c-0.4-0.1-0.7-0.3-1.1-0.3c-1.1,0.1-2.1-0.3-3.2,0.1
		c-0.1,0-0.3,0.1-0.4,0c-0.7-0.4-1.5-0.1-2.3-0.1c-0.4,0-0.8,0-1.2,0c-0.6,0-1.2,0.1-1.7,0.1c-0.6,0-1.1-0.1-1.7-0.2
		c0,0-0.1,0-0.1,0c-1.9,0.2-3.7-0.2-5.4-1.1c-1-0.5-2.1-1-3.1-1.6c-0.4-0.2-0.8-0.5-1.2-0.8c-1.2-1-1.9-2.3-2.4-3.7
		c-0.4-1.2-0.4-2.4-0.1-3.6c0.5-1.7,1.6-3.2,2.8-4.5c0.5-0.5,1-1,1.6-1.2c0.9-0.2,1.6-0.7,2.4-0.9c0.9-0.3,1.7-0.3,2.6-0.4
		c1.8-0.3,3.6-0.5,5.3-0.8c0.4-0.1,0.8-0.2,1.2-0.1c0.8,0.2,1.6,0,2.5-0.1c0.4,0,0.9,0,1.3,0c0.4,0,0.8,0.1,1.1,0.1
		c0.2,0,0.5,0,0.7,0.1c0.9,0.3,1.7,0.6,2.5,1c1.4,0.7,2.8,1.5,4.2,2.2c0.8,0.4,1.6,0.7,2.2,1.3c0.9,0.2,1.4,1,2.1,1.5
		c0.1,0.1,0.2,0.2,0.4,0.2c1,0.6,1.7,1.5,2.5,2.4c0.4,0.5,0.7,0.9,1,1.4c0.3,0.4,0.5,0.8,0.7,1.2c0.6,1,1.1,2,2,2.8
		c1.1-0.1,2.1-0.2,3.1-0.6c1-0.5,2.1-0.3,3.1-0.8c0-0.2,0-0.4,0-0.6c-0.4-2.1-0.6-4.1-0.6-6.2c0-1.6-0.1-3.2-0.4-4.8
		c-0.2-0.9-0.5-1.8-0.9-2.6c-0.5-0.9-1.2-2.6-1.3-3.5c-0.1-1.4-0.6-2.7-1.1-4c-0.2-0.4-0.5-0.8-1-0.7c-0.8,0.1-1.6,0-2.3,0.6
		c-0.2,0.2-0.5,0.2-0.8,0.3c-0.7,0.1-1.4,0.2-2.2,0.3c-0.4,0.1-0.7,0.2-1.1,0.3c0.1,2,0.3,3.8,1,5.6c-1.1,2.3-2,3-4.1,3
		c-1.4-1.3-2.8-2.7-4.1-4.2c-0.8-0.9-1.9-1.2-3-1.6c-1.3,0.1-2.5-0.5-3.7-0.4c-0.5,0-1.1,0-1.6-0.2c-0.7-0.3-1.4-0.3-2.1-0.3
		c-1,0-2-0.3-3-0.5c-0.2,0-0.4,0-0.5-0.2c-0.5-0.6-1.2-0.5-1.9-0.4c-0.8,0.1-1.6,0.4-2.3,0.3c-1-0.2-1.9,0-2.9,0.1
		c-0.2,0-0.5,0.1-0.7,0c-0.8-0.3-1.5-0.1-2.3,0.1c-1.6,0.3-3.3,0.4-4.8,1.1c-0.9,0.5-2,0.8-2.8,1.3c-0.8,0.5-1.5,1-2.2,1.6
		c-0.7,0.5-1.3,0.9-2.2,1c-0.3,0-0.6,0.1-1,0.2c-0.2,0.3-0.5,0.7-0.7,1.2c-0.4,0.7-0.8,1.3-1.1,2c-0.3,0.6-0.7,1.2-0.9,1.8
		c-0.4,2.1-1.3,4-2.3,5.9c-0.6,1.2-0.8,2.4-1.2,3.6c0.9,1.4,0.9,1.4,0.2,2.7c-0.1,0.2-0.1,0.3-0.2,0.5c0.2,0.4,0.4,0.9,0.7,1.2
		c0.5,0.6,0.7,1.3,0.7,2c0,0.3,0.1,0.6,0.1,0.9c0.1,0.8,0.3,1.6,0.9,2.3c0.5,0.6,1,1.3,1.7,1.8c1.6,1.2,3.1,2.5,4.8,3.5
		c0.5,0.3,1.1,0.6,1.7,0.8c1.4,0.5,2.8,1,4.2,1.5c1.1,0.3,2.1,0.9,3.3,1c0.7,0.1,1.5,0.3,2.2,0.5c1.9,0.5,3.8,0.7,5.8,0.9
		c0.8,0.1,1.7,0.1,2.6,0.3c1.1,0.2,2.1,0.7,3.2,0.6c1.2,0.5,2.4,0.4,3.6,0.8c1.7,0.5,3.5,0.2,5.2,0.9c1.4-0.1,2.8,0.6,4.3,0.3
		c0.2,0,0.4,0,0.6,0.1c0.6,0.1,1.2,0.3,1.8,0.4c1,0.1,1.9,0.6,2.8,1c0.5,0.2,0.8,0.7,1.2,1c0.9,0.8,1.5,1.9,2.3,2.7
		c0.6,0.6,1,1.4,1.1,2.3c0.4,2.5,0.3,2.5-0.5,5.1c-0.7,2.1-2.3,3.1-4,4.2c-0.8,0.1-1.6,0.5-2.3,0.8c-0.4,0.2-0.8,0.6-1.3,0.6
		c-1.1,0.1-2.1,0.7-3.2,0.6c-0.9-0.1-1.9,0.2-2.9,0.4c-0.6,0.1-1.1,0.1-1.7,0c-0.8-0.2-1.7-0.2-2.6-0.1c-1.3,0-2.5-0.3-3.8,0
		c-0.7-0.3-1.5,0-2.3-0.3c-1.1-0.5-2.3-0.8-3.3-1.5c-0.4-0.3-0.9-0.5-1.5-0.6c-0.5,0-0.9-0.2-1.4-0.5c-1.3-0.7-2.6-1.3-3.7-2.2
		c-0.6-0.5-1.4-0.9-2.1-1.4c-0.3-0.2-0.6-0.3-0.9-0.5c-1.6-1.1-2.8-2.6-4.2-3.9c0,0-0.1-0.1-0.1-0.1c-0.3-0.8-0.9-1.2-1.4-1.9
		c-0.2-0.3-0.5-0.6-0.6-1c-0.2-0.6-0.5-0.8-1.1-0.7c-1,0.1-2,0.3-3,0.5c-0.4,0.1-0.8,0-1.3-0.1c-0.9-0.2-1.9-0.1-2.9-0.1
		c-0.2,0-0.3,0.1-0.5,0.2c0.1,0.7,0.7,1,1,1.4c0.3,0.3,0.6,0.6,0.6,1.1c0,0.4,0.3,0.7,0.5,1c0.2,0.4,0.4,0.9,0.5,1.3
		c0.2,0.9,0.4,1.9,0.6,2.9c0.2,1,0.4,2,0.3,3c-0.1,0.7,0,1.5,0,2.2c0.1,1.3,0.3,2.6,0.7,3.8c0.7,2.1,1.4,4.2,2,6.4
		c0.2,0.6,0.4,0.8,1,0.7c0.3,0,0.7-0.1,1-0.3c1.1-0.5,2.3-0.8,3.5-0.9c0.8-0.1,1.4-0.3,1.8-1C191.5,152.6,191.3,151.2,191,149.8z
		 M136.7,215.7c0.3-1.1,0.6-2.1,0.7-3.2c0.1-0.9,0.3-1.7,0.6-2.5c0.7-1.4,0.8-3,1.7-4.3c0.1-0.2,0.1-0.4,0.2-0.5
		c0.2-1.5,0.9-3,0.8-4.5c0-0.1,0.1-0.3,0.1-0.4c0.2-1.2,0.8-2.4,0.5-3.7c0-0.1,0-0.2,0-0.3c0.3-0.5,0.2-1.1,0.2-1.7
		c0-0.8,0.2-1.5,0.7-2.1c0.6,0.1,1.1,0.2,1.7,0.3c0.3,0.3,0.8,0.6,1,1c0.6,1.1,1.8,1.5,2.4,2.6c1.1,0.8,1.9,1.9,2.6,3
		c0.2,0.3,0.4,0.5,0.6,0.8c0.4,0.5,0.7,0.9,1.1,1.3c1.2,1.2,1.7,3,3,4.1c0.1,0.1,0.2,0.3,0.3,0.5c0.2,0.3,0.4,0.6,0.6,0.8
		c0.7,1,1.8,1.7,2.4,2.9c0.5,0.9,1.3,1.5,1.9,2.3c0.4,0.5,0.8,0.5,1.2,0.4c0.7-1.1,0.8-2.3,1.1-3.4c-0.2-1.2,0.4-2.4,0.5-3.6
		c0-0.5,0.2-0.9,0.3-1.4c0.2-1,0.5-2,0.7-2.9c0.2-1.1,0.2-2.3,0.3-3.5c0.2-1.7,0.5-3.3,1.1-4.9c0.4-1.2,0.8-2.4,1.2-3.6
		c0-0.1,0.2-0.3,0.1-0.4c-0.2-0.7,0.3-1.2,0.4-1.8c0.2-0.8,0.3-1.6,0.6-2.4c0.5-1.7,0.9-3.4,1.4-5.2c0.3-1,0.6-1.9,0.8-2.9
		c0.8-0.2,1.4-0.5,2.1,0c0.1,0.1,0.4,0.1,0.6,0c1.2-0.2,2.5-0.4,3.7-0.6c0.4-0.7,0.6-1.2,1-1.8c0.4-0.5,0.3-1.1,0.2-1.7
		c-0.1-0.4-0.3-0.8-0.4-1.2c-0.3-0.9-0.8-1.3-1.7-1c-0.2,0.1-0.4,0.2-0.6,0.3c-0.5,0.3-1,0.5-1.5,0.3c-0.7-0.2-1.2-0.1-1.7,0.3
		c-0.1,0.1-0.3,0.1-0.4,0.1c-1.7,0.3-3.5,0.9-5.3,0.4c-0.2-0.1-0.4,0-0.6,0c-1.1,0.2-2.2,0.2-3.2,0.8c-0.6,0.3-1.4,0.4-2.1,0.6
		c-0.7,0.2-0.9,0.7-0.8,1.3c0.1,0.4,0.2,0.9,0.3,1.3c0.2,0.6,0.7,0.9,1.4,0.8c0.6-0.1,1.2-0.2,1.9-0.3c0.3,0,0.7-0.1,0.9,0
		c0.7,0.5,1.4,0.8,1.7,1.7c0.3,1,0.4,2-0.2,3c-1,0.6-1.3,1.6-1.3,2.8c0,0,0,0.1-0.1,0.1c-0.5,1.6-1,3.2-1.5,4.8
		c-0.4,1.5-1,3-0.9,4.6c0.1,1.3-0.8,2.1-2,2.1c-0.3,0-0.6,0-0.8-0.2c-0.4-0.4-0.9-0.7-1.4-1.1c0-0.4,0-0.9,0-1.3
		c-1.6-1.8-2-2.6-2.2-4.7c-0.1-0.7-0.3-1.3-0.7-1.9c-0.9-1.4-1.7-2.9-1.8-4.7c0-0.5-0.3-0.9-0.6-1.3c-0.5-0.7-1-1.3-1.3-2.1
		c-0.2-0.6-0.7-0.9-1.3-1.1c-0.4-0.1-0.8-0.2-1.1-0.2c-0.6-0.1-1-0.1-1.6,0.2c-1.4,0.7-2.9,1.3-4.3,2c-0.4,0.2-0.7,0.5-1.1,0.7
		c-0.3,0.2-0.4,0.5-0.3,0.9c0.1,0.5,0.2,1.1,0.1,1.6c-0.3,1.4-0.4,2.9-0.9,4.2c-0.3,0.7-0.6,1.4-0.6,2.1c-0.1,1.5-0.7,2.7-1.2,4
		c-0.5,1.2-0.9,2.3-1.2,3.6c-0.3,1.3-0.6,2.6-0.9,3.9c-0.1,0.3-0.1,0.7-0.1,1c0.1,1.6,0.1,1.6-1.1,2.5c-0.1,0.1-0.2,0.1-0.4,0.1
		c-0.1-0.1-0.4-0.2-0.6-0.2c-1-0.2-1.5-0.8-1.8-1.7c-0.1-0.2-0.1-0.6-0.3-0.7c-0.6-0.3-0.8-1-1.2-1.4c-0.5-0.6-0.9-1.2-1.1-2
		c0-0.2-0.3-0.3-0.3-0.5c-0.5-0.8-1-1.5-1.3-2.4c-0.2-0.6-0.5-1.2-0.8-1.7c-0.7-1.1-1.3-2.3-1.4-3.6c0-0.3-0.1-0.6-0.1-0.9
		c-0.1-0.3-0.1-0.6-0.3-0.8c-0.5-0.5-0.6-1.2-0.5-1.9c0.1-0.9,0-1.7,0-2.6c0-0.9,0.4-1.4,1.3-1.3c1.3,0.2,2.5-0.2,3.7-0.4
		c0.6-0.1,0.9-0.5,0.8-1.2c-0.3-1.5-0.4-3.1-1.5-4.4c-0.6,0.1-1.3,0.2-1.9,0.3c-4.2,0.7-8.4,1.3-12.5,2c-0.5,0.1-0.9,0.2-1.4,0.4
		c-0.5,0.1-0.9,0.4-1.4,0.4c-0.9,0.1-1.7,0.4-2.2,1.1c-0.1,0.9-0.2,1.7-0.4,2.5c-0.1,0.6,0.1,0.9,0.7,0.8c1-0.1,1.9-0.3,2.9-0.5
		c1-0.2,2-0.3,2.9,0.1c0.3,0.3,0.4,0.7,0.7,0.9c0.8,0.5,1.2,1.3,1.7,2.1c0.2,0.3,0.3,0.7,0.6,1c0.8,0.8,1.2,1.9,1.7,2.9
		c0.4,0.7,0.7,1.5,0.8,2.3c0.3,1.3,0.8,2.6,1.3,3.9c0.4,1.1,1.1,2,1.7,3c0.4,0.8,0.9,1.5,1.2,2.3c0.7,1.9,1.5,3.7,2.6,5.3
		c0.5,0.7,1.2,1.3,1.3,2.2c0,0.1,0.1,0.3,0.2,0.4c0.4,0.5,0.8,1,1.1,1.5c0.7,1.3,1.8,2.3,2.2,3.7c0.2,0.4,0.5,0.9,0.8,1.2
		c0.4,0.5,1,0.9,1.7,0.8c0.3-0.1,0.7-0.1,1.1-0.2C136.4,216.3,136.6,216,136.7,215.7z M233.2,209.9c-0.2-0.2-0.3-0.5-0.4-0.8
		c-0.2-1,0.4-1.7,1.2-2.1c0.7-0.4,1-1,1.2-1.7c0.2-0.8,0.1-1.6-0.1-2.4c-0.2-0.8-0.6-1.3-1.3-1.6c-1-0.4-2.1-0.8-3.1-1.1
		c-0.5-0.2-1-0.1-1.3,0.4c-0.6,0.9-1.5,1.4-2.3,1.9c-0.4,0.3-0.7,0.6-0.6,1.2c0.1,0.4,0.1,0.8-0.2,1.3c-0.5,0.7-0.8,1.5-0.6,2.5
		c0,0.2,0,0.4-0.1,0.6c-0.3,0.6-0.1,1.1,0.3,1.6c0.3,0.3,0.7,0.7,1.1,1c1.2,0.8,2.4,1.8,3.5,2.8c0.6,0.7,1.4,1.3,2.3,1.5
		c1.5,0.4,2.9,0.5,4.4,0.2c0.6-0.1,1-0.6,1.6-0.7c1.1-0.3,2.1-1,3.1-1.5c0.6-0.3,1.1-0.7,1.5-1.3c0.6-0.8,1.2-1.8,1.8-2.6
		c0.9-1.1,1.4-2.6,2.2-3.7c0.1-0.1,0.1-0.2,0.1-0.3c0-0.7,0.3-1.2,0.6-1.8c0.2-0.6,0.5-1.1,0.7-1.7c0.5-1.5,1-2.9,1.4-4.4
		c0.4-1.8,0.8-3.6,1.2-5.3c0.2-0.7,0.4-1.5,0.3-2.3c0-0.3,0.1-0.5,0.2-0.8c0.2-0.8,0.6-1.6,0.6-2.4c0-0.8,0.2-1.5,0.5-2.2
		c0.1-0.3,0.2-0.6,0.3-1c0.3-1.5,0.7-3,1.4-4.4c0.5-1.1,1.1-2.2,1.3-3.3c0.3-1.5,0.8-2.9,1.2-4.3c0.2-0.7,0.5-1.4,0.5-2.1
		c0-0.6,0.1-1.3,0.2-1.8c0.2-0.9,0.6-1.8,0.9-2.7c0.2-0.5,0.6-0.8,1.1-0.9c1.1-0.2,2.2-0.5,3.3-0.3c0.2,0,0.4,0,0.6,0
		c0.4,0,0.7-0.4,0.6-0.8c0-0.3-0.2-0.7-0.2-1c0.3-1,0-1.9-0.2-2.8c-0.5-0.4-1-0.6-1.7-0.5c-0.2,0.1-0.5,0.1-0.7,0.1
		c-1.1-0.3-2.2,0-3.3,0c-0.6,0-1.2,0-1.8,0.3c-0.3,0.2-0.8,0.3-1.1,0.2c-0.9-0.2-1.7,0-2.6,0.1c-1.5,0.2-3,0.5-4.5,0.7
		c-0.5,0.1-0.9,0.1-1.5,0.2c-0.2,0.5-0.5,1-0.5,1.5c0,0.7,0.1,1.3,0,2c-0.1,0.2,0.2,0.5,0.4,0.5c0.3,0,0.6,0,0.9-0.1
		c0.9-0.1,1.8-0.3,2.7-0.4c1-0.1,1.9,0.2,2.4,1.2c0.4,0.7,0.3,1.4,0,2c-0.6,1.4-0.6,2.8-1,4.2c-0.1,0.3-0.1,0.5-0.2,0.8
		c-0.6,1.3-1,2.6-1.6,3.9c0,0.1,0,0.2-0.1,0.3c-0.2,1.9-0.8,3.7-1.5,5.4c-0.1,0.3-0.2,0.7-0.2,1c0,1-0.5,1.9-1,2.7
		c-0.3,0.5-0.9,0.8-1.5,0.8c-0.6,0.1-1.1-0.2-1.5-0.7c-0.4-0.5-0.7-1-1.2-1.5c-0.5-0.5-0.8-1.1-1.1-1.7c-0.7-1.3-1.2-2.6-2.1-3.8
		c-0.8-1-1.3-2.2-2.1-3.2c-0.5-0.7-0.9-1.6-1.5-2.3c-0.3-0.3-0.6-0.8-0.8-1.2c-0.6-1.3-0.9-2.6-0.5-4.2c0.5-0.2,1-0.5,1.5-0.6
		c1.3-0.2,2.5-0.6,3.7-1.3c0-0.9-0.1-1.8-0.5-2.7c-1.2,0.1-2.4,0.2-3.6,0.3c-0.2,0-0.4,0.1-0.6,0.2c-0.9,0.2-1.8,0.6-2.7,0.4
		c-0.6-0.1-1.1-0.2-1.7-0.1c-1,0.2-2,0.3-3,0.2c-0.9-0.1-1.7,0.1-2.6,0.5c-0.4,0.2-0.9,0.3-1.4,0.2c-0.6,0-1.2-0.1-1.7,0.1
		c-1.2,0.6-2.4,0.7-3.7,0.9c-0.3,0.1-0.6,0.2-0.9,0.3c-0.1,0.9,0.2,1.6-0.1,2.4c-0.1,0.3,0.3,0.6,0.7,0.5c1.3-0.3,2.6,0.1,3.9-0.2
		c0.9-0.2,1.6,0.3,2.3,0.6c0.6,0.8,1.3,1.6,1.8,2.4c0.3,0.5,0.5,0.9,0.8,1.4c0.4,0.7,1,1.4,1.1,2.1c0.3,1.4,0.8,2.7,1.5,3.9
		c1.2,2.1,2.4,4.2,3.6,6.3c0.6,1.1,1,2.3,1.7,3.3c0.1,0.2,0.1,0.5,0.2,0.7c0.1,0.2,0.1,0.5,0.3,0.7c0.4,0.4,0.5,0.8,0.6,1.3
		c0.1,0.2,0.1,0.5,0.3,0.7c0.9,1.2,1.8,2.5,2.8,3.7c0.8,1,1.7,1.9,2.1,3.1c0.1,0.2,0.2,0.4,0.4,0.6c0.4,0.3,0.7,0.6,1,0.8
		c0.3,0.7,0.5,1.4,0.8,2c0.1,0.2,0.1,0.5,0.1,0.7c0,0.8,0.1,1.6,0.1,2.5c0,0.4,0.1,0.8-0.2,1.1c-0.5,0.6-0.7,1.4-1.3,1.9
		c-1.1,1-1.8,2.5-3.3,2.9c-0.3,0.5-0.8,0.5-1.3,0.6c-0.5,0.1-0.9,0.5-1.4,0.4c-0.8,0-1.8,0.1-2.5-0.5
		C233.8,210.7,233.5,210.3,233.2,209.9z M222.5,189.4c0,0.2,0,0.5-0.1,0.7c-0.5,1-0.4,2.2-1,3.2c-0.2,0.4-0.3,1-0.3,1.6
		c0.1,0.6-0.2,1-0.4,1.5c-0.3,1-1.7,1.3-2.5,0.7c-0.2-0.2-0.5-0.3-0.7-0.6c-0.3-0.6-0.8-1.2-0.9-1.8c-0.2-1.1-0.8-2.1-1.2-3.1
		c-0.5-1.2-1.3-2.4-0.9-3.8c0.1-0.2,0-0.5-0.1-0.7c-0.4-2.8-0.9-5.6-1.3-8.3c0-0.3-0.1-0.6-0.3-0.8c-0.4-0.6-0.6-1.3-0.7-2.1
		c-0.1-0.8-0.5-1.6-1-2.2c-0.4-0.5-0.8-1-1.2-1.5c-0.5-0.7-1.1-1.3-1.4-2c-0.3-0.6-0.7-1-1.3-1.3c-1.9-1.1-4-1.4-6.1-2
		c-0.6-0.2-1.2-0.4-1.8-0.5c-0.6-0.1-1.3,0.1-1.9,0c-1.5-0.3-3-0.3-4.4,0c-0.4,0.1-0.9,0.1-1.3,0.2c-1.3,0.2-2.6,0.5-3.6,1.3
		c-0.5,0.4-1.1,0.7-1.7,1c-1.3,0.8-2.6,1.6-3.8,2.5c-1.4,1.1-2.2,2.5-3.1,3.9c-0.1,0.2-0.2,0.6-0.1,0.8c0.1,0.7-0.2,1.2-0.7,1.7
		c-0.2,0.2-0.5,0.5-0.8,0.7c-0.4,0.3-0.5,0.8-0.6,1.3c0,0.5,0.1,0.8,0.5,1.1c0.3,0.3,0.4,0.7,0.6,1.1c0.1,0.3,0.3,0.6,0.6,0.8
		c0.5,0.4,1,0.9,1.7,1.1c0.4,0.1,0.7,0.3,0.9,0.7c0.4,0.5,1,0.7,1.7,0.6c0.7-0.1,1.4-0.2,2.2-0.4c0.1-1.1,0.8-1.6,1.4-2.1
		c0.2-1.2,0.3-2.2,0.4-3.3c0-0.2,0.1-0.5,0-0.7c-0.3-0.9-0.5-1.8-1.4-2.3c-0.2-0.1-0.4-0.3-0.6-0.4c-0.3-0.2-0.4-0.6-0.3-0.9
		c0-0.2,0.1-0.5,0.2-0.7c0.1-0.8,1.2-1,1.2-1.9c0,0,0.1-0.1,0.2-0.1c1.1-0.5,2.1-1.4,3.4-1.5c0.1,0,0.2-0.1,0.3-0.1
		c0.5-0.5,1.1-0.6,1.7-0.6c1.2-0.2,2.4-0.6,3.7-0.1c1.6-0.1,3,0.4,4.5,1c0.4,0.2,0.8,0.4,1.1,0.6c0.7,0.6,1.5,1.1,2.2,1.7
		c0.3,0.2,0.5,0.5,0.7,0.7c0.6,1,1.1,1.9,1.6,2.9c0.2,0.3,0.3,0.7,0.4,1.1c0.3,1.1,0,1.7-1.1,2.2c-0.2,0.1-0.5,0.2-0.7,0.2
		c-0.4,0.1-0.7,0.2-1,0.5c-0.7,0.5-1.5,0.5-2.2,0.4c-1.4-0.3-2.8-0.4-4.1,0c-1,0.3-2,0.6-3.1,0.9c-0.1,0-0.2,0.1-0.3,0.1
		c-1,0.7-2.1,1.1-3.3,1.3c-0.7,0.1-1.2,0.6-1.4,1.3c-0.2,0.7-0.6,1.3-1.1,1.9c-0.3,0.4-0.6,0.7-1,1c-0.3,0.3-0.4,0.8-0.6,1.2
		c-0.2,0.3-0.4,0.5-0.7,0.7c-0.7,0.6-1.3,1.4-2,1.9c-1.1,0.8-1.7,1.7-1.8,3c-0.1,0.4-0.2,0.8-0.3,1.3c-0.1,0.3-0.1,0.7,0,1
		c0.1,0.7,0.2,1.4,0.3,2.2c0.1,0.5,0.3,0.9,0.6,1.3c1.3,1.4,3.1,2.9,4.7,3.8c1.2,0.7,2.5,1.1,4,0.8c1.5-0.3,3-0.6,4.5-0.7
		c1.8-0.2,3.3-1.1,5.1-1.2c0.1,0,0.3-0.1,0.4-0.2c1.8-1.2,3.8-2.1,5.4-3.6c0.4-0.4,1-0.5,1.5-0.3c0.7,0.3,1.7,0.2,2,1.2
		c0.1,0.1,0.3,0.2,0.5,0.3c0.6,0.3,1.2,0.7,1.8,1c0.6,0.3,1.3,0.6,1.9,1c0.9,0.6,1.9,0.8,3,0.7c0.9-0.1,1.8-0.3,2.7-0.4
		c0.8-0.1,1.3-0.6,1.7-1.2c0.2-0.3,0.4-0.5,0.6-0.8c0.6-0.9,1.2-1.7,1.5-2.8c0.5-1.6,0.8-3.4,1.7-4.9c0.1-0.1,0.1-0.3,0.1-0.4
		c-0.1-0.8,0.1-1.6,0.2-2.4c0-0.2-0.1-0.4-0.2-0.7C224.5,189.5,223.5,188.6,222.5,189.4z M206.4,188.2c-0.1,0.3,0,0.7,0.1,1
		c0.1,0.9,0.3,1.8,0.4,2.7c0.2,1.4-0.2,2.6-1.1,3.6c-0.2,0.2-0.4,0.4-0.7,0.5c-1,0.5-2,0.9-3,1.4c-1.1,0.5-2.3,0.7-3.5,0.9
		c-0.3,0.1-0.6,0.2-0.9,0.4c-0.7,0.4-1.3,0.5-2.1,0.2c-0.8-0.3-1.6-0.5-2.4-0.6c-0.7-0.1-1.2-0.5-1.7-0.9c-0.9-0.7-1.4-1.6-1.5-2.7
		c0-0.4-0.1-0.9-0.2-1.3c-0.2-0.7,0.1-1.4,0.3-2c0.2-0.5,0.5-1,0.8-1.5c0.9-1.6,2.1-2.9,3.9-3.7c1.3-0.6,2.6-1.2,3.9-1.8
		c0.5-0.2,1-0.3,1.5-0.2c0.5,0.1,1,0,1.4,0c0.6-0.1,1.2-0.2,1.9-0.3c0.7-0.1,1.3,0.1,1.9,0.5c0.3,0.2,0.5,0.4,0.8,0.7
		C206.4,186.1,206.8,187.1,206.4,188.2z"/>
	<path class="st3" d="M136.7,215.7c0.3-1.1,0.6-2.1,0.7-3.2c0.1-0.9,0.3-1.7,0.6-2.5c0.7-1.4,0.8-3,1.7-4.3c0.1-0.2,0.1-0.4,0.2-0.6
		c0.2-1.5,0.9-3,0.8-4.5c0-0.1,0.1-0.3,0.1-0.4c0.2-1.2,0.8-2.4,0.5-3.7c0-0.1,0-0.2,0-0.3c0.3-0.5,0.2-1.1,0.2-1.7
		c0-0.8,0.2-1.5,0.7-2.1c0.6,0.1,1.1,0.2,1.7,0.3c0.3,0.3,0.8,0.6,1,1c0.6,1.1,1.8,1.5,2.4,2.6c1.1,0.8,1.9,1.9,2.6,3
		c0.2,0.3,0.4,0.5,0.6,0.8c0.4,0.5,0.7,0.9,1.1,1.3c1.2,1.2,1.7,3,3,4.1c0.1,0.1,0.2,0.3,0.3,0.5c0.2,0.3,0.4,0.6,0.6,0.8
		c0.7,1,1.8,1.7,2.4,2.9c0.5,0.9,1.3,1.5,1.9,2.3c0.4,0.5,0.8,0.5,1.2,0.4c0.7-1.1,0.8-2.3,1.1-3.4c-0.2-1.2,0.4-2.4,0.5-3.6
		c0-0.5,0.2-0.9,0.3-1.4c0.2-1,0.5-2,0.7-2.9c0.2-1.1,0.2-2.3,0.3-3.5c0.2-1.7,0.5-3.3,1.1-4.9c0.4-1.2,0.8-2.4,1.2-3.6
		c0-0.1,0.2-0.3,0.1-0.4c-0.2-0.7,0.3-1.2,0.4-1.8c0.2-0.8,0.3-1.6,0.6-2.4c0.5-1.7,0.9-3.4,1.4-5.2c0.3-1,0.6-1.9,0.8-2.9
		c0.8-0.2,1.4-0.5,2.1,0c0.1,0.1,0.4,0.1,0.6,0c1.2-0.2,2.5-0.4,3.7-0.6c0.4-0.7,0.6-1.2,1-1.8c0.4-0.5,0.3-1.1,0.2-1.7
		c-0.1-0.4-0.3-0.8-0.4-1.2c-0.3-0.9-0.8-1.3-1.7-1c-0.2,0.1-0.4,0.2-0.6,0.3c-0.5,0.3-1,0.5-1.5,0.3c-0.7-0.2-1.2-0.1-1.7,0.3
		c-0.1,0.1-0.3,0.1-0.4,0.1c-1.7,0.3-3.5,0.9-5.3,0.4c-0.2-0.1-0.4,0-0.6,0c-1.1,0.2-2.2,0.2-3.2,0.8c-0.6,0.3-1.4,0.4-2.1,0.6
		c-0.7,0.2-0.9,0.7-0.8,1.3c0.1,0.4,0.2,0.9,0.3,1.3c0.2,0.6,0.7,0.9,1.4,0.8c0.6-0.1,1.2-0.2,1.9-0.3c0.3,0,0.7-0.1,0.9,0
		c0.7,0.5,1.4,0.8,1.7,1.7c0.3,1,0.4,2-0.2,3c-1,0.6-1.3,1.6-1.3,2.8c0,0,0,0.1-0.1,0.1c-0.5,1.6-1,3.2-1.5,4.8
		c-0.4,1.5-1,3-0.9,4.6c0.1,1.3-0.8,2.1-2,2.1c-0.3,0-0.6,0-0.8-0.2c-0.4-0.4-0.9-0.7-1.4-1.1c0-0.4,0-0.9,0-1.3
		c-1.6-1.8-2-2.6-2.2-4.7c-0.1-0.7-0.3-1.3-0.7-1.9c-0.9-1.4-1.7-2.9-1.8-4.7c0-0.5-0.3-0.9-0.6-1.3c-0.5-0.7-1-1.3-1.3-2.1
		c-0.2-0.6-0.7-0.9-1.3-1.1c-0.4-0.1-0.8-0.2-1.1-0.2c-0.6-0.1-1-0.1-1.6,0.2c-1.4,0.7-2.9,1.3-4.3,2c-0.4,0.2-0.7,0.5-1.1,0.7
		c-0.3,0.2-0.4,0.5-0.3,0.9c0.1,0.5,0.2,1.1,0.1,1.6c-0.3,1.4-0.4,2.9-0.9,4.2c-0.3,0.7-0.6,1.4-0.6,2.1c-0.1,1.5-0.7,2.7-1.2,4
		c-0.5,1.2-0.9,2.3-1.2,3.6c-0.3,1.3-0.6,2.6-0.9,3.9c-0.1,0.3-0.1,0.7-0.1,1c0.1,1.6,0.1,1.6-1.1,2.5c-0.1,0.1-0.2,0.1-0.4,0.1
		c-0.1-0.1-0.4-0.2-0.6-0.2c-1-0.2-1.5-0.8-1.8-1.7c-0.1-0.2-0.1-0.6-0.3-0.7c-0.6-0.3-0.8-1-1.2-1.4c-0.5-0.6-0.9-1.2-1.1-2
		c0-0.2-0.3-0.3-0.3-0.5c-0.5-0.8-1-1.5-1.3-2.4c-0.2-0.6-0.5-1.2-0.8-1.7c-0.7-1.1-1.3-2.3-1.4-3.6c0-0.3-0.1-0.6-0.1-0.9
		c-0.1-0.3-0.1-0.6-0.3-0.8c-0.5-0.5-0.6-1.2-0.5-1.9c0.1-0.9,0-1.7,0-2.6c0-0.9,0.4-1.4,1.3-1.3c1.3,0.2,2.5-0.2,3.7-0.4
		c0.6-0.1,0.9-0.5,0.8-1.2c-0.3-1.5-0.4-3.1-1.5-4.4c-0.6,0.1-1.3,0.2-1.9,0.3c-4.2,0.7-8.4,1.3-12.5,2c-0.5,0.1-0.9,0.2-1.4,0.4
		c-0.5,0.1-0.9,0.4-1.4,0.4c-0.9,0.1-1.7,0.4-2.2,1.1c-0.1,0.9-0.2,1.7-0.4,2.5c-0.1,0.6,0.1,0.9,0.7,0.8c1-0.1,1.9-0.3,2.9-0.5
		c1-0.2,2-0.3,2.9,0.1c0.3,0.3,0.4,0.7,0.7,0.9c0.8,0.5,1.2,1.3,1.7,2.1c0.2,0.3,0.3,0.7,0.6,1c0.8,0.8,1.2,1.9,1.7,2.9
		c0.4,0.7,0.7,1.5,0.8,2.3c0.3,1.3,0.8,2.6,1.3,3.9c0.4,1.1,1.1,2,1.7,3c0.4,0.8,0.9,1.5,1.2,2.3c0.7,1.9,1.5,3.7,2.6,5.3
		c0.5,0.7,1.2,1.3,1.3,2.2c0,0.1,0.1,0.3,0.2,0.4c0.4,0.5,0.8,1,1.1,1.5c0.7,1.2,1.8,2.3,2.2,3.7c0.2,0.4,0.5,0.9,0.8,1.2
		c0.4,0.5,1,0.9,1.7,0.8c0.3-0.1,0.7-0.1,1.1-0.2C136.4,216.3,136.6,216,136.7,215.7z M233.2,209.9c-0.2-0.2-0.3-0.5-0.4-0.8
		c-0.2-1,0.4-1.7,1.2-2.1c0.7-0.4,1-1,1.2-1.7c0.2-0.8,0.1-1.6-0.1-2.4c-0.2-0.8-0.6-1.3-1.3-1.6c-1-0.4-2.1-0.8-3.1-1.2
		c-0.5-0.2-1-0.1-1.3,0.4c-0.6,0.9-1.5,1.4-2.3,1.9c-0.4,0.3-0.7,0.6-0.6,1.2c0.1,0.4,0.1,0.8-0.2,1.2c-0.5,0.7-0.8,1.5-0.6,2.5
		c0,0.2,0,0.4-0.1,0.6c-0.3,0.6-0.1,1.1,0.3,1.6c0.3,0.3,0.7,0.7,1.1,1c1.2,0.8,2.4,1.8,3.5,2.8c0.6,0.7,1.4,1.3,2.3,1.5
		c1.5,0.4,2.9,0.5,4.4,0.2c0.6-0.1,1-0.6,1.6-0.7c1.1-0.3,2.1-1,3.1-1.5c0.6-0.3,1.1-0.7,1.5-1.3c0.6-0.8,1.2-1.8,1.8-2.6
		c0.9-1.1,1.4-2.6,2.2-3.7c0.1-0.1,0.1-0.2,0.1-0.3c0-0.7,0.3-1.2,0.6-1.8c0.2-0.6,0.5-1.1,0.7-1.7c0.5-1.5,1-2.9,1.4-4.4
		c0.4-1.8,0.8-3.6,1.2-5.3c0.2-0.7,0.4-1.5,0.3-2.3c0-0.3,0.1-0.5,0.2-0.8c0.2-0.8,0.6-1.6,0.6-2.4c0-0.8,0.2-1.5,0.5-2.2
		c0.1-0.3,0.2-0.6,0.3-1c0.3-1.5,0.7-3,1.4-4.4c0.5-1.1,1.1-2.2,1.3-3.3c0.3-1.5,0.8-2.9,1.2-4.3c0.2-0.7,0.5-1.4,0.5-2.1
		c0-0.6,0.1-1.3,0.2-1.8c0.2-0.9,0.6-1.8,0.9-2.7c0.2-0.5,0.6-0.8,1.1-0.9c1.1-0.2,2.2-0.5,3.3-0.3c0.2,0,0.4,0,0.6,0
		c0.4,0,0.7-0.4,0.6-0.8c0-0.3-0.2-0.7-0.2-1c0.3-1,0-1.9-0.2-2.8c-0.5-0.4-1-0.6-1.7-0.5c-0.2,0.1-0.5,0.1-0.7,0.1
		c-1.1-0.3-2.2,0-3.3,0c-0.6,0-1.2,0-1.8,0.3c-0.3,0.2-0.8,0.3-1.1,0.2c-0.9-0.2-1.7,0-2.6,0.1c-1.5,0.2-3,0.5-4.5,0.7
		c-0.5,0.1-0.9,0.1-1.5,0.2c-0.2,0.5-0.5,1-0.5,1.5c0,0.7,0.1,1.3,0,2c-0.1,0.2,0.2,0.5,0.4,0.5c0.3,0,0.6,0,0.9-0.1
		c0.9-0.1,1.8-0.3,2.7-0.4c1-0.1,1.9,0.2,2.4,1.2c0.4,0.7,0.3,1.4,0,2c-0.6,1.4-0.6,2.8-1,4.2c-0.1,0.3-0.1,0.5-0.2,0.8
		c-0.6,1.3-1,2.6-1.6,3.9c0,0.1,0,0.2-0.1,0.3c-0.2,1.9-0.8,3.7-1.5,5.4c-0.1,0.3-0.2,0.7-0.2,1c0,1-0.5,1.9-1,2.7
		c-0.3,0.5-0.9,0.8-1.5,0.8c-0.6,0.1-1.1-0.2-1.5-0.7c-0.4-0.5-0.7-1-1.2-1.5c-0.5-0.5-0.8-1.1-1.1-1.7c-0.7-1.3-1.2-2.6-2.1-3.8
		c-0.8-1-1.3-2.2-2.1-3.2c-0.5-0.7-0.9-1.6-1.5-2.3c-0.3-0.3-0.6-0.8-0.8-1.2c-0.6-1.3-0.9-2.6-0.5-4.2c0.5-0.2,1-0.5,1.5-0.6
		c1.3-0.2,2.5-0.6,3.7-1.3c0-0.9-0.1-1.8-0.5-2.7c-1.2,0.1-2.4,0.2-3.6,0.3c-0.2,0-0.4,0.1-0.6,0.2c-0.9,0.2-1.8,0.6-2.7,0.4
		c-0.6-0.1-1.1-0.1-1.7-0.1c-1,0.2-2,0.3-3,0.2c-0.9-0.1-1.7,0.1-2.6,0.5c-0.4,0.2-0.9,0.3-1.4,0.2c-0.6,0-1.2-0.1-1.7,0.1
		c-1.2,0.6-2.4,0.7-3.7,0.9c-0.3,0.1-0.6,0.2-0.9,0.3c-0.1,0.9,0.2,1.6-0.1,2.4c-0.1,0.3,0.3,0.6,0.7,0.5c1.3-0.3,2.6,0.1,3.9-0.2
		c0.9-0.2,1.6,0.3,2.3,0.6c0.6,0.8,1.3,1.6,1.8,2.4c0.3,0.5,0.5,0.9,0.8,1.4c0.4,0.7,1,1.4,1.1,2.1c0.3,1.4,0.8,2.7,1.5,3.9
		c1.2,2.1,2.4,4.2,3.6,6.3c0.6,1.1,1,2.3,1.7,3.3c0.1,0.2,0.1,0.5,0.2,0.7c0.1,0.2,0.1,0.5,0.3,0.7c0.4,0.4,0.5,0.8,0.6,1.3
		c0.1,0.2,0.1,0.5,0.3,0.7c0.9,1.2,1.8,2.5,2.8,3.7c0.8,1,1.7,1.9,2.1,3.1c0.1,0.2,0.2,0.4,0.4,0.6c0.4,0.3,0.7,0.6,1,0.8
		c0.3,0.7,0.5,1.4,0.8,2c0.1,0.2,0.1,0.5,0.1,0.7c0,0.8,0.1,1.6,0.1,2.5c0,0.4,0.1,0.8-0.2,1.1c-0.5,0.6-0.7,1.4-1.3,1.9
		c-1.1,1-1.7,2.5-3.3,2.9c-0.3,0.5-0.8,0.5-1.3,0.6c-0.5,0.1-0.9,0.5-1.4,0.4c-0.8,0-1.8,0.1-2.5-0.5
		C233.8,210.7,233.5,210.2,233.2,209.9z M222.5,189.4c0,0.2,0,0.5-0.1,0.7c-0.5,1-0.4,2.2-1,3.2c-0.2,0.4-0.3,1-0.3,1.6
		c0.1,0.6-0.2,1-0.4,1.5c-0.3,1-1.7,1.3-2.5,0.7c-0.2-0.2-0.5-0.3-0.7-0.6c-0.3-0.6-0.8-1.2-0.9-1.8c-0.2-1.1-0.8-2.1-1.2-3.1
		c-0.5-1.2-1.3-2.4-0.9-3.8c0.1-0.2,0-0.5-0.1-0.7c-0.4-2.8-0.9-5.6-1.3-8.3c0-0.3-0.1-0.6-0.3-0.8c-0.4-0.6-0.6-1.3-0.7-2.1
		c-0.1-0.8-0.5-1.6-1-2.2c-0.4-0.5-0.8-1-1.2-1.5c-0.5-0.7-1.1-1.3-1.4-2c-0.3-0.6-0.7-1-1.3-1.3c-1.9-1.1-4-1.4-6.1-2
		c-0.6-0.2-1.2-0.4-1.8-0.5c-0.6-0.1-1.3,0.1-1.9,0c-1.5-0.3-3-0.3-4.4,0c-0.4,0.1-0.9,0.1-1.3,0.2c-1.3,0.2-2.6,0.5-3.6,1.3
		c-0.5,0.4-1.1,0.7-1.7,1c-1.3,0.8-2.6,1.6-3.8,2.5c-1.4,1.1-2.2,2.5-3.1,3.9c-0.1,0.2-0.2,0.6-0.1,0.8c0.1,0.7-0.2,1.2-0.7,1.7
		c-0.2,0.2-0.5,0.5-0.8,0.7c-0.4,0.3-0.5,0.8-0.6,1.3c0,0.5,0.1,0.8,0.5,1.1c0.3,0.3,0.4,0.7,0.6,1.1c0.1,0.3,0.3,0.6,0.6,0.8
		c0.5,0.4,1,0.9,1.7,1.1c0.4,0.1,0.7,0.3,0.9,0.7c0.4,0.5,1,0.7,1.7,0.6c0.7-0.1,1.4-0.2,2.2-0.4c0.1-1.1,0.8-1.6,1.4-2.1
		c0.2-1.2,0.3-2.2,0.4-3.3c0-0.2,0.1-0.5,0-0.7c-0.3-0.9-0.5-1.8-1.4-2.3c-0.2-0.1-0.4-0.3-0.6-0.4c-0.3-0.2-0.4-0.6-0.3-0.9
		c0-0.2,0.1-0.5,0.2-0.7c0.1-0.8,1.2-1,1.2-1.9c0,0,0.1-0.1,0.2-0.1c1.1-0.5,2.1-1.4,3.4-1.5c0.1,0,0.2-0.1,0.3-0.1
		c0.5-0.5,1.1-0.6,1.7-0.6c1.2-0.2,2.4-0.6,3.7-0.1c1.6-0.1,3,0.4,4.5,1c0.4,0.2,0.8,0.4,1.1,0.6c0.7,0.5,1.5,1.1,2.2,1.7
		c0.3,0.2,0.5,0.5,0.7,0.7c0.6,1,1.1,1.9,1.6,2.9c0.2,0.3,0.3,0.7,0.4,1.1c0.3,1.1,0,1.7-1.1,2.2c-0.2,0.1-0.5,0.2-0.7,0.2
		c-0.4,0.1-0.7,0.2-1,0.5c-0.7,0.5-1.5,0.5-2.2,0.4c-1.4-0.2-2.8-0.4-4.1,0c-1,0.3-2,0.6-3.1,0.9c-0.1,0-0.2,0.1-0.3,0.1
		c-1,0.7-2.1,1.1-3.3,1.3c-0.7,0.1-1.2,0.6-1.4,1.3c-0.2,0.7-0.6,1.3-1.1,1.9c-0.3,0.4-0.6,0.7-1,1c-0.3,0.3-0.4,0.8-0.6,1.2
		c-0.2,0.3-0.4,0.5-0.7,0.7c-0.7,0.6-1.3,1.3-2,1.9c-1.1,0.8-1.7,1.7-1.8,3c-0.1,0.4-0.2,0.8-0.3,1.3c-0.1,0.3-0.1,0.7,0,1
		c0.1,0.7,0.2,1.4,0.3,2.2c0.1,0.5,0.3,0.9,0.6,1.3c1.3,1.4,3.1,2.9,4.7,3.8c1.2,0.7,2.5,1.1,4,0.8c1.5-0.3,3-0.6,4.5-0.7
		c1.8-0.2,3.3-1.1,5.1-1.2c0.1,0,0.3-0.1,0.4-0.2c1.8-1.2,3.8-2.1,5.4-3.6c0.4-0.4,1-0.5,1.5-0.3c0.7,0.3,1.7,0.2,2,1.2
		c0.1,0.2,0.3,0.2,0.5,0.3c0.6,0.3,1.2,0.7,1.8,1c0.6,0.3,1.3,0.6,1.9,1c0.9,0.7,1.9,0.8,3,0.7c0.9-0.1,1.8-0.3,2.7-0.4
		c0.8-0.1,1.3-0.6,1.7-1.2c0.2-0.3,0.4-0.5,0.6-0.8c0.6-0.9,1.2-1.7,1.5-2.8c0.5-1.7,0.8-3.4,1.7-4.9c0.1-0.1,0.1-0.3,0.1-0.4
		c-0.1-0.8,0.1-1.6,0.2-2.4c0-0.2-0.1-0.4-0.2-0.7C224.5,189.5,223.5,188.6,222.5,189.4z M206.4,188.2c-0.1,0.3,0,0.7,0.1,1
		c0.1,0.9,0.3,1.8,0.4,2.7c0.2,1.4-0.2,2.6-1.1,3.6c-0.2,0.2-0.4,0.4-0.7,0.5c-1,0.5-2,0.9-3,1.4c-1.1,0.5-2.3,0.7-3.5,0.9
		c-0.3,0.1-0.6,0.2-0.9,0.4c-0.7,0.4-1.3,0.5-2.1,0.2c-0.8-0.3-1.6-0.5-2.4-0.6c-0.7-0.1-1.2-0.5-1.7-0.9c-0.9-0.7-1.4-1.6-1.5-2.7
		c0-0.4-0.1-0.9-0.2-1.3c-0.2-0.7,0.1-1.4,0.3-2c0.2-0.5,0.5-1,0.8-1.5c0.9-1.6,2.1-2.9,3.9-3.7c1.3-0.6,2.6-1.2,3.9-1.8
		c0.5-0.2,1-0.3,1.5-0.2c0.5,0.1,1,0,1.4,0c0.6-0.1,1.2-0.2,1.9-0.3c0.7-0.1,1.3,0,1.9,0.5c0.3,0.2,0.5,0.4,0.8,0.7
		C206.4,186.1,206.8,187.1,206.4,188.2z"/>
	<g>
		<path class="st4" d="M126.5,33.1c-1.3,0.6-2.3,2.9-1.3,7.4c0.8,3.5,1.4,7.4,2,11.2c1,6.5,2,12.6,3.8,16.9c0,0,0,0.1,0,0.1
			c0.6,1,1,1.7,1.5,1.9c0.6,0.4,1.1,0.5,1.5,0.4c0.2,0,0.5-0.2,0.7-0.3c1.3-1.2,1.3-4.9,0.8-10.4c-0.7-8.2-2.3-19.8-3-21.7
			C130.6,33.8,128.1,32.4,126.5,33.1z"/>
	</g>
</g>
<path class="st4" d="M109.5,53.3c-1.9-2.2-4.6-3.1-5.6-2c-1,1.1,0,2.9,1.5,5.5c1.6,2.9,4.5,5.8,7,8.7c1.6,1.9,3.5,4.3,4.9,6.4
	c0.1,0.1,1.5,2.2,3.2,2.1c0.1,0,0.3,0,0.4-0.1c0.7-0.2,1.2-0.7,1.4-1.5C122.9,68.3,110.8,54.9,109.5,53.3z"/>
<path class="st4" d="M157.6,50.7c0.6-2.6-0.3-4.9-2.1-4.7c-1.7,0.2-2.6,2-3.9,4.7c-1.5,3-2.1,6.6-3,10.1c-0.6,2.2-1.5,5-2.4,7.3
	c0,0.1-0.9,2.4,0.3,3.4c0.1,0.1,0.2,0.1,0.3,0.2c0.7,0.3,1.5,0.2,2.3-0.2C153.3,68.9,157.1,52.6,157.6,50.7z"/>
<path class="st4" d="M75.5,62.9c-0.3,1.3,1,3.5,5.4,5.7c3.5,1.7,7.1,3.7,10.7,5.7c6.1,3.4,11.9,6.6,16.7,8c0,0,0.1,0,0.1,0
	c1.2,0.2,2.1,0.3,2.6,0.2c0.7-0.2,1.1-0.4,1.3-0.8c0.1-0.2,0.2-0.4,0.1-0.7c-0.2-1.7-3.3-4-8.3-7.2C96.8,69.1,86,62.9,83.9,62.2
	C78.6,60.4,75.9,61.3,75.5,62.9z"/>
<path class="st4" d="M184.6,45.4c-1.4-0.4-3.9,0.5-6.7,4.3c-2.2,3-4.8,6.1-7.3,9.1c-4.3,5.2-8.4,10.1-10.5,14.4c0,0,0,0.1,0,0.1
	c-0.4,1.1-0.6,1.8-0.5,2.3c0.1,0.6,0.3,1.1,0.7,1.3c0.2,0.1,0.5,0.2,0.7,0.2c1.8,0,4.7-2.6,8.7-6.8c5.9-6.2,13.7-15.3,14.7-17.2
	C187,48.6,186.3,45.9,184.6,45.4z"/>
<g>
	<path class="st4" d="M267.4,160.1c-0.1-0.7,0-1.3,0.2-2c0.2-0.6,0.6-1.2,1.2-1.6c0.5-0.4,1.2-0.7,1.8-0.8c0.7-0.1,1.3,0,2,0.2
		c0.6,0.2,1.2,0.6,1.6,1.2c0.4,0.5,0.7,1.2,0.8,1.8c0.1,0.7,0,1.3-0.2,2c-0.2,0.6-0.6,1.2-1.2,1.6c-0.5,0.4-1.2,0.7-1.9,0.8
		c-0.7,0.1-1.4,0-2-0.2c-0.7-0.3-1.2-0.7-1.6-1.2C267.8,161.4,267.5,160.8,267.4,160.1z M268,160c0.1,0.6,0.3,1.1,0.7,1.6
		c0.4,0.5,0.8,0.8,1.4,1c0.6,0.2,1.1,0.3,1.7,0.2c0.6-0.1,1.1-0.3,1.6-0.7c0.5-0.4,0.8-0.8,1-1.4c0.2-0.6,0.3-1.1,0.2-1.7
		c-0.1-0.6-0.3-1.1-0.7-1.6c-0.4-0.5-0.8-0.8-1.4-1c-0.6-0.2-1.1-0.3-1.7-0.2c-0.6,0.1-1.1,0.3-1.6,0.7c-0.5,0.4-0.8,0.8-1,1.4
		C267.9,158.8,267.9,159.4,268,160z M272.7,158.3c0,0.3,0,0.5-0.1,0.8c-0.1,0.2-0.3,0.4-0.5,0.6l1.5,1.8l-0.9,0.1l-1.3-1.6l-0.7,0.1
		l0.3,1.8l-0.8,0.1l-0.7-4.5l1.3-0.2c0.6-0.1,1,0,1.3,0.1C272.4,157.5,272.6,157.9,272.7,158.3z M270.6,159.4l0.6-0.1
		c0.3,0,0.5-0.1,0.6-0.3c0.1-0.2,0.2-0.4,0.2-0.6c0-0.3-0.1-0.4-0.3-0.5c-0.2-0.1-0.4-0.1-0.7-0.1l-0.5,0.1L270.6,159.4z"/>
</g>
</svg>
