<?xml version="1.0" encoding="utf-8"?>
<!-- Generator: Adobe Illustrator 24.0.3, SVG Export Plug-In . SVG Version: 6.00 Build 0)  -->
<svg version="1.1" id="Layer_1" xmlns="http://www.w3.org/2000/svg" xmlns:xlink="http://www.w3.org/1999/xlink" x="0px" y="0px"
	 viewBox="0 0 435.6939087 97.4166107" style="enable-background:new 0 0 435.6939087 97.4166107;" xml:space="preserve">
<style type="text/css">
	.st0{fill:#FFFFFF;}
	.st1{fill:#FFB81C;}
	.st2{fill:#ED8B00;}
	.st3{fill:none;}
</style>
<g>
	<g>
		<g>
			<polygon class="st0" points="23.1201782,74.0474091 23.1201782,37.0474129 55.1201782,17.0474129 58.1201782,17.0474129 
				64.1201782,21.0474129 64.1201782,17.0474129 83.1201782,29.0474129 83.2956696,33.493 89.1201782,37.0474129 
				89.2814026,72.7328415 58.1201782,96.0474091 54.1201782,96.0474091 			"/>
		</g>
		<g>
			<g>
				<path class="st1" d="M109.2317505,20.8676033L91.6417236,9.7411385c-1.4302368-0.9053955-3.24646-0.9347534-4.7060547-0.0778809
					L69.0559692,20.1647835l14.064209,8.8826294v3.7449341l6.1918945,3.7819824v37.1747398l17.3053589-12.4734459
					c3.0050049-2.7323608,4.7180786-6.6049194,4.7180786-10.6668701V24.6887093
					C111.3355103,23.1385994,110.5415649,21.6963387,109.2317505,20.8676033z"/>
			</g>
			<g>
				<path class="st2" d="M47.1456032,22.1988621L25.8028374,9.6636801
					c-1.4596424-0.8574495-3.2758045-0.8274879-4.7060852,0.0772943L3.5067487,20.8680515
					c-1.3098409,0.8286858-2.1037741,2.2703495-2.1037741,3.8204727v25.9206219
					c0,4.0613518,1.7130979,7.9345512,4.7180662,10.6662865l17.3053856,12.4740639V36.5741768L47.1456032,22.1988621z"/>
			</g>
			<g>
				<path d="M109.9817505,19.6820564L92.3920898,8.5553474c-1.8821411-1.1919556-4.2453003-1.2311401-6.1672363-0.1018066
					l-16.9119873,9.9332275L65.0010986,15.63451c-0.4318237-0.2761841-0.9795532-0.2943115-1.4292603-0.0479736
					c-0.4494019,0.2463379-0.7285156,0.7180176-0.7285156,1.2305908v1.9747314l-3.3116455-2.0192261
					c-1.8935547-1.1468506-4.2467651-1.1474609-6.1408691,0.0006104l-6.2566528,3.7918091L26.5133057,8.4541512
					c-1.9213867-1.1293945-4.2836304-1.0901489-6.166626,0.1011963L2.7566528,19.6826057
					C1.0304565,20.7745247,0,22.6458015,0,24.6885872v25.9205322c0,4.4476929,1.887146,8.713501,5.1774292,11.7041626
					C5.2163696,62.3489876,53.041748,96.3352509,53.041748,96.3352509c1.0033569,0.7072144,2.1754761,1.0621338,3.3501587,1.0743408
					c0.0234985,0.0011597,0.0456543,0.007019,0.069458,0.007019c0.0393677,0,0.076416-0.0084229,0.1149292-0.0115967
					c1.159668-0.0238037,2.3140869-0.3782959,3.3029785-1.0791626c0,0,47.6428223-33.9762535,47.6820068-34.0119591
					c3.2903442-2.9918823,5.177124-7.2582397,5.177124-11.7053833V24.6885872
					C112.7384033,22.6452522,111.7079468,20.7739143,109.9817505,19.6820564z M87.6456299,10.8731575
					c0.0857544-0.050293,0.1751709-0.0899048,0.263916-0.1314087v23.3317871l-2.8040771-1.7127075v-3.1244507
					c0-0.479248-0.2443237-0.9251099-0.6480713-1.1825562l-12.489624-7.9723511L87.6456299,10.8731575z M65.6491699,19.3771858
					l16.6505127,10.6281128v5.8380737L65.6491699,25.7758064V19.3771858z M62.8433228,22.0781746v4.4887695
					c0,0.4909058,0.2565918,0.946167,0.677063,1.2007446l19.4562988,11.7644653
					c0.2229614,0.1345825,0.4742432,0.2024536,0.7258911,0.2024536c0.2372437,0,0.4751587-0.0602417,0.6893311-0.1813965
					c0.4408569-0.2486572,0.713562-0.7156372,0.713562-1.2218018v-2.6791992l2.803772,1.7095337v7.81427L57.8640137,27.5377083
					v-8.4581299c0.0688477,0.0350342,0.1438599,0.0505371,0.2106323,0.0910034L62.8433228,22.0781746z M54.8446045,19.1729622
					c0.067749-0.0410767,0.1437378-0.0570068,0.213562-0.0925293v8.4701538l-30.2289429,18.321106v-8.506958L54.8446045,19.1729622z
					 M25.0922241,10.8731575l19.3153076,11.3443604L24.8292236,34.0828743V10.742115
					C24.9176636,10.7834969,25.0067749,10.8229866,25.0922241,10.8731575z M14.5875854,65.6486053l-4.1206665-2.9703941V48.2544441
					l4.1206665-2.3119507V65.6486053z M22.0233765,71.0086517l-4.6300049-3.3375244V43.5468636
					c0-0.4979248-0.263916-0.9590454-0.6939697-1.2106323c-0.4301147-0.2516479-0.9608154-0.256897-1.3953247-0.0128784
					l-6.9264526,3.8859863c-0.442627,0.2481079-0.7164917,0.7162476-0.7164917,1.2235718v13.2227783l-0.6536255-0.4711914
					c-2.6708984-2.4570312-4.2016602-5.9428101-4.2016602-9.5753784V24.6885872
					c0-1.0748901,0.5424194-2.0603027,1.4511719-2.6349487l17.5899658-11.1272583
					c0.0571289-0.0361328,0.1176758-0.0631104,0.1763916-0.0952148v25.743042v11.7885132V71.0086517z M24.8292236,73.0214081
					V49.1527596l30.229248-18.3212891v63.4472618C54.9208984,94.2098846,24.8292236,73.0214081,24.8292236,73.0214081z
					 M57.8642578,94.2706757V30.7919807l30.0449829,17.6381836v24.5936241l-4.100769,2.9059448V52.9631844
					c0-0.5255127-0.2937622-1.0070801-0.7612915-1.2475586L65.2647095,42.57024
					c-0.4347534-0.2240601-0.9546509-0.2047729-1.3724976,0.0497437c-0.4174805,0.255127-0.6719971,0.7086182-0.6719971,1.1978149
					v46.7015953C63.2202148,90.5193939,57.9990234,94.2023773,57.8642578,94.2706757z M72.1112671,54.6114388v29.6074181
					l-6.0852661,4.3122559V51.6962776L72.1112671,54.6114388z M66.026001,48.5850716v-2.4682007l14.9766846,7.7023926v1.9403687
					L66.026001,48.5850716z M74.9171143,55.955555l6.0855713,2.9152832v19.0471764l-6.0855713,4.3125V55.955555z
					 M102.2717896,62.6788216l-4.1209106,2.9700279v-19.706356l4.1209106,2.3119507V62.6788216z M109.9326172,50.6085091
					c0,3.6326294-1.5304565,7.1183472-4.2017212,9.5772095l-0.6533203,0.4708862V47.4329109
					c0-0.5073242-0.2738037-0.9754639-0.7164917-1.2235718l-6.9267578-3.8859863
					c-0.4347534-0.2446289-0.9657593-0.2393188-1.3952637,0.0128784c-0.4301147,0.2515869-0.6940308,0.7127075-0.6940308,1.2106323
					v24.1242638l-4.6296997,3.336731v-60.176693c0.0586548,0.0321045,0.1191406,0.059082,0.1761475,0.0952148l17.5899658,11.126709
					c0.9087524,0.574585,1.4511719,1.5599976,1.4511719,2.635498V50.6085091z"/>
			</g>
		</g>
	</g>
	<g>
		<path d="M132.8999481,17.6381836h4.9018555l16.1245117,20.8120117V17.6381836h5.203125V47.737793h-4.4291992
			l-16.5976562-21.4135742V47.737793h-5.2026367V17.6381836z"/>
		<path d="M164.8530731,36.472168v-0.0864258c0-6.4926758,4.6010742-11.824707,11.09375-11.824707
			c7.2241211,0,10.8789062,5.6762695,10.8789062,12.2119141c0,0.4731445-0.0429688,0.9458008-0.0859375,1.4619141h-16.6835938
			c0.5585938,3.6982422,3.1816406,5.762207,6.5356445,5.762207c2.5371094,0,4.3427734-0.9462891,6.1489258-2.7089844
			l3.0527344,2.7089844c-2.1499023,2.5795898-5.1166992,4.2568359-9.2875977,4.2568359
			C169.9268036,48.2539062,164.8530731,43.480957,164.8530731,36.472168z M181.6655731,34.7949219
			c-0.34375-3.3540039-2.3217773-5.9765625-5.7617188-5.9765625c-3.1821289,0-5.4179688,2.4506836-5.8911133,5.9765625H181.6655731z
			"/>
		<path d="M191.6245575,16.6064453h5.5898438v4.9448242h-5.5898438V16.6064453z M191.8394012,25.0341797h5.203125V47.737793
			h-5.203125V25.0341797z"/>
		<path d="M203.0537567,51.9941406l1.9350586-3.9121094c2.4506836,1.5048828,4.987793,2.4072266,8.0834961,2.4072266
			c4.644043,0,7.1811523-2.4072266,7.1811523-6.965332v-1.7631836c-1.8920898,2.4511719-4.2568359,4.1708984-7.9980469,4.1708984
			c-5.3320312,0-10.3198242-3.9555664-10.3198242-10.6206055v-0.0859375c0-6.7080078,5.0307617-10.6640625,10.3198242-10.6640625
			c3.8271484,0,6.1918945,1.7631836,7.9550781,3.8701172v-3.3969727h5.2026367V43.09375
			c0,3.8271484-0.9887695,6.6650391-2.8808594,8.5566406c-2.0639648,2.0644531-5.2460938,3.0527344-9.3310547,3.0527344
			C209.460495,54.703125,205.9775848,53.7578125,203.0537567,51.9941406z M220.2964325,35.2680664v-0.0859375
			c0-3.6982422-3.0532227-6.2348633-6.6650391-6.2348633s-6.449707,2.4936523-6.449707,6.2348633v0.0859375
			c0,3.6977539,2.8808594,6.2348633,6.449707,6.2348633C217.2432098,41.5029297,220.2964325,38.9658203,220.2964325,35.2680664z"/>
		<path d="M231.6182098,16.3481445h5.2026367v12.1689453c1.4619141-2.1069336,3.5693359-3.9560547,7.0952148-3.9560547
			c5.1166992,0,8.0834961,3.4399414,8.0834961,8.6860352V47.737793h-5.2026367V34.8378906
			c0-3.5258789-1.7631836-5.546875-4.8588867-5.546875c-3.0102539,0-5.1171875,2.1069336-5.1171875,5.6328125V47.737793h-5.2026367
			V16.3481445z"/>
		<path d="M263.2261353,44.2119141v3.5258789h-5.2021484V16.3481445h5.2021484v12.4702148
			c1.6777344-2.3652344,4.0419922-4.2573242,7.7402344-4.2573242c5.3320312,0,10.5351562,4.2138672,10.5351562,11.7817383v0.0864258
			c0,7.5249023-5.1601562,11.7817383-10.5351562,11.7817383C267.1821899,48.2109375,264.8179321,46.3188477,263.2261353,44.2119141z
			 M276.2124634,36.4291992v-0.0864258c0-4.3857422-2.9667969-7.2666016-6.4931641-7.2666016
			c-3.5253906,0-6.6220703,2.9238281-6.6220703,7.2666016v0.0864258c0,4.3427734,3.0966797,7.2666016,6.6220703,7.2666016
			C273.2886353,43.6958008,276.2124634,40.9008789,276.2124634,36.4291992z"/>
		<path d="M285.2642212,36.5151367v-0.0859375c0-6.4931641,5.1591797-11.8681641,12.1259766-11.8681641
			c6.9658203,0,12.0820312,5.2890625,12.0820312,11.7817383v0.0864258c0,6.449707-5.1591797,11.824707-12.1689453,11.824707
			C290.3804321,48.2539062,285.2642212,42.9648438,285.2642212,36.5151367z M304.2700806,36.5151367v-0.0859375
			c0-3.9990234-2.8818359-7.3100586-6.9667969-7.3100586c-4.1708984,0-6.8359375,3.2680664-6.8359375,7.2236328v0.0864258
			c0,3.9555664,2.8808594,7.2666016,6.9228516,7.2666016C301.6040649,43.6958008,304.2700806,40.4277344,304.2700806,36.5151367z"/>
		<path d="M314.3530884,25.0341797h5.203125v5.1166992c1.4189453-3.3969727,4.0419922-5.71875,8.0410156-5.546875v5.5039062
			h-0.3007812c-4.5585938,0-7.7402344,2.9672852-7.7402344,8.9868164v8.6430664h-5.203125V25.0341797z"/>
		<path d="M331.3852844,16.3481445h5.2031555v12.1689453c1.4619141-2.1069336,3.5693359-3.9560547,7.0947266-3.9560547
			c5.1171875,0,8.0839844,3.4399414,8.0839844,8.6860352V47.737793h-5.203125V34.8378906
			c0-3.5258789-1.7626953-5.546875-4.8583984-5.546875c-3.0107422,0-5.1171875,2.1069336-5.1171875,5.6328125V47.737793h-5.2031555
			V16.3481445z"/>
		<path d="M356.4243774,36.5151367v-0.0859375c0-6.4931641,5.1591797-11.8681641,12.1259766-11.8681641
			c6.9658203,0,12.0820312,5.2890625,12.0820312,11.7817383v0.0864258c0,6.449707-5.1591797,11.824707-12.1689453,11.824707
			C361.5405884,48.2539062,356.4243774,42.9648438,356.4243774,36.5151367z M375.4302368,36.5151367v-0.0859375
			c0-3.9990234-2.8818359-7.3100586-6.9667969-7.3100586c-4.1708984,0-6.8359375,3.2680664-6.8359375,7.2236328v0.0864258
			c0,3.9555664,2.8808594,7.2666016,6.9228516,7.2666016C372.7642212,43.6958008,375.4302368,40.4277344,375.4302368,36.5151367z"/>
		<path d="M384.2446899,36.5151367v-0.0859375c0-6.4931641,5.1601562-11.8681641,12.1259766-11.8681641
			s12.0830078,5.2890625,12.0830078,11.7817383v0.0864258c0,6.449707-5.1601562,11.824707-12.1689453,11.824707
			C389.3618774,48.2539062,384.2446899,42.9648438,384.2446899,36.5151367z M403.2505493,36.5151367v-0.0859375
			c0-3.9990234-2.8808594-7.3100586-6.9658203-7.3100586c-4.1708984,0-6.8369141,3.2680664-6.8369141,7.2236328v0.0864258
			c0,3.9555664,2.8808594,7.2666016,6.9228516,7.2666016C400.5845337,43.6958008,403.2505493,40.4277344,403.2505493,36.5151367z"/>
		<path d="M412.2163696,36.4291992v-0.0864258c0-7.5244141,5.1171875-11.7817383,10.5341797-11.7817383
			c3.7412109,0,6.1064453,1.8491211,7.7402344,3.9990234V16.3481445h5.203125V47.737793h-5.203125v-3.7836914
			c-1.6767578,2.3647461-4.0419922,4.2568359-7.7402344,4.2568359
			C417.4194946,48.2109375,412.2163696,43.9541016,412.2163696,36.4291992z M430.5767212,36.4291992v-0.0864258
			c0-4.3857422-3.0957031-7.2666016-6.5791016-7.2666016c-3.5683594,0-6.5351562,2.7519531-6.5351562,7.2666016v0.0864258
			c0,4.3857422,3.0097656,7.2666016,6.5351562,7.2666016C427.4810181,43.6958008,430.5767212,40.7719727,430.5767212,36.4291992z"/>
		<path d="M132.8999481,56.6376953h4.9018555l16.1245117,20.8125v-20.8125h5.203125v30.0996094h-4.4291992l-16.5976562-21.4130859
			v21.4130859h-5.2026367V56.6376953z"/>
		<path d="M164.7754364,75.5146484v-0.0859375c0-6.4931641,5.159668-11.8681641,12.1259766-11.8681641
			c6.9658203,0,12.0825195,5.2890625,12.0825195,11.7822266v0.0859375c0,6.4501953-5.159668,11.8251953-12.1689453,11.8251953
			C169.8921356,87.2539062,164.7754364,81.9648438,164.7754364,75.5146484z M183.7812958,75.5146484v-0.0859375
			c0-3.9990234-2.8813477-7.3095703-6.9663086-7.3095703c-4.1708984,0-6.8369141,3.2675781-6.8369141,7.2236328v0.0859375
			c0,3.9560547,2.8813477,7.2666016,6.9233398,7.2666016C181.1152802,82.6953125,183.7812958,79.4277344,183.7812958,75.5146484z"/>
		<path d="M193.6626434,78.4814453V64.0341797h5.203125v12.8994141c0,3.5263672,1.7626953,5.5039062,4.8588867,5.5039062
			c3.0097656,0,5.1166992-2.0634766,5.1166992-5.5898438V64.0341797h5.2460938v22.703125h-5.2460938v-3.5253906
			c-1.4619141,2.1494141-3.5688477,3.9990234-7.0947266,3.9990234
			C196.6299286,87.2109375,193.6626434,83.7705078,193.6626434,78.4814453z"/>
		<path d="M220.253952,64.0341797h5.2026367v5.1162109c1.4189453-3.3964844,4.0419922-5.71875,8.0410156-5.546875v5.5039062
			h-0.3007812c-4.5581055,0-7.7402344,2.9677734-7.7402344,8.9873047v8.6425781h-5.2026367V64.0341797z"/>
		<path d="M237.2168427,55.6064453h5.5898438v4.9443359h-5.5898438V55.6064453z M237.4316864,64.0341797h5.203125v22.703125
			h-5.203125V64.0341797z"/>
		<path d="M247.0166473,83.7705078l2.3217773-3.5253906c2.4941406,1.8486328,5.1171875,2.7949219,7.4384918,2.7949219
			c2.2363281,0,3.5263672-0.9462891,3.5263672-2.4511719v-0.0859375c0-1.7636719-2.4082031-2.3652344-5.0737457-3.1826172
			c-3.3540039-0.9453125-7.0947266-2.3212891-7.0947266-6.6640625v-0.0859375c0-4.3007812,3.5688477-6.9238281,8.0835114-6.9238281
			c2.8378906,0,5.9335938,0.9892578,8.3417969,2.5800781l-2.0634766,3.6982422
			c-2.1933594-1.3330078-4.515625-2.1503906-6.4072266-2.1503906c-2.0210114,0-3.1816559,0.9462891-3.1816559,2.2363281v0.0859375
			c0,1.6767578,2.4506836,2.3652344,5.1162262,3.2255859c3.3115234,1.03125,7.0517578,2.5361328,7.0517578,6.6210938v0.0859375
			c0,4.7734375-3.6972656,7.1386719-8.4277344,7.1386719C253.4233856,87.1679688,249.854538,86.0068359,247.0166473,83.7705078z"/>
		<path d="M270.0376587,55.3476562h5.203125v12.1689453c1.4619141-2.1064453,3.5693359-3.9560547,7.0947266-3.9560547
			c5.1171875,0,8.0839844,3.4404297,8.0839844,8.6865234v14.4902344h-5.203125V73.8378906
			c0-3.5263672-1.7626953-5.546875-4.8583984-5.546875c-3.0107422,0-5.1171875,2.1064453-5.1171875,5.6328125v12.8134766h-5.203125
			V55.3476562z"/>
	</g>
	<g>
		<path class="st3" d="M133.1768036,0.4125977h1.5673828l5.1552734,6.6538086V0.4125977h1.6635742v9.6235352h-1.4160156
			l-5.3066406-6.8466797v6.8466797h-1.6635742V0.4125977z"/>
		<path class="st3" d="M146.3213348,0.34375h1.5673828l4.234375,9.6923828h-1.7875977l-0.9760742-2.3232422h-4.550293
			l-0.9902344,2.3232422h-1.7319336L146.3213348,0.34375z M148.7407684,6.2143555l-1.6635742-3.8496094l-1.6494141,3.8496094
			H148.7407684z"/>
		<path class="st3" d="M151.3955536,5.2519531v-0.027832c0-2.8046875,2.1582031-5.0043945,5.0732422-5.0043945
			c1.9658203,0,3.2304688,0.8251953,4.0830078,2.0073242l-2.0073242,1.5537109
			c-0.5498047-0.6875-1.1821289-1.1274414-2.1035156-1.1274414c-1.347168,0-2.2958984,1.1411133-2.2958984,2.543457v0.0273438
			c0,1.4438477,0.9487305,2.5712891,2.2958984,2.5712891c1.0039062,0,1.5947266-0.4677734,2.1723633-1.1689453l2.0073242,1.4296875
			c-0.9077148,1.2514648-2.1308594,2.1723633-4.262207,2.1723633C153.6089325,10.2285156,151.3955536,8.125,151.3955536,5.2519531z"
			/>
		<path class="st3" d="M161.2270966,8.6337891l1.0170898-1.2099609c0.9213867,0.7973633,1.855957,1.2514648,3.0385742,1.2514648
			c1.0449219,0,1.7045898-0.4951172,1.7045898-1.2099609V7.4375c0-0.6870117-0.3847656-1.0585938-2.171875-1.4707031
			c-2.0488281-0.4951172-3.2036133-1.1000977-3.2036133-2.8735352V3.065918c0-1.6499023,1.375-2.7910156,3.2856445-2.7910156
			c1.4023438,0,2.5161133,0.4262695,3.4921875,1.2099609l-0.9072266,1.2783203
			c-0.8662109-0.6459961-1.7324219-0.9897461-2.6123047-0.9897461c-0.9897461,0-1.5673828,0.5087891-1.5673828,1.1411133v0.0273438
			c0,0.7426758,0.4399414,1.0727539,2.2958984,1.5126953c2.0351562,0.4946289,3.0795898,1.2231445,3.0795898,2.8183594V7.300293
			c0,1.8007812-1.4160156,2.8735352-3.4370117,2.8735352C163.7705536,10.1738281,162.3818817,9.6650391,161.2270966,8.6337891z"/>
		<path d="M174.522995,0.4125977h7.1625977v1.5395508h-5.4716797V4.578125h4.8530273v1.5395508h-4.8530273v3.918457h-1.690918
			V0.4125977z"/>
		<path d="M182.1680145,6.4477539V6.4204102c0-2.0761719,1.6499023-3.7944336,3.8769531-3.7944336
			c2.2275391,0,3.8632812,1.690918,3.8632812,3.7670898v0.0273438c0,2.0620117-1.6494141,3.7807617-3.890625,3.7807617
			C183.804245,10.2011719,182.1680145,8.5102539,182.1680145,6.4477539z M188.2446747,6.4477539V6.4204102
			c0-1.2788086-0.9208984-2.3374023-2.2270508-2.3374023c-1.3334961,0-2.1860352,1.0449219-2.1860352,2.3100586v0.0273438
			c0,1.2646484,0.9213867,2.3232422,2.2133789,2.3232422C187.3926239,8.7436523,188.2446747,7.6987305,188.2446747,6.4477539z"/>
		<path d="M190.9814911,7.3964844V2.7768555h1.6635742v4.1245117c0,1.1274414,0.5634766,1.7597656,1.5532227,1.7597656
			c0.9624023,0,1.6362305-0.659668,1.6362305-1.7871094v-4.097168h1.6772461v7.2592773h-1.6772461V8.9086914
			c-0.4672852,0.6875-1.1411133,1.2788086-2.2685547,1.2788086C191.9302216,10.1875,190.9814911,9.0874023,190.9814911,7.3964844z"
			/>
		<path d="M198.7915497,2.7768555h1.6635742V3.890625c0.4672852-0.6733398,1.1411133-1.2646484,2.2685547-1.2646484
			c1.6357422,0,2.5844727,1.0996094,2.5844727,2.7768555v4.6333008h-1.6635742V5.9116211
			c0-1.1274414-0.5634766-1.7734375-1.5537109-1.7734375c-0.9624023,0-1.6357422,0.6738281-1.6357422,1.8007812v4.097168h-1.6635742
			V2.7768555z"/>
		<path d="M206.4092255,6.4204102V6.3930664c0-2.40625,1.6357422-3.7670898,3.3681641-3.7670898
			c1.1962891,0,1.9521484,0.5913086,2.4746094,1.2783203V0h1.6635742v10.0361328h-1.6635742V8.8261719
			c-0.5361328,0.7563477-1.2924805,1.3613281-2.4746094,1.3613281C208.0727997,10.1875,206.4092255,8.8261719,206.4092255,6.4204102
			z M212.2793427,6.4204102V6.3930664c0-1.4023438-0.9897461-2.3237305-2.1035156-2.3237305
			c-1.140625,0-2.0893555,0.8798828-2.0893555,2.3237305v0.0273438c0,1.4023438,0.9624023,2.3232422,2.0893555,2.3232422
			C211.2895966,8.7436523,212.2793427,7.809082,212.2793427,6.4204102z"/>
		<path d="M214.7412567,7.9462891V7.9189453c0-1.5673828,1.2236328-2.3374023,2.9970703-2.3374023
			c0.8115234,0,1.3886719,0.1240234,1.9526367,0.3027344V5.7055664c0-1.03125-0.6328125-1.5810547-1.8012695-1.5810547
			c-0.8110352,0-1.4160156,0.1787109-2.0756836,0.4536133l-0.4399414-1.3061523
			c0.7973633-0.3574219,1.5810547-0.5913086,2.7358398-0.5913086c1.0859375,0,1.8969727,0.2890625,2.4057617,0.8115234
			c0.5361328,0.5224609,0.7836914,1.2919922,0.7836914,2.2407227v4.3032227h-1.6225586V9.1289062
			c-0.4946289,0.5908203-1.2509766,1.0585938-2.3642578,1.0585938C215.9512177,10.1875,214.7412567,9.4038086,214.7412567,7.9462891
			z M219.7183075,7.4238281V6.9291992c-0.4262695-0.1650391-0.9897461-0.2890625-1.6499023-0.2890625
			c-1.0722656,0-1.7045898,0.4541016-1.7045898,1.2099609v0.0273438c0,0.7011719,0.6186523,1.1000977,1.4160156,1.1000977
			C218.8794403,8.9775391,219.7183075,8.3452148,219.7183075,7.4238281z"/>
		<path d="M222.9775848,8.0288086V4.2070312h-0.9213867V2.7768555h0.9213867V0.7836914h1.6635742v1.9931641h1.9521484v1.4301758
			h-1.9521484v3.5605469c0,0.6464844,0.3295898,0.9077148,0.8935547,0.9077148c0.3710938,0,0.7011719-0.0825195,1.03125-0.2475586
			v1.3608398c-0.4125977,0.2338867-0.8662109,0.3710938-1.4985352,0.3710938
			C223.8437958,10.159668,222.9775848,9.6235352,222.9775848,8.0288086z"/>
		<path d="M227.6523895,0.0825195h1.7871094v1.5810547h-1.7871094V0.0825195z M227.7212372,2.7768555h1.6635742v7.2592773
			h-1.6635742V2.7768555z"/>
		<path d="M230.5400848,6.4477539V6.4204102c0-2.0761719,1.6499023-3.7944336,3.8769531-3.7944336
			c2.2275391,0,3.8632812,1.690918,3.8632812,3.7670898v0.0273438c0,2.0620117-1.6494141,3.7807617-3.890625,3.7807617
			C232.1763153,10.2011719,230.5400848,8.5102539,230.5400848,6.4477539z M236.616745,6.4477539V6.4204102
			c0-1.2788086-0.9208984-2.3374023-2.2270508-2.3374023c-1.3334961,0-2.1860352,1.0449219-2.1860352,2.3100586v0.0273438
			c0,1.2646484,0.9213867,2.3232422,2.2133789,2.3232422C235.7646942,8.7436523,236.616745,7.6987305,236.616745,6.4477539z"/>
		<path d="M239.4228973,2.7768555h1.6635742V3.890625c0.4672852-0.6733398,1.1411133-1.2646484,2.2685547-1.2646484
			c1.6357422,0,2.5844727,1.0996094,2.5844727,2.7768555v4.6333008h-1.6635742V5.9116211
			c0-1.1274414-0.5634766-1.7734375-1.5537109-1.7734375c-0.9624023,0-1.6357422,0.6738281-1.6357422,1.8007812v4.097168h-1.6635742
			V2.7768555z"/>
	</g>
	<g>
		<g>
			<path class="st2" d="M159.3080444,6.7264204c-0.4675903,0.6469159-1.2261505,1.0690022-2.0851746,1.0690022
				c-1.4216766,0-2.5747375-1.1524935-2.5747375-2.5741649c0-1.4216695,1.1530609-2.5747411,2.5747375-2.5747411
				c0.8584442,0,1.6170044,0.4220862,2.0845947,1.068037l1.9683228-1.4201295
				c-0.908783-1.2558419-2.3848267-2.073405-4.0529175-2.073405c-2.7617798,0-5.0000458,2.2384605-5.0000458,5.0002384
				s2.238266,5.0000482,5.0000458,5.0000482c1.6686707,0,3.1456909-0.81814,4.0542603-2.0747557L159.3080444,6.7264204z"/>
		</g>
		<g>
			<polygon points="139.897049,0.4103861 141.5595551,0.4103861 141.5595551,10.0286961 140.1444397,10.0286961 
				134.8404999,3.1862414 134.8404999,10.0286961 133.178009,10.0286961 133.178009,0.4103861 134.7440948,0.4103861 
				139.897049,7.060792 			"/>
		</g>
		<g>
			<path d="M147.3721924,2.3613331l-1.6484222,3.847748h3.3113098L147.3721924,2.3613331z M152.4152374,10.0288696h-1.7862854
				l-0.975296-2.3217607h-4.5480804l-0.9895477,2.3217607h-1.7311554l4.2322388-9.6871462h1.5659027L152.4152374,10.0288696z"/>
		</g>
		<g>
			<path d="M166.66539,4.4501657c2.0336761,0.4943943,3.0918732,1.223258,3.0918732,2.830616
				c0,1.8138704-1.4152985,2.8857632-3.4354858,2.8857632c-1.470459,0-2.8578033-0.5088549-4.012619-1.539485l1.017334-1.2089887
				c0.9207153,0.7969298,1.8408661,1.2508311,3.0363617,1.2508311c1.0441132,0,1.7041473-0.4808969,1.7041473-1.2230654
				c0-0.7009058-0.3850708-1.0718927-2.1707764-1.4841447c-2.0479584-0.4943943-3.2016144-1.099082-3.2016144-2.8855708
				c0-1.6767733,1.3734741-2.8028488,3.2837524-2.8028488c1.4016113,0,2.5145874,0.4255567,3.4898682,1.2087958
				l-0.9066467,1.2780188c-0.8655701-0.6457565-1.7311401-0.9895577-2.6107941-0.9895577
				c-0.9889832,0-1.5661011,0.5084713-1.5661011,1.1546133C164.3846893,3.6810021,164.8237457,4.010148,166.66539,4.4501657"/>
		</g>
		<g>
			<path d="M170.2131195,9.2416773h-0.1488647v0.1905088h0.1488647c0.074234,0,0.1187744-0.036829,0.1187744-0.0948687
				C170.3318939,9.2748442,170.2873535,9.2416773,170.2131195,9.2416773 M170.3101044,9.512785l0.1615906,0.2269497h-0.1369019
				l-0.1450043-0.20786h-0.1255341v0.20786h-0.1139526V9.1389046h0.2678223c0.1392212,0,0.2310028,0.071537,0.2310028,0.1918573
				C170.4491272,9.4287148,170.3922577,9.4888754,170.3101044,9.512785 M170.1832275,8.9391413
				c-0.2930908,0-0.5150146,0.2331209-0.5150146,0.5184965c0,0.2847967,0.2203827,0.5142546,0.5115509,0.5142546
				c0.2930908,0,0.5150299-0.2321577,0.5150299-0.517725C170.6947937,9.1693697,170.4743958,8.9391413,170.1832275,8.9391413
				 M170.1797638,10.0293522c-0.3216248,0-0.5715179-0.2579947-0.5715179-0.5717144s0.2535553-0.5749931,0.5749817-0.5749931
				c0.3216248,0,0.5719147,0.2576084,0.5719147,0.5715227C170.7551422,9.7678871,170.5013885,10.0293522,170.1797638,10.0293522"/>
		</g>
	</g>
</g>
</svg>
