<?xml version="1.0" encoding="utf-8"?>
<!-- Generator: Adobe Illustrator 24.1.2, SVG Export Plug-In . SVG Version: 6.00 Build 0)  -->
<svg version="1.1" id="Layer_1" xmlns="http://www.w3.org/2000/svg" xmlns:xlink="http://www.w3.org/1999/xlink" x="0px" y="0px"
	 viewBox="0 0 434.0592041 182.5712585" style="enable-background:new 0 0 434.0592041 182.5712585;" xml:space="preserve">
<style type="text/css">
	.st0{fill:#FFFFFF;}
	.st1{fill:url(#XMLID_3_);}
	.st2{fill:url(#XMLID_4_);}
	.st3{fill:url(#XMLID_5_);}
	.st4{opacity:0.2;clip-path:url(#XMLID_6_);}
	.st5{fill:#03428E;}
	.st6{fill:url(#XMLID_7_);}
	.st7{fill:url(#XMLID_8_);}
</style>
<g id="XMLID_204_">
	<path id="XMLID_285_" class="st0" d="M434.0596924,121.0575638c0-12.4179993-11.9013977-9.0238953-11.8691101-9.1869965
		l3.7528992-20.8179016l0.0205078-0.043396l1.6903992-9.3682022c1.0635071-4.6201019,1.4111938-8.3403015,1.0635071-11.3438034
		c-0.6347961-5.7397003-4.1503906-10.9389-9.4032898-13.9105988l-0.25-0.1371994
		c-3.5-1.75-7.4863281-2.6371994-11.8496094-2.6371994c-1.2832031,0-2.6192017,0.0775986-3.9873047,0.232399
		c-4.7167969,0.5443993-9.8046875,2.1283989-13.8954773,3.3988991l-1.3067322,0.4092026l-9.7344055,9.7099953
		c-3.5555725-5.3114967-9.9315796-8.3822975-18.094696-8.3822975c-1.3309937,0-2.7216797,0.0844002-4.1171875,0.2446022
		c-5.5839844,0.6317978-10.3768921,2.277298-13.8799133,3.4790001l-6.5018921,6.5736961l0.9931946-5.8729973l-38.2608032,4.3676033
		l-2.8846741,15.9555969c-4.3028259-9.4218979-12.8838196-15.1010971-23.718811-15.1010971
		c-1.2099915,0-2.4580078,0.0727997-3.7070007,0.2133942c-4.890686,0.5625-7.2510071,1.7201996-9.6181946,2.8442993
		l-4.7891083,5.1479034l0.694397-4.8496017l-34.3984985,3.921402c0.2842102-11.4609985-5.0960999-17.9722023-8.7450867-20.1533012
		l-0.1826019-0.1093979l-0.1889954-0.0967026c-3.5102081-1.75-7.4897156-2.6322975-11.8349152-2.6322975
		c-1.2875977,0-2.6303864,0.0765991-3.9819946,0.2285004c-4.6347046,0.5287971-9.7684937,2.1138-13.9033051,3.3969994
		l-1.2987823,0.4012985l-9.7944031,9.6611977c-3.5694122-5.275898-9.9297028-8.3237953-18.0605927-8.3237953
		c-1.3276215,0-2.710907,0.0844994-4.114212,0.2426987c-5.6446075,0.6498985-10.4790039,2.3173981-14.0059052,3.5396004
		l-6.282196,6.3539963l0.9736023-5.7177963l-38.3262024,4.364296l-0.8314972,4.6113052
		c-4.4522018-1.4897995-7.9955978-2.4439011-13.8442001-3.3471985c-4.1484985-0.6084061-8.3759995-0.9189072-12.564003-0.9189072
		c-3.0951996,0-6.1591988,0.1718063-9.1122971,0.5097046c-40.6674995,4.6308975-56.0679016,38.0029984-53.6708984,59.1049957
		c0.9741,8.5156021,4.7621999,15.8457108,10.3213005,20.051796c4.2968998,3.3740082,9.6215992,5.0820007,15.8343983,5.0820007
		c1.8873005,0,3.5269012-0.157196,4.748106-0.2919922c3.5663929-0.4082031,7.1200962-1.2646027,10.0058956-2.4150085
		l1.222599-0.4911957l5.9843979-6.7314911c0.2969017,0.8241882,0.6328011,1.6054993,0.9936028,2.3134918l1.7579002,3.4268036
		l25.0624962-2.8448029l-0.0195999,0.097702l130.9980927-14.7080078l-1.7856903,9.796814l-4.0893097,22.3710938
		c-2.9155884,13.9082031-6.5151978,19.8945923-6.5151978,19.8945923l42.4449005-4.9062958l4.8349152-26.2274933
		c0.1747894,0.0018921,0.3495941,0.0018921,0.5224915,0.0018921c2.4541016,0,4.9188995-0.1454926,7.531189-0.4375
		c18.7333984-2.1337891,30.0458984-10.7137909,36.7539062-19.1024933l-2.5292969,14.0204926L424.490387,130.020462
		C429.5343018,129.5634613,434.0596924,125.8514633,434.0596924,121.0575638z"/>
	<g>
		
			<linearGradient id="XMLID_3_" gradientUnits="userSpaceOnUse" x1="113.5260468" y1="139.0824127" x2="107.1680984" y2="66.4107742">
			<stop  offset="0" style="stop-color:#EF3E33"/>
			<stop  offset="0.680624" style="stop-color:#F9A01B"/>
			<stop  offset="0.9302649" style="stop-color:#FCB316"/>
		</linearGradient>
		<path id="XMLID_281_" class="st1" d="M88.5205994,77.2435684c-4.4223022-1.5083008-7.725502-2.4804001-13.7455978-3.408699
			c-6.1762009-0.9101028-13.1933022-1.1962051-20.2319031-0.387207
			C17.0778008,77.7138672,3.7194011,108.310463,5.7745013,126.3856659
			c0.7861996,6.9219055,3.7407994,12.9120941,8.2265987,16.3067017c5.8355007,4.5809937,12.9193993,4.0390015,16.5142002,3.6356964
			c3.1430016-0.3563995,6.2435989-1.1268921,8.5687981-2.0556946l13.3115005-14.9804077
			c-0.0825005,1.9004059-0.1737976,3.7871094,0.1294022,6.4443054c0.2797966,2.405304,1.0034981,4.7382965,1.782299,6.2608032
			l26.0712013-2.9638977c-0.4570007-1.4356079-0.75-2.6094055-0.9638062-4.467804
			c-0.419487-3.7225952,0.0664062-7.4121017,0.5469055-9.8916016L88.5205994,77.2435684z M53.6090012,120.2802658
			c-0.1846008,0.9188995-0.3013,2.4618988-0.3866997,2.9941025c-1.3544998,1.1727982-3.241703,2.9160004-7.9639015,3.4336014
			c-4.7123985,0.5253983-10.2245979-0.655304-11.0355988-7.6191025
			c-0.7910004-6.7042007,2.7178001-26.3086014,19.8065987-28.2006989c1.9151001-0.2089996,3.7154007-0.1514053,5.111805,0.2084961
			L53.6090012,120.2802658z M214.0205994,80.203064l-8.1625977,44.842804l-28.4461975,3.0233917l6.703598-36.5345917
			c1.1151886-5.796402,0.9452972-7.3624039,0.8724976-8.0064011c-0.4262085-3.7861023-4.0243988-5.2250977-7.3896027-4.8314972
			c-2.3510895,0.2601929-6.3936005,1.3793945-10.7162933,5.2962952l-8.4141083,46.2294998l-28.4940948,3.2481079
			l6.6083984-35.9863052c0.4671936-2.4307022,1.0932007-6.0596008,0.844696-8.2798004
			c-0.4770966-4.169899-3.9062958-5.4936981-7.2792969-5.1138c-3.3783951,0.3916016-7.7250977,2.7294998-10.7055969,5.3125
			l-8.2767944,46.2099991l-28.2036057,3.2207031l12.044899-66.7080002l28.2010956-3.2120056l-2.5677948,12.8990021
			l14.8920898-14.4291992c3.4394073-1.1884995,7.8764038-2.7388,13.009201-3.3311005
			c10.7247009-1.2240982,18.0606079,3.0874023,19.042511,11.6875c0.135788,1.1695023-0.0361023-0.1542969-0.0278015,1.1695023
			l15.2626953-15.0533028c4.0238953-1.2450981,8.7631989-2.7157974,12.8784027-3.1800995
			c6.3168945-0.7164001,10.3358917,0.6708984,12.7108917,1.8544006
			C208.4077911,60.5306664,216.386795,65.2997665,214.0205994,80.203064z"/>
		<g id="XMLID_275_">
			
				<linearGradient id="XMLID_4_" gradientUnits="userSpaceOnUse" x1="359.6333313" y1="133.548111" x2="353.5282288" y2="63.7664413">
				<stop  offset="0.23015" style="stop-color:#03428E"/>
				<stop  offset="0.6158373" style="stop-color:#6A4193"/>
				<stop  offset="0.915318" style="stop-color:#9C3D97"/>
			</linearGradient>
			<path id="XMLID_280_" class="st2" d="M423.1826782,70.9125671c-0.3486023-3.1371994-2.1483765-7.1592026-6.6112976-9.6821022
				c-2.368103-1.1846008-6.3945007-2.5668983-12.7020874-1.8583984c-4.1200867,0.4790001-8.8623047,1.9398994-12.8837891,3.1917992
				l-14.6083984,14.5704041c-0.3535156-0.2364044-0.4903259,0.480896-0.6278992-0.6895065
				c-0.9698181-8.6117935-8.3096008-12.919899-19.0450134-11.6884995
				c-5.1328125,0.5839996-9.5751953,2.1436005-13.0107117,3.3227997l-14.757782,14.471199l2.4414062-12.9345932
				l-28.2061157,3.219696l-12.0477905,66.7065964l28.217804-3.2167969l8.2723999-46.2173004
				c2.9814758-2.5858994,7.3183899-4.9160004,10.6923828-5.3057022c3.3867188-0.384697,6.804718,0.939003,7.289093,5.1040039
				c0.2451172,2.2118988-0.3740845,5.8510971-0.8574829,8.2798004l-6.6044922,35.9986038l28.5019836-3.2442017l8.4248047-46.2294998
				c4.3105164-3.9316025,8.3496094-5.046402,10.6933899-5.3208008c3.3857117-0.3877029,6.9725952,1.0615005,7.398407,4.8407974
				c0.0703125,0.6460037,0.2510071,2.2188034-0.8662109,8.0147018l-6.7099915,36.5307999l31.5508118-3.5333023
				c-0.4551086-1.4355011-0.7480164-2.6083984-0.9618835-4.469696c-0.4179993-3.7236023,0.0663757-7.414505,0.546875-9.8930054
				l3.8407898-21.2841949l0.015625-0.0440063l1.632782-9.0350952
				C422.7969971,77.9413681,423.54599,74.0316696,423.1826782,70.9125671z"/>
			
				<linearGradient id="XMLID_5_" gradientUnits="userSpaceOnUse" x1="251.2394714" y1="171.7083893" x2="242.9205475" y2="76.6226959">
				<stop  offset="0.23015" style="stop-color:#03428E"/>
				<stop  offset="0.6158373" style="stop-color:#6A4193"/>
				<stop  offset="0.915318" style="stop-color:#9C3D97"/>
			</linearGradient>
			<path id="XMLID_276_" class="st3" d="M292.7764893,94.600563c-1.632782-14.3388977-11.3916016-21.6669998-24.023407-20.228096
				c-4.1171875,0.4721985-6.2276001,1.4995956-8.1913757,2.5157013l-13.5214996,15.9247971l2.6434937-14.6879959
				l-27.9160004,3.1840973l-10.9263,59.9965057l0,0l-4.0835114,22.3311005
				c-0.4320984,2.4706879-1.6004944,9.0370941-3.4442902,12.2646942l25.2733917-2.8614044v-0.0018921
				c2.3614044-0.2686005,3.8907013-0.4434052,3.8907013-0.4434052l4.964798-26.9403992
				c4.6611023,0.3916016,8.5010071,0.2118988,12.0176086-0.1894989
				C287.0830994,141.1854706,294.365387,108.5458679,292.7764893,94.600563z M246.7940979,128.5663605
				c-3.006897,0.3350067-5.2295074-0.0419922-6.280304-0.2929993l5.7393036-29.8168945
				c3.0204926-2.6634979,6.113205-3.4912033,7.969696-3.6958008c3.003891-0.3310013,5.5927887,0.6269989,7.2451019,2.2885971
				c1.3291016,1.3306046,2.0087891,3.4682999,2.2597961,5.6641006
				C264.327301,107.6923676,262.115387,126.8954697,246.7940979,128.5663605z"/>
		</g>
		<g id="XMLID_214_">
			<defs>
				<path id="XMLID_215_" d="M88.5205994,77.2435684c-4.4223022-1.5083008-7.725502-2.4804001-13.7455978-3.408699
					c-6.1762009-0.9101028-13.1933022-1.1962051-20.2319031-0.387207
					C17.0778008,77.7138672,3.7194011,108.310463,5.7745013,126.3856659
					c0.7861996,6.9219055,3.7407994,12.9120941,8.2265987,16.3067017
					c5.8355007,4.5809937,12.9193993,4.0390015,16.5142002,3.6356964c3.1430016-0.3563995,6.2435989-1.1268921,8.5687981-2.0556946
					l13.3115005-14.9804077c-0.0825005,1.9004059-0.1737976,3.7871094,0.1294022,6.4443054
					c0.2797966,2.405304,1.0034981,4.7382965,1.782299,6.2608032l26.0712013-2.9638977
					c-0.4570007-1.4356079-0.75-2.6094055-0.9638062-4.467804c-0.419487-3.7225952,0.0664062-7.4121017,0.5469055-9.8916016
					L88.5205994,77.2435684z M53.6090012,120.2802658c-0.1846008,0.9188995-0.3013,2.4618988-0.3866997,2.9941025
					c-1.3544998,1.1727982-3.241703,2.9160004-7.9639015,3.4336014c-4.7123985,0.5253983-10.2245979-0.655304-11.0355988-7.6191025
					c-0.7910004-6.7042007,2.7178001-26.3086014,19.8065987-28.2006989c1.9151001-0.2089996,3.7154007-0.1514053,5.111805,0.2084961
					L53.6090012,120.2802658z M214.0205994,80.203064l-8.1625977,44.842804l-28.4461975,3.0233917l6.703598-36.5345917
					c1.1151886-5.796402,0.9452972-7.3624039,0.8724976-8.0064011c-0.4262085-3.7861023-4.0243988-5.2250977-7.3896027-4.8314972
					c-2.3510895,0.2601929-6.3936005,1.3793945-10.7162933,5.2962952l-8.4141083,46.2294998l-28.4940948,3.2481079
					l6.6083984-35.9863052c0.4671936-2.4307022,1.0932007-6.0596008,0.844696-8.2798004
					c-0.4770966-4.169899-3.9062958-5.4936981-7.2792969-5.1138c-3.3783951,0.3916016-7.7250977,2.7294998-10.7055969,5.3125
					l-8.2767944,46.2099991l-28.2036057,3.2207031l12.044899-66.7080002l28.2010956-3.2120056l-2.5677948,12.8990021
					l14.8920898-14.4291992c3.4394073-1.1884995,7.8764038-2.7388,13.009201-3.3311005
					c10.7247009-1.2240982,18.0606079,3.0874023,19.042511,11.6875c0.135788,1.1695023-0.0361023-0.1542969-0.0278015,1.1695023
					l15.2626953-15.0533028c4.0238953-1.2450981,8.7631989-2.7157974,12.8784027-3.1800995
					c6.3168945-0.7164001,10.3358917,0.6708984,12.7108917,1.8544006
					C208.4077911,60.5306664,216.386795,65.2997665,214.0205994,80.203064z M422.2002869,80.517067l-1.632782,9.0350952
					l-0.015625,0.0440063l-3.8407898,21.2841949c-0.4804993,2.4785004-0.9648743,6.1694031-0.546875,9.8930054
					c0.2138672,1.8612976,0.5067749,3.0341949,0.9618835,4.469696l-31.5508118,3.5333023l6.7099915-36.5307999
					c1.117218-5.7958984,0.9365234-7.3686981,0.8662109-8.0147018c-0.4258118-3.7792969-4.0126953-5.2285004-7.398407-4.8407974
					c-2.3437805,0.2743988-6.3828735,1.3891983-10.6933899,5.3208008l-8.4248047,46.2294998l-28.5019836,3.2442017
					l6.6044922-35.9986038c0.4833984-2.4287033,1.1026001-6.0679016,0.8574829-8.2798004
					c-0.484375-4.1650009-3.9023743-5.4887009-7.289093-5.1040039c-3.3739929,0.3897018-7.710907,2.7198029-10.6923828,5.3057022
					l-8.2723999,46.2173004l-28.217804,3.2167969L303.17099,72.8353653l28.2061157-3.219696l-2.4414062,12.9345932
					l14.757782-14.471199c3.4355164-1.1791992,7.8778992-2.7388,13.0107117-3.3227997
					c10.7354126-1.2313995,18.0751953,3.0767059,19.0450134,11.6884995
					c0.1375732,1.1704025,0.2743835,0.4531021,0.6278992,0.6895065l14.6083984-14.5704041
					c4.0214844-1.2518997,8.7637024-2.7127991,12.8837891-3.1917992c6.3075867-0.7084999,10.3339844,0.6737976,12.7020874,1.8583984
					c4.4629211,2.5228996,6.2626953,6.5449028,6.6112976,9.6821022
					C423.54599,74.0316696,422.7969971,77.9413681,422.2002869,80.517067z M292.7764893,94.600563
					c-1.632782-14.3388977-11.3916016-21.6669998-24.023407-20.228096
					c-4.1171875,0.4721985-6.2276001,1.4995956-8.1913757,2.5157013l-13.5214996,15.9247971l2.6434937-14.6879959
					l-27.9160004,3.1840973l-10.9263,59.9965057l0,0l-4.0835114,22.3311005
					c-0.4320984,2.4706879-1.6004944,9.0370941-3.4442902,12.2646942l25.2733917-2.8614044v-0.0018921
					c2.3614044-0.2686005,3.8907013-0.4434052,3.8907013-0.4434052l4.964798-26.9403992
					c4.6611023,0.3916016,8.5010071,0.2118988,12.0176086-0.1894989
					C287.0830994,141.1854706,294.365387,108.5458679,292.7764893,94.600563z M246.7940979,128.5663605
					c-3.006897,0.3350067-5.2295074-0.0419922-6.280304-0.2929993l5.7393036-29.8168945
					c3.0204926-2.6634979,6.113205-3.4912033,7.969696-3.6958008c3.003891-0.3310013,5.5927887,0.6269989,7.2451019,2.2885971
					c1.3291016,1.3306046,2.0087891,3.4682999,2.2597961,5.6641006
					C264.327301,107.6923676,262.115387,126.8954697,246.7940979,128.5663605z"/>
			</defs>
			<clipPath id="XMLID_6_">
				<use xlink:href="#XMLID_215_"  style="overflow:visible;"/>
			</clipPath>
			<g id="XMLID_225_" class="st4">
				<g>
					<path d="M55.2965012,92.1566696c-17.0898018,1.8901978-20.597599,21.4970932-19.8076019,28.1996994
						c0.8120003,6.9628983,6.3213081,8.1454926,11.0386009,7.6181946c4.7173004-0.5186005,6.6083984-2.2616959,7.9589996-3.4336014
						c0.0892982-0.532196,0.2044983-2.0712967,0.3905983-2.9940948l5.5283012-29.1822052
						C59.0117989,92.0028687,57.2116013,91.9452667,55.2965012,92.1566696z M51.3560982,120.8329697
						c-0.1142998,0.5731964-0.2025986,1.2489929-0.2714996,1.8632965c-1.0043945,0.7509003-2.346199,1.4227982-4.9555969,1.7089996
						c-0.5205002,0.0576019-1.0293007,0.0858994-1.5116997,0.0858994c-4.4199028,0-5.2827034-2.1856003-5.5586014-4.5536957
						c-0.4653015-3.9336014,0.9379997-12.376503,5.4175034-18.0181046
						c2.8661957-3.6019974,6.6371956-5.6840973,11.2177963-6.1898956c0.1421013-0.0181046,0.2860985-0.0318069,0.4292068-0.0440063
						L51.3560982,120.8329697z M174.2754974,133.4169617l35.905304-3.816391l8.6581879-47.5689011
						c2.7148132-17.1025009-6.911087-23.0713043-7.3217773-23.315403l-0.117218-0.0737l-0.1235046-0.0596008
						c-3.2323914-1.6138-6.9184875-2.4286995-10.9521942-2.4286995c-1.2133026,0-2.480896,0.0746994-3.7612,0.2187004
						c-4.4487,0.5038986-9.2723999,1.9995003-13.5404968,3.3218002l-0.835907,0.2598L170.886795,71.0961685
						c-2.8529968-6.019104-9.1805878-9.5728035-17.6053925-9.5728035c-1.2490082,0-2.5561981,0.0777016-3.8858032,0.2285004
						c-5.4315948,0.625-10.1430054,2.2530022-13.5863953,3.4414024l-0.9360046,0.3222961l-7.1958008,6.9721985l1.2798004-6.4356003
						l-35.740303,4.0723038l-0.980896,5.4237976l-1.2896042-0.4432983
						c-4.7782974-1.6235962-8.3070984-2.6235962-14.3788986-3.5577011
						c-4.0541992-0.5960999-8.1855011-0.8998947-12.2767944-0.8998947c-3.0181046,0-6.0103035,0.1674957-8.8863029,0.4975967
						c-39.3324966,4.4770966-54.2406998,36.6069031-51.9300995,56.9164963
						c0.9041998,7.9815063,4.4169044,14.8222961,9.5716991,18.7217102c3.9424009,3.0956879,8.857501,4.6639862,14.6172056,4.6639862
						c1.7904949,0,3.355999-0.1532898,4.5234928-0.2840881c3.3481026-0.3819122,6.8081017-1.2100067,9.4980011-2.2871094
						l0.7881012-0.3144989l8.0795975-9.094696c0.405201,1.9911957,1.0503006,3.9266968,1.8252029,5.4355011l1.1341972,2.2118988
						l26.3433037-2.9951019l-0.0220032,0.0995941l35.6645966-4.0702972l8.5156021-47.5311966
						c2.5342026-1.9419022,5.6713943-3.4423981,7.8057022-3.6889954c0.230896-0.0259018,0.4584961-0.0386047,0.6840973-0.0386047
						c2.3939972,0,2.5429077,1.2949982,2.6215057,1.9824982c0.1420898,1.2641068-0.1284027,3.6889038-0.8120117,7.2285004
						l-7.480896,40.7578049l35.960907-4.0996094l8.6645966-47.6034927c3.3714905-2.7544022,6.2973022-3.4512024,7.828598-3.6221008
						c0.2187042-0.0249023,0.4385071-0.0385971,0.6591949-0.0385971c0.9515991,0,2.574707,0.2201996,2.7412109,1.7030945
						c0.1512909,1.3555069-0.3682098,4.5157013-0.8326111,6.9580002L174.2754974,133.4169617z M55.575798,143.2645721
						c-0.7811966-1.5205078-1.5028992-3.8554077-1.785099-6.2617035c-0.3017998-2.6562042-0.210495-4.5429993-0.125-6.4463043
						l-13.3144951,14.9844055c-2.323204,0.9276886-5.4277039,1.6972961-8.5698032,2.0526886
						c-3.5928001,0.405304-10.6791954,0.9444122-16.5141945-3.6346893
						c-4.4858055-3.3955078-7.439405-9.3838043-8.2236052-16.3047028
						c-2.0562-18.0776978,11.3012991-48.6734009,48.7666054-52.9403992
						c7.0385933-0.8071976,14.0575905-0.5220032,20.2318916,0.3890991
						c6.0181046,0.9281998,9.3242035,1.8983994,13.7446976,3.4067001l-8.556694,47.4297028
						c-0.4794998,2.4804916-0.967804,6.1699905-0.546402,9.8945999c0.2105026,1.8612976,0.5058975,3.032196,0.9618988,4.4657898
						L55.575798,143.2645721z M186.2559967,84.7953644c-0.4263-3.785202-4.0254059-5.2240982-7.3916016-4.8311005
						c-2.3520966,0.2598038-6.3925934,1.3775024-10.7144012,5.2969055l-8.4154968,46.2310028l-28.4945984,3.2460938
						l6.6063995-35.9897995c0.4692993-2.4266968,1.0971985-6.0576019,0.8486938-8.2759018
						c-0.4780884-4.1717987-3.9062958-5.4974976-7.2792969-5.1137009c-3.3804016,0.3871994-7.7246933,2.7304001-10.7055969,5.3125
						l-8.2768936,46.209404l-28.2016068,3.2216949L96.2741013,73.392067l28.197197-3.2109985l-2.5643997,12.8969955
						l14.8900986-14.4263c3.4403992-1.1884003,7.8784027-2.7425995,13.0112152-3.3320007
						c10.7236786-1.2235947,18.0605774,3.0855026,19.0419922,11.6875c0.1401978,1.1704025-0.035614-0.1532974-0.0263062,1.1704025
						l15.2626953-15.0522003c4.0218964-1.2481003,8.7612-2.7178001,12.8778992-3.1830978
						c6.3182983-0.716301,10.3374023,0.6737976,12.7104034,1.857399c0,0,7.9776001,4.7689972,5.6148071,19.6694031
						l-8.1660004,44.8442993l-28.4458008,3.0233994l6.7064972-36.535202
						C186.495697,87.004364,186.3286896,85.4379654,186.2559967,84.7953644z M262.7364807,98.3153687
						c-1.6533813-1.6606064-4.2441711-2.6177063-7.2470856-2.2856064c-1.8545074,0.2026062-4.9491882,1.0293045-7.969696,3.6943054
						l-5.7382965,29.8169022c1.0516968,0.2509918,3.2723999,0.6278992,6.281189,0.2919922
						c15.3203125-1.6679993,17.5332031-20.873497,16.9326172-25.8524933
						C264.7442932,101.7865677,264.0635986,99.6459656,262.7364807,98.3153687z M256.5187073,121.3407669
						c-2.3164062,2.9141006-5.2090149,4.5233994-8.8554993,4.9208984c-0.5429993,0.0596008-1.0830078,0.097702-1.614212,0.107399
						l4.7518921-24.6791992c2.2002106-1.6137009,4.2363129-1.9965973,5.0850067-2.0868988
						c0.2655945-0.0326996,0.5244141-0.0468979,0.7783203-0.0468979c1.421875,0,2.7079773,0.4702988,3.5302734,1.2973938
						c0.5809937,0.5869064,1.047821,1.9077072,1.2333984,3.5576019
						C261.7160034,106.8036652,261.0646057,115.6156693,256.5187073,121.3407669z M428.0196838,71.7841644
						c-0.2714844-2.4545975-1.6329041-8.5751991-8.4091797-12.4130974l-0.1651001-0.0864029
						c-3.2226257-1.6118965-6.9101257-2.4267998-10.9619141-2.4267998c-1.2089844,0-2.4736023,0.0693016-3.7636108,0.2168007
						c-4.5283813,0.5224991-9.5244751,2.0746994-13.5322876,3.3251991l-0.8457031,0.2622032L379.0939026,71.879364
						c-2.8213196-6.0689011-9.1651001-9.6552963-17.6309204-9.6552963c-1.2548828,0-2.570282,0.078598-3.8964844,0.2304993
						c-5.367218,0.6063995-10.0448914,2.2143021-13.4588928,3.3866959l-1.0811157,0.3686066l-7.1698914,7.0361938
						l1.2216797-6.4833984l-35.7011719,4.0722046l-4.0653992,22.5175934
						c-2.2881165-13.3125-11.4092102-21.4857941-24.2159119-21.4857941c-1.1366882,0-2.3104858,0.072197-3.4852905,0.2045975
						c-4.5615234,0.5233994-7.0635071,1.6654968-9.4356079,2.892601l-0.6278992,0.3250961l-5.3368988,6.2896042l1.1308899-6.3027039
						l-35.3623962,4.0317001l-11.4046936,62.6240005l-4.0874023,22.3535004
						c-0.9732056,5.5527954-1.9888,9.2911072-3.0240021,11.1036072l-3.5131989,6.1493988l38.8437958-4.4043121l4.8730011-26.4433899
						c0.7304993,0.0274048,1.4512024,0.0419922,2.160202,0.0419922h0.0019989c2.3789062,0,4.7714081-0.1434937,7.3076019-0.4296875
						c21.9950867-2.5019073,33.3633118-14.1699066,39.0253906-23.5156097
						c0.585907-0.9667969,1.1338196-1.9423981,1.6434937-2.9237976l-3.8065796,21.0634003l35.6757812-4.0664062
						l8.5107117-47.5409927c2.5292969-1.9365005,5.6611023-3.4330978,7.7958984-3.6797028
						c0.2323914-0.0278015,0.4638977-0.0414963,0.6953125-0.0414963c2.3858032,0,2.5341797,1.2929993,2.6123047,1.9697952
						c0.070282,0.6069031,0.1230774,2.5210037-0.8174133,7.2363052l-7.4794922,40.7640991l35.9619751-4.094696l8.6826172-47.6069031
						c3.3475952-2.7476044,6.281189-3.4658051,7.7890015-3.6411057c0.2138977-0.0253983,0.4335938-0.0385971,0.6464844-0.0385971
						c0.9638977,0,2.6083984,0.222702,2.7763977,1.7124023c0.1240234,1.1327972-0.1542969,3.4638977-0.8300781,6.9608994
						l-7.5780945,41.2831955l10.2860718-1.1338043l30.4190063-3.4168854l-1.3291016-4.1748047
						c-0.3829041-1.2089996-0.6289062-2.172905-0.8125-3.7813034c-0.2910767-2.5625-0.1163025-5.6063995,0.5117188-8.8506012
						l3.7861023-20.9799957l0.0185852-0.0478058l1.6660156-9.2475967
						C428.0050049,78.0912628,428.3439026,74.5775681,428.0196838,71.7841644z M250.7266998,146.7333679
						c-3.5176086,0.3993988-7.3554993,0.5780945-12.0156097,0.1864929l-4.9658813,26.9423981
						c0,0-1.5273132,0.1728058-3.8916168,0.4414062l-25.2718964,2.8661957
						c1.8437042-3.2274933,3.0093079-9.7929993,3.4432983-12.2626953l4.0834961-22.3339996l10.9268036-59.9970016
						l27.9150085-3.1821976l-2.6416016,14.6860962l13.5196075-15.9218979
						c1.9647827-1.0199966,4.0751953-2.046402,8.1893921-2.516098c12.632782-1.4394989,22.3955078,5.8866959,24.0253906,20.2246017
						C295.6329041,109.8148651,288.3487854,142.454071,250.7266998,146.7333679z M423.4668884,81.7850647l-1.6318054,9.0313034
						l-0.014679,0.0477982l-3.8408203,21.2856979c-0.4813843,2.4756012-0.967804,6.1675034-0.5469055,9.891098
						c0.2129211,1.8594055,0.5049133,3.0342026,0.9620056,4.4697037l-26.0733032,2.9297028l0.0049133-0.0028992
						c-3.2666016,0.3652039-5.4814148,0.6063995-5.4814148,0.6063995l6.7089233-36.5345993
						c1.1163025-5.7935028,0.9335938-7.3658066,0.8652954-8.0083008c-0.4268188-3.7813034-4.0126953-5.2276001-7.3965149-4.8448029
						c-2.3495789,0.2743988-6.3818054,1.3901978-10.695282,5.3202972l-8.4268188,46.2285995l-28.5,3.246109l6.6054993-35.9991074
						c0.4833984-2.4247971,1.0996094-6.0677948,0.8564148-8.278801c-0.4823914-4.1650009-3.9042969-5.4887009-7.2881165-5.1049957
						c-3.3768921,0.3916016-7.7108765,2.7197952-10.6922913,5.3067017l-8.2734985,46.219696l-28.2167969,3.2158051
						l12.0488892-66.7080078l28.2060242-3.2186966l-2.4424133,12.9345016l14.7587891-14.4730988
						c3.4336243-1.1781998,7.8760071-2.7388,13.0088196-3.3208008c10.7333984-1.2304993,18.0741882,3.0722961,19.0458984,11.6894989
						c0.1387024,1.1664963,0.2733765,0.4500961,0.6259766,0.6893997l14.6094055-14.5751991
						c4.0223999-1.2480011,8.7636108-2.7080002,12.8828125-3.1870003c6.3085938-0.7105026,10.335907,0.6708984,12.7030945,1.857399
						c4.4599915,2.5249023,6.2655945,6.5439987,6.6123047,9.6811981
						C424.8125916,75.2977676,424.0655823,79.209465,423.4668884,81.7850647z"/>
				</g>
			</g>
		</g>
	</g>
	<path id="XMLID_208_" class="st5" d="M419.4151917,119.5565643c0-0.8964996,0.1816101-1.7167969,0.5018921-2.4980011
		c0.3251953-0.7616959,0.7940063-1.4111938,1.3731079-1.9906998c0.5682983-0.5513,1.2441101-0.9946976,1.9960938-1.3115997
		c0.7636108-0.3256989,1.5703125-0.4775009,2.4393921-0.4775009c0.8526001,0,1.647522,0.1518021,2.4170227,0.4775009
		c0.7753906,0.3169022,1.445282,0.7461014,2.0137024,1.3008041c0.5731812,0.5561981,1.0175781,1.2260971,1.3553772,1.9653015
		c0.3321228,0.7695999,0.5157166,1.5947952,0.5157166,2.4687958c0,0.8964996-0.1835938,1.7275009-0.5157166,2.4883041
		c-0.3377991,0.7753983-0.782196,1.4335938-1.3553772,2.0048981c-0.5684204,0.5625-1.2383118,1.0009003-2.0137024,1.3163986
		c-0.7695007,0.3153992-1.5644226,0.4833984-2.4170227,0.4833984c-0.8690796,0-1.6757812-0.1679993-2.4393921-0.4833984
		c-0.7519836-0.3154984-1.4277954-0.7538986-1.9960938-1.3163986c-0.5791016-0.5498047-1.0479126-1.205101-1.3731079-1.9698029
		C419.5968018,121.265564,419.4151917,120.4432678,419.4151917,119.5565643z M420.4326782,119.5565643
		c0,0.7519989,0.1485291,1.4463043,0.4141235,2.110405c0.2655945,0.6268997,0.6503906,1.1805954,1.125,1.6591949
		c0.4971008,0.482399,1.0487976,0.8554001,1.6747742,1.1367035c0.6533203,0.267601,1.3457031,0.4110947,2.0791016,0.4110947
		c0.7295227,0,1.4219055-0.1434937,2.0674133-0.4110947c0.6270142-0.2813034,1.1953125-0.6543045,1.6758118-1.1367035
		c0.4852905-0.4971008,0.8466797-1.0507965,1.1317749-1.699295c0.2735291-0.6660004,0.4199219-1.363205,0.4199219-2.135704
		c0-0.75-0.1463928-1.4472961-0.4199219-2.094696c-0.2850952-0.6514053-0.6464844-1.2100067-1.1317749-1.6934052
		c-0.4804993-0.471199-1.0487976-0.8451996-1.6758118-1.1185989c-0.6455078-0.2593002-1.3378906-0.4019012-2.0674133-0.4019012
		c-0.7333984,0-1.4257812,0.142601-2.0791016,0.4204025c-0.6259766,0.2612-1.1776733,0.642601-1.6747742,1.1215973
		c-0.4746094,0.4726028-0.8594055,1.0264053-1.125,1.6934052
		C420.5812073,118.0829697,420.4326782,118.7821655,420.4326782,119.5565643z M423.3867798,115.9540634h2.6651001
		c0.8525085,0,1.5028992,0.1660004,1.929718,0.4844055c0.3973999,0.3309937,0.618103,0.8651962,0.618103,1.5956955
		c0,0.6473999-0.1982117,1.1328049-0.5644226,1.4238052c-0.3671875,0.2987976-0.8163757,0.4911957-1.3671875,0.5399933
		l2.0888977,3.1983032h-1.0888977l-1.9844055-3.1143036h-1.2782898v3.1143036h-1.0186157V115.9540634z M424.4053955,119.1718674
		h1.2450867c0.2362976,0,0.4776001-0.0048981,0.7217102-0.0234985c0.218811-0.0156021,0.4316101-0.0586014,0.6142883-0.1572037
		c0.1777344-0.0683975,0.3339233-0.1797028,0.4384155-0.3368988c0.1026001-0.1572037,0.1669922-0.3827972,0.1669922-0.6612015
		c0-0.2538986-0.0536804-0.4570007-0.1542969-0.6083984c-0.0898132-0.1512985-0.2128906-0.2557983-0.3739929-0.3339005
		c-0.1650085-0.0996017-0.3301086-0.1397018-0.5332031-0.1582031c-0.1893921-0.0322952-0.3721008-0.0322952-0.5791016-0.0322952
		h-1.5458984V119.1718674z"/>
	
		<linearGradient id="XMLID_7_" gradientUnits="userSpaceOnUse" x1="33.2003021" y1="-3.6314118" x2="415.2305908" y2="-3.6314118" gradientTransform="matrix(1 0.0245 0 1 0 34.9275742)">
		<stop  offset="0.1" style="stop-color:#F7941D"/>
		<stop  offset="0.2612933" style="stop-color:#FBAA19"/>
		<stop  offset="0.4226644" style="stop-color:#FEBB12"/>
		<stop  offset="0.521967" style="stop-color:#FFC20E"/>
		<stop  offset="0.6109305" style="stop-color:#FEBB12"/>
		<stop  offset="0.7555001" style="stop-color:#FBAA19"/>
		<stop  offset="0.9" style="stop-color:#F7941D"/>
	</linearGradient>
	<path id="XMLID_94_" class="st6" d="M33.2003021,69.475563c0,0,73.4263-45.2455978,192.006897-51.9028969
		c118.5702972-6.6640005,190.0233917,32.088398,190.0233917,32.088398S346.615387-4.7490339,227.7373962,0.3353659
		C109.0425949,5.4110661,33.2003021,69.475563,33.2003021,69.475563z"/>
	
		<linearGradient id="XMLID_8_" gradientUnits="userSpaceOnUse" x1="74.0552979" y1="-0.8401119" x2="370.9502869" y2="-0.8401119" gradientTransform="matrix(1 0.0245 0 1 0 34.9275742)">
		<stop  offset="0.1" style="stop-color:#F7941D"/>
		<stop  offset="0.2612933" style="stop-color:#FBAA19"/>
		<stop  offset="0.4226644" style="stop-color:#FEBB12"/>
		<stop  offset="0.521967" style="stop-color:#FFC20E"/>
		<stop  offset="0.6109305" style="stop-color:#FEBB12"/>
		<stop  offset="0.7555001" style="stop-color:#FBAA19"/>
		<stop  offset="0.9" style="stop-color:#F7941D"/>
	</linearGradient>
	<path id="XMLID_93_" class="st7" d="M370.9502869,37.7362671c-30.8368835-6.1587009-78.6748047-12.9072018-148.3798981-8.3794003
		C152.8658905,33.8900642,106.5221024,46.220665,74.0552979,54.872467
		c29.141098-11.9965019,84.0962067-28.6181011,149.1215973-32.5653992
		C288.0783081,18.3778667,343.7637939,28.5140667,370.9502869,37.7362671z"/>
</g>
<g>
</g>
<g>
</g>
<g>
</g>
<g>
</g>
<g>
</g>
<g>
</g>
</svg>
