<?xml version="1.0" encoding="utf-8"?>
<!-- Generator: Adobe Illustrator 24.1.2, SVG Export Plug-In . SVG Version: 6.00 Build 0)  -->
<svg version="1.1" id="Layer_1" xmlns="http://www.w3.org/2000/svg" xmlns:xlink="http://www.w3.org/1999/xlink" x="0px" y="0px"
	 viewBox="0 0 437.4 97.8" style="enable-background:new 0 0 437.4 97.8;" xml:space="preserve">
<style type="text/css">
	.st0{fill:#FFFFFF;}
	.st1{fill:#009FDF;}
	.st2{fill:#004C97;}
	.st3{fill:none;}
</style>
<g>
	<g>
		<g>
			<polygon class="st0" points="23.1,74.5 23.1,37.5 55.1,17.5 58.1,17.5 64.1,21.5 64.1,17.5 83.1,29.5 83.3,33.9 89.1,37.5 
				89.3,73.1 58.1,96.5 54.1,96.5 			"/>
		</g>
		<g>
			<g>
				<path class="st1" d="M109.2,21.3L91.6,10.1c-1.4-0.9-3.2-0.9-4.7-0.1L69.1,20.6l14.1,8.9v3.7l6.2,3.8v37.2l17.3-12.5
					c3-2.7,4.7-6.6,4.7-10.7V25.1C111.3,23.5,110.5,22.1,109.2,21.3z"/>
			</g>
			<g>
				<path class="st2" d="M47.1,22.6L25.8,10.1c-1.5-0.9-3.3-0.8-4.7,0.1L3.5,21.3c-1.3,0.8-2.1,2.3-2.1,3.8V51
					c0,4.1,1.7,7.9,4.7,10.7l17.3,12.5V37L47.1,22.6z"/>
			</g>
			<g>
				<path d="M110,20.1L92.4,9c-1.9-1.2-4.2-1.2-6.2-0.1l-16.9,9.9L65,16c-0.4-0.3-1-0.3-1.4,0c-0.4,0.2-0.7,0.7-0.7,1.2v2l-3.3-2
					c-1.9-1.1-4.2-1.1-6.1,0L47.1,21L26.5,8.9c-1.9-1.1-4.3-1.1-6.2,0.1L2.8,20.1c-1.7,1.1-2.8,3-2.8,5V51c0,4.4,1.9,8.7,5.2,11.7
					c0,0,47.9,34,47.9,34c1,0.7,2.2,1.1,3.4,1.1c0,0,0,0,0.1,0c0,0,0.1,0,0.1,0c1.2,0,2.3-0.4,3.3-1.1c0,0,47.6-34,47.7-34
					c3.3-3,5.2-7.3,5.2-11.7V25.1C112.7,23.1,111.7,21.2,110,20.1z M87.6,11.3c0.1-0.1,0.2-0.1,0.3-0.1v23.3l-2.8-1.7v-3.1
					c0-0.5-0.2-0.9-0.6-1.2l-12.5-8L87.6,11.3z M65.6,19.8l16.7,10.6v5.8L65.6,26.2V19.8z M62.8,22.5V27c0,0.5,0.3,0.9,0.7,1.2
					L83,39.9c0.2,0.1,0.5,0.2,0.7,0.2c0.2,0,0.5-0.1,0.7-0.2c0.4-0.2,0.7-0.7,0.7-1.2v-2.7l2.8,1.7v7.8l-30-17.6v-8.5
					c0.1,0,0.1,0.1,0.2,0.1L62.8,22.5z M54.8,19.6c0.1,0,0.1-0.1,0.2-0.1V28L24.8,46.3v-8.5L54.8,19.6z M25.1,11.3l19.3,11.3
					L24.8,34.5V11.1C24.9,11.2,25,11.2,25.1,11.3z M14.6,66.1l-4.1-3V48.7l4.1-2.3V66.1z M22,71.4l-4.6-3.3V44c0-0.5-0.3-1-0.7-1.2
					c-0.4-0.3-1-0.3-1.4,0l-6.9,3.9c-0.4,0.2-0.7,0.7-0.7,1.2v13.2L7,60.6c-2.7-2.5-4.2-5.9-4.2-9.6V25.1c0-1.1,0.5-2.1,1.5-2.6
					l17.6-11.1c0.1,0,0.1-0.1,0.2-0.1V37v11.8V71.4z M24.8,73.4V49.6l30.2-18.3v63.4C54.9,94.6,24.8,73.4,24.8,73.4z M57.9,94.7
					V31.2l30,17.6v24.6l-4.1,2.9v-23c0-0.5-0.3-1-0.8-1.2L65.3,43c-0.4-0.2-1-0.2-1.4,0c-0.4,0.3-0.7,0.7-0.7,1.2v46.7
					C63.2,90.9,58,94.6,57.9,94.7z M72.1,55v29.6L66,88.9V52.1L72.1,55z M66,49v-2.5l15,7.7v1.9L66,49z M74.9,56.4l6.1,2.9v19
					l-6.1,4.3V56.4z M102.3,63.1l-4.1,3V46.4l4.1,2.3V63.1z M109.9,51c0,3.6-1.5,7.1-4.2,9.6l-0.7,0.5V47.8c0-0.5-0.3-1-0.7-1.2
					l-6.9-3.9c-0.4-0.2-1-0.2-1.4,0c-0.4,0.3-0.7,0.7-0.7,1.2v24.1l-4.6,3.3V11.2c0.1,0,0.1,0.1,0.2,0.1l17.6,11.1
					c0.9,0.6,1.5,1.6,1.5,2.6V51z"/>
			</g>
		</g>
	</g>
	<g>
		<path d="M132.9,18h22.4v4.8h-17.1v8.2h15.2v4.8h-15.2v12.3h-5.3V18z"/>
		<path d="M158.6,39.9V25.4h5.2v12.9c0,3.5,1.8,5.5,4.9,5.5c3,0,5.1-2.1,5.1-5.6V25.4h5.2v22.7h-5.2v-3.5c-1.5,2.1-3.6,4-7.1,4
			C161.5,48.6,158.6,45.2,158.6,39.9z"/>
		<path d="M186.2,41.9v-12h-2.9v-4.5h2.9v-6.2h5.2v6.2h6.1v4.5h-6.1v11.1c0,2,1,2.8,2.8,2.8c1.2,0,2.2-0.3,3.2-0.8v4.3
			c-1.3,0.7-2.7,1.2-4.7,1.2C188.9,48.5,186.2,46.9,186.2,41.9z"/>
		<path d="M201.8,39.9V25.4h5.2v12.9c0,3.5,1.8,5.5,4.9,5.5c3,0,5.1-2.1,5.1-5.6V25.4h5.2v22.7H217v-3.5c-1.5,2.1-3.6,4-7.1,4
			C204.8,48.6,201.8,45.2,201.8,39.9z"/>
		<path d="M228.4,25.4h5.2v5.1c1.4-3.4,4-5.7,8-5.5v5.5h-0.3c-4.6,0-7.7,3-7.7,9v8.6h-5.2V25.4z"/>
		<path d="M244.2,36.9L244.2,36.9c0-6.6,4.6-11.9,11.1-11.9c7.2,0,10.9,5.7,10.9,12.2c0,0.5,0,0.9-0.1,1.5h-16.7
			c0.6,3.7,3.2,5.8,6.5,5.8c2.5,0,4.3-0.9,6.1-2.7l3.1,2.7c-2.1,2.6-5.1,4.3-9.3,4.3C249.2,48.7,244.2,43.9,244.2,36.9z M261,35.2
			c-0.3-3.4-2.3-6-5.8-6c-3.2,0-5.4,2.5-5.9,6H261z"/>
		<path d="M132.9,57h22.4v4.8h-17.1v8.2h15.2v4.8h-15.2v12.3h-5.3V57z"/>
		<path d="M158.6,78.9V64.4h5.2v12.9c0,3.5,1.8,5.5,4.9,5.5c3,0,5.1-2.1,5.1-5.6V64.4h5.2v22.7h-5.2v-3.5c-1.5,2.1-3.6,4-7.1,4
			C161.5,87.6,158.6,84.2,158.6,78.9z"/>
		<path d="M185.1,64.4h5.2v3.5c1.5-2.1,3.6-4,7.1-4c5.1,0,8.1,3.4,8.1,8.7v14.5h-5.2V74.2c0-3.5-1.8-5.5-4.9-5.5
			c-3,0-5.1,2.1-5.1,5.6v12.8h-5.2V64.4z"/>
		<path d="M210.3,75.8L210.3,75.8c0-7.6,5.1-11.9,10.5-11.9c3.7,0,6.1,1.8,7.7,4V55.8h5.2v31.4h-5.2v-3.8c-1.7,2.4-4,4.3-7.7,4.3
			C215.5,87.6,210.3,83.4,210.3,75.8z M228.7,75.8L228.7,75.8c0-4.5-3.1-7.4-6.6-7.4c-3.6,0-6.5,2.8-6.5,7.3v0.1
			c0,4.4,3,7.3,6.5,7.3C225.6,83.1,228.7,80.2,228.7,75.8z"/>
	</g>
	<g>
		<path class="st3" d="M133.2,0.8h1.6l5.2,6.7V0.8h1.7v9.6h-1.4l-5.3-6.8v6.8h-1.7V0.8z"/>
		<path class="st3" d="M146.3,0.8h1.6l4.2,9.7h-1.8l-1-2.3h-4.6l-1,2.3h-1.7L146.3,0.8z M148.7,6.6l-1.7-3.8l-1.6,3.8H148.7z"/>
		<path class="st3" d="M151.4,5.7L151.4,5.7c0-2.8,2.2-5,5.1-5c2,0,3.2,0.8,4.1,2l-2,1.6c-0.5-0.7-1.2-1.1-2.1-1.1
			c-1.3,0-2.3,1.1-2.3,2.5v0c0,1.4,0.9,2.6,2.3,2.6c1,0,1.6-0.5,2.2-1.2l2,1.4c-0.9,1.3-2.1,2.2-4.3,2.2
			C153.6,10.6,151.4,8.5,151.4,5.7z"/>
		<path class="st3" d="M161.2,9l1-1.2c0.9,0.8,1.9,1.3,3,1.3c1,0,1.7-0.5,1.7-1.2v0c0-0.7-0.4-1.1-2.2-1.5c-2-0.5-3.2-1.1-3.2-2.9v0
			c0-1.6,1.4-2.8,3.3-2.8c1.4,0,2.5,0.4,3.5,1.2l-0.9,1.3c-0.9-0.6-1.7-1-2.6-1c-1,0-1.6,0.5-1.6,1.1v0c0,0.7,0.4,1.1,2.3,1.5
			c2,0.5,3.1,1.2,3.1,2.8v0c0,1.8-1.4,2.9-3.4,2.9C163.8,10.6,162.4,10.1,161.2,9z"/>
		<path d="M174.5,0.8h7.2v1.5h-5.5V5h4.9v1.5h-4.9v3.9h-1.7V0.8z"/>
		<path d="M182.2,6.9L182.2,6.9c0-2.1,1.6-3.8,3.9-3.8c2.2,0,3.9,1.7,3.9,3.8v0c0,2.1-1.6,3.8-3.9,3.8
			C183.8,10.6,182.2,8.9,182.2,6.9z M188.2,6.9L188.2,6.9c0-1.3-0.9-2.4-2.2-2.4c-1.3,0-2.2,1-2.2,2.3v0c0,1.3,0.9,2.3,2.2,2.3
			C187.4,9.2,188.2,8.1,188.2,6.9z"/>
		<path d="M191,7.8V3.2h1.7v4.1c0,1.1,0.6,1.8,1.6,1.8c1,0,1.6-0.7,1.6-1.8V3.2h1.7v7.3h-1.7V9.3c-0.5,0.7-1.1,1.3-2.3,1.3
			C191.9,10.6,191,9.5,191,7.8z"/>
		<path d="M198.8,3.2h1.7v1.1c0.5-0.7,1.1-1.3,2.3-1.3c1.6,0,2.6,1.1,2.6,2.8v4.6h-1.7V6.3c0-1.1-0.6-1.8-1.6-1.8
			c-1,0-1.6,0.7-1.6,1.8v4.1h-1.7V3.2z"/>
		<path d="M206.4,6.8L206.4,6.8c0-2.4,1.6-3.8,3.4-3.8c1.2,0,2,0.6,2.5,1.3V0.4h1.7v10h-1.7V9.2c-0.5,0.8-1.3,1.4-2.5,1.4
			C208.1,10.6,206.4,9.2,206.4,6.8z M212.3,6.8L212.3,6.8c0-1.4-1-2.4-2.1-2.4c-1.1,0-2.1,0.9-2.1,2.3v0c0,1.4,1,2.3,2.1,2.3
			C211.3,9.2,212.3,8.2,212.3,6.8z"/>
		<path d="M214.7,8.4L214.7,8.4c0-1.6,1.2-2.4,3-2.4c0.8,0,1.4,0.1,2,0.3V6.1c0-1-0.6-1.6-1.8-1.6c-0.8,0-1.4,0.2-2.1,0.5l-0.4-1.3
			c0.8-0.4,1.6-0.6,2.7-0.6c1.1,0,1.9,0.3,2.4,0.8c0.5,0.5,0.8,1.3,0.8,2.2v4.3h-1.6V9.5c-0.5,0.6-1.3,1.1-2.4,1.1
			C216,10.6,214.7,9.8,214.7,8.4z M219.7,7.8V7.3c-0.4-0.2-1-0.3-1.6-0.3c-1.1,0-1.7,0.5-1.7,1.2v0c0,0.7,0.6,1.1,1.4,1.1
			C218.9,9.4,219.7,8.8,219.7,7.8z"/>
		<path d="M223,8.4V4.6h-0.9V3.2h0.9v-2h1.7v2h2v1.4h-2v3.6c0,0.6,0.3,0.9,0.9,0.9c0.4,0,0.7-0.1,1-0.2v1.4
			c-0.4,0.2-0.9,0.4-1.5,0.4C223.8,10.6,223,10,223,8.4z"/>
		<path d="M227.7,0.5h1.8v1.6h-1.8V0.5z M227.7,3.2h1.7v7.3h-1.7V3.2z"/>
		<path d="M230.5,6.9L230.5,6.9c0-2.1,1.6-3.8,3.9-3.8s3.9,1.7,3.9,3.8v0c0,2.1-1.6,3.8-3.9,3.8C232.2,10.6,230.5,8.9,230.5,6.9z
			 M236.6,6.9L236.6,6.9c0-1.3-0.9-2.4-2.2-2.4c-1.3,0-2.2,1-2.2,2.3v0c0,1.3,0.9,2.3,2.2,2.3C235.8,9.2,236.6,8.1,236.6,6.9z"/>
		<path d="M239.4,3.2h1.7v1.1c0.5-0.7,1.1-1.3,2.3-1.3c1.6,0,2.6,1.1,2.6,2.8v4.6h-1.7V6.3c0-1.1-0.6-1.8-1.6-1.8
			c-1,0-1.6,0.7-1.6,1.8v4.1h-1.7V3.2z"/>
	</g>
	<g>
		<g>
			<path class="st1" d="M159.3,7.1c-0.5,0.6-1.2,1.1-2.1,1.1c-1.4,0-2.6-1.2-2.6-2.6c0-1.4,1.2-2.6,2.6-2.6c0.9,0,1.6,0.4,2.1,1.1
				l2-1.4c-0.9-1.3-2.4-2.1-4.1-2.1c-2.8,0-5,2.2-5,5s2.2,5,5,5c1.7,0,3.1-0.8,4.1-2.1L159.3,7.1z"/>
		</g>
		<g>
			<polygon points="139.9,0.8 141.6,0.8 141.6,10.4 140.1,10.4 134.8,3.6 134.8,10.4 133.2,10.4 133.2,0.8 134.7,0.8 139.9,7.5 			
				"/>
		</g>
		<g>
			<path d="M147.4,2.8l-1.6,3.8h3.3L147.4,2.8z M152.4,10.4h-1.8l-1-2.3h-4.5l-1,2.3h-1.7l4.2-9.7h1.6L152.4,10.4z"/>
		</g>
		<g>
			<path d="M166.7,4.9c2,0.5,3.1,1.2,3.1,2.8c0,1.8-1.4,2.9-3.4,2.9c-1.5,0-2.9-0.5-4-1.5l1-1.2c0.9,0.8,1.8,1.3,3,1.3
				c1,0,1.7-0.5,1.7-1.2c0-0.7-0.4-1.1-2.2-1.5c-2-0.5-3.2-1.1-3.2-2.9c0-1.7,1.4-2.8,3.3-2.8c1.4,0,2.5,0.4,3.5,1.2l-0.9,1.3
				c-0.9-0.6-1.7-1-2.6-1c-1,0-1.6,0.5-1.6,1.2C164.4,4.1,164.8,4.4,166.7,4.9"/>
		</g>
		<g>
			<path d="M170.2,9.6h-0.1v0.2h0.1c0.1,0,0.1,0,0.1-0.1C170.3,9.7,170.3,9.6,170.2,9.6 M170.3,9.9l0.2,0.2h-0.1l-0.1-0.2h-0.1v0.2
				H170V9.5h0.3c0.1,0,0.2,0.1,0.2,0.2C170.4,9.8,170.4,9.9,170.3,9.9 M170.2,9.3c-0.3,0-0.5,0.2-0.5,0.5c0,0.3,0.2,0.5,0.5,0.5
				c0.3,0,0.5-0.2,0.5-0.5C170.7,9.6,170.5,9.3,170.2,9.3 M170.2,10.4c-0.3,0-0.6-0.3-0.6-0.6c0-0.3,0.3-0.6,0.6-0.6
				c0.3,0,0.6,0.3,0.6,0.6C170.8,10.2,170.5,10.4,170.2,10.4"/>
		</g>
	</g>
</g>
</svg>
