<?xml version="1.0" encoding="utf-8"?>
<!-- Generator: Adobe Illustrator 24.1.0, SVG Export Plug-In . SVG Version: 6.00 Build 0)  -->
<svg version="1.1" id="Layer_1" xmlns="http://www.w3.org/2000/svg" xmlns:xlink="http://www.w3.org/1999/xlink" x="0px" y="0px"
	 viewBox="0 0 174.469101 75.8208847" style="enable-background:new 0 0 174.469101 75.8208847;" xml:space="preserve">
<style type="text/css">
	.st0{fill:#C41230;}
</style>
<g>
	<path class="st0" d="M70.7528,62.5397606c-1.064003,1.7928963-3.9512024,4.7098961-6.528801,4.7098961
		c-2.2324028,0-4.0357018-1.2919998-3.8355026-3.1660004c0.267601-2.5800972,1.9336014-3.8866959,3.9541016-4.8866959
		c2.2158966-1.1054993,5.1368027-2.5371017,7.6215973-4.1357002L70.7528,62.5397606z M82.4813004,73.8190613
		c0.8964996-1.4932022,0.4584961-2.5118027-0.2475052-3.2304993c-0.5395966-0.5371017-1.0497971-1.5-0.9122009-2.4375
		l2.5118027-17.1348038c0.8125-5.5292969,0.884201-9.8964996-2.1728973-12.6591988
		c-1.9106064-1.718708-4.7807007-2.9618988-10.2031021-2.9804001c-2.671402-0.0058975-6.6606903,0.8506012-9.556694,2.6504021
		c-3.0053062,1.86129-7.145504,5.1844978-7.145504,9.160099c0,1.1484985,1.1430969,1.8671913,2.4428978,1.8671913
		c2.1211014,0,5.7700005-0.5927925,6.6391983-2.3104935c1.0756989-2.1055069,1.8691025-3.3300972,4.3208008-3.5927963
		c2.9194031-0.3252029,5.1396103,1.7987976,4.7650986,4.1610985l-0.2245941,1.4931908
		c-2.5146027,1.531208-7.1958008,2.460907-12.1304016,3.8496094c-5.0346031,1.4120979-9.9643021,3.2686005-11.1928024,11.6660004
		c-1.0401001,7.1171951,3.6488991,11.3857956,8.8110008,11.3857956c4.4379997,0,8.1260033-1.517601,11.9491997-5.6376953
		c0,0,0.294899,2.4628983,1.3101044,4.0682907C73.1707993,76.8688583,81.4465942,75.5319595,82.4813004,73.8190613"/>
	<path class="st0" d="M153.4465942,62.5397606c-1.0625,1.7928963-3.9461975,4.7098961-6.5233917,4.7098961
		c-2.2353058,0-4.0322113-1.2919998-3.8369141-3.1660004c0.2714996-2.5800972,1.9277039-3.899395,3.9512024-4.8866959
		c2.4492188-1.2118988,5.1406097-2.5371017,7.625-4.1357002L153.4465942,62.5397606z M165.1721954,73.8190613
		c0.9033966-1.4932022,0.4618988-2.5118027-0.238205-3.2304993c-0.5429993-0.5371017-1.0527954-1.5-0.9082794-2.4375
		l2.514679-17.1348038c0.8066101-5.5292969,0.871109-9.8964996-2.1846008-12.6591988
		c-1.8993988-1.718708-4.7831879-2.9618988-10.2059937-2.9804001c-2.6591949-0.0058975-6.6484985,0.8506012-9.5547028,2.6504021
		c-3.0019989,1.86129-7.1445007,5.1844978-7.1445007,9.160099c0,1.1484985,1.1493988,1.8671913,2.4521179,1.8671913
		c2.1151886,0,5.7636871-0.5927925,6.6356812-2.3104935c1.0752106-2.1055069,1.8643188-3.3300972,4.3184052-3.5927963
		c2.9268036-0.3252029,5.1396942,1.7987976,4.7637024,4.1610985l-0.2197876,1.4931908
		c-2.5224152,1.531208-7.1962128,2.460907-12.1298218,3.8496094c-5.039093,1.4120979-9.9638977,3.2686005-11.1972961,11.6660004
		c-1.0370941,7.1171951,3.648407,11.3857956,8.8125,11.3857956c4.4434052,0,8.1298981-1.517601,11.9481964-5.6376953
		c0,0,0.2998047,2.4628983,1.3096008,4.0682907C155.8674927,76.8688583,164.1497955,75.5319595,165.1721954,73.8190613"/>
	<path class="st0" d="M36.8255997,27.316061c0.4544983,1.5053997,0.5487976,30.6933994,0.5487976,30.6933994l0.2217026-0.0429993
		c0,0,0.5091972-0.9696999,2.9716034-8.7861099c2.2431946-7.1240005,5.8574944-21.3388901,6.0737953-21.8515911
		c0.4027977-0.9438,10.0727005-3.0298004,10.6567001,0c0.2787971,1.4629002-6.6138,21.2079983-10.7969017,32.5362015
		c-3.9623985,10.691391-5.0780983,13.3348999-5.7621994,14.3486023c-0.6781998,1.0058975-12.737299,3.04879-13.5126991,0
		c-0.5214996-2.0566025-1.3675995-24.7705002-1.3675995-24.7705002l-0.1499004-0.0440025
		c0,0-2.652401,8.9277992-4.8243008,15.589901c-2.0394993,6.2236023-2.9559994,8.2362976-3.6210995,9.2246017
		c-0.5804996,0.8485947-12.5472994,3.0292969-13.4691992,0c-0.3311-1.0938034-1.21-13.5732117-2.1215944-25.3887024
		c-0.8242056-10.6366997-1.7182056-20.7391987-1.6709056-21.5014c0.0689055-1.0258999,12.5497999-3.0307999,13.4682999,0
		c0.4883003,1.6048908,0.4970999,30.7680016,0.4970999,30.7680016l0.2539005-0.0752029c0,0,1.0052996-2.5311966,3.3382998-9.7479973
		c2.4443989-7.5488014,3.8906994-13.4541016,5.7989006-20.9521999
		C23.6174984,26.3102608,35.9148979,24.2858601,36.8255997,27.316061"/>
	<path class="st0" d="M118.4544983,36.8453522c0.3310013,1.1866074,1.384697,24.7813072,1.384697,24.7813072l0.205101-0.0362015
		c0,0,1.2304993-3.2001076,2.8086014-9.0477982c2.1552963-8.0165977,3.6836014-15.0028992,3.9188995-15.5410004
		c0.8086014-1.8691978,11.2842026-2.3173981,10.6348038-0.1563072c-0.8652039,2.9004097-4.1582031,12.6787071-8.6737976,23.8018074
		c-4.2549057,10.4795036-5.38871,12.6523018-5.9795074,13.5664024c-0.9032974,1.392601-10.9287033,2.5429993-11.6718979,0
		c-0.448204-1.5381012-1.3828049-20.3975029-1.3828049-20.3975029h-0.1200943c0,0-1.5557022,5.6621017-3.8897018,11.7491035
		c-2.2509003,5.8788986-3.3515015,7.854393-3.8906021,8.6483994c-0.9247971,1.3671951-10.9257965,2.5429993-11.6757965,0
		c-0.3271027-1.1377029-0.9706955-10.6680031-1.7265015-19.7852135c-0.7314987-8.8475876-1.5820999-17.3075867-1.4462967-17.5887871
		c0.6942978-1.3936005,10.8485947-2.4990997,11.6631012,0.0243988c0.3720016,1.1631012,0.7186966,24.8143883,0.7186966,24.8143883
		l0.2451019-0.0878906c0,0,1.1875-2.9247971,3.0370941-9.1415977c1.9971085-6.7235985,3.8184052-15.0527,4.1679993-15.603508
		C107.6858978,35.4576607,117.758194,34.2897606,118.4544983,36.8453522"/>
	<path class="st0" d="M171.376297,41.4156609v-0.6855011h0.4268036c0.2304993,0,0.5458984,0.0195007,0.5458984,0.3143997
		c0,0.3144989-0.160202,0.3711014-0.4346008,0.3711014H171.376297z M171.376297,41.8971596h0.2870941l0.6582031,1.1973h0.7198029
		l-0.7266083-1.246109c0.3779144-0.0273895,0.6856079-0.2167892,0.6856079-0.741291
		c0-0.6502991-0.4346008-0.8602982-1.1690063-0.8602982h-1.0634918v2.8476982h0.6083984V41.8971596z M174.469101,41.6735611
		c0-1.6719017-1.2528992-2.6445999-2.6513977-2.6445999c-1.4072113,0-2.6591034,0.9726982-2.6591034,2.6445999
		c0,1.6717911,1.2518921,2.6455002,2.6591034,2.6455002C173.2162018,44.3190613,174.469101,43.3453522,174.469101,41.6735611z
		 M173.7063904,41.6735611c0,1.2167892-0.8672028,2.035099-1.8886871,2.035099v-0.0057983
		c-1.0498047,0.0057983-1.8964081-0.8125114-1.8964081-2.0293007c0-1.2168007,0.8466034-2.0293007,1.8964081-2.0293007
		C172.8391876,39.6442604,173.7063904,40.4567604,173.7063904,41.6735611"/>
	<path class="st0" d="M100.1214981,21.6471615c-0.3134995,0.116188-8.3282013,2.0927982-8.3282013,2.0927982
		c-1.3856964,0.2923908-2.6611023-0.3520985-2.6611023-0.3520985l3.2363052-7.6807003
		c1.4062958-3.2299004,0.3632965-4.9511003,0.3632965-4.9511003l-3.8945007-9.0658989
		c-1.6005936-4.2178106-0.9599991,2.5664001-0.9599991,2.5664001l-0.5419998-1.3711002
		c-0.8651962-1.8383999-0.844696,0.4878001-0.8320007,1.1831c0.0195007,0.6884999,0.2187042,3.4047894,0.2187042,3.4047894
		l-0.4072037-0.4018893c-1.1991959-1.5605001-0.7705002,0.1875-0.7470932,2.1108003
		c0.0385971,3.0024996-0.8320007,4.4003992-1.1538086,5.0820894c-0.1429977,0.2983103-1.6244965,3.7441101-1.6244965,3.7441101
		l-3.4506912-6.2002001c-1.6308136-2.8397999-2.8110046-3.1968002-2.8110046-3.1968002L62.4548988,0.6437612
		c-3.7036018-2.3394108-0.3027,2.4496999-0.3027,2.4496999c-4.2363014-2.2026999,1.283699,3.3144002,1.283699,3.3144002
		c-6.3036995-2.7490001,3.1166992,5.4262996,3.1166992,5.4262996c-3.1421013-1.2544003,0.2621994,2.0209999,2.0239029,4.0419998
		c0.8027954,0.9233007,1.3378983,2.1708994,1.3378983,2.1708994l1.5414963,3.7226009
		c1.0718079,2.6518993,2.7129059,3.4780998,2.7129059,3.4780998l-6.2456055,1.4482002
		c-1.2274933,0.1176987-0.8051987,0.0585995-3.080101,0.221199c-2.1766968,0.1436005-6.0858955,1.1371899-2.8065948,1.2280006
		l2.7778015,0.0273991c0,0-1.2255974,1.1816006,1.9687958,1.3965015l2.2705002,0.1302891
		c0,0,0.3481064,0.8892097,2.8887024,1.0396099c0,0,5.6810989,0.1352005,7.0804977,0.0713005
		c1.8007965-0.0855007,4.6894989-0.5459099,5.6801987-0.8189106c3.2025986-0.9418888,7.6587067-3.4711895,7.6587067-3.4711895
		s1.8231964-0.8183002,2.202095-0.9608994c0.4394989-0.1685009,5.3154984-1.8452015,5.8457031-1.9624004
		c0.5302963-0.1104012,1.7646942-0.2919998,2.444397-0.1826c0,0-1.5702972-0.4351006-1.2001953-1.5723
		c0.1893921-0.5981007,1.2225952-1.0072994,1.4178925-0.1371994c0,0,0.0059052,0.2533989,0.5811081,0.3197994
		c0,0,1.2860947,0.0644989,1.0722961,1.1620998l1.1660004-0.2651005c0-0.0009995,1.0673981-0.0272999,1.2264938-0.0459003
		c0.3457031-0.0205002,1.1846008-0.163599,1.6700058-0.3848c0.0956955-0.044899,0.9510956-0.4853001-0.2939987-0.5844002
		l-0.9189072-0.0581093c0,0-0.8974991-0.05229-1.5888901-0.5912895c-0.3740005-0.2598-1.5449066-1.0914001-3.9971085-0.3775005
		C101.2317963,21.1080608,100.3421936,21.5621605,100.1214981,21.6471615"/>
</g>
</svg>
