<?xml version="1.0" encoding="utf-8"?>
<!-- Generator: Adobe Illustrator 24.1.2, SVG Export Plug-In . SVG Version: 6.00 Build 0)  -->
<svg version="1.1" id="Layer_1" xmlns="http://www.w3.org/2000/svg" xmlns:xlink="http://www.w3.org/1999/xlink" x="0px" y="0px"
	 viewBox="0 0 185.1300049 61.7924194" style="enable-background:new 0 0 185.1300049 61.7924194;" xml:space="preserve">
<style type="text/css">
	.st0{fill:#54565A;}
	.st1{fill:#FF7700;}
</style>
<g>
	<g>
		<path class="st0" d="M80.6374969,8.9794922c-1.0299988,1.0300293-2.3339996,1.5370483-3.6970062,1.5370483
			c-3.5089874,0-5.2630005-2.348999-5.2779999-5.1760254c-0.0139923-2.7689819,1.7550049-5.2769775,5.2779999-5.2769775
			c1.348999,0,2.7110138,0.4779663,3.5950012,1.5219727l-0.6230011,0.6229858
			c-0.8269958-0.8119507-1.8849945-1.2179565-2.9720001-1.2179565c-2.8269958,0-4.2630005,2.0880127-4.2630005,4.3359985
			c0,2.3770142,1.4360046,4.2479858,4.2630005,4.2479858c1.0870056,0,2.2330017-0.4349976,3.0450134-1.2470093L80.6374969,8.9794922
			z"/>
		<path class="st0" d="M90.118103,8.0082397h-5.8860016l-1.0440063,2.348999h-1.072998l4.553009-10.1489868h1.0149994
			l4.552002,10.1489868h-1.0730133L90.118103,8.0082397z M84.6381073,7.0802002h5.0739899l-2.5370026-5.7699585
			L84.6381073,7.0802002z"/>
		<polygon class="st0" points="95.6852112,0.2078247 95.6852112,9.3998413 101.3242035,9.3998413 101.3242035,10.3578491 
			94.6692047,10.3578491 94.6692047,0.2078247 		"/>
		<rect x="103.7020111" y="0.2077026" class="st0" width="1.0149994" height="10.1489868"/>
		<polygon class="st0" points="108.2535095,10.3571167 108.2535095,0.2081299 115.1985016,0.2081299 115.1985016,1.1651611 
			109.2685089,1.1651611 109.2685089,5.0221558 114.9804993,5.0221558 114.9804993,5.9781494 109.2685089,5.9781494 
			109.2685089,10.3571167 		"/>
		<path class="st0" d="M127.6944885,5.3115234c-0.0139923,2.6530151-1.6959991,5.2340088-5.1319885,5.2340088
			c-3.451004,0-5.1470032-2.5809937-5.1470032-5.2490234c0-2.855957,1.8560028-5.2630005,5.1470032-5.2630005
			C125.9984894,0.0485229,127.7094879,2.5995483,127.6944885,5.3115234 M122.5625,9.588501
			c2.7689972,0,4.1029968-2.1019897,4.1169891-4.2769775c0-2.276001-1.3479919-4.3059692-4.1169891-4.3200073
			c-2.7250061,0-4.1610107,1.9280396-4.1320038,4.3200073C118.4594879,7.529541,119.7934875,9.588501,122.5625,9.588501"/>
		<path class="st0" d="M138.9002991,10.3568115h-1.3190002l-3.3639984-3.7399902h-2.6239929v3.7399902h-1.0150146V0.2078247
			h4.553009c2.2610016,0,3.348999,1.5079956,3.3639984,3.2189941c0.0139923,1.5800171-0.9140015,3.0159912-3.0599976,3.1170044
			L138.9002991,10.3568115z M131.5933075,1.1647949v4.4950562h3.4789886c1.6240082,0,2.4069977-0.9570312,2.4069977-2.2330322
			s-0.7829895-2.2620239-2.3479919-2.2620239H131.5933075z"/>
		<polygon class="st0" points="148.7729034,8.4431152 148.7148895,5.0801392 148.7148895,0.2081299 149.7298889,0.2081299 
			149.7298889,10.3571167 149.1198883,10.3571167 142.5529022,2.1941528 142.5809021,5.1951294 142.5809021,10.3571167 
			141.5668945,10.3571167 141.5668945,0.2081299 142.204895,0.2081299 		"/>
		<rect x="153.2669983" y="0.2077026" class="st0" width="1.0140076" height="10.1489868"/>
		<path class="st0" d="M164.7187958,8.0082397h-5.8860016l-1.0440063,2.348999h-1.072998l4.553009-10.1489868h1.0149994
			l4.552002,10.1489868h-1.0730133L164.7187958,8.0082397z M159.2388,7.0802002h5.0749969l-2.5380096-5.7699585L159.2388,7.0802002z
			"/>
		<polygon class="st0" points="72.300705,27.4487915 72.300705,17.2998047 79.245697,17.2998047 79.245697,18.2568359 
			73.3157043,18.2568359 73.3157043,22.1138306 79.0276947,22.1138306 79.0276947,23.0698242 73.3157043,23.0698242 
			73.3157043,27.4487915 		"/>
		<path class="st0" d="M90.0605011,17.3001099v6.19104c0,2.7399902-1.7980042,4.05896-4.0020142,4.05896
			c-2.2039948,0-4.0589905-1.3189697-4.0589905-4.05896v-6.19104h1.0149994v6.19104
			c0,1.9279785,1.3199921,3.1170044,3.0439911,3.1170044c1.5370026,0,2.9880066-1,2.9880066-3.1170044v-6.19104H90.0605011z"/>
		<polygon class="st0" points="100.7598114,27.4487915 93.4808044,27.4487915 93.4808044,17.2998047 100.6287994,17.2998047 
			100.6287994,18.2568359 94.4958038,18.2568359 94.4958038,21.895813 100.3527985,21.895813 100.3527985,22.8378296 
			94.4958038,22.8378296 94.4958038,26.4918213 100.7598114,26.4918213 		"/>
		<polygon class="st0" points="104.716507,17.3001099 104.716507,26.4921265 110.3565063,26.4921265 110.3565063,27.4491577 
			103.7014923,27.4491577 103.7014923,17.3001099 		"/>
		<path class="st0" d="M119.0684052,19.3878174c-0.5930023-0.9569702-1.8410034-1.2759399-2.9140015-1.2909546
			c-1.2470093,0-2.8560028,0.3629761-2.8560028,1.855957c0,1.1890259,1.3049927,1.5090332,2.8849945,1.78302
			c2.0010071,0.348999,4.0310059,0.7980347,4.0310059,2.9589844c-0.0149994,2.2900391-2.2190094,2.9140015-4.0599976,2.9140015
			c-1.7109985,0-3.451004-0.6239624-4.2340088-2.2469482l0.8850098-0.4790039
			c0.6959991,1.3049927,2.1179962,1.7539673,3.348999,1.7539673c1.2480011,0,3.0299988-0.3330078,3.0299988-1.9569702
			c0.0149994-1.3770142-1.5220032-1.7250366-3.102005-2.0010376c-1.9149933-0.3330078-3.798996-0.7539673-3.798996-2.7260132
			c-0.029007-2.1309814,2.1459961-2.8119507,3.8569946-2.8119507c1.3919983,0,2.8849945,0.3769531,3.7839966,1.7680054
			L119.0684052,19.3878174z"/>
		<path class="st0" d="M134.3478088,24.7232666c0,0.9569702,0.276001,1.8410034,1.2029877,1.8410034v0.8989868
			c-0.8259888,0.0869751-1.5209961-0.2750244-1.7829895-1.2460327c-0.5220032,0.8690186-2.0590057,1.3619995-2.9290009,1.3619995
			c-2.4069977,0-3.8269958-0.9859619-3.8269958-2.9279785c0-1.1749878,0.8839874-2.0440063,1.9279938-2.3779907
			c-1.029007-0.3190308-1.7539978-1.2180176-1.7539978-2.2769775c0.0139923-1.710022,1.4359894-2.78302,3.625-2.78302
			c1.6519928,0,3.4199982,0.4349976,3.4359894,2.5510254h-0.8999939c0-1.4350586-1.2890015-1.7250366-2.5650024-1.7250366
			c-1.8269958,0-2.625,0.9279785-2.6100006,1.9429932c0,1.4210205,1.6100006,1.8850098,2.6959991,1.8850098h4.4080048v0.7969971
			h-0.9279938V24.7232666z M128.0118103,24.6652222c0,1.2470093,1,2.0300293,2.798996,2.0300293
			c1.0439911,0,2.6529999-0.6240234,2.6529999-1.9719849v-2.059021h-2.6529999
			C128.7368011,22.6642456,128.0118103,23.7232666,128.0118103,24.6652222"/>
		<path class="st0" d="M80.6374969,43.1641235c-1.0299988,1.0290527-2.3339996,1.5370483-3.6970062,1.5370483
			c-3.5089874,0-5.2630005-2.348999-5.2779999-5.1760254c-0.0139923-2.7689819,1.7550049-5.2780151,5.2779999-5.2780151
			c1.348999,0,2.7110138,0.4790039,3.5950012,1.5230103l-0.6230011,0.6229858
			c-0.8269958-0.8119507-1.8849945-1.2179565-2.9720001-1.2179565c-2.8269958,0-4.2630005,2.0880127-4.2630005,4.3349609
			c0,2.3780518,1.4360046,4.2480469,4.2630005,4.2480469c1.0870056,0,2.2330017-0.434021,3.0450134-1.2460327L80.6374969,43.1641235
			z"/>
		<path class="st0" d="M92.6842957,39.4968262c-0.0139923,2.6519775-1.6959991,5.2329712-5.1319885,5.2329712
			c-3.451004,0-5.1470032-2.5809937-5.1470032-5.2490234c0-2.855957,1.8560028-5.2630005,5.1470032-5.2630005
			C90.9882965,34.2327881,92.699295,36.78479,92.6842957,39.4968262 M87.5523071,43.7727661
			c2.7689972,0,4.1029968-2.1019897,4.1179962-4.2759399c0-2.2770386-1.348999-4.3070068-4.1179962-4.3220215
			c-2.7260132,0-4.1610107,1.9290161-4.1320038,4.3220215C83.449295,41.7138062,84.7832947,43.7727661,87.5523071,43.7727661"/>
		<polygon class="st0" points="102.7743073,42.6278687 102.7162933,39.2648926 102.7162933,34.3928833 103.7312927,34.3928833 
			103.7312927,44.5408936 103.1222992,44.5408936 96.554306,36.3789062 96.5832977,39.3798828 96.5832977,44.5408936 
			95.5682983,44.5408936 95.5682983,34.3928833 96.2062988,34.3928833 		"/>
		<polygon class="st0" points="111.6748047,44.5698242 110.5447998,44.5698242 106.2227936,34.3928833 107.339798,34.3928833 
			111.1098022,43.4538574 114.8208008,34.3928833 115.9517975,34.3928833 		"/>
		<polygon class="st0" points="125.7371979,44.5410767 118.4581909,44.5410767 118.4581909,34.3931274 125.6061859,34.3931274 
			125.6061859,35.3500977 119.4731903,35.3500977 119.4731903,38.9880981 125.3301849,38.9880981 125.3301849,39.9301147 
			119.4731903,39.9301147 119.4731903,43.585083 125.7371979,43.585083 		"/>
		<polygon class="st0" points="135.8843994,42.6278687 135.8273926,39.2648926 135.8273926,34.3928833 136.8413849,34.3928833 
			136.8413849,44.5408936 136.2323914,44.5408936 129.6643982,36.3789062 129.6933899,39.3798828 129.6933899,44.5408936 
			128.6793976,44.5408936 128.6793976,34.3928833 129.316391,34.3928833 		"/>
		<rect x="140.378006" y="34.3927002" class="st0" width="1.0149994" height="10.1489868"/>
		<polygon class="st0" points="152.2078094,44.5410767 144.9298096,44.5410767 144.9298096,34.3931274 152.0778046,34.3931274 
			152.0778046,35.3500977 145.9438019,35.3500977 145.9438019,38.9880981 151.8018036,38.9880981 151.8018036,39.9301147 
			145.9438019,39.9301147 145.9438019,43.585083 152.2078094,43.585083 		"/>
		<polygon class="st0" points="162.3554993,42.6278687 162.2984924,39.2648926 162.2984924,34.3928833 163.3124847,34.3928833 
			163.3124847,44.5408936 162.7034912,44.5408936 156.135498,36.3789062 156.1644897,39.3798828 156.1644897,44.5408936 
			155.1504974,44.5408936 155.1504974,34.3928833 155.7874908,34.3928833 		"/>
		<path class="st0" d="M175.1854095,43.1641235c-1.029007,1.0290527-2.3340149,1.5370483-3.6960144,1.5370483
			c-3.5099945,0-5.2639923-2.348999-5.2789917-5.1760254c-0.0130005-2.7689819,1.7550049-5.2780151,5.2789917-5.2780151
			c1.3480072,0,2.7100067,0.4790039,3.5950012,1.5230103l-0.6239929,0.6229858
			c-0.8269958-0.8119507-1.8849945-1.2179565-2.9710083-1.2179565c-2.8279877,0-4.2639923,2.0880127-4.2639923,4.3349609
			c0,2.3780518,1.4360046,4.2480469,4.2639923,4.2480469c1.0860138,0,2.2320099-0.434021,3.0440063-1.2460327
			L175.1854095,43.1641235z"/>
		<polygon class="st0" points="185.1300049,44.5410767 177.852005,44.5410767 177.852005,34.3931274 185,34.3931274 185,35.3500977 
			178.8659973,35.3500977 178.8659973,38.9880981 184.723999,38.9880981 184.723999,39.9301147 178.8659973,39.9301147 
			178.8659973,43.585083 185.1300049,43.585083 		"/>
		<path class="st0" d="M79.2016907,59.2845459h-5.8860016l-1.0439911,2.348999H71.1987l4.5529938-10.1489868h1.0149994
			l4.552002,10.1489868h-1.072998L79.2016907,59.2845459z M73.7216949,58.3565063h5.0740051l-2.5370026-5.7699585
			L73.7216949,58.3565063z"/>
		<polygon class="st0" points="84.7682037,51.4846802 84.7682037,60.6766968 90.4082031,60.6766968 90.4082031,61.633728 
			83.7531891,61.633728 83.7531891,51.4846802 		"/>
		<polygon class="st0" points="93.8000031,51.4846802 93.8000031,60.6766968 99.4400024,60.6766968 99.4400024,61.633728 
			92.7839966,61.633728 92.7839966,51.4846802 		"/>
		<rect x="101.8160095" y="51.4846802" class="st0" width="1.0160065" height="10.1489868"/>
		<path class="st0" d="M113.2698059,59.2845459h-5.8870087l-1.0429993,2.348999h-1.072998l4.552002-10.1489868h1.0160065
			l4.552002,10.1489868h-1.0730133L113.2698059,59.2845459z M107.7898102,58.3565063H112.8638l-2.5370026-5.7699585
			L107.7898102,58.3565063z"/>
		<polygon class="st0" points="125.0265045,59.7199097 124.9684906,56.355957 124.9684906,51.4849243 125.98349,51.4849243 
			125.98349,61.6339111 125.3734894,61.6339111 118.8065033,53.4719238 118.835495,56.4719238 118.835495,61.6339111 
			117.8204956,61.6339111 117.8204956,51.4849243 118.4584961,51.4849243 		"/>
		<path class="st0" d="M137.8570099,60.2564087c-1.029007,1.0290527-2.3350067,1.5360107-3.6970062,1.5360107
			c-3.5090027,0-5.2630005-2.348999-5.2779999-5.1749878c-0.0140076-2.7689819,1.7550049-5.2780151,5.2779999-5.2780151
			c1.348999,0,2.7109985,0.4790039,3.595993,1.5230103l-0.6239929,0.6220093
			c-0.8269958-0.8109741-1.8840027-1.21698-2.9720001-1.21698c-2.8269958,0-4.2630005,2.0880127-4.2630005,4.3349609
			c0,2.3780518,1.4360046,4.2480469,4.2630005,4.2480469c1.0879974,0,2.2330017-0.434021,3.0449982-1.2470093
			L137.8570099,60.2564087z"/>
		<polygon class="st0" points="147.8011017,61.6339111 140.5240936,61.6339111 140.5240936,51.4849243 147.6710968,51.4849243 
			147.6710968,52.4419556 141.5381012,52.4419556 141.5381012,56.0809326 147.3950958,56.0809326 147.3950958,57.0229492 
			141.5381012,57.0229492 141.5381012,60.6769409 147.8011017,60.6769409 		"/>
		<path class="st1" d="M1.9540024,21.8829956C0.651001,19.651001,0,17.2130127,0,14.5700073
			c0-2.6439819,0.651001-5.0819702,1.9540024-7.3139648c1.3019981-2.2319946,3.0699997-3.9990234,5.3019981-5.302002
			C9.487999,0.651001,11.9260025,0,14.5699997,0c2.3260002,0,4.5080032,0.519043,6.545002,1.5560303
			c2.0359955,1.0369873,3.723999,2.4470215,5.0649948,4.2299805l0.5880051,0.7780151l-4.6290054,3.5469971l-0.5879974-0.7769775
			c-0.8099976-1.0880127-1.8209991-1.9450073-3.0359955-2.5710449c-1.2130013-0.6259766-2.5290031-0.9389648-3.9450035-0.9389648
			c-1.5809975,0-3.0419998,0.3919678-4.382,1.1759644C8.8470001,7.7839966,7.7840004,8.8470459,7,10.1870117
			c-0.7840004,1.3410034-1.1759987,2.802002-1.1759987,4.3829956S6.2159996,17.6110229,7,18.9520264
			s1.8470001,2.4030151,3.1879997,3.1870117c1.3400002,0.7839966,2.8010025,1.1759644,4.382,1.1759644
			c1.4160004,0,2.7320023-0.3099976,3.9450035-0.9289551c1.2149963-0.6199951,2.2259979-1.473999,3.0359955-2.5610352
			l0.5879974-0.7780151l4.6290054,3.5280151l-0.5880051,0.7780151c-1.3409958,1.7960205-3.0259933,3.2089844-5.0559998,4.2399902
			c-2.029995,1.0310059-4.2149963,1.5460205-6.553997,1.5460205c-2.6439972,0-5.0820007-0.651001-7.3139992-1.9540405
			C5.0240021,25.8829956,3.2560005,24.1150513,1.9540024,21.8829956"/>
		<polygon class="st0" points="31.812603,29.1392822 31.812603,0.0003052 53.1736031,0.0003052 53.1736031,5.8243408 
			37.6366005,5.8243408 37.6366005,14.5693359 49.3036003,14.5693359 49.3036003,20.3942871 37.6366005,20.3942871 
			37.6366005,29.1392822 		"/>
		<path class="st0" d="M1.8768005,54.6300659C0.6278,52.4890747,0.0028,50.1520996,0.0028,47.6171265
			c0-2.5340576,0.625-4.8720093,1.8740005-7.0120239c1.2489967-2.1400146,2.9439964-3.835022,5.0839996-5.0839844
			c2.1399994-1.2490234,4.4780006-1.8740234,7.0130005-1.8740234c2.230999,0,4.322998,0.4979858,6.2749977,1.4920044
			c1.9530029,0.9940186,3.5719986,2.3469849,4.8570023,4.0559692l0.5639954,0.7460327l-4.4379959,3.4019775l-0.564003-0.7459717
			c-0.7769966-1.0430298-1.7469978-1.8640137-2.9109993-2.4650269c-1.1639977-0.5999756-2.4249992-0.8999634-3.7829971-0.8999634
			c-1.5160027,0-2.9169998,0.3759766-4.2020035,1.1269531c-1.2859993,0.7530518-2.3049965,1.7709961-3.0559998,3.0570068
			c-0.7529984,1.2850342-1.1279984,2.6860352-1.1279984,4.2010498c0,1.5169678,0.375,2.9169922,1.1279984,4.2029419
			c0.7510033,1.2850342,1.7700005,2.3040161,3.0559998,3.0550537c1.2850037,0.7519531,2.6860008,1.1279907,4.2020035,1.1279907
			c1.3579979,0,2.6189995-0.2969971,3.7829971-0.8909912c1.1640015-0.5940552,2.1340027-1.4130249,2.9109993-2.4560547
			l0.564003-0.7459717l4.4379959,3.3839722l-0.5639954,0.7460327c-1.2850037,1.7219849-2.901001,3.0770264-4.8479996,4.0650024
			c-1.946003,0.9879761-4.0410004,1.4829712-6.2840004,1.4829712c-2.5349998,0-4.8730011-0.625-7.0130005-1.8739624
			C4.820797,58.4650879,3.1257973,56.7711182,1.8768005,54.6300659"/>
		<path class="st1" d="M25.7257957,61.5877075l13.6840057-27.9400024l13.7299957,27.9400024h-5.4179993l-2.1819992-4.414978
			H33.2957954l-2.1520004,4.414978H25.7257957z M35.8958015,51.8776855h7.0429993l-3.5289993-7.2089844L35.8958015,51.8776855z"/>
		<rect x="60.1160011" y="17.1456909" class="st0" width="0.9850006" height="27.4420166"/>
	</g>
</g>
<g>
</g>
<g>
</g>
<g>
</g>
<g>
</g>
<g>
</g>
<g>
</g>
</svg>
