<?xml version="1.0" encoding="utf-8"?>
<!-- Generator: Adobe Illustrator 24.1.2, SVG Export Plug-In . SVG Version: 6.00 Build 0)  -->
<svg version="1.1" id="Layer_1" xmlns="http://www.w3.org/2000/svg" xmlns:xlink="http://www.w3.org/1999/xlink" x="0px" y="0px"
	 viewBox="0 0 61.3485413 56.7461548" style="enable-background:new 0 0 61.3485413 56.7461548;" xml:space="preserve">
<style type="text/css">
	.st0{fill:#FFD200;}
	.st1{fill-rule:evenodd;clip-rule:evenodd;fill:#ED3024;}
</style>
<g>
	<path class="st0" d="M27.0695496,55.2131348h-15.56604l-1.4420166-11.5379639l-9.4419556-6.8670044
		c-0.4119873-2.0180054-0.618988-4.0739746-0.618988-6.1339722c0-16.9320068,13.7419739-30.6740112,30.6729431-30.6740112
		c16.9320068,0,30.6750488,13.7420044,30.6750488,30.6740112c0,2.0599976-0.2070312,4.1159668-0.6199951,6.1339722
		l-9.4400024,6.8670044l-1.4430542,11.5379639h-15.565979l-0.8989868,0.6530151
		c-0.7869873,0.572998-1.7340088,0.8800049-2.7070312,0.8800049c-0.9709473,0-1.9199829-0.3070068-2.7059937-0.8800049
		L27.0695496,55.2131348z"/>
	<path class="st1" d="M27.0689392,55.2130127h-15.565979l-1.4420166-11.5369873L0.618988,36.809021
		C0.2079773,34.789978,0,32.7340088,0,30.6740112C0,13.7420044,13.7419739,0,30.6729431,0
		c16.9330444,0,30.6750488,13.7420044,30.6750488,30.6740112c0,2.0599976-0.2070312,4.1159668-0.6190186,6.1350098
		l-9.440979,6.8670044l-1.4420166,11.5369873h-15.565979l-0.8990479,0.6530151
		c-0.7869873,0.572998-1.7349854,0.8799438-2.7080078,0.8799438c-0.9709473,0-1.9189453-0.3069458-2.7049561-0.8799438
		L27.0689392,55.2130127z M27.5559998,49.8449707H16.2419739l-1.1430054-9.1429443l-9.3200073-6.7780151
		c-0.2729797-1.0620117-0.4109802-2.1530151-0.4109802-3.25c0-1.8320312,0.3850098-3.6420288,1.1319885-5.3150024l16.5,16.6829834
		L6.9589539,22.2399902c0.632019-2.5679932,2.0280151-4.8839722,4.007019-6.6400146l14.3789673,24.8190308L12.6039734,13.2479858
		c1.6480103-2.1939697,3.947998-3.8109741,6.5679932-4.6209717l8.7919922,30.8059692L21.5399475,7.3569946
		c1.9540405-1.1019897,4.1610107-1.6809692,6.4039917-1.6809692c0.4750366,0,0.9490356,0.0249634,1.4210205,0.0769653
		l1.3079834,33.3569946l1.3110352-33.3569946c0.4710083-0.052002,0.9450073-0.0769653,1.4210205-0.0769653
		c2.242981,0,4.4489746,0.5789795,6.4029541,1.6809692l-6.4240112,32.0759888l8.7930298-30.8059692
		c2.6199951,0.8099976,4.9190063,2.427002,6.5670166,4.6209717L36.0039978,40.4190063l14.3779907-24.8190308
		c1.9779663,1.7560425,3.3759766,4.072998,4.006958,6.6400146l-16.0409546,19.802002l16.5-16.6829834
		c0.7459717,1.6729736,1.131958,3.4829712,1.131958,5.3150024c0,1.0969849-0.1380005,2.1879883-0.4119873,3.25l-9.3179932,6.7780151
		l-1.1439819,9.1429443H33.7919617l-1.6729736,1.2180176c-0.4210205,0.3049927-0.927002,0.4689941-1.4460449,0.4689941
		c-0.5169678,0-1.0229492-0.1640015-1.4419556-0.4689941L27.5559998,49.8449707z"/>
</g>
<g>
</g>
<g>
</g>
<g>
</g>
<g>
</g>
<g>
</g>
<g>
</g>
</svg>
