<?xml version="1.0" encoding="utf-8"?>
<!-- Generator: Adobe Illustrator 24.1.2, SVG Export Plug-In . SVG Version: 6.00 Build 0)  -->
<svg version="1.1" id="Layer_1" xmlns="http://www.w3.org/2000/svg" xmlns:xlink="http://www.w3.org/1999/xlink" x="0px" y="0px"
	 viewBox="0 0 437.4 97.8" style="enable-background:new 0 0 437.4 97.8;" xml:space="preserve">
<style type="text/css">
	.st0{fill:#FFFFFF;}
	.st1{fill:#C4D600;}
	.st2{fill:#00A82D;}
	.st3{fill:none;}
</style>
<g>
	<g>
		<g>
			<polygon class="st0" points="22.9,74.3 22.9,37.3 54.9,17.3 57.9,17.3 63.9,21.3 63.9,17.3 82.9,29.3 83.1,33.7 88.9,37.3 
				89,72.9 57.9,96.3 53.9,96.3 			"/>
		</g>
		<g>
			<g>
				<path class="st1" d="M109,21.1L91.4,9.9C90,9,88.2,9,86.7,9.9L68.8,20.4l14.1,8.9V33l6.2,3.8V74l17.3-12.5
					c3-2.7,4.7-6.6,4.7-10.7V24.9C111.1,23.3,110.3,21.9,109,21.1z"/>
			</g>
			<g>
				<path class="st2" d="M46.9,22.4L25.6,9.9C24.1,9,22.3,9,20.9,9.9L3.3,21.1c-1.3,0.8-2.1,2.3-2.1,3.8v25.9
					c0,4.1,1.7,7.9,4.7,10.7L23.2,74V36.8L46.9,22.4z"/>
			</g>
			<g>
				<path d="M109.7,19.9L92.2,8.8c-1.9-1.2-4.2-1.2-6.2-0.1l-16.9,9.9l-4.3-2.8c-0.4-0.3-1-0.3-1.4,0c-0.4,0.2-0.7,0.7-0.7,1.2v2
					l-3.3-2c-1.9-1.1-4.2-1.1-6.1,0l-6.3,3.8L26.3,8.7c-1.9-1.1-4.3-1.1-6.2,0.1L2.5,19.9c-1.7,1.1-2.8,3-2.8,5v25.9
					c0,4.4,1.9,8.7,5.2,11.7c0,0,47.9,34,47.9,34c1,0.7,2.2,1.1,3.4,1.1c0,0,0,0,0.1,0c0,0,0.1,0,0.1,0c1.2,0,2.3-0.4,3.3-1.1
					c0,0,47.6-34,47.7-34c3.3-3,5.2-7.3,5.2-11.7V24.9C112.5,22.8,111.5,21,109.7,19.9z M87.4,11.1c0.1-0.1,0.2-0.1,0.3-0.1v23.3
					l-2.8-1.7v-3.1c0-0.5-0.2-0.9-0.6-1.2l-12.5-8L87.4,11.1z M65.4,19.6l16.7,10.6V36L65.4,26V19.6z M62.6,22.3v4.5
					c0,0.5,0.3,0.9,0.7,1.2l19.5,11.8c0.2,0.1,0.5,0.2,0.7,0.2c0.2,0,0.5-0.1,0.7-0.2c0.4-0.2,0.7-0.7,0.7-1.2v-2.7l2.8,1.7v7.8
					l-30-17.6v-8.5c0.1,0,0.1,0.1,0.2,0.1L62.6,22.3z M54.6,19.4c0.1,0,0.1-0.1,0.2-0.1v8.5L24.6,46.1v-8.5L54.6,19.4z M24.9,11.1
					l19.3,11.3L24.6,34.3V10.9C24.7,11,24.8,11,24.9,11.1z M14.3,65.9l-4.1-3V48.5l4.1-2.3V65.9z M21.8,71.2l-4.6-3.3V43.8
					c0-0.5-0.3-1-0.7-1.2c-0.4-0.3-1-0.3-1.4,0l-6.9,3.9c-0.4,0.2-0.7,0.7-0.7,1.2v13.2l-0.7-0.5c-2.7-2.5-4.2-5.9-4.2-9.6V24.9
					c0-1.1,0.5-2.1,1.5-2.6l17.6-11.1c0.1,0,0.1-0.1,0.2-0.1v25.7v11.8V71.2z M24.6,73.2V49.4L54.8,31v63.4
					C54.7,94.4,24.6,73.2,24.6,73.2z M57.6,94.5V31l30,17.6v24.6l-4.1,2.9v-23c0-0.5-0.3-1-0.8-1.2L65,42.8c-0.4-0.2-1-0.2-1.4,0
					C63.2,43.1,63,43.5,63,44v46.7C63,90.7,57.8,94.4,57.6,94.5z M71.9,54.8v29.6l-6.1,4.3V51.9L71.9,54.8z M65.8,48.8v-2.5l15,7.7
					V56L65.8,48.8z M74.7,56.2l6.1,2.9v19l-6.1,4.3V56.2z M102,62.9l-4.1,3V46.1l4.1,2.3V62.9z M109.7,50.8c0,3.6-1.5,7.1-4.2,9.6
					l-0.7,0.5V47.6c0-0.5-0.3-1-0.7-1.2l-6.9-3.9c-0.4-0.2-1-0.2-1.4,0c-0.4,0.3-0.7,0.7-0.7,1.2v24.1l-4.6,3.3V11
					c0.1,0,0.1,0.1,0.2,0.1l17.6,11.1c0.9,0.6,1.5,1.6,1.5,2.6V50.8z"/>
			</g>
		</g>
	</g>
	<g>
		<path d="M131.3,33L131.3,33c0-8.6,6.4-15.7,15.5-15.7c5.5,0,8.9,1.9,11.8,4.7l-3.4,3.9c-2.4-2.2-5-3.7-8.4-3.7
			c-5.7,0-9.9,4.7-9.9,10.6v0.1c0,5.9,4.2,10.7,9.9,10.7c3.7,0,6.1-1.5,8.6-3.9l3.4,3.4c-3.1,3.3-6.6,5.3-12.2,5.3
			C137.9,48.5,131.3,41.6,131.3,33z"/>
		<path d="M161.8,36.7L161.8,36.7c0-6.6,5.2-12,12.1-12c7,0,12.1,5.3,12.1,11.8v0.1c0,6.4-5.2,11.8-12.2,11.8
			C166.9,48.5,161.8,43.2,161.8,36.7z M180.8,36.7L180.8,36.7c0-4.1-2.9-7.4-7-7.4c-4.2,0-6.8,3.3-6.8,7.2v0.1c0,4,2.9,7.3,6.9,7.3
			C178.1,43.9,180.8,40.6,180.8,36.7z"/>
		<path d="M190.8,25.2h5.2v3.4c1.5-2,3.4-3.9,6.9-3.9c3.3,0,5.6,1.6,6.8,4c1.8-2.4,4.2-4,7.7-4c4.9,0,8,3.1,8,8.7v14.5h-5.2V35
			c0-3.6-1.7-5.5-4.6-5.5c-2.8,0-4.9,2-4.9,5.6v12.8h-5.2V35c0-3.5-1.7-5.5-4.6-5.5c-2.9,0-4.9,2.1-4.9,5.6v12.8h-5.2V25.2z"/>
		<path d="M231.5,25.2h5.2v3.4c1.5-2,3.4-3.9,6.9-3.9c3.3,0,5.6,1.6,6.8,4c1.8-2.4,4.2-4,7.7-4c4.9,0,8,3.1,8,8.7v14.5h-5.2V35
			c0-3.6-1.7-5.5-4.6-5.5c-2.8,0-4.9,2-4.9,5.6v12.8h-5.2V35c0-3.5-1.7-5.5-4.6-5.5c-2.9,0-4.9,2.1-4.9,5.6v12.8h-5.2V25.2z"/>
		<path d="M271.9,39.7V25.2h5.2v12.9c0,3.5,1.8,5.5,4.9,5.5c3,0,5.1-2.1,5.1-5.6V25.2h5.2v22.7H287v-3.5c-1.5,2.1-3.6,4-7.1,4
			C274.8,48.4,271.9,45,271.9,39.7z"/>
		<path d="M298.5,25.2h5.2v3.5c1.5-2.1,3.6-4,7.1-4c5.1,0,8.1,3.4,8.1,8.7v14.5h-5.2V35c0-3.5-1.8-5.5-4.9-5.5c-3,0-5.1,2.1-5.1,5.6
			v12.8h-5.2V25.2z"/>
		<path d="M324.7,16.8h5.6v4.9h-5.6V16.8z M324.9,25.2h5.2v22.7h-5.2V25.2z"/>
		<path d="M337.3,41.7v-12h-2.9v-4.5h2.9V19h5.2v6.2h6.1v4.5h-6.1v11.1c0,2,1,2.8,2.8,2.8c1.2,0,2.2-0.3,3.2-0.8v4.3
			c-1.3,0.7-2.7,1.2-4.7,1.2C340,48.3,337.3,46.7,337.3,41.7z"/>
		<path d="M369.6,25.2h5.4l-9,23.3c-1.8,4.6-3.8,6.4-7.5,6.4c-2.2,0-3.8-0.5-5.4-1.4l1.8-3.9c0.9,0.5,2,0.9,3.1,0.9
			c1.5,0,2.4-0.6,3.2-2.6l-9.5-22.7h5.6l6.4,16.9L369.6,25.2z"/>
		<path d="M131.3,73L131.3,73c0-8.6,6.4-15.7,15.5-15.7c5.5,0,8.9,1.9,11.8,4.7l-3.4,3.9c-2.4-2.2-5-3.7-8.4-3.7
			c-5.7,0-9.9,4.7-9.9,10.6v0.1c0,5.9,4.2,10.7,9.9,10.7c3.7,0,6.1-1.5,8.6-3.9l3.4,3.4c-3.1,3.3-6.6,5.3-12.2,5.3
			C137.9,88.5,131.3,81.6,131.3,73z"/>
		<path d="M163.3,56.6h5.2v31.4h-5.2V56.6z"/>
		<path d="M173.5,76.7L173.5,76.7c0-6.6,4.6-11.9,11.1-11.9c7.2,0,10.9,5.7,10.9,12.2c0,0.5,0,0.9-0.1,1.5h-16.7
			c0.6,3.7,3.2,5.8,6.5,5.8c2.5,0,4.3-0.9,6.1-2.7l3.1,2.7c-2.1,2.6-5.1,4.3-9.3,4.3C178.6,88.5,173.5,83.7,173.5,76.7z M190.3,75
			c-0.3-3.4-2.3-6-5.8-6c-3.2,0-5.4,2.5-5.9,6H190.3z"/>
		<path d="M198.7,81.4L198.7,81.4c0-5,3.8-7.4,9.4-7.4c2.5,0,4.3,0.4,6.1,0.9v-0.6c0-3.2-2-4.9-5.6-4.9c-2.5,0-4.4,0.6-6.5,1.4
			l-1.4-4.1c2.5-1.1,4.9-1.8,8.6-1.8c3.4,0,5.9,0.9,7.5,2.5c1.7,1.6,2.5,4,2.5,7v13.5h-5.1v-2.8c-1.5,1.8-3.9,3.3-7.4,3.3
			C202.5,88.4,198.7,86,198.7,81.4z M214.3,79.8v-1.5c-1.3-0.5-3.1-0.9-5.2-0.9c-3.4,0-5.3,1.4-5.3,3.8v0.1c0,2.2,1.9,3.4,4.4,3.4
			C211.7,84.6,214.3,82.7,214.3,79.8z"/>
		<path d="M225.2,65.2h5.2v3.5c1.5-2.1,3.6-4,7.1-4c5.1,0,8.1,3.4,8.1,8.7v14.5h-5.2V75c0-3.5-1.8-5.5-4.9-5.5c-3,0-5.1,2.1-5.1,5.6
			v12.8h-5.2V65.2z"/>
		<path d="M251.4,79.7V65.2h5.2v12.9c0,3.5,1.8,5.5,4.9,5.5c3,0,5.1-2.1,5.1-5.6V65.2h5.2v22.7h-5.2v-3.5c-1.5,2.1-3.6,4-7.1,4
			C254.3,88.4,251.4,85,251.4,79.7z"/>
		<path d="M278,65.2h5.2V69c1.7-2.4,4-4.3,7.7-4.3c5.3,0,10.5,4.2,10.5,11.8v0.1c0,7.5-5.2,11.8-10.5,11.8c-3.8,0-6.1-1.9-7.7-4
			v10.4H278V65.2z M296.2,76.6L296.2,76.6c0-4.5-3-7.4-6.5-7.4c-3.5,0-6.6,2.9-6.6,7.3v0.1c0,4.3,3.1,7.3,6.6,7.3
			C293.2,83.9,296.2,81.1,296.2,76.6z"/>
	</g>
	<g>
		<path class="st3" d="M132.9,0.6h1.6l5.2,6.7V0.6h1.7v9.6h-1.4l-5.3-6.8v6.8h-1.7V0.6z"/>
		<path class="st3" d="M146.1,0.5h1.6l4.2,9.7h-1.8l-1-2.3h-4.6l-1,2.3h-1.7L146.1,0.5z M148.5,6.4l-1.7-3.8l-1.6,3.8H148.5z"/>
		<path class="st3" d="M151.2,5.5L151.2,5.5c0-2.8,2.2-5,5.1-5c2,0,3.2,0.8,4.1,2l-2,1.6c-0.5-0.7-1.2-1.1-2.1-1.1
			c-1.3,0-2.3,1.1-2.3,2.5v0c0,1.4,0.9,2.6,2.3,2.6c1,0,1.6-0.5,2.2-1.2l2,1.4c-0.9,1.3-2.1,2.2-4.3,2.2
			C153.4,10.4,151.2,8.3,151.2,5.5z"/>
		<path class="st3" d="M161,8.8l1-1.2c0.9,0.8,1.9,1.3,3,1.3c1,0,1.7-0.5,1.7-1.2v0c0-0.7-0.4-1.1-2.2-1.5c-2-0.5-3.2-1.1-3.2-2.9v0
			c0-1.6,1.4-2.8,3.3-2.8c1.4,0,2.5,0.4,3.5,1.2L167.2,3c-0.9-0.6-1.7-1-2.6-1c-1,0-1.6,0.5-1.6,1.1v0c0,0.7,0.4,1.1,2.3,1.5
			c2,0.5,3.1,1.2,3.1,2.8v0c0,1.8-1.4,2.9-3.4,2.9C163.5,10.4,162.1,9.9,161,8.8z"/>
		<path d="M174.3,0.6h7.2v1.5H176v2.6h4.9v1.5H176v3.9h-1.7V0.6z"/>
		<path d="M181.9,6.7L181.9,6.7c0-2.1,1.6-3.8,3.9-3.8c2.2,0,3.9,1.7,3.9,3.8v0c0,2.1-1.6,3.8-3.9,3.8
			C183.6,10.4,181.9,8.7,181.9,6.7z M188,6.7L188,6.7c0-1.3-0.9-2.4-2.2-2.4c-1.3,0-2.2,1-2.2,2.3v0c0,1.3,0.9,2.3,2.2,2.3
			C187.2,8.9,188,7.9,188,6.7z"/>
		<path d="M190.7,7.6V3h1.7v4.1c0,1.1,0.6,1.8,1.6,1.8c1,0,1.6-0.7,1.6-1.8V3h1.7v7.3h-1.7V9.1c-0.5,0.7-1.1,1.3-2.3,1.3
			C191.7,10.4,190.7,9.3,190.7,7.6z"/>
		<path d="M198.6,3h1.7v1.1c0.5-0.7,1.1-1.3,2.3-1.3c1.6,0,2.6,1.1,2.6,2.8v4.6h-1.7V6.1c0-1.1-0.6-1.8-1.6-1.8
			c-1,0-1.6,0.7-1.6,1.8v4.1h-1.7V3z"/>
		<path d="M206.2,6.6L206.2,6.6c0-2.4,1.6-3.8,3.4-3.8c1.2,0,2,0.6,2.5,1.3V0.2h1.7v10H212V9c-0.5,0.8-1.3,1.4-2.5,1.4
			C207.8,10.4,206.2,9,206.2,6.6z M212,6.6L212,6.6c0-1.4-1-2.4-2.1-2.4c-1.1,0-2.1,0.9-2.1,2.3v0c0,1.4,1,2.3,2.1,2.3
			C211.1,8.9,212,8,212,6.6z"/>
		<path d="M214.5,8.2L214.5,8.2c0-1.6,1.2-2.4,3-2.4c0.8,0,1.4,0.1,2,0.3V5.9c0-1-0.6-1.6-1.8-1.6c-0.8,0-1.4,0.2-2.1,0.5l-0.4-1.3
			c0.8-0.4,1.6-0.6,2.7-0.6c1.1,0,1.9,0.3,2.4,0.8c0.5,0.5,0.8,1.3,0.8,2.2v4.3h-1.6V9.3c-0.5,0.6-1.3,1.1-2.4,1.1
			C215.7,10.4,214.5,9.6,214.5,8.2z M219.5,7.6V7.1c-0.4-0.2-1-0.3-1.7-0.3c-1.1,0-1.7,0.5-1.7,1.2v0c0,0.7,0.6,1.1,1.4,1.1
			C218.6,9.2,219.5,8.5,219.5,7.6z"/>
		<path d="M222.7,8.2V4.4h-0.9V3h0.9V1h1.7v2h2v1.4h-2V8c0,0.6,0.3,0.9,0.9,0.9c0.4,0,0.7-0.1,1-0.2V10c-0.4,0.2-0.9,0.4-1.5,0.4
			C223.6,10.4,222.7,9.8,222.7,8.2z"/>
		<path d="M227.4,0.3h1.8v1.6h-1.8V0.3z M227.5,3h1.7v7.3h-1.7V3z"/>
		<path d="M230.3,6.7L230.3,6.7c0-2.1,1.7-3.8,3.9-3.8c2.2,0,3.9,1.7,3.9,3.8v0c0,2.1-1.6,3.8-3.9,3.8
			C231.9,10.4,230.3,8.7,230.3,6.7z M236.4,6.7L236.4,6.7c0-1.3-0.9-2.4-2.2-2.4c-1.3,0-2.2,1-2.2,2.3v0c0,1.3,0.9,2.3,2.2,2.3
			C235.5,8.9,236.4,7.9,236.4,6.7z"/>
		<path d="M239.2,3h1.7v1.1c0.5-0.7,1.1-1.3,2.3-1.3c1.6,0,2.6,1.1,2.6,2.8v4.6H244V6.1c0-1.1-0.6-1.8-1.6-1.8c-1,0-1.6,0.7-1.6,1.8
			v4.1h-1.7V3z"/>
	</g>
	<g>
		<g>
			<path class="st2" d="M159.1,6.9C158.6,7.6,157.8,8,157,8c-1.4,0-2.6-1.2-2.6-2.6c0-1.4,1.2-2.6,2.6-2.6c0.9,0,1.6,0.4,2.1,1.1
				l2-1.4c-0.9-1.3-2.4-2.1-4.1-2.1c-2.8,0-5,2.2-5,5s2.2,5,5,5c1.7,0,3.1-0.8,4.1-2.1L159.1,6.9z"/>
		</g>
		<g>
			<polygon points="139.7,0.6 141.3,0.6 141.3,10.2 139.9,10.2 134.6,3.4 134.6,10.2 132.9,10.2 132.9,0.6 134.5,0.6 139.7,7.3 			
				"/>
		</g>
		<g>
			<path d="M147.1,2.6l-1.6,3.8h3.3L147.1,2.6z M152.2,10.2h-1.8l-1-2.3h-4.5l-1,2.3h-1.7l4.2-9.7h1.6L152.2,10.2z"/>
		</g>
		<g>
			<path d="M166.4,4.7c2,0.5,3.1,1.2,3.1,2.8c0,1.8-1.4,2.9-3.4,2.9c-1.5,0-2.9-0.5-4-1.5l1-1.2c0.9,0.8,1.8,1.3,3,1.3
				c1,0,1.7-0.5,1.7-1.2c0-0.7-0.4-1.1-2.2-1.5c-2-0.5-3.2-1.1-3.2-2.9c0-1.7,1.4-2.8,3.3-2.8c1.4,0,2.5,0.4,3.5,1.2L168.3,3
				c-0.9-0.6-1.7-1-2.6-1c-1,0-1.6,0.5-1.6,1.2C164.1,3.9,164.6,4.2,166.4,4.7"/>
		</g>
		<g>
			<path d="M170,9.4h-0.1v0.2h0.1c0.1,0,0.1,0,0.1-0.1C170.1,9.5,170,9.4,170,9.4 M170.1,9.7l0.2,0.2h-0.1L170,9.7h-0.1v0.2h-0.1
				V9.3h0.3c0.1,0,0.2,0.1,0.2,0.2C170.2,9.6,170.2,9.7,170.1,9.7 M169.9,9.1c-0.3,0-0.5,0.2-0.5,0.5c0,0.3,0.2,0.5,0.5,0.5
				c0.3,0,0.5-0.2,0.5-0.5C170.5,9.4,170.2,9.1,169.9,9.1 M169.9,10.2c-0.3,0-0.6-0.3-0.6-0.6c0-0.3,0.3-0.6,0.6-0.6
				c0.3,0,0.6,0.3,0.6,0.6C170.5,10,170.3,10.2,169.9,10.2"/>
		</g>
	</g>
</g>
</svg>
