<?xml version="1.0" encoding="utf-8"?>
<!-- Generator: Adobe Illustrator 24.1.2, SVG Export Plug-In . SVG Version: 6.00 Build 0)  -->
<svg version="1.1" id="Layer_1" xmlns="http://www.w3.org/2000/svg" xmlns:xlink="http://www.w3.org/1999/xlink" x="0px" y="0px"
	 viewBox="0 0 437.4 97.8" style="enable-background:new 0 0 437.4 97.8;" xml:space="preserve">
<style type="text/css">
	.st0{fill:#FFFFFF;}
	.st1{fill:#981D97;}
	.st2{fill:#642F6C;}
	.st3{fill:none;}
</style>
<g>
	<g>
		<g>
			<polygon class="st0" points="23.3,74.3 23.3,37.3 55.3,17.3 58.3,17.3 64.3,21.3 64.3,17.3 83.3,29.3 83.5,33.7 89.3,37.3 
				89.5,72.9 58.3,96.3 54.3,96.3 			"/>
		</g>
		<g>
			<g>
				<path class="st1" d="M109.4,21.1L91.9,9.9C90.4,9,88.6,9,87.2,9.9L69.3,20.4l14.1,8.9V33l6.2,3.8V74l17.3-12.5
					c3-2.7,4.7-6.6,4.7-10.7V24.9C111.6,23.3,110.8,21.9,109.4,21.1z"/>
			</g>
			<g>
				<path class="st2" d="M47.4,22.4L26,9.9C24.6,9,22.7,9,21.3,9.9L3.7,21.1c-1.3,0.8-2.1,2.3-2.1,3.8v25.9c0,4.1,1.7,7.9,4.7,10.7
					L23.6,74V36.8L47.4,22.4z"/>
			</g>
			<g>
				<path d="M110.2,19.9L92.6,8.8c-1.9-1.2-4.2-1.2-6.2-0.1l-16.9,9.9l-4.3-2.8c-0.4-0.3-1-0.3-1.4,0c-0.4,0.2-0.7,0.7-0.7,1.2v2
					l-3.3-2c-1.9-1.1-4.2-1.1-6.1,0l-6.3,3.8L26.7,8.7c-1.9-1.1-4.3-1.1-6.2,0.1L3,19.9c-1.7,1.1-2.8,3-2.8,5v25.9
					c0,4.4,1.9,8.7,5.2,11.7c0,0,47.9,34,47.9,34c1,0.7,2.2,1.1,3.4,1.1c0,0,0,0,0.1,0c0,0,0.1,0,0.1,0c1.2,0,2.3-0.4,3.3-1.1
					c0,0,47.6-34,47.7-34c3.3-3,5.2-7.3,5.2-11.7V24.9C113,22.8,111.9,21,110.2,19.9z M87.9,11.1c0.1-0.1,0.2-0.1,0.3-0.1v23.3
					l-2.8-1.7v-3.1c0-0.5-0.2-0.9-0.6-1.2l-12.5-8L87.9,11.1z M65.9,19.6l16.7,10.6V36L65.9,26V19.6z M63.1,22.3v4.5
					c0,0.5,0.3,0.9,0.7,1.2l19.5,11.8c0.2,0.1,0.5,0.2,0.7,0.2c0.2,0,0.5-0.1,0.7-0.2c0.4-0.2,0.7-0.7,0.7-1.2v-2.7l2.8,1.7v7.8
					l-30-17.6v-8.5c0.1,0,0.1,0.1,0.2,0.1L63.1,22.3z M55.1,19.4c0.1,0,0.1-0.1,0.2-0.1v8.5L25,46.1v-8.5L55.1,19.4z M25.3,11.1
					l19.3,11.3L25,34.3V10.9C25.1,11,25.2,11,25.3,11.1z M14.8,65.9l-4.1-3V48.5l4.1-2.3V65.9z M22.2,71.2l-4.6-3.3V43.8
					c0-0.5-0.3-1-0.7-1.2c-0.4-0.3-1-0.3-1.4,0l-6.9,3.9c-0.4,0.2-0.7,0.7-0.7,1.2v13.2l-0.7-0.5C4.6,57.9,3,54.4,3,50.8V24.9
					c0-1.1,0.5-2.1,1.5-2.6l17.6-11.1c0.1,0,0.1-0.1,0.2-0.1v25.7v11.8V71.2z M25,73.2V49.4L55.3,31v63.4C55.1,94.4,25,73.2,25,73.2
					z M58.1,94.5V31l30,17.6v24.6L84,76.1v-23c0-0.5-0.3-1-0.8-1.2l-17.8-9.1c-0.4-0.2-1-0.2-1.4,0c-0.4,0.3-0.7,0.7-0.7,1.2v46.7
					C63.4,90.7,58.2,94.4,58.1,94.5z M72.3,54.8v29.6l-6.1,4.3V51.9L72.3,54.8z M66.2,48.8v-2.5l15,7.7V56L66.2,48.8z M75.1,56.2
					l6.1,2.9v19l-6.1,4.3V56.2z M102.5,62.9l-4.1,3V46.1l4.1,2.3V62.9z M110.2,50.8c0,3.6-1.5,7.1-4.2,9.6l-0.7,0.5V47.6
					c0-0.5-0.3-1-0.7-1.2l-6.9-3.9c-0.4-0.2-1-0.2-1.4,0c-0.4,0.3-0.7,0.7-0.7,1.2v24.1l-4.6,3.3V11c0.1,0,0.1,0.1,0.2,0.1
					l17.6,11.1c0.9,0.6,1.5,1.6,1.5,2.6V50.8z"/>
			</g>
		</g>
	</g>
	<g>
		<path d="M140.5,22.7H131v-4.9h24.4v4.9h-9.5v25.2h-5.3V22.7z"/>
		<path d="M154.6,36.7L154.6,36.7c0-6.6,5.2-12,12.1-12c7,0,12.1,5.3,12.1,11.8v0.1c0,6.4-5.2,11.8-12.2,11.8
			C159.8,48.5,154.6,43.2,154.6,36.7z M173.6,36.7L173.6,36.7c0-4.1-2.9-7.4-7-7.4c-4.2,0-6.8,3.3-6.8,7.2v0.1c0,4,2.9,7.3,6.9,7.3
			C171,43.9,173.6,40.6,173.6,36.7z"/>
		<path d="M183.7,25.2h5.2v3.4c1.5-2,3.4-3.9,6.9-3.9c3.3,0,5.6,1.6,6.8,4c1.8-2.4,4.2-4,7.7-4c4.9,0,8,3.1,8,8.7v14.5H213V35
			c0-3.6-1.7-5.5-4.6-5.5c-2.8,0-4.9,2-4.9,5.6v12.8h-5.2V35c0-3.5-1.7-5.5-4.6-5.5c-2.9,0-4.9,2.1-4.9,5.6v12.8h-5.2V25.2z"/>
		<path d="M223,36.7L223,36.7c0-6.6,5.2-12,12.1-12c7,0,12.1,5.3,12.1,11.8v0.1c0,6.4-5.2,11.8-12.2,11.8
			C228.1,48.5,223,43.2,223,36.7z M242,36.7L242,36.7c0-4.1-2.9-7.4-7-7.4c-4.2,0-6.8,3.3-6.8,7.2v0.1c0,4,2.9,7.3,6.9,7.3
			C239.3,43.9,242,40.6,242,36.7z"/>
		<path d="M252.1,25.2h5.2v5.1c1.4-3.4,4-5.7,8-5.5v5.5H265c-4.6,0-7.7,3-7.7,9v8.6h-5.2V25.2z"/>
		<path d="M269.1,25.2h5.2v5.1c1.4-3.4,4-5.7,8-5.5v5.5h-0.3c-4.6,0-7.7,3-7.7,9v8.6h-5.2V25.2z"/>
		<path d="M284.8,36.7L284.8,36.7c0-6.6,5.2-12,12.1-12c7,0,12.1,5.3,12.1,11.8v0.1c0,6.4-5.2,11.8-12.2,11.8
			C289.9,48.5,284.8,43.2,284.8,36.7z M303.8,36.7L303.8,36.7c0-4.1-2.9-7.4-7-7.4c-4.2,0-6.8,3.3-6.8,7.2v0.1c0,4,2.9,7.3,6.9,7.3
			C301.1,43.9,303.8,40.6,303.8,36.7z"/>
		<path d="M310.9,25.2h5.3l4.6,15.6l5-15.7h4.5l5,15.7l4.6-15.6h5.2l-7.4,22.9h-4.7L328,32.6l-5.1,15.5h-4.6L310.9,25.2z"/>
		<path d="M140.5,61.7H131v-4.9h24.4v4.9h-9.5v25.2h-5.3V61.7z"/>
		<path d="M159.7,55.6h5.2v12.2c1.5-2.1,3.6-4,7.1-4c5.1,0,8.1,3.4,8.1,8.7v14.5h-5.2V74c0-3.5-1.8-5.5-4.9-5.5
			c-3,0-5.1,2.1-5.1,5.6v12.8h-5.2V55.6z"/>
		<path d="M186.1,64.2h5.2v5.1c1.4-3.4,4-5.7,8-5.5v5.5H199c-4.6,0-7.7,3-7.7,9v8.6h-5.2V64.2z"/>
		<path d="M203.1,55.8h5.6v4.9h-5.6V55.8z M203.3,64.2h5.2v22.7h-5.2V64.2z"/>
		<path d="M212.3,64.2h5.6l6.1,16.7l6.1-16.7h5.5l-9.3,22.9h-4.7L212.3,64.2z"/>
		<path d="M237.1,75.7L237.1,75.7c0-6.6,4.6-11.9,11.1-11.9c7.2,0,10.9,5.7,10.9,12.2c0,0.5,0,0.9-0.1,1.5h-16.7
			c0.6,3.7,3.2,5.8,6.5,5.8c2.5,0,4.3-0.9,6.1-2.7l3.1,2.7c-2.1,2.6-5.1,4.3-9.3,4.3C242.2,87.5,237.1,82.7,237.1,75.7z M253.9,74
			c-0.3-3.4-2.3-6-5.8-6c-3.2,0-5.4,2.5-5.9,6H253.9z"/>
		<path d="M262,84l2.3-3.5c2.5,1.8,5.1,2.8,7.4,2.8c2.2,0,3.5-0.9,3.5-2.5v-0.1c0-1.8-2.4-2.4-5.1-3.2c-3.4-0.9-7.1-2.3-7.1-6.7
			v-0.1c0-4.3,3.6-6.9,8.1-6.9c2.8,0,5.9,1,8.3,2.6l-2.1,3.7c-2.2-1.3-4.5-2.2-6.4-2.2c-2,0-3.2,0.9-3.2,2.2v0.1
			c0,1.7,2.5,2.4,5.1,3.2c3.3,1,7.1,2.5,7.1,6.6v0.1c0,4.8-3.7,7.1-8.4,7.1C268.4,87.4,264.8,86.2,262,84z"/>
	</g>
	<g>
		<path class="st3" d="M133.4,0.6h1.6l5.2,6.7V0.6h1.7v9.6h-1.4l-5.3-6.8v6.8h-1.7V0.6z"/>
		<path class="st3" d="M146.5,0.5h1.6l4.2,9.7h-1.8l-1-2.3H145l-1,2.3h-1.7L146.5,0.5z M149,6.4l-1.7-3.8l-1.6,3.8H149z"/>
		<path class="st3" d="M151.6,5.5L151.6,5.5c0-2.8,2.2-5,5.1-5c2,0,3.2,0.8,4.1,2l-2,1.6c-0.5-0.7-1.2-1.1-2.1-1.1
			c-1.3,0-2.3,1.1-2.3,2.5v0c0,1.4,0.9,2.6,2.3,2.6c1,0,1.6-0.5,2.2-1.2l2,1.4c-0.9,1.3-2.1,2.2-4.3,2.2
			C153.8,10.4,151.6,8.3,151.6,5.5z"/>
		<path class="st3" d="M161.4,8.8l1-1.2c0.9,0.8,1.9,1.3,3,1.3c1,0,1.7-0.5,1.7-1.2v0c0-0.7-0.4-1.1-2.2-1.5c-2-0.5-3.2-1.1-3.2-2.9
			v0c0-1.6,1.4-2.8,3.3-2.8c1.4,0,2.5,0.4,3.5,1.2L167.7,3c-0.9-0.6-1.7-1-2.6-1c-1,0-1.6,0.5-1.6,1.1v0c0,0.7,0.4,1.1,2.3,1.5
			c2,0.5,3.1,1.2,3.1,2.8v0c0,1.8-1.4,2.9-3.4,2.9C164,10.4,162.6,9.9,161.4,8.8z"/>
		<path d="M174.7,0.6h7.2v1.5h-5.5v2.6h4.9v1.5h-4.9v3.9h-1.7V0.6z"/>
		<path d="M182.4,6.7L182.4,6.7c0-2.1,1.6-3.8,3.9-3.8c2.2,0,3.9,1.7,3.9,3.8v0c0,2.1-1.6,3.8-3.9,3.8C184,10.4,182.4,8.7,182.4,6.7
			z M188.5,6.7L188.5,6.7c0-1.3-0.9-2.4-2.2-2.4c-1.3,0-2.2,1-2.2,2.3v0c0,1.3,0.9,2.3,2.2,2.3C187.6,8.9,188.5,7.9,188.5,6.7z"/>
		<path d="M191.2,7.6V3h1.7v4.1c0,1.1,0.6,1.8,1.6,1.8c1,0,1.6-0.7,1.6-1.8V3h1.7v7.3h-1.7V9.1c-0.5,0.7-1.1,1.3-2.3,1.3
			C192.1,10.4,191.2,9.3,191.2,7.6z"/>
		<path d="M199,3h1.7v1.1c0.5-0.7,1.1-1.3,2.3-1.3c1.6,0,2.6,1.1,2.6,2.8v4.6h-1.7V6.1c0-1.1-0.6-1.8-1.6-1.8c-1,0-1.6,0.7-1.6,1.8
			v4.1H199V3z"/>
		<path d="M206.6,6.6L206.6,6.6c0-2.4,1.6-3.8,3.4-3.8c1.2,0,2,0.6,2.5,1.3V0.2h1.7v10h-1.7V9c-0.5,0.8-1.3,1.4-2.5,1.4
			C208.3,10.4,206.6,9,206.6,6.6z M212.5,6.6L212.5,6.6c0-1.4-1-2.4-2.1-2.4c-1.1,0-2.1,0.9-2.1,2.3v0c0,1.4,1,2.3,2.1,2.3
			C211.5,8.9,212.5,8,212.5,6.6z"/>
		<path d="M215,8.2L215,8.2c0-1.6,1.2-2.4,3-2.4c0.8,0,1.4,0.1,2,0.3V5.9c0-1-0.6-1.6-1.8-1.6c-0.8,0-1.4,0.2-2.1,0.5l-0.4-1.3
			c0.8-0.4,1.6-0.6,2.7-0.6c1.1,0,1.9,0.3,2.4,0.8c0.5,0.5,0.8,1.3,0.8,2.2v4.3h-1.6V9.3c-0.5,0.6-1.3,1.1-2.4,1.1
			C216.2,10.4,215,9.6,215,8.2z M219.9,7.6V7.1c-0.4-0.2-1-0.3-1.6-0.3c-1.1,0-1.7,0.5-1.7,1.2v0c0,0.7,0.6,1.1,1.4,1.1
			C219.1,9.2,219.9,8.5,219.9,7.6z"/>
		<path d="M223.2,8.2V4.4h-0.9V3h0.9V1h1.7v2h2v1.4h-2V8c0,0.6,0.3,0.9,0.9,0.9c0.4,0,0.7-0.1,1-0.2V10c-0.4,0.2-0.9,0.4-1.5,0.4
			C224.1,10.4,223.2,9.8,223.2,8.2z"/>
		<path d="M227.9,0.3h1.8v1.6h-1.8V0.3z M227.9,3h1.7v7.3h-1.7V3z"/>
		<path d="M230.8,6.7L230.8,6.7c0-2.1,1.6-3.8,3.9-3.8c2.2,0,3.9,1.7,3.9,3.8v0c0,2.1-1.6,3.8-3.9,3.8
			C232.4,10.4,230.8,8.7,230.8,6.7z M236.8,6.7L236.8,6.7c0-1.3-0.9-2.4-2.2-2.4c-1.3,0-2.2,1-2.2,2.3v0c0,1.3,0.9,2.3,2.2,2.3
			C236,8.9,236.8,7.9,236.8,6.7z"/>
		<path d="M239.6,3h1.7v1.1c0.5-0.7,1.1-1.3,2.3-1.3c1.6,0,2.6,1.1,2.6,2.8v4.6h-1.7V6.1c0-1.1-0.6-1.8-1.6-1.8
			c-1,0-1.6,0.7-1.6,1.8v4.1h-1.7V3z"/>
	</g>
	<g>
		<g>
			<path class="st1" d="M159.5,6.9c-0.5,0.6-1.2,1.1-2.1,1.1c-1.4,0-2.6-1.2-2.6-2.6c0-1.4,1.2-2.6,2.6-2.6c0.9,0,1.6,0.4,2.1,1.1
				l2-1.4c-0.9-1.3-2.4-2.1-4.1-2.1c-2.8,0-5,2.2-5,5s2.2,5,5,5c1.7,0,3.1-0.8,4.1-2.1L159.5,6.9z"/>
		</g>
		<g>
			<polygon points="140.1,0.6 141.8,0.6 141.8,10.2 140.4,10.2 135.1,3.4 135.1,10.2 133.4,10.2 133.4,0.6 135,0.6 140.1,7.3 			"/>
		</g>
		<g>
			<path d="M147.6,2.6l-1.6,3.8h3.3L147.6,2.6z M152.6,10.2h-1.8l-1-2.3h-4.5l-1,2.3h-1.7l4.2-9.7h1.6L152.6,10.2z"/>
		</g>
		<g>
			<path d="M166.9,4.7c2,0.5,3.1,1.2,3.1,2.8c0,1.8-1.4,2.9-3.4,2.9c-1.5,0-2.9-0.5-4-1.5l1-1.2c0.9,0.8,1.8,1.3,3,1.3
				c1,0,1.7-0.5,1.7-1.2c0-0.7-0.4-1.1-2.2-1.5c-2-0.5-3.2-1.1-3.2-2.9c0-1.7,1.4-2.8,3.3-2.8c1.4,0,2.5,0.4,3.5,1.2L168.8,3
				c-0.9-0.6-1.7-1-2.6-1c-1,0-1.6,0.5-1.6,1.2C164.6,3.9,165,4.2,166.9,4.7"/>
		</g>
		<g>
			<path d="M170.4,9.4h-0.1v0.2h0.1c0.1,0,0.1,0,0.1-0.1C170.5,9.5,170.5,9.4,170.4,9.4 M170.5,9.7l0.2,0.2h-0.1l-0.1-0.2h-0.1v0.2
				h-0.1V9.3h0.3c0.1,0,0.2,0.1,0.2,0.2C170.7,9.6,170.6,9.7,170.5,9.7 M170.4,9.1c-0.3,0-0.5,0.2-0.5,0.5c0,0.3,0.2,0.5,0.5,0.5
				c0.3,0,0.5-0.2,0.5-0.5C170.9,9.4,170.7,9.1,170.4,9.1 M170.4,10.2c-0.3,0-0.6-0.3-0.6-0.6c0-0.3,0.3-0.6,0.6-0.6
				c0.3,0,0.6,0.3,0.6,0.6C171,10,170.7,10.2,170.4,10.2"/>
		</g>
	</g>
</g>
</svg>
