<?xml version="1.0" encoding="utf-8"?>
<!-- Generator: Adobe Illustrator 24.1.3, SVG Export Plug-In . SVG Version: 6.00 Build 0)  -->
<svg version="1.1" id="Layer_2" xmlns="http://www.w3.org/2000/svg" xmlns:xlink="http://www.w3.org/1999/xlink" x="0px" y="0px"
	 viewBox="0 0 397.8 186.7" style="enable-background:new 0 0 397.8 186.7;" xml:space="preserve">
<style type="text/css">
	.st0{fill:#FFFFFF;}
	.st1{fill:#EC2227;}
	.st2{fill:url(#SVGID_1_);}
	.st3{fill:url(#SVGID_2_);}
	.st4{fill:url(#SVGID_3_);}
	.st5{fill:url(#SVGID_4_);}
	.st6{fill:url(#SVGID_5_);}
	.st7{fill:url(#SVGID_6_);}
	.st8{fill:url(#SVGID_7_);}
	.st9{filter:url(#Adobe_OpacityMaskFilter);}
	.st10{filter:url(#Adobe_OpacityMaskFilter_1_);}
	.st11{mask:url(#SVGID_8_);fill:url(#SVGID_9_);}
	.st12{fill:url(#SVGID_10_);}
	.st13{fill:#010101;}
	.st14{fill:#00A651;}
	.st15{fill-rule:evenodd;clip-rule:evenodd;fill:#00A651;}
	.st16{fill-rule:evenodd;clip-rule:evenodd;fill:#80C342;}
	.st17{fill-rule:evenodd;clip-rule:evenodd;fill:#FFFFFF;}
	.st18{fill-rule:evenodd;clip-rule:evenodd;fill:#FFE710;}
</style>
<g>
	<path class="st0" d="M329.7,58.7c0.2-1,0.3-1.9,0.4-2.9c0.4-6.8-2.8-13.5-8.4-17.6c-2.5-10.5-11.3-18-22.2-18.4
		c-1.1,0-2.2,0-3.4,0.1l-2.1,0.2l1.6,1.4c0.1,0.1,2.4,2.1,2.3,4.9c-0.1,2.1-1.5,4.1-4.3,6.1l-0.3,0.2c-6.5,4.7-12.6,9.1-13,18.8
		c-0.1,2.3,0.3,4.6,1.1,7c-43.1,6.2-69.6,29.4-69.6,55.8c0,30.4,39.8,55.8,93,55.8s93-25.4,93-55.8
		C397.8,88.2,371.9,65.2,329.7,58.7z"/>
	<g>
		<g>
			<path class="st1" d="M387.8,96.4h-72.1l0.1-2.1l0.1-1.4c0.6-11.2,8.9-21.1,20.4-27.7C360.4,70.5,379.4,82,387.8,96.4 M294,92.8
				c-0.6-11.2-8.9-21.1-20.4-27.7C249.4,70.5,230.4,82,222,96.4h72.1l-0.1-2.1L294,92.8z"/>
		</g>
		<g>
			<linearGradient id="SVGID_1_" gradientUnits="userSpaceOnUse" x1="387.0641" y1="89.2743" x2="316.658" y2="101.6888">
				<stop  offset="0" style="stop-color:#EC2227"/>
				<stop  offset="7.975460e-02" style="stop-color:#EC2227"/>
				<stop  offset="0.1273" style="stop-color:#ED2E27"/>
				<stop  offset="0.1981" style="stop-color:#EE4626"/>
				<stop  offset="0.2834" style="stop-color:#F16525"/>
				<stop  offset="0.38" style="stop-color:#F58723"/>
				<stop  offset="0.4805" style="stop-color:#FCAF1B"/>
				<stop  offset="0.6189" style="stop-color:#FDBA19"/>
				<stop  offset="0.7102" style="stop-color:#FFC316"/>
				<stop  offset="1" style="stop-color:#FFC316"/>
			</linearGradient>
			<path class="st2" d="M315.7,94.6l-0.1,1.8h72.1c-2.5-4.2-5.9-8.2-10.1-11.9C359.2,90.2,338.2,93.7,315.7,94.6"/>
			<linearGradient id="SVGID_2_" gradientUnits="userSpaceOnUse" x1="223.2442" y1="89.3658" x2="293.1847" y2="101.6982">
				<stop  offset="0" style="stop-color:#EC2227"/>
				<stop  offset="7.975460e-02" style="stop-color:#EC2227"/>
				<stop  offset="0.1273" style="stop-color:#ED2E27"/>
				<stop  offset="0.1981" style="stop-color:#EE4626"/>
				<stop  offset="0.2834" style="stop-color:#F16525"/>
				<stop  offset="0.38" style="stop-color:#F58723"/>
				<stop  offset="0.4805" style="stop-color:#FCAF1B"/>
				<stop  offset="0.6189" style="stop-color:#FDBA19"/>
				<stop  offset="0.7102" style="stop-color:#FFC316"/>
				<stop  offset="1" style="stop-color:#FFC316"/>
			</linearGradient>
			<path class="st3" d="M222,96.4h72.1l-0.1-1.8c-22.4-0.9-43.5-4.4-62.1-10.1C227.8,88.2,224.5,92.2,222,96.4"/>
		</g>
		<linearGradient id="SVGID_3_" gradientUnits="userSpaceOnUse" x1="304.8091" y1="164.7284" x2="304.8091" y2="129.7653">
			<stop  offset="0" style="stop-color:#0B74BC"/>
			<stop  offset="0.148" style="stop-color:#0B74BC"/>
			<stop  offset="0.5775" style="stop-color:#0B74BC"/>
			<stop  offset="0.8827" style="stop-color:#035EA5"/>
			<stop  offset="1" style="stop-color:#035EA5"/>
		</linearGradient>
		<path class="st4" d="M221.5,129.8c10.6,18.9,39.9,33,74.9,35l-1.7-35H221.5z M314.8,129.8l-1.7,35c35.1-2,64.3-16,74.9-35H314.8z"
			/>
		<g>
			<linearGradient id="SVGID_4_" gradientUnits="userSpaceOnUse" x1="314.7652" y1="135.7706" x2="388.1207" y2="135.7706">
				<stop  offset="0" style="stop-color:#209AD6"/>
				<stop  offset="0.148" style="stop-color:#209AD6"/>
				<stop  offset="0.5877" style="stop-color:#209AD6"/>
				<stop  offset="0.6247" style="stop-color:#1D91D0"/>
				<stop  offset="0.7389" style="stop-color:#1779BF"/>
				<stop  offset="0.8288" style="stop-color:#116CB5"/>
				<stop  offset="0.8827" style="stop-color:#1067B2"/>
				<stop  offset="1" style="stop-color:#1067B2"/>
			</linearGradient>
			<path class="st5" d="M314.8,129.8l-0.1,1.7c23,0.8,44.5,4.5,63.4,10.3c4.2-3.7,7.5-7.7,9.9-12H314.8z"/>
			<linearGradient id="SVGID_5_" gradientUnits="userSpaceOnUse" x1="294.8549" y1="135.7639" x2="221.4975" y2="135.7639">
				<stop  offset="0" style="stop-color:#209AD6"/>
				<stop  offset="0.148" style="stop-color:#209AD6"/>
				<stop  offset="0.5877" style="stop-color:#209AD6"/>
				<stop  offset="0.6247" style="stop-color:#1D91D0"/>
				<stop  offset="0.7389" style="stop-color:#1779BF"/>
				<stop  offset="0.8288" style="stop-color:#116CB5"/>
				<stop  offset="0.8827" style="stop-color:#1067B2"/>
				<stop  offset="1" style="stop-color:#1067B2"/>
			</linearGradient>
			<path class="st6" d="M221.5,129.8c2.4,4.3,5.8,8.3,9.9,12c18.9-5.8,40.5-9.4,63.4-10.3l-0.1-1.7H221.5z"/>
		</g>
		<linearGradient id="SVGID_6_" gradientUnits="userSpaceOnUse" x1="304.7857" y1="164.9759" x2="304.7857" y2="129.7653">
			<stop  offset="0" style="stop-color:#209AD6"/>
			<stop  offset="0.148" style="stop-color:#209AD6"/>
			<stop  offset="0.5409" style="stop-color:#1E95D3"/>
			<stop  offset="0.6012" style="stop-color:#1E94D2"/>
			<stop  offset="0.7015" style="stop-color:#1888C9"/>
			<stop  offset="0.8589" style="stop-color:#0E78BE"/>
			<stop  offset="1" style="stop-color:#0E78BE"/>
		</linearGradient>
		<path class="st7" d="M298.7,129.8l1.6,35.1l0.6,0c1.6,0,2.7,0.1,4,0.1c1.4,0,2.5,0,3.8-0.1l0.6,0l1.6-35.1H298.7z"/>
		<linearGradient id="SVGID_7_" gradientUnits="userSpaceOnUse" x1="304.9075" y1="68.1932" x2="304.9075" y2="96.4891">
			<stop  offset="0" style="stop-color:#209AD6"/>
			<stop  offset="0.148" style="stop-color:#209AD6"/>
			<stop  offset="0.5153" style="stop-color:#209AD6"/>
			<stop  offset="0.8221" style="stop-color:#0E78BE"/>
			<stop  offset="1" style="stop-color:#0E78BE"/>
		</linearGradient>
		<path class="st8" d="M322,68.2c-0.3,0-0.5,0.1-0.8,0.2c-5.3,3-11.1,4.7-16.3,4.7c0,0,0,0,0,0l0,0c-5.2,0-11-1.8-16.3-4.7
			c-0.3-0.2-0.5-0.2-0.8-0.2c-0.9,0-1.7,0.7-1.7,1.7c0,0.4,0.2,0.9,0.5,1.2l0,0c7.1,6.4,11.1,13.9,11.5,22.1l0.1,3.3h13.5l0.1-3.3
			c0.4-8.1,4.4-15.6,11.5-22.1l0,0c0.3-0.3,0.5-0.7,0.5-1.2C323.7,68.9,323,68.2,322,68.2z"/>
		<g>
			<path class="st1" d="M325.3,54.4c0,8.9-6.7,12.9-11.9,12.9c-3.8,0-6.9-3.1-6.9-6.9c0-1.5,0.5-2.9,1.3-4c3.2-4.6,10.9-6.9,10-15.7
				C321.5,44.5,325.3,49.1,325.3,54.4"/>
			<path class="st1" d="M290.3,64.3c-2.6-2.5-4.4-5.9-4.9-9.8c-0.8-6.4,2.3-12.4,7.4-15.7c2.2-1.4,4.5-3.1,6.2-5
				c-2.8,5.7-8.7,9.4-5.5,17.9c-0.6-11.1,11.5-13.5,9.9-23.9c-0.4-1.6-0.7-2-1.5-2.8c7.2,1,13,6.7,14,14.3c0.2,4.2-1.8,8-4.9,10.4
				c-4,3-9.3,6-8,12.1c0.8,3.2,4,5.8,7.1,6.5c-4.3,2.6-10.7,1.7-15.2-0.8C293.1,66.7,291.6,65.6,290.3,64.3"/>
		</g>
		<defs>
			<filter id="Adobe_OpacityMaskFilter" filterUnits="userSpaceOnUse" x="282.7" y="25.9" width="30.8" height="44.1">
				<feFlood  style="flood-color:white;flood-opacity:1" result="back"/>
				<feBlend  in="SourceGraphic" in2="back" mode="normal"/>
			</filter>
		</defs>
		<mask maskUnits="userSpaceOnUse" x="282.7" y="25.9" width="30.8" height="44.1" id="SVGID_8_">
			<g class="st9">
				<defs>
					<filter id="Adobe_OpacityMaskFilter_1_" filterUnits="userSpaceOnUse" x="282.7" y="25.9" width="30.8" height="44.1">
						<feFlood  style="flood-color:white;flood-opacity:1" result="back"/>
						<feBlend  in="SourceGraphic" in2="back" mode="normal"/>
					</filter>
				</defs>
				<mask maskUnits="userSpaceOnUse" x="282.7" y="25.9" width="30.8" height="44.1" id="SVGID_8_">
					<g class="st10">
					</g>
				</mask>
				<linearGradient id="SVGID_9_" gradientUnits="userSpaceOnUse" x1="292.614" y1="67.2895" x2="306.7633" y2="28.4146">
					<stop  offset="7.361960e-02" style="stop-color:#FFFFFF"/>
					<stop  offset="0.1575" style="stop-color:#D8D8D8"/>
					<stop  offset="0.3466" style="stop-color:#737373"/>
					<stop  offset="0.5521" style="stop-color:#000000"/>
				</linearGradient>
				<path class="st11" d="M301.2,28.9c1.6,10.4-7.3,10.5-4.5,5.2c-1.8,1.6-4.1,2.9-6.4,4c-5.2,2.5-8.3,8-7.6,14.4
					c0.5,3.9,2.3,7.5,5,10.3l0,0c1.3,1.4,2.8,2.8,4.6,3.9c7.2,4.5,14,3.6,16.6,2.3c-2.8,1.4-7.7-3.1-8.3-6.9c-1-6.2,3.9-8.5,8-11
					c3.1-1.9,5.1-5.5,4.9-9.7c-1-7.6-6.5-13.5-13.8-15.5C300.5,26.8,300.8,27.2,301.2,28.9"/>
			</g>
		</mask>
		<linearGradient id="SVGID_10_" gradientUnits="userSpaceOnUse" x1="292.614" y1="67.2895" x2="306.7633" y2="28.4146">
			<stop  offset="7.361960e-02" style="stop-color:#FFC316"/>
			<stop  offset="0.5521" style="stop-color:#FFC316"/>
		</linearGradient>
		<path class="st12" d="M301.2,28.9c1.6,10.4-7.3,10.5-4.5,5.2c-1.8,1.6-4.1,2.9-6.4,4c-5.2,2.5-8.3,8-7.6,14.4
			c0.5,3.9,2.3,7.5,5,10.3l0,0c1.3,1.4,2.8,2.8,4.6,3.9c7.2,4.5,14,3.6,16.6,2.3c-2.8,1.4-7.7-3.1-8.3-6.9c-1-6.2,3.9-8.5,8-11
			c3.1-1.9,5.1-5.5,4.9-9.7c-1-7.6-6.5-13.5-13.8-15.5C300.5,26.8,300.8,27.2,301.2,28.9"/>
		<g>
			<polygon class="st13" points="280.4,112.9 280.5,112.9 280.5,124.9 289.7,124.9 289.7,101.5 278.4,101.5 272.2,112.7 
				272.1,112.7 270,101.5 259.3,101.5 251.9,124.9 261.2,124.9 265,112.9 265.1,112.9 267.3,124.9 273.9,124.9 			"/>
			<path class="st13" d="M249.5,101.4h-10.1c-0.5,0-4.5,0.2-7.5,4.2l-13.3,19.1h10.2l2.5-3.6h9.9l0.3,3.8h9.7L249.5,101.4z
				 M235.2,115.4l5.3-7.6h0.1c0,0.9,0.3,7.6,0.3,7.6H235.2z"/>
			<path class="st13" d="M291,115.2c0-8.4,7.2-14.2,18.5-14.2c9.4,0,14.7,4.4,14.7,10.3c0,8.5-6.8,14-18.2,14
				C296.1,125.2,291,121,291,115.2 M314.4,111.2c0.1-2.4-1.7-4.3-5.1-4.4c-5.1-0.1-8.2,3.6-8.3,8.3c-0.1,2.9,2.3,4.2,5.2,4.3
				C312.6,119.4,314.3,113.9,314.4,111.2"/>
			<path class="st13" d="M347.6,115.1c-1.1,2.2-3.2,4.3-7.2,4.2c-2.9,0-5.3-1.4-5.2-4.3c0.1-4.6,3.2-8.3,8.3-8.3
				c2.7,0,4.3,1.2,4.9,2.9l9.6-1.5c-1.5-4.3-6.4-7.2-14.1-7.2c-11.3,0-18.5,5.9-18.5,14.2c0,5.9,5,10,15,10c8.3,0,14.2-3,16.7-7.9
				L347.6,115.1z"/>
			<path class="st13" d="M358.1,115.2c0-8.4,7.2-14.2,18.5-14.2c9.4,0,14.7,4.4,14.7,10.3c0,8.5-6.8,14-18.2,14
				C363.1,125.2,358.1,121,358.1,115.2 M381.4,111.2c0.1-2.4-1.7-4.3-5.1-4.4c-5.1-0.1-8.2,3.6-8.3,8.3c-0.1,2.9,2.3,4.2,5.2,4.3
				C379.7,119.4,381.3,113.9,381.4,111.2"/>
		</g>
	</g>
</g>
<g>
	<g>
		<g>
			<path class="st14" d="M108.4,21.8c0,4.1-1.4,9.7-7.2,9.7c-7,0-7-7.8-7-9.4c0-1.6,0-9.9,7.2-9.9C107.9,12.1,108.4,19.3,108.4,21.8
				z M94.3,0h-4.7v30l-0.1,4.5H94l0.1-3.8c0.5,0.7,1,1.6,2.4,2.5c2.1,1.4,4.4,1.6,5.6,1.6c3.4,0,6.8-1.4,8.8-4.3
				c1.2-1.6,2.4-4.3,2.4-9.1c0-5.5-1.7-8-2.9-9.4c-2.3-2.6-5.4-3.2-7.9-3.2c-5.7,0-7.5,3.1-8.1,4.3V0z"/>
			<path class="st14" d="M121.3,22.8c0-2.2,0-10.1,7.5-10.1c5.5,0,6.9,4.7,6.9,9.1c0,1.8-0.2,5.4-2,7.8c-1.6,2.2-4.1,2.4-5.3,2.4
				C121.8,32,121.3,25.8,121.3,22.8z M116.9,44.1h4.6V31.7c1.3,2.2,4,3.7,7.7,3.7c6,0,11.4-4.1,11.4-13.4c0-9.2-5.1-12.9-10.5-12.9
				c-2,0-6.2,0.6-8.5,4.5l-0.1-4.1h-4.7c0.1,2.4,0.2,3,0.2,4.1V44.1z"/>
		</g>
		<g>
			<g>
				<path class="st15" d="M79.8,61.3C76.3,53,72,46.6,70.3,44.1c-1.7,2.6-6,8.9-9.5,17.2c3.4,3.7,6.8,8.1,9.5,13
					C73,69.3,76.4,65,79.8,61.3z"/>
				<path class="st15" d="M60.7,169.5c3.5,8.3,7.8,14.7,9.5,17.2c1.7-2.6,6-8.9,9.6-17.2c-3.4-3.7-6.9-8.1-9.6-13
					C67.6,161.5,64.2,165.8,60.7,169.5z"/>
				<path class="st15" d="M60.7,61.3c-6.1-6.6-12.4-11.1-14.9-12.9c-0.7,3-2.6,10.4-3.1,19.4c4.5,2.3,9.2,5.2,13.4,9
					C57.1,71.2,58.8,65.9,60.7,61.3z"/>
				<path class="st15" d="M79.8,169.5c6.1,6.6,12.4,11.1,14.8,12.9c0.7-3,2.6-10.4,3.1-19.4c-4.5-2.3-9.2-5.3-13.4-9
					C83.5,159.6,81.8,164.9,79.8,169.5z"/>
				<path class="st15" d="M42.8,67.8c-8-4.1-15.4-6.2-18.4-7.1c0.3,3.1,1.1,10.7,3.8,19.3c5,0.6,10.4,1.8,15.7,3.8
					C42.7,78.4,42.5,72.9,42.8,67.8z"/>
				<path class="st15" d="M97.7,163c8,4.1,15.4,6.2,18.4,7.1c-0.3-3.1-1.1-10.7-3.8-19.3c-5-0.6-10.4-1.8-15.7-3.8
					C97.8,152.4,98,158,97.7,163z"/>
				<path class="st15" d="M34.7,94.9c-2.9-4.8-5-10-6.5-14.8c-9-1.1-16.6-0.5-19.7-0.3c1.4,2.8,4.7,9.7,10.1,16.9
					C23.5,95.5,29,94.7,34.7,94.9z"/>
				<path class="st15" d="M105.8,136c2.9,4.8,5,10,6.5,14.8c9,1.1,16.6,0.5,19.7,0.4c-1.4-2.8-4.7-9.7-10.1-16.9
					C117,135.3,111.5,136.1,105.8,136z"/>
				<path class="st15" d="M18.6,96.6c-8.8,2-15.8,5.2-18.6,6.4c2.2,2.1,7.7,7.5,15.3,12.4c4.2-2.7,9.1-5.3,14.5-7.1
					C25.4,104.7,21.7,100.6,18.6,96.6z"/>
				<path class="st15" d="M125.2,115.4c-4.2,2.7-9.1,5.3-14.5,7.1c4.4,3.5,8.1,7.6,11.2,11.7c8.8-2,15.8-5.2,18.6-6.4
					C138.3,125.7,132.8,120.3,125.2,115.4z"/>
				<path class="st15" d="M29.8,122.5c-5.3-1.8-10.2-4.4-14.5-7.1C7.7,120.3,2.2,125.7,0,127.8c2.8,1.2,9.8,4.4,18.6,6.4
					C21.7,130.2,25.4,126.1,29.8,122.5z"/>
				<path class="st15" d="M110.7,108.3c5.3,1.8,10.2,4.4,14.5,7.1c7.6-4.9,13.1-10.3,15.3-12.4c-2.8-1.2-9.8-4.4-18.6-6.4
					C118.9,100.6,115.1,104.7,110.7,108.3z"/>
				<path class="st15" d="M18.6,134.2c-5.4,7.2-8.8,14.1-10.1,16.9c3.1,0.2,10.7,0.8,19.7-0.4c1.5-4.8,3.6-10,6.5-14.8
					C29,136.1,23.5,135.3,18.6,134.2z"/>
				<path class="st15" d="M121.9,96.6c5.5-7.2,8.8-14.1,10.1-16.9c-3.1-0.2-10.7-0.8-19.7,0.4c-1.5,4.8-3.6,10-6.5,14.8
					C111.5,94.7,117,95.5,121.9,96.6z"/>
				<path class="st15" d="M43.8,146.9c-5.3,2.1-10.7,3.2-15.7,3.8c-2.7,8.6-3.4,16.3-3.8,19.3c3-0.9,10.3-2.9,18.4-7.1
					C42.5,158,42.7,152.4,43.8,146.9z"/>
				<path class="st15" d="M96.7,83.9c5.3-2.1,10.7-3.2,15.7-3.8c2.7-8.6,3.4-16.3,3.8-19.3c-3,0.9-10.4,2.9-18.4,7.1
					C98,72.9,97.8,78.4,96.7,83.9z"/>
				<path class="st15" d="M42.8,163c0.5,9,2.3,16.4,3.1,19.4c2.5-1.8,8.7-6.3,14.9-12.9c-2-4.7-3.7-9.9-4.5-15.5
					C52,157.7,47.3,160.7,42.8,163z"/>
				<path class="st15" d="M97.7,67.8c-0.5-9-2.3-16.4-3.1-19.4c-2.5,1.8-8.7,6.3-14.8,12.9c2,4.6,3.7,9.9,4.5,15.5
					C88.6,73.1,93.2,70.1,97.7,67.8z"/>
			</g>
			<g>
				<path class="st16" d="M65.4,87.7c0.9-4.8,2.7-9.3,4.9-13.4c-2.7-4.9-6.1-9.3-9.5-13c-2,4.7-3.7,9.9-4.5,15.5
					C59.7,79.8,62.9,83.4,65.4,87.7z"/>
				<path class="st16" d="M75.2,143.1c-0.9,4.8-2.7,9.3-4.9,13.4c2.7,4.9,6.1,9.3,9.6,13c2-4.7,3.7-9.9,4.5-15.5
					C80.8,151,77.6,147.4,75.2,143.1z"/>
				<path class="st16" d="M43.8,83.9c4.3,1.7,8.5,4,12.3,7.1c-0.8-4.8-0.7-9.6,0-14.2c-4.2-3.7-8.9-6.7-13.4-9
					C42.5,72.9,42.7,78.4,43.8,83.9z"/>
				<path class="st16" d="M96.7,146.9c-4.3-1.7-8.5-4-12.3-7.1c0.8,4.8,0.7,9.6,0,14.2c4.2,3.7,8.9,6.7,13.4,9
					C98,158,97.8,152.4,96.7,146.9z"/>
				<path class="st16" d="M48.7,97.3c-2.4-4.3-3.9-8.8-4.9-13.4c-5.3-2.1-10.7-3.2-15.7-3.8c1.5,4.8,3.6,10,6.5,14.8
					C39.3,95,44.1,95.7,48.7,97.3z"/>
				<path class="st16" d="M91.8,133.5c2.4,4.3,3.9,8.8,4.8,13.4c5.3,2.1,10.7,3.2,15.7,3.8c-1.5-4.8-3.6-10-6.5-14.8
					C101.2,135.9,96.5,135.1,91.8,133.5z"/>
				<path class="st16" d="M29.8,108.3c4.4-1.5,9.1-2.4,14-2.5c-3.7-3.2-6.7-6.9-9.1-10.9c-5.6-0.1-11.1,0.6-16.1,1.8
					C21.7,100.6,25.4,104.7,29.8,108.3z"/>
				<path class="st16" d="M110.7,122.5c-4.4,1.5-9.1,2.4-14,2.5c3.7,3.2,6.7,7,9.1,10.9c5.6,0.1,11.1-0.6,16.1-1.8
					C118.9,130.2,115.1,126.1,110.7,122.5z"/>
				<path class="st16" d="M42.1,115.4c-4.6-1.7-8.7-4.2-12.3-7.1c-5.3,1.8-10.2,4.4-14.5,7.1c4.2,2.7,9.1,5.3,14.5,7.1
					C33.4,119.6,37.5,117.1,42.1,115.4z"/>
				<path class="st16" d="M98.4,115.4c4.6,1.7,8.7,4.2,12.3,7.1c5.3-1.8,10.2-4.4,14.5-7.1c-4.2-2.7-9.1-5.3-14.5-7.1
					C107.1,111.2,103,113.7,98.4,115.4z"/>
				<path class="st16" d="M34.7,136c2.4-4,5.4-7.7,9.1-10.9c-4.9-0.1-9.6-1-14-2.5c-4.4,3.5-8.1,7.6-11.2,11.7
					C23.5,135.3,29,136.1,34.7,136z"/>
				<path class="st16" d="M105.8,94.9c-2.4,4-5.4,7.7-9.1,10.9c4.9,0,9.6,1,14,2.5c4.4-3.5,8.1-7.6,11.2-11.7
					C117,95.5,111.5,94.7,105.8,94.9z"/>
				<path class="st16" d="M48.7,133.5c-4.6,1.6-9.4,2.3-14,2.5c-2.9,4.8-5,10-6.5,14.8c5-0.6,10.4-1.8,15.7-3.8
					C44.8,142.3,46.3,137.8,48.7,133.5z"/>
				<path class="st16" d="M91.8,97.3c4.6-1.6,9.4-2.3,14-2.4c2.9-4.8,5-10,6.5-14.8c-5,0.6-10.4,1.8-15.7,3.8
					C95.8,88.5,94.2,93,91.8,97.3z"/>
				<path class="st16" d="M65.4,143.1c-2.5,4.2-5.7,7.8-9.2,10.9c0.9,5.6,2.6,10.8,4.5,15.5c3.4-3.7,6.8-8.1,9.5-13
					C68,152.4,66.3,148,65.4,143.1z"/>
				<path class="st16" d="M56.2,139.8c-3.8,3.1-8,5.4-12.3,7.1c-1.1,5.5-1.3,11.1-1.1,16.1c4.5-2.3,9.2-5.3,13.4-9
					C55.5,149.4,55.4,144.6,56.2,139.8z"/>
				<path class="st16" d="M75.2,87.7c2.5-4.2,5.7-7.8,9.2-10.9c-0.8-5.6-2.6-10.8-4.5-15.5c-3.4,3.7-6.9,8.1-9.6,13
					C72.5,78.4,74.2,82.8,75.2,87.7z"/>
				<path class="st16" d="M84.3,91c3.8-3.1,8-5.4,12.3-7.1c1.1-5.5,1.3-11.1,1.1-16.1c-4.5,2.3-9.2,5.3-13.4,9
					C85,81.4,85.1,86.2,84.3,91z"/>
			</g>
			<path class="st17" d="M65.4,102c-2.5-4.5-5.7-8.1-9.2-11c0.7,4.5,2.3,9.1,4.9,13.5c-3.9-3.4-8.1-5.7-12.4-7.2
				c2.2,4,5.3,7.7,9.2,11c-4.8-1.8-9.6-2.6-14.1-2.5c3.5,3,7.6,5.5,12.4,7.2c-5.1-0.1-9.9,0.9-14.1,2.5c4.3,1.6,9,2.5,14.1,2.5
				c-4.9,1.7-9,4.2-12.4,7.2c4.6,0.1,9.3-0.7,14.1-2.5c-4,3.3-7,7-9.2,11c4.3-1.5,8.5-3.8,12.4-7.2c-2.6,4.4-4.2,9-4.9,13.5
				c3.5-2.9,6.7-6.5,9.2-11c-1,5.1-0.9,9.9,0,14.4c2.3-3.9,4.1-8.4,4.9-13.5c0.8,5.1,2.6,9.5,4.9,13.5c0.8-4.5,0.9-9.3,0-14.4
				c2.5,4.5,5.7,8.1,9.2,11c-0.7-4.5-2.3-9.1-4.9-13.5c3.9,3.3,8.1,5.7,12.4,7.2c-2.2-4-5.3-7.7-9.2-11c4.8,1.8,9.6,2.6,14.1,2.5
				c-3.5-3-7.6-5.5-12.4-7.2c5.2,0.1,9.9-0.9,14.1-2.5c-4.3-1.6-9-2.5-14.1-2.5c4.9-1.7,9-4.2,12.4-7.2c-4.6-0.1-9.3,0.7-14.1,2.5
				c4-3.3,7-7,9.3-11c-4.3,1.5-8.5,3.8-12.4,7.2c2.6-4.4,4.2-9,4.9-13.5c-3.5,2.9-6.7,6.5-9.2,11c1-5.1,0.9-9.9,0-14.4
				c-2.3,3.9-4.1,8.4-4.9,13.5c-0.8-5.1-2.6-9.6-4.9-13.5C64.5,92.2,64.4,97,65.4,102z"/>
			<g>
				<path class="st18" d="M65.4,102c-1-5.1-0.9-9.9,0-14.4c-2.5-4.2-5.7-7.8-9.2-10.9c-0.7,4.6-0.8,9.4,0,14.2
					C59.7,93.9,62.9,97.5,65.4,102z"/>
				<path class="st18" d="M75.1,128.8c1,5.1,0.9,9.9,0,14.4c2.5,4.2,5.7,7.8,9.2,10.9c0.7-4.6,0.8-9.4,0-14.2
					C80.8,136.9,77.6,133.3,75.1,128.8z"/>
				<path class="st18" d="M56.2,91c-3.8-3.1-8-5.4-12.3-7.1c0.9,4.6,2.4,9.1,4.9,13.4c4.3,1.5,8.5,3.8,12.4,7.2
					C58.5,100.1,56.9,95.5,56.2,91z"/>
				<path class="st18" d="M84.3,139.8c3.8,3.1,8,5.4,12.3,7.1c-0.9-4.6-2.4-9.1-4.8-13.4c-4.3-1.5-8.5-3.8-12.4-7.2
					C82,130.7,83.6,135.3,84.3,139.8z"/>
				<path class="st18" d="M57.9,108.3c-4-3.3-7-7-9.2-11c-4.6-1.6-9.4-2.3-14-2.4c2.4,4,5.4,7.7,9.1,10.9
					C48.4,105.7,53.1,106.5,57.9,108.3z"/>
				<path class="st18" d="M82.6,122.5c4,3.3,7,7,9.2,11c4.6,1.6,9.4,2.3,14,2.5c-2.4-4-5.4-7.7-9.1-10.9
					C92.1,125.1,87.4,124.3,82.6,122.5z"/>
				<path class="st18" d="M56.2,112.9c-4.9-1.7-9-4.2-12.4-7.2c-4.9,0-9.6,1-14,2.5c3.6,2.9,7.7,5.4,12.3,7.1
					C46.4,113.8,51.1,112.9,56.2,112.9z"/>
				<path class="st18" d="M84.3,117.9c4.9,1.7,9,4.2,12.4,7.2c4.9-0.1,9.6-1,14-2.5c-3.6-2.9-7.7-5.4-12.3-7.1
					C94.1,117,89.4,117.9,84.3,117.9z"/>
				<path class="st18" d="M42.1,115.4c-4.6,1.7-8.7,4.2-12.3,7.1c4.4,1.5,9.1,2.4,14,2.5c3.5-3,7.6-5.5,12.4-7.2
					C51.1,117.9,46.4,117,42.1,115.4z"/>
				<path class="st18" d="M98.4,115.4c4.6-1.7,8.7-4.2,12.3-7.1c-4.4-1.5-9.1-2.4-14-2.5c-3.5,3-7.6,5.5-12.4,7.2
					C89.4,112.9,94.1,113.8,98.4,115.4z"/>
				<path class="st18" d="M57.9,122.5c-4.8,1.8-9.6,2.6-14.1,2.5c-3.7,3.2-6.7,7-9.1,10.9c4.6-0.1,9.4-0.8,14-2.5
					C50.9,129.5,53.9,125.8,57.9,122.5z"/>
				<path class="st18" d="M82.6,108.3c4.8-1.8,9.6-2.6,14.1-2.5c3.7-3.2,6.7-6.9,9.1-10.9c-4.6,0.1-9.4,0.8-14,2.4
					C89.6,101.3,86.6,105,82.6,108.3z"/>
				<path class="st18" d="M65.4,143.1c0.9,4.8,2.7,9.3,4.9,13.4c2.2-4.1,4-8.6,4.9-13.4c-2.3-3.9-4.1-8.4-4.9-13.5
					C69.4,134.7,67.7,139.2,65.4,143.1z"/>
				<path class="st18" d="M65.4,128.8c-2.5,4.5-5.7,8.1-9.2,11c-0.8,4.8-0.7,9.6,0,14.2c3.5-3.1,6.7-6.7,9.2-10.9
					C64.5,138.6,64.4,133.8,65.4,128.8z"/>
				<path class="st18" d="M48.7,133.5c-2.4,4.3-3.9,8.8-4.9,13.4c4.3-1.7,8.5-4,12.3-7.1c0.7-4.5,2.3-9.1,4.9-13.5
					C57.2,129.7,53,132,48.7,133.5z"/>
				<path class="st18" d="M75.2,87.7c-0.9-4.8-2.7-9.3-4.9-13.4c-2.2,4.1-4,8.5-4.9,13.4c2.3,3.9,4.1,8.4,4.9,13.5
					C71.1,96.1,72.8,91.6,75.2,87.7z"/>
				<path class="st18" d="M75.1,102c2.5-4.5,5.7-8.1,9.2-11c0.8-4.8,0.7-9.6,0-14.2c-3.5,3.1-6.7,6.7-9.2,10.9
					C76,92.2,76.1,97,75.1,102z"/>
				<path class="st18" d="M91.8,97.3c2.4-4.3,3.9-8.8,4.8-13.4c-4.3,1.7-8.5,4-12.3,7.1c-0.7,4.5-2.3,9.1-4.9,13.5
					C83.3,101.1,87.5,98.8,91.8,97.3z"/>
			</g>
		</g>
	</g>
</g>
</svg>
