<?xml version="1.0" encoding="utf-8"?>
<!-- Generator: Adobe Illustrator 24.1.2, SVG Export Plug-In . SVG Version: 6.00 Build 0)  -->
<svg version="1.1" id="Layer_1" xmlns="http://www.w3.org/2000/svg" xmlns:xlink="http://www.w3.org/1999/xlink" x="0px" y="0px"
	 viewBox="0 0 240.4862976 130.569397" style="enable-background:new 0 0 240.4862976 130.569397;" xml:space="preserve">
<style type="text/css">
	.st0{fill:#FFFFFF;}
	.st1{fill:#F7932A;}
	.st2{fill:url(#SVGID_1_);}
	.st3{fill:url(#SVGID_2_);}
	.st4{fill:#EF4029;}
	.st5{fill:#EE7623;}
</style>
<g>
	<g>
		<g>
			<path class="st0" d="M59.2138977,83.7842026H38.169899c-16.2870922,0-29.5370922-13.2490005-29.5370922-29.5342026V0H0v54.25
				c0,21.0458984,17.1229992,38.1669998,38.169899,38.1669998h45.1903992"/>
			<path class="st0" d="M83.8602982,92.4169998v-0.0127029c-0.1669998,0.0020065-0.3320007,0.0127029-0.5,0.0127029H83.8602982z"/>
			<path class="st0" d="M83.3602982,83.7842026c-16.2871017,0-29.5370979-13.2490005-29.5370979-29.5342026
				c0-16.2890015,13.2499962-29.5400009,29.5370979-29.5400009c7.6797028,0,14.6817017,2.9478016,19.940506,7.7691002
				c-4.3076096,6.1800995-6.842804,13.6831017-6.842804,21.7709007c0,8.0859985,2.5351944,15.5878983,6.8418045,21.7666016
				C98.0419998,80.836998,91.0400009,83.7842026,83.3602982,83.7842026h0.5v8.6200943
				c9.660202-0.125,18.4687958-3.8485947,25.1337967-9.8993988c6.780304,6.1563034,15.7764053,9.9121017,25.6338043,9.9121017
				c11.8827972,0,22.5137024-5.4598999,29.5195007-14.0018997v35.2705002h8.6328888l-0.0234833-21.2686005h29.5605927
				c21.0458984,0,38.1688995-17.1211014,38.1688995-38.1669998c0-21.0488014-17.1230011-38.1733017-38.1688995-38.1733017
				c-14.6952972,0-27.4687958,8.3530006-33.8457031,20.5562c-6.3759918-12.2031994-19.1493988-20.5562-33.8437958-20.5562
				c-9.857399,0-18.8535004,3.7567997-25.6338043,9.913599c-6.7801971-6.1567993-15.7762909-9.913599-25.6337967-9.913599
				c-21.0467987,0-38.169899,17.1244984-38.169899,38.1733017c0,11.892601,5.4696999,22.5292969,14.0234985,29.5342026
				l19.243103,8.0927963l3.9160004,0.4580002c0,0,2,0.2929993,2.5-0.2910004l0.6669998-7.875l-0.9580002-0.2919998
				L83.3602982,83.7842026z M105.0908051,54.25c0-5.3286018,1.4247894-10.3270988,3.9032898-14.6478996
				c2.4785004,4.3208008,3.9033051,9.3192978,3.9033051,14.6478996c0,5.3272018-1.4248047,10.3252029-3.9033051,14.6445999
				C106.5155945,64.5752029,105.0908051,59.5772018,105.0908051,54.25z M134.6278992,83.7842026
				c-7.6797028,0-14.6816025-2.9472046-19.9403992-7.767601c4.3065948-6.1787033,6.8417969-13.680603,6.8417969-21.7666016
				c0-8.0877991-2.535202-15.5903015-6.8417969-21.7705002c5.2587967-4.8211994,12.2606964-7.7695007,19.9403992-7.7695007
				c16.1699066,0,29.3407898,13.0645027,29.5282898,29.1934013c-0.0009003,0.1161995-0.0087891,0.2304001-0.0087891,0.3465996
				v0.6924019C163.7763977,70.9083023,150.6815948,83.7842026,134.6278992,83.7842026z M202.3173981,83.7842026h-29.5605927
				l0.0234833-28.8584023c0.0039062-0.2256012,0.0166016-0.4491997,0.0166016-0.6758003
				c0-0.1097984-0.006897-0.217701-0.0087891-0.3270988c0.1777039-16.1382027,13.3515015-29.2129021,29.5292969-29.2129021
				c16.2861023,0,29.5370941,13.2509995,29.5370941,29.5400009
				C231.8544922,70.535202,218.6035004,83.7842026,202.3173981,83.7842026z"/>
		</g>
		<g>
			<path class="st1" d="M83.3602982,16.0767002c-21.0467987,0-38.169899,17.1244984-38.169899,38.1733017
				c0,21.0458984,17.1231003,38.1669998,38.169899,38.1669998c21.0468979,0,38.1689987-17.1211014,38.1689987-38.1669998
				C121.5292969,33.2011986,104.407196,16.0767002,83.3602982,16.0767002z M83.3602982,83.7842026
				c-16.2871017,0-29.5370979-13.2490005-29.5370979-29.5342026c0-16.2890015,13.2499962-29.5400009,29.5370979-29.5400009
				S112.8973999,37.9609985,112.8973999,54.25C112.8973999,70.535202,99.6473999,83.7842026,83.3602982,83.7842026z"/>
			<linearGradient id="SVGID_1_" gradientUnits="userSpaceOnUse" x1="0" y1="46.2084999" x2="83.8602982" y2="46.2084999">
				<stop  offset="0" style="stop-color:#EF4029"/>
				<stop  offset="1" style="stop-color:#F7932A"/>
			</linearGradient>
			<path class="st2" d="M83.8602982,83.7842026H38.169899c-16.2870922,0-29.5370922-13.2490005-29.5370922-29.5342026V0H0v54.25
				c0,21.0458984,17.1229992,38.1669998,38.169899,38.1669998h45.6903992V83.7842026z"/>
			
				<linearGradient id="SVGID_2_" gradientUnits="userSpaceOnUse" x1="96.4580002" y1="54.2468491" x2="172.7968903" y2="54.2468491">
				<stop  offset="0.0122699" style="stop-color:#F7932A"/>
				<stop  offset="1" style="stop-color:#EF4029"/>
			</linearGradient>
			<path class="st3" d="M134.6278992,16.0767002c-21.0469055,0-38.169899,17.1244984-38.169899,38.1733017
				c0,21.0458984,17.1229935,38.1669998,38.169899,38.1669998c21.0459137,0,38.1689911-17.1211014,38.1689911-38.1669998
				C172.7968903,33.2011986,155.6738129,16.0767002,134.6278992,16.0767002z M134.6278992,83.7842026
				c-16.2870941,0-29.5370941-13.2490005-29.5370941-29.5342026c0-16.2890015,13.25-29.5400009,29.5370941-29.5400009
				c16.2861938,0,29.5370941,13.2509995,29.5370941,29.5400009C164.1649933,70.535202,150.914093,83.7842026,134.6278992,83.7842026
				z"/>
			<path class="st4" d="M172.7802887,54.25c0-16.2890015,13.25-29.5400009,29.5371094-29.5400009
				c16.2861023,0,29.5370941,13.2509995,29.5370941,29.5400009c0,16.285202-13.2509918,29.5342026-29.5370941,29.5342026
				h-29.5605927L172.7802887,54.25z M172.7568054,92.4169998h29.5605927c21.0458984,0,38.1688995-17.1211014,38.1688995-38.1669998
				c0-21.0488014-17.1230011-38.1733017-38.1688995-38.1733017c-21.0469055,0-38.1699982,17.1244984-38.1699982,38.1733017
				v59.4356003h8.6328888L172.7568054,92.4169998z"/>
		</g>
	</g>
	<g>
		<path class="st4" d="M228.2352905,87.3974991h1.9317017c0.0615082,0,0.2792969-0.0243988,0.6640015-0.0243988v0.5028992
			c-0.3789062-0.0127029-0.6083984-0.0253983-0.6708984-0.0253983h-0.6396027v1.6894989
			c0,0.8192978,0.0068054,1.5458984,0.0381012,2.1797028c-0.1309052-0.0244064-0.260788-0.0371017-0.3730927-0.0371017
			c-0.1054077,0-0.2176971,0.0126953-0.3348999,0.0371017c0.0243988-0.6582031,0.0370941-1.3848038,0.0370941-2.1797028v-1.6894989
			h-0.6524048c-0.0624847,0-0.2850952,0.0126953-0.6640015,0.0253983v-0.4970016
			C227.9559937,87.3789978,228.1728058,87.3974991,228.2352905,87.3974991z"/>
		<path class="st4" d="M232.7020874,87.3916016c0.155304,0,0.3174133-0.0126038,0.4786072-0.0312042
			c0.0742035,0.297905,0.1678925,0.5957031,0.273407,0.8818054l0.8944855,2.4404984l0.9190063-2.4404984
			c0.0800018-0.2177048,0.1737976-0.5097046,0.273407-0.8818054c0.1669922,0.0244064,0.3290863,0.0371017,0.4901886,0.0371017
			c0.155304,0,0.3106232-0.0126953,0.4532013-0.0371017c0.055603,1.1611023,0.1679077,2.6143036,0.3545074,4.3594055
			c-0.1054993-0.0244064-0.217804-0.0371017-0.3290863-0.0371017c-0.1124115,0-0.2305145,0.0126953-0.3477173,0.0371017
			c-0.0068054-0.3291016-0.0195007-0.6338043-0.0381012-0.9190063l-0.1797028-2.9130936l-1.3846893,3.8134995H234.125
			l-1.3604126-3.8252029l-0.1678925,2.9247971c-0.0126953,0.1797028-0.0186005,0.4844055-0.0312958,0.9190063
			c-0.1172028-0.0244064-0.2295074-0.0371017-0.3475952-0.0371017c-0.1114044,0-0.2168121,0.0126953-0.3291168,0.0371017
			c0.1738129-1.8252029,0.2988129-3.285202,0.3476105-4.3594055
			C232.3916016,87.3789978,232.5468903,87.3916016,232.7020874,87.3916016z"/>
	</g>
	<g>
		<path class="st5" d="M20.2129002,103.9462967c-1.039093-0.7391968-2.0170937-1.1141968-3.0088005-1.1141968
			c-2.3671999,0-4.1176996,1.9003983-4.1176996,4.9092026c0,2.9413986,1.7504997,4.794899,4.2538996,4.794899
			c1.1903992,0,2.2157993-0.4043045,3.0225067-1.1631012v1.5810013c-1.0601063,0.5732956-2.1469994,0.8203964-3.3775063,0.8203964
			c-1.5594931,0-2.8999004-0.5410995-3.9467001-1.5458984c-1.1827002-1.1436005-1.7294998-2.5507965-1.7294998-4.3496017
			c0-3.7061005,2.4471998-6.2988968,5.8261003-6.2988968c1.060606,0,2.0522995,0.2802963,3.0776997,0.8202972V103.9462967z"/>
		<path class="st5" d="M33.4120979,103.1592026c1.189003,1.1631012,1.8457108,2.7363968,1.8457108,4.5146942
			c0,1.7783051-0.6567078,3.3779068-1.8457108,4.5195007c-1.0604973,1.0264053-2.4896984,1.5947037-4.0355988,1.5947037
			c-1.5454998,0-2.9673004-0.5682983-4.0279007-1.5947037c-1.1967907-1.1552963-1.8329983-2.7411957-1.8329983-4.5195007
			c0-1.7782974,0.6362076-3.351593,1.8329983-4.5146942c1.0606003-1.0254059,2.4688015-1.5791016,4.0279007-1.5791016
			C30.9424,101.580101,32.3516006,102.1337967,33.4120979,103.1592026z M25.3148994,107.6738968
			c0,2.9736023,1.6821995,4.8623047,4.0615997,4.8623047c2.3934994,0,4.0893097-1.8887024,4.0893097-4.8623047
			c0-2.9550934-1.7231102-4.8495941-4.0893097-4.8495941C27.0107002,102.8243027,25.3148994,104.7188034,25.3148994,107.6738968z"/>
		<path class="st5" d="M40.25,101.9151001c0.3148994,0,0.6977005-0.0547028,1.1215973-0.1358032l6.0800018,9.6290054
			c0-3.4620056-0.0472984-6.6894989-0.171299-9.6290054c0.3685989,0.0674057,0.6903992,0.1221008,0.9580002,0.1221008
			c0.2738991,0,0.5737-0.0546951,0.8890991-0.1221008c-0.0488014,1.927803-0.0825005,3.9112015-0.0825005,5.9346008
			c0,1.9776001,0.033699,3.9268036,0.0825005,5.8613052c-0.3964996-0.068306-0.780201-0.1162033-1.1079025-0.1162033
			c-0.3016891,0-0.6366882,0.0478973-1.0267982,0.1162033l-6.2636986-9.9091034
			c-0.0137024,1.2167969-0.0137024,2.3662033-0.0137024,3.4598999c0,2.517601,0.0337029,4.6651001,0.1161995,6.4492035
			c-0.3353996-0.068306-0.6351967-0.1162033-0.9090996-0.1162033c-0.2803001,0-0.5888977,0.0478973-0.9365921,0.1162033
			c0.0810928-1.8125,0.1025925-3.8153992,0.1025925-5.9697037c0-2.080101-0.0351982-4.0223999-0.1025925-5.8262024
			C39.4706993,101.8603973,39.8945007,101.9151001,40.25,101.9151001z"/>
		<path class="st5" d="M58.9062004,113.5752029c-0.4575005-0.068306-0.9028015-0.1025009-1.3818016-0.1025009
			c-0.3964996,0-0.8540001,0.0341949-1.3129997,0.1025009c-0.7178001-2.5771027-2.0443993-6.4902039-3.9926987-11.7959061
			c0.3412971,0.0674057,0.6699982,0.1026001,0.9916992,0.1026001c0.3349991,0,0.6489983-0.0351944,0.9776001-0.1026001
			c0.1503983,0.7237015,0.3139,1.3526001,0.5326996,2.003006l2.8588982,8.4462967l2.8036995-8.4462967
			c0.2324028-0.7256012,0.4375114-1.3819046,0.5537033-2.003006c0.3212967,0.0674057,0.6366997,0.1026001,0.9579964,0.1026001
			c0.3350029,0,0.6704025-0.0351944,1.0054016-0.1026001C61.0394974,106.8798981,59.7128983,110.7988968,58.9062004,113.5752029z"/>
		<path class="st5" d="M73.9648056,103.1728973c-1.0053101-0.0468979-3.103508-0.0673981-6.310997-0.0673981v3.6240005
			c1.1415863,0,2.1117859,0.0205002,2.9608917,0.0205002c1.6407013,0,2.6801987-0.0205002,3.1049957-0.0672989v1.3602982
			c-0.9437943-0.0477982-2.0658875-0.0615005-3.378891-0.0615005c-0.8203049,0-1.7095032,0-2.6869965,0.0137024v4.1981964
			c1.2440872,0,2.3168869,0.0214996,3.2196884,0.0214996c1.5669022,0,2.626503-0.0214996,3.1817017-0.0556946v1.375
			c-0.7730026-0.0478058-2.2910995-0.0752029-4.5346985-0.0752029c-1.0601044,0-2.2710037,0-3.6314011,0.0137024
			c0.0811005-1.8867035,0.1163025-3.842804,0.1163025-5.9092026c0-2.0223999-0.035202-3.9247971-0.0962067-5.7031021
			c1.4233017,0,2.6674042,0.0214996,3.7417068,0.0214996c2.1532974,0,3.596199-0.0214996,4.3139038-0.069397V103.1728973z"/>
		<path class="st5" d="M79.3070984,101.9151001c0.3202972,0,0.7041016-0.0547028,1.1278992-0.1358032l6.080101,9.6290054
			c0-3.4620056-0.0487976-6.6894989-0.171402-9.6290054c0.3692017,0.0674057,0.6904984,0.1221008,0.956604,0.1221008
			c0.2738953,0,0.5751953-0.0546951,0.8890991-0.1221008c-0.0410004,1.927803-0.0810013,3.9112015-0.0810013,5.9346008
			c0,1.9776001,0.0400009,3.9268036,0.0810013,5.8613052c-0.3964005-0.068306-0.7865906-0.1162033-1.1063995-0.1162033
			c-0.3013,0-0.6367035,0.0478973-1.0269012,0.1162033l-6.2636032-9.9091034
			c-0.0136871,1.2167969-0.0136871,2.3662033-0.0136871,3.4598999c0,2.517601,0.0336914,4.6651001,0.116188,6.4492035
			c-0.3353958-0.068306-0.6366959-0.1162033-0.9105988-0.1162033c-0.2862015,0-0.5874023,0.0478973-0.9365921,0.1162033
			c0.0825958-1.8125,0.1025925-3.8153992,0.1025925-5.9697037c0-2.080101-0.033699-4.0223999-0.1025925-5.8262024
			C78.5341949,101.8603973,78.9570007,101.9151001,79.3070984,101.9151001z"/>
		<path class="st5" d="M93.5790939,101.881897c0.2866058,0,0.6294022-0.0351944,0.9980011-0.1026001
			c-0.0809937,1.7089996-0.1088943,3.6788025-0.1088943,5.8945999c0,1.818306,0,3.7812042,0.1088943,5.9013062
			c-0.3548965-0.068306-0.6903992-0.1025009-0.9980011-0.1025009c-0.2812881,0-0.6010971,0.0341949-0.9164963,0.1025009
			c0.0673981-1.7841034,0.0952072-3.7480011,0.0952072-5.9013062c0-2.0927963-0.0278091-4.0625-0.0952072-5.8945999
			C92.9974976,101.8467026,93.3129959,101.881897,93.5790939,101.881897z"/>
		<path class="st5" d="M107.0648956,103.1728973c-1.0116959-0.0468979-3.1049957-0.0673981-6.3188019-0.0673981v3.6240005
			c1.1489029,0,2.119606,0.0205002,2.9687119,0.0205002c1.6406937,0,2.6796951-0.0205002,3.1034927-0.0672989v1.3602982
			c-0.9428024-0.0477982-2.0643997-0.0615005-3.3774033-0.0615005c-0.8218002,0-1.7094955,0-2.6948013,0.0137024v4.1981964
			c1.2441025,0,2.3247147,0.0214996,3.2275009,0.0214996c1.5733032,0,2.6259995-0.0214996,3.1738052-0.0556946v1.375
			c-0.7665939-0.0478058-2.2845917-0.0752029-4.5283051-0.0752029c-1.0526962,0-2.2695007,0-3.6312866,0.0137024
			c0.0897903-1.8867035,0.117691-3.842804,0.117691-5.9092026c0-2.0223999-0.0279007-3.9247971-0.0966949-5.7031021
			c1.4218903,0,2.6674957,0.0214996,3.7480011,0.0214996c2.1470032,0,3.5839996-0.0214996,4.3080902-0.069397V103.1728973z"/>
		<path class="st5" d="M112.4130936,101.9151001c0.3139038,0,0.6977158-0.0547028,1.1206055-0.1358032l6.0731964,9.6290054
			c0-3.4620056-0.0410004-6.6894989-0.1630859-9.6290054c0.368187,0.0674057,0.6962891,0.1221008,0.9560852,0.1221008
			c0.2739105,0,0.5746994-0.0546951,0.8892059-0.1221008c-0.0411072,1.927803-0.0820999,3.9112015-0.0820999,5.9346008
			c0,1.9776001,0.0409927,3.9268036,0.0820999,5.8613052c-0.3965073-0.068306-0.7925034-0.1162033-1.1080017-0.1162033
			c-0.2998047,0-0.6288986,0.0478973-1.0112,0.1162033l-6.278801-9.9091034
			c-0.0127029,1.2167969-0.0127029,2.3662033-0.0127029,3.4598999c0,2.517601,0.0400009,4.6651001,0.1226044,6.4492035
			c-0.342804-0.068306-0.642601-0.1162033-0.9165039-0.1162033c-0.2740021,0-0.574295,0.0478973-0.9291992,0.1162033
			c0.0810013-1.8125,0.0951996-3.8153992,0.0951996-5.9697037c0-2.080101-0.0414963-4.0223999-0.0951996-5.8262024
			C111.6328049,101.8603973,112.0565948,101.9151001,112.4130936,101.9151001z"/>
		<path class="st5" d="M126.5819931,101.881897h5.2246017c0.1641083,0,0.7539062-0.069397,1.7929993-0.069397v1.3603973
			c-1.0253906-0.0410004-1.6405945-0.0673981-1.8065948-0.0673981h-1.7364044v4.5683975
			c0,2.2158051,0.0137024,4.1855011,0.1094055,5.9013062c-0.3554993-0.068306-0.710907-0.1025009-1.0117035-0.1025009
			c-0.2870941,0-0.5879059,0.0341949-0.9024048,0.1025009c0.0684052-1.7841034,0.0957031-3.7480011,0.0957031-5.9013062v-4.5683975
			h-1.7656021c-0.1620941,0-0.7655945,0.0263977-1.7909927,0.0673981v-1.339798
			C125.8319931,101.8330994,126.419899,101.881897,126.5819931,101.881897z"/>
		<path class="st5" d="M138.1952972,101.8603973c0.2597961,0,0.5469055-0.027298,0.8339996-0.0811005
			c-0.0684052,1.080101-0.0957031,2.003006-0.0957031,2.7754059v7.6386948c1.0254059,0,1.9160004,0.0214996,2.6660004,0.0214996
			c1.5332184,0,2.5312195-0.0214996,3.0371094-0.0692978v1.4091034c-0.6016083-0.068306-2.2285004-0.0820007-4.9238129-0.0820007
			h-2.5839996c0.0820007-1.7509995,0.121109-3.7128983,0.121109-5.9092026c0-2.1054001-0.0137024-4.0342026-0.0820007-5.7842026
			C137.539093,101.8330994,137.8652039,101.8603973,138.1952972,101.8603973z"/>
		<path class="st5" d="M147.5233917,101.881897c0.3418121,0,0.683609-0.0214996,1.0254211-0.1026001
			c0.0683899,0.2725067,0.9570007,2.3047028,2.8847809,6.0313034c1.9707031-3.842804,2.9004059-5.8682022,2.9004059-6.0313034
			c0.3300934,0.0811005,0.6698914,0.1026001,1.027298,0.1026001c0.3280945,0,0.6817017-0.0214996,1.039093-0.1026001
			c-0.535202,0.9981003-0.972702,1.8038025-1.3261871,2.4883041l-2.7090149,5.2382965
			c0,1.4092026-0.0135956,2.285202-0.0135956,2.5849991c0,0.2949066,0.0135956,0.7802048,0.0410004,1.4638062
			c-0.316391-0.068306-0.628891-0.0820007-0.9589996-0.0820007c-0.3125,0-0.628891,0.0136948-0.941391,0.0820007
			c0.0389862-0.5888062,0.0546875-1.1621017,0.0546875-1.7168045c0-0.5536957-0.0157013-1.3192978-0.0273895-2.3320007
			l-2.7089996-5.2382965c-0.4237976-0.8202972-0.8476105-1.6406021-1.3125-2.4883041
			C146.851593,101.8603973,147.1952972,101.881897,147.5233917,101.881897z"/>
		<path class="st5" d="M65.4574966,118.8759995c0.410202,0,0.8481979-0.027298,1.2856979-0.0967026
			c0.8891068,2.8320999,2.2846146,6.7842026,4.1992035,11.7901001c-0.3276978-0.0683899-0.6704025-0.0811005-0.983902-0.0811005
			c-0.301796,0-0.6093979,0.0127106-0.9106903,0.0811005c-0.0810013-0.410202-0.4990005-1.7294922-1.3051071-3.9804993h-4.5684013
			c-0.7465973,2.1338043-1.1968002,3.4618988-1.3129997,3.9804993c-0.3013-0.0683899-0.6224899-0.0811005-0.9442978-0.0811005
			c-0.3013,0-0.6226006,0.0127106-0.9575005,0.0811005c1.3129005-3.4257965,2.7773094-7.3437958,4.1991997-11.7901001
			C64.596199,118.8487015,65.0199966,118.8759995,65.4574966,118.8759995z M63.5708084,125.4141006h3.7953873l-1.8945007-5.3213043
			L63.5708084,125.4141006z"/>
		<path class="st5" d="M82.4994965,118.8623962c0.4179993,0,0.8554993-0.0351944,1.2871017-0.0830994
			c0.205101,0.8067017,0.4638977,1.615303,0.7451019,2.3799057l2.4135971,6.5995941l2.4897003-6.5995941
			c0.218811-0.5879059,0.4717026-1.3740005,0.7378082-2.3799057c0.4516907,0.0694046,0.8891907,0.0967026,1.3266907,0.0967026
			c0.4243088,0,0.8418045-0.027298,1.2304993-0.0967026c0.1512985,3.1397018,0.4531021,7.0723038,0.9580002,11.7901001
			c-0.2875977-0.0683899-0.5878983-0.1026001-0.8891907-0.1026001c-0.3076096,0-0.6289062,0.0342102-0.9438095,0.1026001
			c-0.0126953-0.8887024-0.0478973-1.7089996-0.095192-2.4893036l-0.4927063-7.878891l-3.7465973,10.3134918h-1.1768036
			l-3.6800995-10.3388977l-0.4502029,7.9042969c-0.0273972,0.4922028-0.0551987,1.3125-0.0825882,2.4893036
			c-0.3212051-0.0683899-0.6225052-0.1026001-0.9443054-0.1026001c-0.2998047,0-0.5874023,0.0342102-0.8890991,0.1026001
			c0.4725952-4.9365005,0.8080978-8.8896942,0.9442978-11.7901001
			C81.6591949,118.8272018,82.0756989,118.8623962,82.4994965,118.8623962z"/>
		<path class="st5" d="M101.6488953,118.8759995c0.410202,0,0.847702-0.027298,1.2857056-0.0967026
			c0.8890991,2.8320999,2.2832031,6.7842026,4.1992035,11.7901001c-0.3291092-0.0683899-0.6704102-0.0811005-0.9859085-0.0811005
			c-0.2997971,0-0.6009979,0.0127106-0.9028015,0.0811005c-0.094696-0.410202-0.5048981-1.7294922-1.3129959-3.9804993h-4.5679016
			c-0.7455978,2.1338043-1.1893921,3.4618988-1.3128967,3.9804993c-0.3003006-0.0683899-0.6216049-0.0811005-0.9444046-0.0811005
			c-0.3003006,0-0.6151962,0.0127106-0.9564972,0.0811005c1.3129959-3.4257965,2.7759018-7.3437958,4.1991959-11.7901001
			C100.7870941,118.8487015,101.2113953,118.8759995,101.6488953,118.8759995z M99.7606964,125.4141006h3.802803
			l-1.9009018-5.3213043L99.7606964,125.4141006z"/>
		<path class="st5" d="M115.7221985,118.7792969c2.339798,0,3.6390991,1.205101,3.6390991,3.0225067
			c0,1.7509995-1.2031021,2.9003983-3.3652039,3.0507965l2.4624023,3.6307983
			c0.3960037,0.5957031,0.9028015,1.2929993,1.4902039,2.0859985c-0.4238052-0.0683899-0.778801-0.1161957-1.1352005-0.1161957
			c-0.2866898,0-0.6289062,0.0478058-0.9981003,0.1161957c-0.5752029-1.039093-0.9165039-1.6474915-1.0527039-1.8466949
			l-2.5312958-3.767601h-2.255806v2.8583984c0,0.5537033,0.0551071,1.4843979,0.108902,2.7558975
			c-0.3139954-0.0683899-0.6288986-0.1026001-0.9291992-0.1026001c-0.2740021,0-0.5751953,0.0342102-0.9301987,0.1026001
			c0.0673981-1.7089996,0.0810013-3.6923981,0.0810013-5.9638977c0-2.2021027-0.0136032-4.157196-0.0810013-5.8262024H115.7221985z
			 M111.9755936,123.7167969h3.0498047c1.7509995,0,2.6122971-0.5877991,2.6122971-1.8456955
			c0-1.2656021-0.8612976-1.8535004-2.5859985-1.8535004h-3.0761032V123.7167969z"/>
		<path class="st5" d="M124.1893997,118.8759995c0.2734985,0,0.6016006-0.027298,0.9434052-0.0967026
			c-0.0547104,1.7237015-0.0957108,3.7618027-0.0957108,6.0459061c1.9980011-2.2705002,3.679718-4.2812042,5.0742035-6.0459061
			c0.4375153,0.0694046,0.8067017,0.0967026,1.1504059,0.0967026c0.3125,0,0.6815948-0.027298,1.1073914-0.0967026
			c-0.8475952,0.8897018-1.339798,1.4776001-1.5448914,1.7100067l-2.2714996,2.5370941l2.6816864,4.8759995
			c0.5312042,0.9375076,1.0527039,1.8467026,1.5722046,2.6669998c-0.3983917-0.0683899-0.7382965-0.0811005-1.0957031-0.0811005
			c-0.3280792,0-0.6542969,0.0263977-1.0643921,0.0811005c-0.2891083-0.7588043-0.6856079-1.5448914-1.1366882-2.3867035
			l-2.1758118-4.0283966l-2.2969055,2.6123047c0.0410004,1.1982956,0.0684052,2.476593,0.0820007,3.8027954
			c-0.3280945-0.0683899-0.6288986-0.1026001-0.9296951-0.1026001c-0.300705,0-0.6015015,0.0342102-0.9160004,0.1026001
			c0.0820999-1.7978973,0.1094055-3.7616959,0.1094055-5.8945007c0-2.1542969-0.0410004-4.1308975-0.1094055-5.8955994
			C123.6151962,118.8487015,123.9160004,118.8759995,124.1893997,118.8759995z"/>
		<path class="st5" d="M144.0214996,120.1757965c-1.0116882-0.0555954-3.1035004-0.0692978-6.3184052-0.0692978v3.6240005
			c1.1484985,0,2.1192017,0.0214996,2.9551086,0.0214996c1.6406097,0,2.6933899-0.0214996,3.1035004-0.0692978v1.3612976
			c-0.9297028-0.0536957-2.0644073-0.0683975-3.3652039-0.0683975c-0.8339996,0-1.7226868,0-2.6934052,0.0147018v4.197197
			c1.2442017,0,2.3106079,0.0137024,3.2266083,0.0137024c1.5605011,0,2.6132965-0.0137024,3.1737976-0.0469055v1.381897
			c-0.7792969-0.0478973-2.285202-0.0829926-4.5410004-0.0829926c-1.0526886,0-2.2559052,0-3.625,0.0135956
			c0.0820007-1.8807983,0.125-3.8495941,0.125-5.9081955c0-2.0175018-0.0429993-3.9188995-0.1112976-5.6962051
			c1.4375,0,2.6816101,0.0136032,3.7480011,0.0136032c2.1601868,0,3.5976868-0.0136032,4.3222961-0.0682983V120.1757965z"/>
		<path class="st5" d="M148.9315948,118.8759995h5.2245941c0.1641083,0,0.7676239-0.0682983,1.7930145-0.0682983v1.3680954
			c-1.0137024-0.0419998-1.6426086-0.0692978-1.8066101-0.0692978h-1.722702v4.5683975
			c0,2.2158051,0.0137024,4.1855011,0.0957031,5.8945007c-0.3554993-0.0683899-0.6972961-0.1026001-1.0117035-0.1026001
			c-0.2870789,0-0.5878906,0.0342102-0.9042969,0.1026001c0.0702972-1.7782898,0.097702-3.7470932,0.097702-5.8945007v-4.5683975
			h-1.7657013c-0.1640015,0-0.7655945,0.027298-1.7910004,0.0692978v-1.3485947
			C148.1797028,118.8272018,148.7675934,118.8759995,148.9315948,118.8759995z"/>
	</g>
</g>
<g>
</g>
<g>
</g>
<g>
</g>
<g>
</g>
<g>
</g>
<g>
</g>
</svg>
