<?xml version="1.0" encoding="utf-8"?>
<!-- Generator: Adobe Illustrator 24.1.0, SVG Export Plug-In . SVG Version: 6.00 Build 0)  -->
<svg version="1.1" id="Layer_1" xmlns="http://www.w3.org/2000/svg" xmlns:xlink="http://www.w3.org/1999/xlink" x="0px" y="0px"
	 viewBox="0 0 244.19 54.24" style="enable-background:new 0 0 244.19 54.24;" xml:space="preserve">
<style type="text/css">
	.st0{fill:#A50000;}
	.st1{fill:#C0D62F;}
	.st2{fill:#C8161B;}
	.st3{fill:#FFFFFF;}
</style>
<g>
	<path class="st0" d="M2.31,7.3L2.31,7.3L0,7.67l0.55,2.28c0.02,0.09,2.02,8.57,2.02,17.07c0,8.47-2,17.08-2.02,17.16l-0.53,2.25
		l2.28,0.38c0.45,0.08,45.44,7.42,119.92,7.42c74.22,0,119.25-7.34,119.69-7.42l2.25-0.38l-0.49-2.23
		c-0.02-0.09-1.89-8.7-1.89-17.18c0-8.57,1.89-17.14,1.91-17.23l0.5-2.25l-2.28-0.36C241.45,7.13,195.09,0,122.22,0
		C48.52,0.14,2.77,7.23,2.31,7.3L2.31,7.3z"/>
	<path class="st1" d="M2.54,8.73L1.77,8.86l0.18,0.76c0.02,0.08,2.06,8.7,2.06,17.41c0,8.67-2.04,17.41-2.06,17.5l-0.18,0.75
		l0.76,0.12c0.44,0.07,45.16,7.4,119.68,7.4c74.25,0,119.01-7.33,119.46-7.4l0.75-0.12l-0.16-0.74c-0.02-0.09-1.92-8.83-1.92-17.49
		c0-8.73,1.92-17.46,1.94-17.54l0.17-0.75l-0.76-0.12c-0.46-0.07-46.63-7.18-119.47-7.18C48.65,1.59,2.99,8.66,2.54,8.73L2.54,8.73z
		 M122.22,2.88c67.75,0,112.35,6.16,118.5,7.05c-0.46,2.31-1.82,9.69-1.82,17.1c0,7.36,1.35,14.75,1.8,17.05
		c-6.02,0.93-49.47,7.26-118.48,7.26c-69.23,0-112.65-6.33-118.7-7.26c0.49-2.31,1.94-9.7,1.94-17.07c0-7.38-1.43-14.67-1.93-16.98
		C9.67,9.14,53.86,3.01,122.22,2.88L122.22,2.88z"/>
	<path class="st2" d="M5.49,11.43c0.62,3.24,1.62,9.4,1.62,15.59c0,6.19-1,12.43-1.62,15.69c9.7,1.41,52.16,6.99,116.73,6.99
		c64.39,0,106.88-5.59,116.54-6.99c-0.58-3.25-1.51-9.49-1.51-15.67c0-6.22,0.95-12.45,1.53-15.7c-9.87-1.36-53.29-6.8-116.55-6.8
		C58.44,4.66,15.34,10.07,5.49,11.43L5.49,11.43z"/>
	<path class="st0" d="M88.14,15.82H81.3c0,0,0,7.78,0,9.83c-2.1,0-10.89,0.01-12.99,0.01c0-2.06,0-9.84,0-9.84h-8.24
		c0,0,0,7.76,0,9.83c-1.96-0.04-3.88-0.17-4.35-0.21l-2.31-0.26v3.46l0,5.05l2.13-0.18c0.44-0.03,2.46-0.17,4.52-0.22
		c0,2.07,0,9.71,0,9.71h8.24c0,0,0-7.69,0-9.75c2.1,0,10.9,0.01,12.99,0.01c0,2.05,0,9.74,0,9.74h8.24V15.82H88.14L88.14,15.82z"/>
	<path class="st0" d="M168.94,16.96l-1.02,0.29v7.92c1.99-0.74,6.28-1.59,9.99-1.76c0,2.49,0,19.48,0,19.48h8.24
		c0,0,0-16.99,0-19.48c3.73,0.04,6.5,0.56,10.24,1.72l-0.01-7.91l-1.06-0.26c-2.11-0.52-5.78-1.22-13.17-1.22
		C176.42,15.74,171.73,16.17,168.94,16.96L168.94,16.96z"/>
	<path class="st0" d="M137.78,17.05l-1.03,0.28l0,1.07c0,0,0,5.25,0,7.21c-1.72,0-6.47,0-6.47,0l0.01,7.53c0,0,4.75,0,6.47,0
		c0,1.96-0.01,8.2-0.01,8.2l1.05,0.28c0.79,0.21,5.09,1.26,12.92,1.26c8.03,0,11.74-0.93,12.96-1.24l1.18-0.29l0-1.1l-0.02-6.67
		l-2.57,0.67c-0.17,0.05-3.87,1.02-11.59,1.02c-2.09,0-3.99-0.06-5.68-0.18c0-0.79,0-1.14,0-1.96c0.57,0,1.16-0.01,1.16-0.01
		c4.06-0.02,9.62-0.05,12.09,0.2l0.03,0l2.08,0.11l-0.01-8.18l-2.33,0.09l-0.04,0c-3.13,0.3-8.7,0.27-12.38,0.24c0,0-0.35,0-0.6,0
		c0-0.86,0-1.25,0-2.07c1.43-0.1,3.41-0.2,5.93-0.2c8.9,0,14.06,1.55,14.06,1.55v-7.6l-1.22-0.31c-1.2-0.3-4.87-1.24-12.79-1.24
		C142.87,15.74,138.28,16.91,137.78,17.05L137.78,17.05z"/>
	<path class="st0" d="M200.64,16.69l-1.13,0.23v7.64l1.68-0.35c0.06-0.01,6.18-1.25,12.14-1.24c0.67,0,1.32,0.02,1.98,0.04
		c-4.29,3.2-15.8,11.76-15.8,11.76v6.57l1.05,0.26c0.21,0.05,5.09,1.26,13.28,1.29c6.25,0.01,12.45-1.2,12.71-1.25l1.13-0.22v-7.64
		l-1.68,0.35c-0.06,0.01-6.18,1.26-12.14,1.24c-0.67,0-1.32-0.03-1.98-0.04c4.29-3.19,15.8-11.76,15.8-11.76V17l-1.06-0.27
		c-0.2-0.05-5.1-1.26-13.28-1.28C207.1,15.42,200.9,16.64,200.64,16.69L200.64,16.69z"/>
	<path class="st0" d="M99.92,17.05l-1.03,0.28l0,1.07c0,0,0,5.25,0,7.21c-1.72,0-6.47,0-6.47,0l0.01,7.53c0,0,4.75,0,6.47,0
		c0,1.96-0.01,8.2-0.01,8.2l1.05,0.28c0.79,0.21,5.09,1.26,12.92,1.26c8.03,0,11.74-0.93,12.96-1.24l1.18-0.29v-1.1l-0.01-6.67
		l-2.57,0.67c-0.17,0.05-3.87,1.02-11.59,1.02c-2.09,0-3.99-0.06-5.68-0.18c0-0.79,0-1.14,0-1.96c0.58,0,1.16-0.01,1.16-0.01
		c4.06-0.02,9.62-0.05,12.09,0.2l0.03,0l2.08,0.11l-0.01-8.18l-2.33,0.09l-0.04,0c-3.13,0.3-8.7,0.27-12.38,0.24c0,0-0.35,0-0.6,0
		c0-0.86,0-1.25,0-2.07c1.43-0.1,3.41-0.2,5.93-0.2c8.9,0,14.06,1.55,14.06,1.55v-7.6l-1.22-0.31c-1.21-0.3-4.87-1.24-12.79-1.24
		C105.01,15.74,100.42,16.91,99.92,17.05L99.92,17.05z"/>
	<path class="st0" d="M23.28,17.05l-0.41,0.11l-1.05,0.27v15.88c0,0,17.46,0,19.87,0c0,0.83,0,1.18,0,1.97
		c-1.31,0.08-3.19,0.15-5.79,0.17c-7.03,0.04-11.55-1.02-11.61-1.03l-2.43-0.65l0.01,7.8l1.5,0.34c0.7,0.19,4.75,1.15,12.57,1.15
		c7.8,0,11.84-0.96,12.57-1.15l0.41-0.12l1.01-0.29V25.72c0,0-19.41,0-19.88,0c0-0.85,0-1.24,0-2.04c1.4-0.11,3.34-0.2,5.83-0.2
		c8.25,0,14.05,1.49,14.05,1.49l-0.01-7.56l-1.04-0.27c-0.2-0.05-4.88-1.26-13.01-1.26C29.82,15.87,25.4,16.48,23.28,17.05
		L23.28,17.05z"/>
	<path class="st3" d="M223.91,15.67c0,0-4.83-1.22-12.94-1.24c-6.19-0.02-12.44,1.22-12.44,1.22v4.78c0,0,6.24-1.29,12.43-1.27
		c2.23,0.01,4.22,0.1,5.93,0.25l-18.36,13.65v4.78c0,0,4.83,1.22,12.94,1.25c6.19,0.02,12.44-1.23,12.44-1.23v-4.78
		c0,0-6.24,1.29-12.43,1.27c-2.23-0.01-4.22-0.11-5.92-0.25l18.35-13.66V15.67L223.91,15.67z"/>
	<path class="st3" d="M192.51,15.9c-2.42-0.6-6.1-1.18-12.84-1.18c-5.94,0-10.34,0.46-12.83,1.17v4.92l0.74-0.25
		c1.22-0.4,4.8-0.91,9.26-1.03v19.53h5.44V19.54c4.59,0.12,8.38,0.72,9.52,1.04l0.71,0.22V15.9L192.51,15.9z"/>
	<path class="st3" d="M80.09,29.44v9.74h5.44V14.81h-5.44v9.84L64.3,24.65v-9.84h-5.44v9.84c-2.44,0.02-5.32-0.18-5.88-0.23
		l-0.78-0.09v1.89v3.52l0.61-0.05c0.64-0.05,3.56-0.24,6.04-0.24v9.73h5.44v-9.74H80.09L80.09,29.44z"/>
	<path class="st3" d="M161,15.97c-0.95-0.23-4.45-1.24-12.62-1.24c-8.16,0-12.65,1.22-12.81,1.26v8.61c-2.6,0-2.58,0-6.47,0v4.72
		c0,0,2.61,0,6.48,0l-0.02,8.53c0.16,0.04,4.4,1.22,12.57,1.22c8.17,0,11.79-0.99,12.74-1.23v-4.86l-0.83,0.21
		c-0.04,0.01-3.79,1.07-11.95,1.07c-3.25,0-5.57-0.15-7.08-0.29v-4.65c3.87,0,11.65-0.12,14.79,0.19l0.57,0.03v-5.24l-0.84,0.03
		c-3.81,0.37-10.85,0.25-14.52,0.24v-4.75c1.52-0.15,3.95-0.31,7.33-0.31c8.15,0,11.81,0.98,11.84,0.99l0.72,0.2l0.09,0.03V15.97
		L161,15.97z"/>
	<path class="st3" d="M123.14,15.97c-0.95-0.23-4.45-1.24-12.62-1.24c-8.17,0-12.65,1.22-12.81,1.26v8.61c-2.61,0-2.58,0-6.47,0
		v4.72c0,0,2.61,0,6.47,0l-0.02,8.53c0.16,0.04,4.39,1.22,12.56,1.22c8.17,0,11.79-0.99,12.74-1.23v-4.86l-0.82,0.21
		c-0.04,0.01-3.79,1.07-11.95,1.07c-3.25,0-5.57-0.15-7.08-0.29v-4.65c3.87,0,11.65-0.12,14.79,0.19l0.57,0.03v-5.24l-0.84,0.03
		c-3.81,0.37-10.85,0.25-14.52,0.24v-4.75c1.52-0.15,3.95-0.31,7.33-0.31c8.15,0,11.81,0.98,11.85,0.99l0.72,0.2l0.09,0.03V15.97
		L123.14,15.97z"/>
	<path class="st3" d="M40.64,34.11c-1.43,0.12-3.7,0.25-7.18,0.27c-7.27,0.03-11.9-1.06-11.94-1.07l-0.7-0.19l0,4.86l0.41,0.1
		c0.16,0.04,4.08,1.11,12.25,1.11c8.17,0,12.07-1.07,12.23-1.11l0.37-0.11V24.65c-8.48-0.01-18.98,0-19.88,0v-4.73
		c1.51-0.15,3.89-0.32,7.24-0.32c7.56,0,12.64,1.23,12.64,1.23v-4.82c0,0-4.61-1.21-12.66-1.21c-6.45,0-10.58,0.68-12.24,1.13
		l-0.42,0.11v13.4c0,0,11.01,0,19.87,0V34.11L40.64,34.11z"/>
	<g>
		<path class="st3" d="M227.39,40.31c0.07-0.17,0.18-0.32,0.31-0.44c0.13-0.13,0.28-0.22,0.45-0.3c0.17-0.07,0.35-0.11,0.55-0.11
			c0.19,0,0.38,0.04,0.54,0.11c0.17,0.07,0.32,0.17,0.45,0.3c0.13,0.13,0.23,0.27,0.3,0.44c0.08,0.17,0.11,0.35,0.11,0.55
			c0,0.2-0.04,0.39-0.11,0.56c-0.08,0.17-0.18,0.32-0.3,0.45c-0.13,0.13-0.28,0.23-0.45,0.29c-0.17,0.07-0.35,0.11-0.54,0.11
			c-0.19,0-0.38-0.04-0.55-0.11c-0.17-0.07-0.32-0.17-0.45-0.29c-0.13-0.13-0.23-0.28-0.31-0.45c-0.08-0.17-0.11-0.36-0.11-0.56
			C227.28,40.66,227.32,40.48,227.39,40.31z M227.62,41.34c0.06,0.15,0.14,0.27,0.24,0.38c0.1,0.11,0.23,0.19,0.37,0.25
			c0.14,0.06,0.3,0.09,0.46,0.09c0.16,0,0.32-0.03,0.46-0.09c0.14-0.06,0.26-0.15,0.37-0.25c0.1-0.11,0.19-0.23,0.24-0.38
			c0.06-0.15,0.09-0.31,0.09-0.48c0-0.17-0.03-0.32-0.09-0.47c-0.06-0.15-0.14-0.27-0.24-0.38c-0.1-0.11-0.23-0.19-0.37-0.25
			c-0.14-0.06-0.29-0.09-0.46-0.09c-0.17,0-0.32,0.03-0.46,0.09c-0.14,0.06-0.26,0.15-0.37,0.25c-0.1,0.11-0.19,0.23-0.24,0.38
			c-0.06,0.15-0.09,0.3-0.09,0.47C227.53,41.04,227.56,41.19,227.62,41.34z M228.78,40.05c0.19,0,0.34,0.04,0.43,0.12
			c0.09,0.08,0.14,0.2,0.14,0.35c0,0.15-0.04,0.26-0.12,0.33c-0.08,0.07-0.18,0.11-0.31,0.12l0.47,0.73h-0.27l-0.45-0.71h-0.27v0.71
			h-0.25v-1.64H228.78z M228.67,40.78c0.06,0,0.11,0,0.16-0.01c0.05,0,0.1-0.01,0.14-0.03c0.04-0.02,0.07-0.04,0.1-0.08
			c0.02-0.04,0.04-0.09,0.04-0.15c0-0.06-0.01-0.1-0.03-0.13c-0.02-0.03-0.05-0.06-0.08-0.08c-0.03-0.02-0.07-0.03-0.12-0.04
			c-0.04-0.01-0.09-0.01-0.13-0.01h-0.34v0.52H228.67z"/>
	</g>
</g>
</svg>
