<?xml version="1.0" encoding="utf-8"?>
<!-- Generator: Adobe Illustrator 24.1.2, SVG Export Plug-In . SVG Version: 6.00 Build 0)  -->
<svg version="1.1" id="Layer_1" xmlns="http://www.w3.org/2000/svg" xmlns:xlink="http://www.w3.org/1999/xlink" x="0px" y="0px"
	 viewBox="0 0 100.9273071 30.559" style="enable-background:new 0 0 100.9273071 30.559;" xml:space="preserve">
<style type="text/css">
	.st0{fill:#3E5170;}
	.st1{fill:#7BCB79;}
</style>
<g>
	<g>
		<path class="st0" d="M43.2269897,22.3925018l2.0449829-3.0139999c0.9869995,0.682003,2.0050049,1.269001,3.0540161,1.7630005
			c1.0499878,0.493,2.1489868,0.7400017,3.2969971,0.7400017c0.6099854,0,1.1479492-0.0760002,1.6149902-0.2290001
			c0.4660034-0.1520004,0.8609619-0.3499985,1.18396-0.5919991s0.5650024-0.5200005,0.7260132-0.8339996
			c0.1619873-0.314003,0.242981-0.6230011,0.242981-0.9290009c0-0.394001-0.1219482-0.7299995-0.3639526-1.0090027
			c-0.2420044-0.2779999-0.5650024-0.507-0.9680176-0.685997c-0.4039917-0.1790009-0.8800049-0.3320007-1.427002-0.4580002
			c-0.5469971-0.125-1.1170044-0.2420006-1.7089844-0.3490028c-0.394043-0.0719986-0.8519897-0.1569977-1.3720093-0.2559967
			c-0.5209961-0.0980034-1.059021-0.2330017-1.6149902-0.4040031c-0.5560303-0.1699982-1.1030273-0.3939972-1.6409912-0.6719971
			c-0.5380249-0.2779999-1.0230103-0.6280022-1.4530029-1.0500031c-0.4310303-0.4209976-0.7770386-0.9239998-1.0360107-1.507
			c-0.2609863-0.5830002-0.3909912-1.2689972-0.3909912-2.0589981c0-1.1479988,0.2329712-2.1030006,0.6999512-2.8660011
			c0.4660034-0.762001,1.0630493-1.362999,1.7900391-1.8030014c0.7260132-0.4389992,1.53302-0.7479973,2.4210205-0.9279976
			c0.8889771-0.1790009,1.7449951-0.269001,2.5709839-0.269001c0.8239746,0,1.5599976,0.0540009,2.2059937,0.1609993
			c0.6459961,0.1080017,1.2470093,0.2649994,1.8029785,0.4710007c0.5560303,0.2070007,1.098999,0.4669991,1.6279907,0.781002
			c0.5290527,0.3139992,1.098999,0.685997,1.7090454,1.1159973l-2.098999,2.9610023
			c-0.9330444-0.6459999-1.8300171-1.1389999-2.69104-1.4799995c-0.8609619-0.3409996-1.7669678-0.512001-2.7179565-0.512001
			c-0.322998,0-0.69104,0.0410004-1.1030273,0.1209984c-0.4130249,0.0810013-0.8029785,0.2110023-1.1710205,0.3910027
			c-0.367981,0.178997-0.6729736,0.4079971-0.914978,0.685997s-0.3629761,0.6140022-0.3629761,1.0090027
			s0.1430054,0.7269974,0.4299927,0.9959984s0.6549683,0.493,1.1040039,0.6720009
			c0.447998,0.1800003,0.9419556,0.3330002,1.4799805,0.4580002c0.5380249,0.1259995,1.0579834,0.2509995,1.5609741,0.3769989
			c0.3760376,0.0900002,0.8200073,0.1790009,1.3320312,0.269001c0.5109863,0.0900002,1.039978,0.2150002,1.5869751,0.3759995
			c0.5469971,0.1619987,1.0900269,0.3769989,1.6290283,0.6459999c0.5379639,0.269001,1.0169678,0.6150017,1.4389648,1.0359993
			c0.4219971,0.4220009,0.7630005,0.9420013,1.0230103,1.5610008s0.3900146,1.368,0.3900146,2.2470016
			c0,1.0229988-0.1790161,1.9109993-0.5380249,2.6639977c-0.3589478,0.7540016-0.8709717,1.3770027-1.5339966,1.8710022
			c-0.6640015,0.493-1.4530029,0.8649979-2.367981,1.1159973c-0.914978,0.2510033-1.9290161,0.3770027-3.0410156,0.3770027
			c-1.0230103,0-1.9240112-0.0760002-2.7049561-0.2290001c-0.7800293-0.1520004-1.493042-0.3580017-2.1390381-0.618
			c-0.6459961-0.2600021-1.2559814-0.5699997-1.8300171-0.9290009
			C44.4289551,23.2175026,43.8369751,22.8235054,43.2269897,22.3925018"/>
	</g>
	<polygon class="st0" points="78.1837158,8.6142006 72.5596924,8.6142006 72.5596924,24.9762001 68.791687,24.9762001 
		68.791687,8.6142006 63.140686,8.6142006 63.140686,5.2772026 78.1837158,5.2772026 	"/>
	<polygon class="st0" points="100.9273071,5.2762985 91.5492554,24.9762993 91.333252,24.9762993 81.9822998,5.2762985 
		86.1322632,5.2762985 91.4412842,16.702301 96.7503052,5.2762985 	"/>
	<g>
		<path class="st0" d="M24.2130127,30.559C15.7739868,30.559,0,15.2800026,0,15.2800026S15.7739868,0,24.2130127,0
			c8.4389954,0,15.2789917,6.8409996,15.2789917,15.2800026C39.4920044,23.7180023,32.6520081,30.559,24.2130127,30.559"/>
		<path class="st1" d="M35.4943237,13.5511017h-3.9550171h-6.4549866v3.4570007h6.4599915
			c-0.0800171,0.3059998-0.1809998,0.6049995-0.3049927,0.8990021c-0.348999,0.829998-0.822998,1.5629997-1.4210205,2.1989975
			c-0.5979919,0.6360016-1.2969971,1.1430016-2.0979919,1.5209999c-0.7999878,0.3780022-1.6600037,0.5670013-2.5799866,0.5670013
			c-0.9200134,0-1.7799988-0.1889992-2.5810242-0.5670013c-0.7999878-0.3779984-1.4989929-0.8849983-2.0979919-1.5209999
			c-0.5979919-0.6359978-1.0709839-1.3689995-1.42099-2.1989975c-0.3500061-0.8300018-0.5240173-1.7050018-0.5240173-2.6270027
			c0-0.9039993,0.1740112-1.7749977,0.5240173-2.6139984s0.822998-1.5719986,1.42099-2.1990013
			c0.598999-0.6259995,1.2980042-1.1289978,2.0979919-1.507c0.8010254-0.3779984,1.6610107-0.5669975,2.5810242-0.5669975
			c0.9199829,0,1.7799988,0.1889992,2.5799866,0.5669975c0.8009949,0.3780022,1.5,0.8810005,2.0979919,1.507
			c0.3880005,0.4070015,0.7230225,0.8590012,1.006012,1.3550034h4.2260132
			c-0.0740051-0.2090034-0.1550293-0.4170036-0.2440186-0.6220016c-0.553009-1.281002-1.3039856-2.3969994-2.2539978-3.3470001
			c-0.9500122-0.9490013-2.0599976-1.7000008-3.3330078-2.2540016c-1.2720032-0.5529976-2.6369934-0.8289986-4.0929871-0.8289986
			c-1.4379883,0-2.7929993,0.276001-4.0660095,0.8289986c-1.2720032,0.5540009-2.3829956,1.3050003-3.3320007,2.2540016
			c-0.9499817,0.9500008-1.7009888,2.0659981-2.2539978,3.3470001c-0.5539856,1.2820015-0.8299866,2.6409988-0.8299866,4.079998
			c0,1.4560013,0.276001,2.821003,0.8299866,4.0930023c0.553009,1.2719994,1.3040161,2.3829994,2.2539978,3.3330002
			c0.9490051,0.9499969,2.0599976,1.7010002,3.3320007,2.2539978c1.2730103,0.5530014,2.6280212,0.8300018,4.0660095,0.8300018
			c1.4559937,0,2.8209839-0.2770004,4.0929871-0.8300018c1.2730103-0.5529976,2.3829956-1.3040009,3.3330078-2.2539978
			c0.9500122-0.9500008,1.7009888-2.0610008,2.2539978-3.3330002c0.32901-0.7550011,0.5570068-1.5440025,0.6910095-2.3650017
			c0.0910034-0.5610008,0.1389771-1.1369972,0.1389771-1.7280006
			C35.6362915,14.6901054,35.5872803,14.1141052,35.4943237,13.5511017"/>
	</g>
	<polygon class="st0" points="99.1582031,23.8422012 98.7741699,23.8422012 98.7741699,24.9592018 98.5171509,24.9592018 
		98.5171509,23.8422012 98.1322021,23.8422012 98.1322021,23.6152039 99.1582031,23.6152039 	"/>
	<polygon class="st0" points="100.871521,23.6166 100.871521,24.9586029 100.614502,24.9586029 100.614502,24.2796021 
		100.194519,24.7846031 99.7755127,24.2796021 99.7755127,24.9586029 99.5184937,24.9586029 99.5184937,23.6166 99.5344849,23.6166 
		100.194519,24.3916016 100.8544922,23.6166 	"/>
</g>
<g>
</g>
<g>
</g>
<g>
</g>
<g>
</g>
<g>
</g>
<g>
</g>
</svg>
