<?xml version="1.0" encoding="utf-8"?>
<!-- Generator: Adobe Illustrator 24.0.3, SVG Export Plug-In . SVG Version: 6.00 Build 0)  -->
<svg version="1.1" id="Layer_1" xmlns="http://www.w3.org/2000/svg" xmlns:xlink="http://www.w3.org/1999/xlink" x="0px" y="0px"
	 viewBox="0 0 293.6040955 73.2430267" style="enable-background:new 0 0 293.6040955 73.2430267;" xml:space="preserve">
<style type="text/css">
	.st0{fill:#FFFFFF;}
	.st1{fill:#78BE20;}
	.st2{fill:#004C97;}
</style>
<g>
	<polygon class="st0" points="18.8608456,54.1790352 18.8608456,23.9953899 44.9656181,7.6799064 47.412941,7.6799064 
		52.3075867,10.9430037 52.3075867,7.6799064 67.8072968,17.4691963 67.9504547,21.0957928 72.7019424,23.9953899 
		72.8334656,53.1066437 47.412941,72.1260681 44.1498451,72.1260681 	"/>
	<g>
		<path class="st1" d="M89.1084442,10.796319l-14.3494873-9.076683c-1.1667557-0.7385982-2.6483841-0.7625477-3.8390808-0.0635332
			l-14.5857964,8.5668736l11.473217,7.2462196v3.0550213l5.0511856,3.0852432v30.3261967l14.1172714-10.175518
			c2.4514008-2.2289886,3.8488846-5.3881226,3.8488846-8.7017555V13.9134789
			C90.8246384,12.6489391,90.1769562,11.4723797,89.1084442,10.796319z"/>
		<path class="st1" d="M174.2628174,21.4825287c-1.1853638,1.6399555-3.1083374,2.709959-5.2859802,2.709959
			c-3.6039886,0-6.5270691-2.9216137-6.5270691-6.5256004c0-3.6039829,2.9230804-6.5270615,6.5270691-6.5270615
			c2.176178,0,4.0991516,1.0700045,5.2845154,2.7075129l4.9897614-3.6000795
			c-2.303772-3.1836038-6.0455933-5.2561555-10.2742767-5.2561555c-7.0012054,0-12.6753082,5.6745772-12.6753082,12.6757832
			s5.6741028,12.6752987,12.6753082,12.6752987c4.2301636,0,7.9744415-2.0740128,10.2776947-5.2595787L174.2628174,21.4825287z"/>
		<polygon points="125.0552673,5.4711561 129.2697754,5.4711561 129.2697754,29.8539143 125.6824036,29.8539143 
			112.2367401,12.5080481 112.2367401,29.8539143 108.0222397,29.8539143 108.0222397,5.4711561 111.9923401,5.4711561 
			125.0552673,22.3301716 		"/>
		<path d="M144.0050201,10.4168758l-4.1788177,9.754179h8.3943024L144.0050201,10.4168758z M156.7893219,29.8543549h-4.5283203
			l-2.4723969-5.885746h-11.529541l-2.5085602,5.885746h-4.3885193l10.7288666-24.5572605h3.9696198L156.7893219,29.8543549z"/>
		<path d="M192.9139404,15.712141c5.1554718,1.2533073,7.8380432,3.1010036,7.8380432,7.1757126
			c0,4.5982265-3.5878601,7.3155136-8.7091064,7.3155136c-3.7276459,0-7.2446289-1.2899666-10.1721039-3.9026508
			l2.5789642-3.0648289c2.3340454,2.0202446,4.6666412,3.1709023,7.6972656,3.1709023
			c2.6468964,0,4.3200836-1.2190895,4.3200836-3.1005154c0-1.7768192-0.9761505-2.7172871-5.503006-3.7623596
			c-5.1916351-1.2533073-8.1161804-2.786211-8.1161804-7.3150244c0-4.2506804,3.4817963-7.1053214,8.3244171-7.1053214
			c3.5531464,0,6.3745575,1.0788012,8.8469391,3.0643401l-2.2983704,3.2398243
			c-2.1942749-1.6370163-4.3885193-2.5085649-6.6184692-2.5085649c-2.5071106,0-3.970108,1.2889929-3.970108,2.9269857
			C187.132309,13.7622843,188.2453156,14.5966806,192.9139404,15.712141"/>
		<path d="M201.9075775,27.8587952h-0.3773651v0.4829464h0.3773651c0.1882019,0,0.3011017-0.0933647,0.3011017-0.2404957
			C202.2086792,27.942873,202.0957794,27.8587952,201.9075775,27.8587952 M202.1534576,28.5460625l0.4096069,0.575325h-0.3470459
			l-0.3675842-0.5269337h-0.318222v0.5269337h-0.2888641v-1.5231266h0.6789398c0.3529205,0,0.5855865,0.1813488,0.5855865,0.4863663
			C202.5058746,28.3329391,202.3616943,28.4854507,202.1534576,28.5460625 M201.8318176,27.0918541
			c-0.7429962,0-1.305603,0.5909691-1.305603,1.3144073c0,0.7219696,0.5587006,1.3036537,1.296814,1.3036537
			c0.742981,0,1.305603-0.5885277,1.305603-1.3124504C203.1286316,27.6754913,202.5699158,27.0918541,201.8318176,27.0918541
			 M201.8230286,29.8555775c-0.8153534,0-1.4488373-0.6540241-1.4488373-1.449316
			c0-0.79529,0.6427765-1.4576283,1.4576263-1.4576283c0.8153229,0,1.4497986,0.6530476,1.4497986,1.4488316
			C203.2816162,29.1927567,202.6383514,29.8555775,201.8230286,29.8555775"/>
		<polygon points="126.1396408,41.791893 112.2995071,41.791893 112.2995071,48.4333382 124.5739899,48.4333382 
			124.5739899,52.3286552 112.2995071,52.3286552 112.2995071,62.2402306 108.0224304,62.2402306 108.0224304,37.8975563 
			126.1396408,37.8975563 		"/>
		<path d="M137.4309387,47.1823769c-3.3718109,0-5.5284424,2.6429901-5.5284424,5.8774376
			c0,3.268177,2.3286896,5.9468498,5.5983276,5.9468498c3.4084778,0,5.5645905-2.6429901,5.5645905-5.8784142
			C143.0654144,49.8595848,140.7352753,47.1823769,137.4309387,47.1823769 M137.4309387,62.6570854
			c-5.5988312,0-9.7375717-4.2770767-9.7375717-9.5288353c0-5.2845116,4.172966-9.6324654,9.807457-9.6324654
			c5.6330414,0,9.7717743,4.2770767,9.7717743,9.5640297C147.2725983,58.3101082,143.0996399,62.6570854,137.4309387,62.6570854"/>
		<path d="M162.6750183,43.8783264h4.2071838v18.3616104h-4.2071838v-2.851223
			c-1.1829224,1.738205-2.8873901,3.2339592-5.7386169,3.2339592c-4.1372681,0-6.5383148-2.7827873-6.5383148-7.0603523V43.8783264
			h4.2096252v10.4326439c0,2.8517113,1.4258575,4.4872627,3.9285583,4.4872627c2.4347534,0,4.1387482-1.7039833,4.1387482-4.5556984
			V43.8783264z"/>
		<path d="M175.4376221,62.240181h-4.2071991V43.8785706h4.2071991v2.8512192
			c1.1829071-1.7382011,2.8854218-3.2339554,5.7386017-3.2339554c4.1372833,0,6.5383148,2.7827873,6.5383148,7.0603523V62.240181
			h-4.2096252V51.8075371c0-2.8517113-1.4258575-4.4857979-3.9285583-4.4857979
			c-2.4347534,0-4.1387329,1.7025185-4.1387329,4.5556984V62.240181z"/>
		<path d="M200.4563141,47.1481171c-2.8869019,0-5.2859802,2.2245674-5.2859802,5.9111633
			c0,3.6162033,2.4347687,5.9131165,5.2859802,5.9131165c2.8155365,0,5.3201904-2.3311272,5.3201904-5.9131165
			C205.7765045,49.476799,203.2718506,47.1481171,200.4563141,47.1481171 M205.7066193,62.2405739v-3.0599442
			c-1.3554688,1.9117317-3.2677002,3.4417038-6.2592163,3.4417038c-4.3112793,0-8.519928-3.4417038-8.519928-9.5630531
			s4.1387482-9.5640335,8.519928-9.5640335c3.0257263,0,4.9379578,1.5299721,6.2592163,3.2344475v-9.8758888h4.2071686v25.3867683
			H205.7066193z"/>
		<path d="M225.6716919,54.4508705c-1.0773315-0.416954-2.5730896-0.7312622-4.2071686-0.7312622
			c-2.6429901,0-4.2086487,1.0783157-4.2086487,2.9558296v0.0699005c0,1.7401581,1.5656586,2.7138634,3.5477753,2.7138634
			c2.781311,0,4.868042-1.5656548,4.868042-3.8610992V54.4508705z M225.5675812,62.2405243v-2.2612305
			c-1.251358,1.4957542-3.1640625,2.6429901-5.9473419,2.6429901c-3.4759064,0-6.537323-1.9816322-6.537323-5.6687164v-0.0684319
			c0-3.9642372,3.1655273-5.912632,7.4430847-5.912632c2.2245789,0,3.6499481,0.3123512,5.0757904,0.7654762v-0.453125
			c0-2.5369186-1.5984039-3.9285583-4.5200043-3.9285583c-2.0515442,0-3.5815125,0.4526367-5.25177,1.1472359l-1.1477203-3.3742485
			c2.0168304-0.9028282,3.9994354-1.52948,6.9909515-1.52948c5.4243011,0,8.0672913,2.8512192,8.0672913,7.7554398v10.8852806
			H225.5675812z"/>
		<path d="M238.5456696,56.5023003c0,1.6340866,0.8343811,2.2944679,2.2602386,2.2944679
			c0.9394836,0,1.7743835-0.2077446,2.6097412-0.6261635v3.4441452c-1.0455627,0.5904808-2.227005,0.939003-3.7911987,0.939003
			c-3.0946503,0-5.2859802-1.355957-5.2859802-5.3900948v-9.668148h-2.3301544V43.879303h2.3301544v-5.0440178h4.2071991v5.0440178
			h4.9384308v3.6162071h-4.9384308V56.5023003z"/>
		<path d="M246.7044678,43.8778381h4.2071686v18.3616104h-4.2071686V43.8778381z M246.5299683,37.0618896h4.5214691v3.998455
			h-4.5214691V37.0618896z"/>
		<path d="M263.9842834,47.1823769c-3.3742371,0-5.5284424,2.6429901-5.5284424,5.8774376
			c0,3.268177,2.3287048,5.9468498,5.5983276,5.9468498c3.4084778,0,5.5646057-2.6429901,5.5646057-5.8784142
			C269.6187744,49.8595848,267.2881165,47.1823769,263.9842834,47.1823769 M263.9842834,62.6570854
			c-5.5988464,0-9.7375641-4.2770767-9.7375641-9.5288353c0-5.2845116,4.1729584-9.6324654,9.8074493-9.6324654
			c5.6330566,0,9.7717896,4.2770767,9.7717896,9.5640297C273.8259583,58.3101082,269.6529846,62.6570854,263.9842834,62.6570854"/>
		<path d="M281.327179,62.240181h-4.2072144V43.8785706h4.2072144v2.8512192
			c1.1829224-1.7382011,2.8854065-3.2339554,5.7386169-3.2339554c4.1372681,0,6.5382996,2.7827873,6.5382996,7.0603523V62.240181
			h-4.2096252V51.8075371c0-2.8517113-1.4253845-4.4857979-3.9285583-4.4857979
			c-2.4347534,0-4.1387329,1.7025185-4.1387329,4.5556984V62.240181z"/>
		<path class="st2" d="M38.4601669,11.8823252L21.0492897,1.6564475c-1.1907387-0.6994852-2.6723175-0.6750433-3.8391037,0.0630553
			L2.8607152,10.7966843c-1.0685345,0.6760206-1.7162045,1.8520937-1.7162045,3.1166439v21.1453762
			c0,3.3131447,1.3975011,6.4728012,3.8488765,8.7012787l14.1172867,10.1760216V23.6093388L38.4601669,11.8823252z"/>
		<path d="M89.7202759,9.8291807L75.3710861,0.7522984c-1.535408-0.9723666-3.4632111-1.0043323-5.0310745-0.0830513
			L56.5436478,8.7725182l-3.5174294-2.2452216c-0.3522682-0.2253036-0.7990913-0.2400918-1.1659508-0.0391355
			c-0.3666115,0.2009559-0.5943069,0.5857401-0.5943069,1.0038843v1.6109352l-2.7015533-1.647233
			c-1.5447121-0.9355712-3.4644012-0.936069-5.0095634,0.0004978l-5.1040154,3.0932598L21.62887,0.6697451
			c-1.5674171-0.9213309-3.4944744-0.8893154-5.0305729,0.0825533L2.2488062,9.8296289
			C0.8406199,10.7203884,0,12.2469273,0,13.9133797v21.1453018c0,3.6283112,1.539485,7.1082497,4.2236133,9.5479546
			c0.0317664,0.0291252,39.0464745,27.7542496,39.0464745,27.7542496c0.8185158,0.5769272,1.7747002,0.8664551,2.732975,0.8764191
			c0.0191689,0.000946,0.0372429,0.005722,0.0566635,0.005722c0.0321121,0,0.062336-0.0068665,0.0937538-0.0094604
			c0.9460297-0.0194168,1.8877716-0.3086014,2.6944847-0.8803482c0,0,38.8657875-27.7169571,38.8977547-27.7460861
			c2.6841736-2.4407005,4.2233582-5.9210854,4.2233582-9.5489502V13.9133797
			C91.9690781,12.246479,91.1284637,10.7198906,89.7202759,9.8291807z M71.4990463,2.6431081
			c0.0699539-0.0410278,0.1428986-0.0733421,0.2152939-0.1071999v19.0334702l-2.2874908-1.3971825v-2.5488453
			c0-0.3909588-0.1993179-0.7546806-0.5286865-0.9646988l-10.1887093-6.5036392L71.4990463,2.6431081z M53.5549011,9.5804749
			l13.5830536,8.6701412v4.7625484l-13.5830536-8.2128601V9.5804749z M51.2659607,11.7838717v3.6618223
			c0,0.4004688,0.2093239,0.7718582,0.55233,0.9795361l15.8719482,9.5971489
			c0.1818848,0.1097889,0.386879,0.1651554,0.5921631,0.1651554c0.1935349,0,0.387619-0.0491428,0.5623398-0.1479778
			c0.359642-0.2028484,0.5821075-0.5837994,0.5821075-0.9967155v-2.1856213l2.2872391,1.3945942v6.3746796L47.2039719,16.2376194
			V9.3376942c0.0561638,0.0285807,0.1173553,0.0412273,0.1718254,0.0742388L51.2659607,11.7838717z M44.7408142,9.4138746
			c0.0552673-0.0335093,0.1172562-0.046505,0.1742172-0.0754833v6.9097338L20.2550411,31.1940098v-6.9397564L44.7408142,9.4138746z
			 M20.4695892,2.6431081l15.7569313,9.2544365l-15.9714794,9.679451V2.536207
			C20.3271866,2.5699651,20.3998814,2.60218,20.4695892,2.6431081z M11.900176,47.327507l-3.3615332-2.423172V33.1377983
			l3.3615332-1.8860302V47.327507z M17.9661026,51.7000961l-3.7770386-2.7226677V29.2974739
			c0-0.4061928-0.2152958-0.7823639-0.566123-0.9876022c-0.3508759-0.2052879-0.7838078-0.2095699-1.1382694-0.0105057
			L6.83425,31.4694538c-0.3610835,0.2024002-0.5844955,0.5842953-0.5844955,0.9981594v10.7868004l-0.5332108-0.3843842
			c-2.1788499-2.0043831-3.4276059-4.8479919-3.4276059-7.811348V13.9133797c0-0.8768682,0.4424918-1.6807423,1.1838286-2.1495237
			l14.3494396-9.0773296c0.0466042-0.0294764,0.0959969-0.0514839,0.1438961-0.0776739v21.0005093v9.616766V51.7000961z
			 M20.2550411,53.3420525V33.8706207l24.6602383-14.9460354v51.7586441
			C44.803051,70.6270676,20.2550411,53.3420525,20.2550411,53.3420525z M47.2041702,70.6766586V18.8923702L71.7140884,33.281147
			v20.0628471l-3.3452988,2.370594V36.9790649c0-0.4286995-0.2396469-0.8215485-0.6210403-1.0177231l-14.5064812-7.4605713
			c-0.3546638-0.1827831-0.7787819-0.1670494-1.119648,0.0405788c-0.3405724,0.2081261-0.5481987,0.5780735-0.5481987,0.9771481
			v38.0979576C51.5734215,67.6164551,47.314106,70.6209412,47.2041702,70.6766586z M58.8265114,38.3236694v24.1529732
			l-4.9642029,3.5178261v-30.048912L58.8265114,38.3236694z M53.8623085,33.4075165v-2.0134964l12.2175941,6.2834129v1.5829048
			L53.8623085,33.4075165z M61.115448,39.420166l4.9644547,2.378212v15.5381966l-4.9644547,3.5180283V39.420166z
			 M83.430687,44.9048309l-3.3617325,2.4228783V31.2517681l3.3617325,1.8860302V44.9048309z M89.680191,35.0581818
			c0,2.9634056-1.2485046,5.8069649-3.4276505,7.8128433l-0.5329666,0.3841362V32.4676132
			c0-0.4138641-0.2233582-0.7957592-0.5844955-0.9981594l-5.6506653-3.1700878
			c-0.35466-0.1995621-0.7878418-0.1952305-1.1382217,0.0105057c-0.3508759,0.2052383-0.5661697,0.5814095-0.5661697,0.9876022
			v19.6799545l-3.7767944,2.7220192V2.6088519c0.0478516,0.02619,0.0971909,0.0481975,0.1436996,0.0776739l14.3494415,9.0768814
			c0.741333,0.4687319,1.1838226,1.2726059,1.1838226,2.149972V35.0581818z"/>
	</g>
</g>
</svg>
