<?xml version="1.0" encoding="utf-8"?>
<!-- Generator: Adobe Illustrator 24.1.0, SVG Export Plug-In . SVG Version: 6.00 Build 0)  -->
<svg version="1.1" id="Layer_1" xmlns="http://www.w3.org/2000/svg" xmlns:xlink="http://www.w3.org/1999/xlink" x="0px" y="0px"
	 viewBox="0 0 293.6 73.2" style="enable-background:new 0 0 293.6 73.2;" xml:space="preserve">
<style type="text/css">
	.st0{fill:#FFFFFF;}
</style>
<g>
	<g>
		<path class="st0" d="M174.3,21.5c-1.2,1.6-3.1,2.7-5.3,2.7c-3.6,0-6.5-2.9-6.5-6.5c0-3.6,2.9-6.5,6.5-6.5c2.2,0,4.1,1.1,5.3,2.7
			l5-3.6c-2.3-3.2-6-5.3-10.3-5.3c-7,0-12.7,5.7-12.7,12.7S162,30.3,169,30.3c4.2,0,8-2.1,10.3-5.3L174.3,21.5z"/>
		<polygon class="st0" points="125.1,5.5 129.3,5.5 129.3,29.9 125.7,29.9 112.2,12.5 112.2,29.9 108,29.9 108,5.5 112,5.5 
			125.1,22.3 		"/>
		<path class="st0" d="M144,10.4l-4.2,9.8h8.4L144,10.4z M156.8,29.9h-4.5l-2.5-5.9h-11.5l-2.5,5.9h-4.4l10.7-24.6h4L156.8,29.9z"/>
		<path class="st0" d="M192.9,15.7c5.2,1.3,7.8,3.1,7.8,7.2c0,4.6-3.6,7.3-8.7,7.3c-3.7,0-7.2-1.3-10.2-3.9l2.6-3.1
			c2.3,2,4.7,3.2,7.7,3.2c2.6,0,4.3-1.2,4.3-3.1c0-1.8-1-2.7-5.5-3.8c-5.2-1.3-8.1-2.8-8.1-7.3c0-4.3,3.5-7.1,8.3-7.1
			c3.6,0,6.4,1.1,8.8,3.1l-2.3,3.2c-2.2-1.6-4.4-2.5-6.6-2.5c-2.5,0-4,1.3-4,2.9C187.1,13.8,188.2,14.6,192.9,15.7"/>
		<path class="st0" d="M201.9,27.9h-0.4v0.5h0.4c0.2,0,0.3-0.1,0.3-0.2C202.2,27.9,202.1,27.9,201.9,27.9 M202.2,28.5l0.4,0.6h-0.3
			l-0.4-0.5h-0.3v0.5h-0.3v-1.5h0.7c0.4,0,0.6,0.2,0.6,0.5C202.5,28.3,202.4,28.5,202.2,28.5 M201.8,27.1c-0.7,0-1.3,0.6-1.3,1.3
			c0,0.7,0.6,1.3,1.3,1.3c0.7,0,1.3-0.6,1.3-1.3C203.1,27.7,202.6,27.1,201.8,27.1 M201.8,29.9c-0.8,0-1.4-0.7-1.4-1.4
			c0-0.8,0.6-1.5,1.5-1.5c0.8,0,1.4,0.7,1.4,1.4C203.3,29.2,202.6,29.9,201.8,29.9"/>
		<polygon class="st0" points="126.1,41.8 112.3,41.8 112.3,48.4 124.6,48.4 124.6,52.3 112.3,52.3 112.3,62.2 108,62.2 108,37.9 
			126.1,37.9 		"/>
		<path class="st0" d="M137.4,47.2c-3.4,0-5.5,2.6-5.5,5.9c0,3.3,2.3,5.9,5.6,5.9c3.4,0,5.6-2.6,5.6-5.9
			C143.1,49.9,140.7,47.2,137.4,47.2 M137.4,62.7c-5.6,0-9.7-4.3-9.7-9.5c0-5.3,4.2-9.6,9.8-9.6c5.6,0,9.8,4.3,9.8,9.6
			C147.3,58.3,143.1,62.7,137.4,62.7"/>
		<path class="st0" d="M162.7,43.9h4.2v18.4h-4.2v-2.9c-1.2,1.7-2.9,3.2-5.7,3.2c-4.1,0-6.5-2.8-6.5-7.1V43.9h4.2v10.4
			c0,2.9,1.4,4.5,3.9,4.5c2.4,0,4.1-1.7,4.1-4.6V43.9z"/>
		<path class="st0" d="M175.4,62.2h-4.2V43.9h4.2v2.9c1.2-1.7,2.9-3.2,5.7-3.2c4.1,0,6.5,2.8,6.5,7.1v11.7h-4.2V51.8
			c0-2.9-1.4-4.5-3.9-4.5c-2.4,0-4.1,1.7-4.1,4.6V62.2z"/>
		<path class="st0" d="M200.5,47.1c-2.9,0-5.3,2.2-5.3,5.9c0,3.6,2.4,5.9,5.3,5.9c2.8,0,5.3-2.3,5.3-5.9
			C205.8,49.5,203.3,47.1,200.5,47.1 M205.7,62.2v-3.1c-1.4,1.9-3.3,3.4-6.3,3.4c-4.3,0-8.5-3.4-8.5-9.6s4.1-9.6,8.5-9.6
			c3,0,4.9,1.5,6.3,3.2v-9.9h4.2v25.4H205.7z"/>
		<path class="st0" d="M225.7,54.5c-1.1-0.4-2.6-0.7-4.2-0.7c-2.6,0-4.2,1.1-4.2,3v0.1c0,1.7,1.6,2.7,3.5,2.7c2.8,0,4.9-1.6,4.9-3.9
			V54.5z M225.6,62.2V60c-1.3,1.5-3.2,2.6-5.9,2.6c-3.5,0-6.5-2-6.5-5.7v-0.1c0-4,3.2-5.9,7.4-5.9c2.2,0,3.6,0.3,5.1,0.8v-0.5
			c0-2.5-1.6-3.9-4.5-3.9c-2.1,0-3.6,0.5-5.3,1.1l-1.1-3.4c2-0.9,4-1.5,7-1.5c5.4,0,8.1,2.9,8.1,7.8v10.9H225.6z"/>
		<path class="st0" d="M238.5,56.5c0,1.6,0.8,2.3,2.3,2.3c0.9,0,1.8-0.2,2.6-0.6v3.4c-1,0.6-2.2,0.9-3.8,0.9c-3.1,0-5.3-1.4-5.3-5.4
			v-9.7H232v-3.6h2.3v-5h4.2v5h4.9v3.6h-4.9V56.5z"/>
		<path class="st0" d="M246.7,43.9h4.2v18.4h-4.2V43.9z M246.5,37.1h4.5v4h-4.5V37.1z"/>
		<path class="st0" d="M264,47.2c-3.4,0-5.5,2.6-5.5,5.9c0,3.3,2.3,5.9,5.6,5.9c3.4,0,5.6-2.6,5.6-5.9
			C269.6,49.9,267.3,47.2,264,47.2 M264,62.7c-5.6,0-9.7-4.3-9.7-9.5c0-5.3,4.2-9.6,9.8-9.6c5.6,0,9.8,4.3,9.8,9.6
			C273.8,58.3,269.7,62.7,264,62.7"/>
		<path class="st0" d="M281.3,62.2h-4.2V43.9h4.2v2.9c1.2-1.7,2.9-3.2,5.7-3.2c4.1,0,6.5,2.8,6.5,7.1v11.7h-4.2V51.8
			c0-2.9-1.4-4.5-3.9-4.5c-2.4,0-4.1,1.7-4.1,4.6V62.2z"/>
		<path class="st0" d="M89.7,9.8L75.4,0.8c-1.5-1-3.5-1-5-0.1L56.5,8.8L53,6.5c-0.4-0.2-0.8-0.2-1.2,0c-0.4,0.2-0.6,0.6-0.6,1v1.6
			l-2.7-1.6c-1.5-0.9-3.5-0.9-5,0l-5.1,3.1L21.6,0.7c-1.6-0.9-3.5-0.9-5,0.1L2.2,9.8C0.8,10.7,0,12.2,0,13.9v21.1
			c0,3.6,1.5,7.1,4.2,9.5c0,0,39,27.8,39,27.8c0.8,0.6,1.8,0.9,2.7,0.9c0,0,0,0,0.1,0c0,0,0.1,0,0.1,0c0.9,0,1.9-0.3,2.7-0.9
			c0,0,38.9-27.7,38.9-27.7c2.7-2.4,4.2-5.9,4.2-9.5V13.9C92,12.2,91.1,10.7,89.7,9.8z M71.5,2.6c0.1,0,0.1-0.1,0.2-0.1v19l-2.3-1.4
			v-2.5c0-0.4-0.2-0.8-0.5-1l-10.2-6.5L71.5,2.6z M53.6,9.6l13.6,8.7V23l-13.6-8.2V9.6z M51.3,11.8v3.7c0,0.4,0.2,0.8,0.6,1L67.7,26
			c0.2,0.1,0.4,0.2,0.6,0.2c0.2,0,0.4,0,0.6-0.1c0.4-0.2,0.6-0.6,0.6-1v-2.2l2.3,1.4v6.4L47.2,16.2V9.3c0.1,0,0.1,0,0.2,0.1
			L51.3,11.8z M44.7,9.4c0.1,0,0.1,0,0.2-0.1v6.9L20.3,31.2v-6.9L44.7,9.4z M20.5,2.6l15.8,9.3l-16,9.7v-19
			C20.3,2.6,20.4,2.6,20.5,2.6z M11.9,47.3l-3.4-2.4V33.1l3.4-1.9V47.3z M18,51.7L14.2,49V29.3c0-0.4-0.2-0.8-0.6-1
			c-0.4-0.2-0.8-0.2-1.1,0l-5.7,3.2c-0.4,0.2-0.6,0.6-0.6,1v10.8l-0.5-0.4c-2.2-2-3.4-4.8-3.4-7.8V13.9c0-0.9,0.4-1.7,1.2-2.1
			l14.3-9.1c0,0,0.1-0.1,0.1-0.1v21v9.6V51.7z M20.3,53.3V33.9l24.7-14.9v51.8C44.8,70.6,20.3,53.3,20.3,53.3z M47.2,70.7V18.9
			l24.5,14.4v20.1l-3.3,2.4V37c0-0.4-0.2-0.8-0.6-1l-14.5-7.5c-0.4-0.2-0.8-0.2-1.1,0c-0.3,0.2-0.5,0.6-0.5,1v38.1
			C51.6,67.6,47.3,70.6,47.2,70.7z M58.8,38.3v24.2l-5,3.5v-30L58.8,38.3z M53.9,33.4v-2l12.2,6.3v1.6L53.9,33.4z M61.1,39.4l5,2.4
			v15.5l-5,3.5V39.4z M83.4,44.9l-3.4,2.4V31.3l3.4,1.9V44.9z M89.7,35.1c0,3-1.2,5.8-3.4,7.8l-0.5,0.4V32.5c0-0.4-0.2-0.8-0.6-1
			l-5.7-3.2c-0.4-0.2-0.8-0.2-1.1,0c-0.4,0.2-0.6,0.6-0.6,1V49L74,51.7V2.6c0,0,0.1,0,0.1,0.1l14.3,9.1c0.7,0.5,1.2,1.3,1.2,2.1
			V35.1z"/>
	</g>
</g>
</svg>
