<?xml version="1.0" encoding="utf-8"?>
<!-- Generator: Adobe Illustrator 24.2.0, SVG Export Plug-In . SVG Version: 6.00 Build 0)  -->
<svg version="1.1" id="Layer_1" xmlns="http://www.w3.org/2000/svg" xmlns:xlink="http://www.w3.org/1999/xlink" x="0px" y="0px"
	 viewBox="0 0 345 97.4" style="enable-background:new 0 0 345 97.4;" xml:space="preserve">
<style type="text/css">
	.st0{fill:#FFFFFF;}
	.st1{fill:#981D97;}
	.st2{fill:#8031A7;}
	.st3{fill:none;}
</style>
<g>
	<g>
		<g>
			<polygon class="st0" points="23.1,74 23.1,37 55.1,17 58.1,17 64.1,21 64.1,17 83.1,29 83.3,33.5 89.1,37 89.3,72.7 58.1,96 
				54.1,96 			"/>
		</g>
		<g>
			<g>
				<path class="st1" d="M109.2,20.9L91.6,9.7c-1.4-0.9-3.2-0.9-4.7-0.1L69.1,20.2L83.1,29v3.7l6.2,3.8v37.2l17.3-12.5
					c3-2.7,4.7-6.6,4.7-10.7V24.7C111.3,23.1,110.5,21.7,109.2,20.9z"/>
			</g>
			<g>
				<path class="st2" d="M47.1,22.2L25.8,9.7c-1.5-0.9-3.3-0.8-4.7,0.1L3.5,20.9c-1.3,0.8-2.1,2.3-2.1,3.8v25.9
					c0,4.1,1.7,7.9,4.7,10.7l17.3,12.5V36.6L47.1,22.2z"/>
			</g>
			<g>
				<path d="M110,19.7L92.4,8.6c-1.9-1.2-4.2-1.2-6.2-0.1l-16.9,9.9L65,15.6c-0.4-0.3-1-0.3-1.4,0c-0.4,0.2-0.7,0.7-0.7,1.2v2
					l-3.3-2c-1.9-1.1-4.2-1.1-6.1,0l-6.3,3.8L26.5,8.5c-1.9-1.1-4.3-1.1-6.2,0.1L2.8,19.7c-1.7,1.1-2.8,3-2.8,5v25.9
					c0,4.4,1.9,8.7,5.2,11.7c0,0,47.9,34,47.9,34c1,0.7,2.2,1.1,3.4,1.1c0,0,0,0,0.1,0c0,0,0.1,0,0.1,0c1.2,0,2.3-0.4,3.3-1.1
					c0,0,47.6-34,47.7-34c3.3-3,5.2-7.3,5.2-11.7V24.7C112.7,22.6,111.7,20.8,110,19.7z M87.6,10.9c0.1-0.1,0.2-0.1,0.3-0.1v23.3
					l-2.8-1.7v-3.1c0-0.5-0.2-0.9-0.6-1.2l-12.5-8L87.6,10.9z M65.6,19.4L82.3,30v5.8L65.6,25.8V19.4z M62.8,22.1v4.5
					c0,0.5,0.3,0.9,0.7,1.2L83,39.5c0.2,0.1,0.5,0.2,0.7,0.2c0.2,0,0.5-0.1,0.7-0.2c0.4-0.2,0.7-0.7,0.7-1.2v-2.7l2.8,1.7v7.8
					l-30-17.6v-8.5c0.1,0,0.1,0.1,0.2,0.1L62.8,22.1z M54.8,19.2c0.1,0,0.1-0.1,0.2-0.1v8.5L24.8,45.9v-8.5L54.8,19.2z M25.1,10.9
					l19.3,11.3L24.8,34.1V10.7C24.9,10.8,25,10.8,25.1,10.9z M14.6,65.6l-4.1-3V48.3l4.1-2.3V65.6z M22,71l-4.6-3.3V43.5
					c0-0.5-0.3-1-0.7-1.2c-0.4-0.3-1-0.3-1.4,0l-6.9,3.9c-0.4,0.2-0.7,0.7-0.7,1.2v13.2L7,60.2c-2.7-2.5-4.2-5.9-4.2-9.6V24.7
					c0-1.1,0.5-2.1,1.5-2.6l17.6-11.1c0.1,0,0.1-0.1,0.2-0.1v25.7v11.8V71z M24.8,73V49.2l30.2-18.3v63.4C54.9,94.2,24.8,73,24.8,73
					z M57.9,94.3V30.8l30,17.6V73l-4.1,2.9V53c0-0.5-0.3-1-0.8-1.2l-17.8-9.1c-0.4-0.2-1-0.2-1.4,0c-0.4,0.3-0.7,0.7-0.7,1.2v46.7
					C63.2,90.5,58,94.2,57.9,94.3z M72.1,54.6v29.6L66,88.5V51.7L72.1,54.6z M66,48.6v-2.5l15,7.7v1.9L66,48.6z M74.9,56l6.1,2.9v19
					l-6.1,4.3V56z M102.3,62.7l-4.1,3V45.9l4.1,2.3V62.7z M109.9,50.6c0,3.6-1.5,7.1-4.2,9.6l-0.7,0.5V47.4c0-0.5-0.3-1-0.7-1.2
					l-6.9-3.9c-0.4-0.2-1-0.2-1.4,0c-0.4,0.3-0.7,0.7-0.7,1.2v24.1L90.7,71V10.8c0.1,0,0.1,0.1,0.2,0.1l17.6,11.1
					c0.9,0.6,1.5,1.6,1.5,2.6V50.6z"/>
			</g>
		</g>
	</g>
	<g>
		<path d="M140.3,22.5h-9.5v-4.9h24.4v4.9h-9.5v25.2h-5.3V22.5z"/>
		<path d="M154.4,36.5L154.4,36.5c0-6.6,5.2-12,12.1-12c7,0,12.1,5.3,12.1,11.8v0.1c0,6.4-5.2,11.8-12.2,11.8
			C159.5,48.3,154.4,43,154.4,36.5z M173.4,36.5L173.4,36.5c0-4.1-2.9-7.4-7-7.4c-4.2,0-6.8,3.3-6.8,7.2v0.1c0,4,2.9,7.3,6.9,7.3
			C170.8,43.7,173.4,40.4,173.4,36.5z"/>
		<path d="M183.5,25h5.2v3.4c1.5-2,3.4-3.9,6.9-3.9c3.3,0,5.6,1.6,6.8,4c1.8-2.4,4.2-4,7.7-4c4.9,0,8,3.1,8,8.7v14.5h-5.2V34.8
			c0-3.6-1.7-5.5-4.6-5.5c-2.8,0-4.9,2-4.9,5.6v12.8h-5.2V34.8c0-3.5-1.7-5.5-4.6-5.5c-2.9,0-4.9,2.1-4.9,5.6v12.8h-5.2V25z"/>
		<path d="M222.8,36.5L222.8,36.5c0-6.6,5.2-12,12.1-12c7,0,12.1,5.3,12.1,11.8v0.1c0,6.4-5.2,11.8-12.2,11.8
			C227.9,48.3,222.8,43,222.8,36.5z M241.8,36.5L241.8,36.5c0-4.1-2.9-7.4-7-7.4c-4.2,0-6.8,3.3-6.8,7.2v0.1c0,4,2.9,7.3,6.9,7.3
			C239.1,43.7,241.8,40.4,241.8,36.5z"/>
		<path d="M251.9,25h5.2v5.1c1.4-3.4,4-5.7,8-5.5v5.5h-0.3c-4.6,0-7.7,3-7.7,9v8.6h-5.2V25z"/>
		<path d="M268.9,25h5.2v5.1c1.4-3.4,4-5.7,8-5.5v5.5h-0.3c-4.6,0-7.7,3-7.7,9v8.6h-5.2V25z"/>
		<path d="M284.6,36.5L284.6,36.5c0-6.6,5.2-12,12.1-12c7,0,12.1,5.3,12.1,11.8v0.1c0,6.4-5.2,11.8-12.2,11.8
			C289.7,48.3,284.6,43,284.6,36.5z M303.6,36.5L303.6,36.5c0-4.1-2.9-7.4-7-7.4c-4.2,0-6.8,3.3-6.8,7.2v0.1c0,4,2.9,7.3,6.9,7.3
			C300.9,43.7,303.6,40.4,303.6,36.5z"/>
		<path d="M310.7,25h5.3l4.6,15.6l5-15.7h4.5l5,15.7l4.6-15.6h5.2l-7.4,22.9h-4.7l-5.1-15.5l-5.1,15.5h-4.6L310.7,25z"/>
		<path d="M140.3,61.5h-9.5v-4.9h24.4v4.9h-9.5v25.2h-5.3V61.5z"/>
		<path d="M159.5,55.3h5.2v12.2c1.5-2.1,3.6-4,7.1-4c5.1,0,8.1,3.4,8.1,8.7v14.5h-5.2V73.8c0-3.5-1.8-5.5-4.9-5.5
			c-3,0-5.1,2.1-5.1,5.6v12.8h-5.2V55.3z"/>
		<path d="M185.9,64h5.2v5.1c1.4-3.4,4-5.7,8-5.5v5.5h-0.3c-4.6,0-7.7,3-7.7,9v8.6h-5.2V64z"/>
		<path d="M202.8,55.6h5.6v4.9h-5.6V55.6z M203,64h5.2v22.7H203V64z"/>
		<path d="M212.1,64h5.6l6.1,16.7l6.1-16.7h5.5l-9.3,22.9h-4.7L212.1,64z"/>
		<path d="M236.9,75.5L236.9,75.5c0-6.6,4.6-11.9,11.1-11.9c7.2,0,10.9,5.7,10.9,12.2c0,0.5,0,0.9-0.1,1.5h-16.7
			c0.6,3.7,3.2,5.8,6.5,5.8c2.5,0,4.3-0.9,6.1-2.7l3.1,2.7c-2.1,2.6-5.1,4.3-9.3,4.3C242,87.3,236.9,82.5,236.9,75.5z M253.7,73.8
			c-0.3-3.4-2.3-6-5.8-6c-3.2,0-5.4,2.5-5.9,6H253.7z"/>
		<path d="M261.8,83.8l2.3-3.5c2.5,1.8,5.1,2.8,7.4,2.8c2.2,0,3.5-0.9,3.5-2.5v-0.1c0-1.8-2.4-2.4-5.1-3.2c-3.4-0.9-7.1-2.3-7.1-6.7
			v-0.1c0-4.3,3.6-6.9,8.1-6.9c2.8,0,5.9,1,8.3,2.6l-2.1,3.7c-2.2-1.3-4.5-2.2-6.4-2.2c-2,0-3.2,0.9-3.2,2.2v0.1
			c0,1.7,2.5,2.4,5.1,3.2c3.3,1,7.1,2.5,7.1,6.6V80c0,4.8-3.7,7.1-8.4,7.1C268.2,87.2,264.6,86,261.8,83.8z"/>
	</g>
	<g>
		<path class="st3" d="M133.2,0.4h1.6l5.2,6.7V0.4h1.7V10h-1.4l-5.3-6.8V10h-1.7V0.4z"/>
		<path class="st3" d="M146.3,0.3h1.6l4.2,9.7h-1.8l-1-2.3h-4.6l-1,2.3h-1.7L146.3,0.3z M148.7,6.2l-1.7-3.8l-1.6,3.8H148.7z"/>
		<path class="st3" d="M151.4,5.3L151.4,5.3c0-2.8,2.2-5,5.1-5c2,0,3.2,0.8,4.1,2l-2,1.6c-0.5-0.7-1.2-1.1-2.1-1.1
			c-1.3,0-2.3,1.1-2.3,2.5v0c0,1.4,0.9,2.6,2.3,2.6c1,0,1.6-0.5,2.2-1.2l2,1.4c-0.9,1.3-2.1,2.2-4.3,2.2
			C153.6,10.2,151.4,8.1,151.4,5.3z"/>
		<path class="st3" d="M161.2,8.6l1-1.2c0.9,0.8,1.9,1.3,3,1.3c1,0,1.7-0.5,1.7-1.2v0c0-0.7-0.4-1.1-2.2-1.5c-2-0.5-3.2-1.1-3.2-2.9
			v0c0-1.6,1.4-2.8,3.3-2.8c1.4,0,2.5,0.4,3.5,1.2l-0.9,1.3c-0.9-0.6-1.7-1-2.6-1c-1,0-1.6,0.5-1.6,1.1v0c0,0.7,0.4,1.1,2.3,1.5
			c2,0.5,3.1,1.2,3.1,2.8v0c0,1.8-1.4,2.9-3.4,2.9C163.8,10.2,162.4,9.7,161.2,8.6z"/>
		<path d="M174.5,0.4h7.2V2h-5.5v2.6h4.9v1.5h-4.9V10h-1.7V0.4z"/>
		<path d="M182.2,6.4L182.2,6.4c0-2.1,1.6-3.8,3.9-3.8c2.2,0,3.9,1.7,3.9,3.8v0c0,2.1-1.6,3.8-3.9,3.8
			C183.8,10.2,182.2,8.5,182.2,6.4z M188.2,6.4L188.2,6.4c0-1.3-0.9-2.4-2.2-2.4c-1.3,0-2.2,1-2.2,2.3v0c0,1.3,0.9,2.3,2.2,2.3
			C187.4,8.7,188.2,7.7,188.2,6.4z"/>
		<path d="M191,7.4V2.8h1.7v4.1c0,1.1,0.6,1.8,1.6,1.8c1,0,1.6-0.7,1.6-1.8V2.8h1.7V10h-1.7V8.9c-0.5,0.7-1.1,1.3-2.3,1.3
			C191.9,10.2,191,9.1,191,7.4z"/>
		<path d="M198.8,2.8h1.7v1.1c0.5-0.7,1.1-1.3,2.3-1.3c1.6,0,2.6,1.1,2.6,2.8V10h-1.7V5.9c0-1.1-0.6-1.8-1.6-1.8
			c-1,0-1.6,0.7-1.6,1.8V10h-1.7V2.8z"/>
		<path d="M206.4,6.4L206.4,6.4c0-2.4,1.6-3.8,3.4-3.8c1.2,0,2,0.6,2.5,1.3V0h1.7v10h-1.7V8.8c-0.5,0.8-1.3,1.4-2.5,1.4
			C208.1,10.2,206.4,8.8,206.4,6.4z M212.3,6.4L212.3,6.4c0-1.4-1-2.4-2.1-2.4c-1.1,0-2.1,0.9-2.1,2.3v0c0,1.4,1,2.3,2.1,2.3
			C211.3,8.7,212.3,7.8,212.3,6.4z"/>
		<path d="M214.7,7.9L214.7,7.9c0-1.6,1.2-2.4,3-2.4c0.8,0,1.4,0.1,2,0.3V5.7c0-1-0.6-1.6-1.8-1.6c-0.8,0-1.4,0.2-2.1,0.5l-0.4-1.3
			c0.8-0.4,1.6-0.6,2.7-0.6c1.1,0,1.9,0.3,2.4,0.8c0.5,0.5,0.8,1.3,0.8,2.2V10h-1.6V9.1c-0.5,0.6-1.3,1.1-2.4,1.1
			C216,10.2,214.7,9.4,214.7,7.9z M219.7,7.4V6.9c-0.4-0.2-1-0.3-1.6-0.3c-1.1,0-1.7,0.5-1.7,1.2v0c0,0.7,0.6,1.1,1.4,1.1
			C218.9,9,219.7,8.3,219.7,7.4z"/>
		<path d="M223,8V4.2h-0.9V2.8h0.9v-2h1.7v2h2v1.4h-2v3.6c0,0.6,0.3,0.9,0.9,0.9c0.4,0,0.7-0.1,1-0.2v1.4c-0.4,0.2-0.9,0.4-1.5,0.4
			C223.8,10.2,223,9.6,223,8z"/>
		<path d="M227.7,0.1h1.8v1.6h-1.8V0.1z M227.7,2.8h1.7V10h-1.7V2.8z"/>
		<path d="M230.5,6.4L230.5,6.4c0-2.1,1.6-3.8,3.9-3.8c2.2,0,3.9,1.7,3.9,3.8v0c0,2.1-1.6,3.8-3.9,3.8
			C232.2,10.2,230.5,8.5,230.5,6.4z M236.6,6.4L236.6,6.4c0-1.3-0.9-2.4-2.2-2.4c-1.3,0-2.2,1-2.2,2.3v0c0,1.3,0.9,2.3,2.2,2.3
			C235.8,8.7,236.6,7.7,236.6,6.4z"/>
		<path d="M239.4,2.8h1.7v1.1c0.5-0.7,1.1-1.3,2.3-1.3c1.6,0,2.6,1.1,2.6,2.8V10h-1.7V5.9c0-1.1-0.6-1.8-1.6-1.8
			c-1,0-1.6,0.7-1.6,1.8V10h-1.7V2.8z"/>
	</g>
	<g>
		<g>
			<path class="st1" d="M159.3,6.7c-0.5,0.6-1.2,1.1-2.1,1.1c-1.4,0-2.6-1.2-2.6-2.6c0-1.4,1.2-2.6,2.6-2.6c0.9,0,1.6,0.4,2.1,1.1
				l2-1.4c-0.9-1.3-2.4-2.1-4.1-2.1c-2.8,0-5,2.2-5,5s2.2,5,5,5c1.7,0,3.1-0.8,4.1-2.1L159.3,6.7z"/>
		</g>
		<g>
			<polygon points="139.9,0.4 141.6,0.4 141.6,10 140.1,10 134.8,3.2 134.8,10 133.2,10 133.2,0.4 134.7,0.4 139.9,7.1 			"/>
		</g>
		<g>
			<path d="M147.4,2.4l-1.6,3.8h3.3L147.4,2.4z M152.4,10h-1.8l-1-2.3h-4.5l-1,2.3h-1.7l4.2-9.7h1.6L152.4,10z"/>
		</g>
		<g>
			<path d="M166.7,4.4c2,0.5,3.1,1.2,3.1,2.8c0,1.8-1.4,2.9-3.4,2.9c-1.5,0-2.9-0.5-4-1.5l1-1.2c0.9,0.8,1.8,1.3,3,1.3
				c1,0,1.7-0.5,1.7-1.2c0-0.7-0.4-1.1-2.2-1.5c-2-0.5-3.2-1.1-3.2-2.9c0-1.7,1.4-2.8,3.3-2.8c1.4,0,2.5,0.4,3.5,1.2l-0.9,1.3
				c-0.9-0.6-1.7-1-2.6-1c-1,0-1.6,0.5-1.6,1.2C164.4,3.7,164.8,4,166.7,4.4"/>
		</g>
		<g>
			<path d="M170.2,9.2h-0.1v0.2h0.1c0.1,0,0.1,0,0.1-0.1C170.3,9.3,170.3,9.2,170.2,9.2 M170.3,9.5l0.2,0.2h-0.1l-0.1-0.2h-0.1v0.2
				H170V9.1h0.3c0.1,0,0.2,0.1,0.2,0.2C170.4,9.4,170.4,9.5,170.3,9.5 M170.2,8.9c-0.3,0-0.5,0.2-0.5,0.5c0,0.3,0.2,0.5,0.5,0.5
				c0.3,0,0.5-0.2,0.5-0.5C170.7,9.2,170.5,8.9,170.2,8.9 M170.2,10c-0.3,0-0.6-0.3-0.6-0.6s0.3-0.6,0.6-0.6c0.3,0,0.6,0.3,0.6,0.6
				C170.8,9.8,170.5,10,170.2,10"/>
		</g>
	</g>
</g>
</svg>
