<?xml version="1.0" encoding="utf-8"?>
<!-- Generator: Adobe Illustrator 24.0.3, SVG Export Plug-In . SVG Version: 6.00 Build 0)  -->
<svg version="1.1" id="Layer_1" xmlns="http://www.w3.org/2000/svg" xmlns:xlink="http://www.w3.org/1999/xlink" x="0px" y="0px"
	 viewBox="0 0 375.3024902 97.4167404" style="enable-background:new 0 0 375.3024902 97.4167404;" xml:space="preserve">
<style type="text/css">
	.st0{fill:#FFFFFF;}
	.st1{fill:#C4D600;}
	.st2{fill:#00A82D;}
	.st3{fill:none;}
</style>
<g>
	<g>
		<g>
			<polygon class="st0" points="23.1201782,74.0475388 23.1201782,37.0475349 55.1201782,17.0475368 58.1201782,17.0475368 
				64.1201782,21.0475368 64.1201782,17.0475368 83.1201782,29.0475368 83.2956696,33.4931259 89.1201782,37.0475349 
				89.2814026,72.7329636 58.1201782,96.0475388 54.1201782,96.0475388 			"/>
		</g>
		<g>
			<g>
				<path class="st1" d="M109.2317505,20.8677273L91.6417236,9.7412624c-1.4302368-0.9053955-3.24646-0.9347534-4.7060547-0.0778809
					L69.0559692,20.1649075l14.064209,8.8826294v3.7449322l6.1918945,3.7819824v37.1747475l17.3053589-12.4734535
					c3.0050049-2.7323608,4.7180786-6.6049194,4.7180786-10.6668701v-25.920042
					C111.3355103,23.1387234,110.5415649,21.6964626,109.2317505,20.8677273z"/>
			</g>
			<g>
				<path class="st2" d="M47.1456032,22.1989861L25.8028374,9.6638041
					c-1.4596424-0.8574495-3.2758045-0.8274879-4.7060852,0.0772943L3.5067487,20.8681755
					c-1.3098409,0.8286858-2.1037741,2.2703495-2.1037741,3.8204727V50.609272c0,4.061348,1.7130979,7.9345512,4.7180662,10.6662865
					l17.3053856,12.4740601V36.5743027L47.1456032,22.1989861z"/>
			</g>
			<g>
				<path d="M109.9817505,19.6821804L92.3920898,8.5554714c-1.8821411-1.1919556-4.2453003-1.2311401-6.1672363-0.1018066
					l-16.9119873,9.9332275l-4.3117676-2.7522583c-0.4318237-0.2761841-0.9795532-0.2943115-1.4292603-0.0479736
					c-0.4494019,0.2463379-0.7285156,0.7180176-0.7285156,1.2305908v1.9747314l-3.3116455-2.0192261
					c-1.8935547-1.1468506-4.2467651-1.1474609-6.1408691,0.0006104l-6.2566528,3.7918091L26.5133057,8.4542751
					c-1.9213867-1.1293945-4.2836304-1.0901489-6.166626,0.1011963L2.7566528,19.6827297
					C1.0304565,20.7746487,0,22.6459255,0,24.6887112v25.9205303c0,4.4476929,1.887146,8.713501,5.1774292,11.7041626
					C5.2163696,62.3491096,53.041748,96.3353806,53.041748,96.3353806c1.0033569,0.7072144,2.1754761,1.0621338,3.3501587,1.0743408
					c0.0234985,0.0011597,0.0456543,0.007019,0.069458,0.007019c0.0393677,0,0.076416-0.0084229,0.1149292-0.0115967
					c1.159668-0.0238037,2.3140869-0.3782959,3.3029785-1.0791626c0,0,47.6428223-33.9762611,47.6820068-34.0119667
					c3.2903442-2.9918823,5.177124-7.2582397,5.177124-11.7053833v-25.91992
					C112.7384033,22.6453762,111.7079468,20.7740383,109.9817505,19.6821804z M87.6456299,10.8732815
					c0.0857544-0.050293,0.1751709-0.0899048,0.263916-0.1314087V34.073658l-2.8040771-1.7127075v-3.1244488
					c0-0.479248-0.2443237-0.9251099-0.6480713-1.1825562l-12.489624-7.9723511L87.6456299,10.8732815z M65.6491699,19.3773098
					l16.6505127,10.6281128v5.8380718l-16.6505127-10.067564V19.3773098z M62.8433228,22.0782986v4.4887695
					c0,0.4909058,0.2565918,0.946167,0.677063,1.2007446l19.4562988,11.7644634
					c0.2229614,0.1345825,0.4742432,0.2024536,0.7258911,0.2024536c0.2372437,0,0.4751587-0.0602417,0.6893311-0.1813965
					c0.4408569-0.2486572,0.713562-0.7156372,0.713562-1.2218018v-2.6791992l2.803772,1.7095337v7.81427L57.8640137,27.5378323
					v-8.4581299c0.0688477,0.0350342,0.1438599,0.0505371,0.2106323,0.0910034L62.8433228,22.0782986z M54.8446045,19.1730862
					c0.067749-0.0410767,0.1437378-0.0570068,0.213562-0.0925293v8.4701538l-30.2289429,18.321104v-8.506958L54.8446045,19.1730862z
					 M25.0922241,10.8732815l19.3153076,11.3443604L24.8292236,34.0829964V10.742239
					C24.9176636,10.7836208,25.0067749,10.8231106,25.0922241,10.8732815z M14.5875854,65.648735l-4.1206665-2.9704018V48.2545662
					l4.1206665-2.3119507V65.648735z M22.0233765,71.0087814l-4.6300049-3.3375244V43.5469856
					c0-0.4979248-0.263916-0.9590454-0.6939697-1.2106323c-0.4301147-0.2516479-0.9608154-0.256897-1.3953247-0.0128784
					l-6.9264526,3.8859863c-0.442627,0.2481079-0.7164917,0.7162476-0.7164917,1.2235718v13.2227783l-0.6536255-0.4711914
					c-2.6708984-2.4570312-4.2016602-5.9428101-4.2016602-9.5753784V24.6887112
					c0-1.0748901,0.5424194-2.0603027,1.4511719-2.6349487l17.5899658-11.1272583
					c0.0571289-0.0361328,0.1176758-0.0631104,0.1763916-0.0952148v25.7430401v11.7885132V71.0087814z M24.8292236,73.0215378
					V49.1528816l30.229248-18.3212872V94.278862C54.9208984,94.2100143,24.8292236,73.0215378,24.8292236,73.0215378z
					 M57.8642578,94.2708054V30.7921047l30.0449829,17.6381817v24.5936317l-4.100769,2.9059448V52.9633064
					c0-0.5255127-0.2937622-1.0070801-0.7612915-1.2475586l-17.7824707-9.1453857
					c-0.4347534-0.2240601-0.9546509-0.2047729-1.3724976,0.0497437c-0.4174805,0.255127-0.6719971,0.7086182-0.6719971,1.1978149
					v46.7016029C63.2202148,90.5195236,57.9990234,94.202507,57.8642578,94.2708054z M72.1112671,54.6115608v29.6074257
					l-6.0852661,4.3122559V51.6963997L72.1112671,54.6115608z M66.026001,48.5851936V46.116993l14.9766846,7.7023926v1.9403687
					L66.026001,48.5851936z M74.9171143,55.955677l6.0855713,2.9152832v19.047184l-6.0855713,4.3125V55.955677z
					 M102.2717896,62.6789436l-4.1209106,2.9700356V45.9426155l4.1209106,2.3119507V62.6789436z M109.9326172,50.6086311
					c0,3.6326294-1.5304565,7.1183472-4.2017212,9.5772095l-0.6533203,0.4708862V47.433033
					c0-0.5073242-0.2738037-0.9754639-0.7164917-1.2235718l-6.9267578-3.8859863
					c-0.4347534-0.2446289-0.9657593-0.2393188-1.3952637,0.0128784c-0.4301147,0.2515869-0.6940308,0.7127075-0.6940308,1.2106323
					V67.671257l-4.6296997,3.336731V10.8312893c0.0586548,0.0321045,0.1191406,0.059082,0.1761475,0.0952148l17.5899658,11.126709
					c0.9087524,0.574585,1.4511719,1.5599976,1.4511719,2.635498V50.6086311z"/>
			</g>
		</g>
	</g>
	<g>
		<path d="M131.5666351,32.7744141v-0.0859375c0-8.5566406,6.4067383-15.5654297,15.5224609-15.5654297
			c5.546875,0,8.9008789,1.9345703,11.7817383,4.6865234l-3.3969727,3.9130859
			c-2.4077148-2.2358398-4.987793-3.7407227-8.4277344-3.7407227c-5.71875,0-9.9326172,4.7294922-9.9326172,10.6206055v0.0859375
			c0,5.8911133,4.1708984,10.6640625,9.9326172,10.6640625c3.6982422,0,6.0629883-1.4619141,8.6430664-3.8701172
			l3.3969727,3.4399414c-3.1391602,3.2680664-6.5791016,5.3320312-12.2119141,5.3320312
			C138.1022797,48.2543945,131.5666351,41.4174805,131.5666351,32.7744141z"/>
		<path d="M161.9968109,36.515625v-0.0859375c0-6.4931641,5.159668-11.8681641,12.1259766-11.8681641
			c6.9658203,0,12.0825195,5.2890625,12.0825195,11.7817383v0.0864258c0,6.449707-5.159668,11.824707-12.1689453,11.824707
			C167.1135101,48.2543945,161.9968109,42.965332,161.9968109,36.515625z M181.0026703,36.515625v-0.0859375
			c0-3.9990234-2.8813477-7.3100586-6.9663086-7.3100586c-4.1708984,0-6.8369141,3.2680664-6.8369141,7.2236328v0.0864258
			c0,3.9555664,2.8813477,7.2666016,6.9233398,7.2666016C178.3366547,43.6962891,181.0026703,40.4282227,181.0026703,36.515625z"/>
		<path d="M191.0866547,25.034668h5.2026367v3.4399414c1.4619141-2.0209961,3.4399414-3.9130859,6.9233398-3.9130859
			c3.2675781,0,5.5898438,1.5913086,6.7939453,3.9990234c1.8056641-2.4077148,4.2138672-3.9990234,7.6533203-3.9990234
			c4.9453125,0,7.9550781,3.1391602,7.9550781,8.6860352v14.4907227h-5.203125V34.8383789
			c0-3.6118164-1.6767578-5.546875-4.6005859-5.546875c-2.8378906,0-4.8583984,1.9780273-4.8583984,5.6328125v12.8139648h-5.203125
			V34.7954102c0-3.5258789-1.7197266-5.5039062-4.6015625-5.5039062c-2.8808594,0-4.8588867,2.1499023-4.8588867,5.6328125
			v12.8139648h-5.2026367V25.034668z"/>
		<path d="M231.7302094,25.034668h5.203125v3.4399414c1.4619141-2.0209961,3.4394531-3.9130859,6.9228516-3.9130859
			c3.2675781,0,5.5898438,1.5913086,6.7939453,3.9990234c1.8056641-2.4077148,4.2138672-3.9990234,7.6533356-3.9990234
			c4.9453125,0,7.9550781,3.1391602,7.9550781,8.6860352v14.4907227h-5.203125V34.8383789
			c0-3.6118164-1.6767578-5.546875-4.6005859-5.546875c-2.8379059,0-4.8584137,1.9780273-4.8584137,5.6328125v12.8139648h-5.203125
			V34.7954102c0-3.5258789-1.7197266-5.5039062-4.6015625-5.5039062c-2.8808594,0-4.8583984,2.1499023-4.8583984,5.6328125
			v12.8139648h-5.203125V25.034668z"/>
		<path d="M272.1032715,39.4824219V25.034668h5.203125v12.8999023c0,3.5258789,1.7626953,5.5039062,4.8583984,5.5039062
			c3.0097656,0,5.1171875-2.0639648,5.1171875-5.5898438V25.034668h5.2460938v22.7036133h-5.2460938v-3.5258789
			c-1.4619141,2.1499023-3.5693359,3.9990234-7.0947266,3.9990234
			C275.0700684,48.2114258,272.1032715,44.7714844,272.1032715,39.4824219z"/>
		<path d="M298.6940918,25.034668h5.203125v3.4829102c1.4619141-2.1069336,3.5693359-3.9560547,7.0947266-3.9560547
			c5.1171875,0,8.0839844,3.4399414,8.0839844,8.6860352v14.4907227h-5.203125V34.8383789
			c0-3.5258789-1.7626953-5.546875-4.8583984-5.546875c-3.0107422,0-5.1171875,2.1069336-5.1171875,5.6328125v12.8139648h-5.203125
			V25.034668z"/>
		<path d="M324.9538574,16.6069336h5.5898438v4.9448242h-5.5898438V16.6069336z M325.1687012,25.034668h5.203125v22.7036133
			h-5.203125V25.034668z"/>
		<path d="M337.548584,41.4604492V29.5068359h-2.8808594v-4.472168h2.8808594v-6.2348633h5.203125v6.2348633h6.1054688v4.472168
			h-6.1054688v11.1367188c0,2.0209961,1.03125,2.8378906,2.7949219,2.8378906c1.1611328,0,2.1923828-0.2583008,3.2246094-0.7739258
			v4.2568359c-1.2900391,0.730957-2.7089844,1.1611328-4.6865234,1.1611328
			C340.2575684,48.1254883,337.548584,46.4482422,337.548584,41.4604492z"/>
		<path d="M369.8845215,25.034668h5.4179688l-9.0302734,23.3486328c-1.8056641,4.644043-3.8271484,6.3637695-7.4814453,6.3637695
			c-2.1503906,0-3.7841797-0.5161133-5.375-1.3759766l1.7626953-3.8696289
			c0.9462891,0.515625,1.9775391,0.8598633,3.0527344,0.8598633c1.4619141,0,2.3652344-0.6450195,3.2246094-2.5800781
			l-9.4589844-22.746582h5.5898438l6.40625,16.855957L369.8845215,25.034668z"/>
		<path d="M131.5666351,72.7744141v-0.0859375c0-8.5566406,6.4067383-15.5654297,15.5224609-15.5654297
			c5.546875,0,8.9008789,1.9345703,11.7817383,4.6865234l-3.3969727,3.9130859
			c-2.4077148-2.2358398-4.987793-3.7407227-8.4277344-3.7407227c-5.71875,0-9.9326172,4.7294922-9.9326172,10.6206055v0.0859375
			c0,5.8911133,4.1708984,10.6640625,9.9326172,10.6640625c3.6982422,0,6.0629883-1.4619141,8.6430664-3.8701172
			l3.3969727,3.4399414c-3.1391602,3.2680664-6.5791016,5.3320312-12.2119141,5.3320312
			C138.1022797,88.2543945,131.5666351,81.4174805,131.5666351,72.7744141z"/>
		<path d="M163.4977875,56.3486328h5.203125v31.3896484h-5.203125V56.3486328z"/>
		<path d="M173.7702484,76.4726562v-0.0859375c0-6.4931641,4.6010742-11.8251953,11.09375-11.8251953
			c7.2241211,0,10.8789062,5.6762695,10.8789062,12.2119141c0,0.4731445-0.0429688,0.9458008-0.0859375,1.4619141h-16.684082
			c0.559082,3.6982422,3.1821289,5.762207,6.5361328,5.762207c2.5371094,0,4.3427734-0.9462891,6.1489258-2.7089844
			l3.0527344,2.7089844c-2.1499023,2.5795898-5.1166992,4.2568359-9.2875977,4.2568359
			C178.8439789,88.2543945,173.7702484,83.4814453,173.7702484,76.4726562z M190.5827484,74.7954102
			c-0.34375-3.3540039-2.3217773-5.9770508-5.7617188-5.9770508c-3.1821289,0-5.4179688,2.4511719-5.8911133,5.9770508H190.5827484z
			"/>
		<path d="M198.9855804,81.2021484v-0.0859375c0-4.9018555,3.8266602-7.3095703,9.3735352-7.3095703
			c2.5371094,0,4.34375,0.3867188,6.1064453,0.9458008v-0.559082c0-3.2246094-1.9785156-4.9448242-5.6328125-4.9448242
			c-2.5371094,0-4.4296875,0.559082-6.4936523,1.4189453l-1.3759766-4.0849609
			c2.4946289-1.1176758,4.9458008-1.8486328,8.5571289-1.8486328c3.3974609,0,5.9345703,0.902832,7.5253906,2.5366211
			c1.6767578,1.6342773,2.4501953,4.0419922,2.4501953,7.0087891v13.4589844h-5.0732422v-2.8378906
			c-1.5478516,1.8491211-3.9130859,3.3110352-7.3964844,3.3110352
			C202.7692719,88.2114258,198.9855804,85.7602539,198.9855804,81.2021484z M214.5514984,79.5683594v-1.5478516
			c-1.3330078-0.5161133-3.0957031-0.902832-5.1601562-0.902832c-3.3535156,0-5.3320312,1.4189453-5.3320312,3.7836914v0.0859375
			c0,2.1928711,1.9355469,3.4399414,4.4287109,3.4399414C211.9284515,84.4272461,214.5514984,82.4492188,214.5514984,79.5683594z"/>
		<path d="M225.4772797,65.034668h5.203125v3.4829102c1.4619141-2.1069336,3.5693359-3.9560547,7.0947266-3.9560547
			c5.1171875,0,8.0839844,3.4399414,8.0839844,8.6860352v14.4907227h-5.203125V74.8383789
			c0-3.5258789-1.7626953-5.546875-4.8583984-5.546875c-3.0107422,0-5.1171875,2.1069336-5.1171875,5.6328125v12.8139648h-5.203125
			V65.034668z"/>
		<path d="M251.6169281,79.4824219V65.034668h5.2031403v12.8999023c0,3.5258789,1.7626953,5.5039062,4.8583984,5.5039062
			c3.0097656,0,5.1171875-2.0639648,5.1171875-5.5898438V65.034668h5.2460938v22.7036133h-5.2460938v-3.5258789
			c-1.4619141,2.1499023-3.5693359,3.9990234-7.0947266,3.9990234
			C254.583725,88.2114258,251.6169281,84.7714844,251.6169281,79.4824219z"/>
		<path d="M278.2077637,65.034668h5.2021484v3.7836914c1.6777344-2.3647461,4.0419922-4.2568359,7.7402344-4.2568359
			c5.3320312,0,10.5351562,4.2138672,10.5351562,11.7817383v0.0864258c0,7.5244141-5.1601562,11.7817383-10.5351562,11.7817383
			c-3.7841797,0-6.1484375-1.8920898-7.7402344-3.9990234v10.4057617h-5.2021484V65.034668z M296.3962402,76.4296875v-0.0864258
			c0-4.3857422-2.9667969-7.2666016-6.4931641-7.2666016c-3.5253906,0-6.6220703,2.9238281-6.6220703,7.2666016v0.0864258
			c0,4.3427734,3.0966797,7.2666016,6.6220703,7.2666016C293.4724121,83.6962891,296.3962402,80.9013672,296.3962402,76.4296875z"/>
	</g>
	<g>
		<path class="st3" d="M133.1764984,0.4125977h1.5673828l5.1552734,6.6538086V0.4125977h1.6635742v9.6235352h-1.4160156
			l-5.3066406-6.8466797v6.8466797h-1.6635742V0.4125977z"/>
		<path class="st3" d="M146.3210297,0.34375h1.5673828l4.234375,9.6923828h-1.7875977l-0.9760742-2.3232422h-4.550293
			l-0.9902344,2.3232422h-1.7319336L146.3210297,0.34375z M148.7404633,6.2143555l-1.6635742-3.8496094l-1.6494141,3.8496094
			H148.7404633z"/>
		<path class="st3" d="M151.3952484,5.2519531v-0.027832c0-2.8046875,2.1582031-5.0043945,5.0732422-5.0043945
			c1.9658203,0,3.2304688,0.8251953,4.0830078,2.0073242l-2.0073242,1.5537109
			c-0.5498047-0.6875-1.1821289-1.1274414-2.1035156-1.1274414c-1.347168,0-2.2958984,1.1411133-2.2958984,2.543457v0.0273438
			c0,1.4438477,0.9487305,2.5712891,2.2958984,2.5712891c1.0039062,0,1.5947266-0.4677734,2.1723633-1.1689453l2.0073242,1.4296875
			c-0.9077148,1.2514648-2.1308594,2.1723633-4.262207,2.1723633C153.6086273,10.2285156,151.3952484,8.125,151.3952484,5.2519531z"
			/>
		<path class="st3" d="M161.2267914,8.6337891l1.0170898-1.2099609c0.9213867,0.7973633,1.855957,1.2514648,3.0385742,1.2514648
			c1.0449219,0,1.7045898-0.4951172,1.7045898-1.2099609V7.4375c0-0.6870117-0.3847656-1.0585938-2.171875-1.4707031
			c-2.0488281-0.4951172-3.2036133-1.1000977-3.2036133-2.8735352V3.065918c0-1.6499023,1.375-2.7910156,3.2856445-2.7910156
			c1.4023438,0,2.5161133,0.4262695,3.4921875,1.2099609l-0.9072266,1.2783203
			c-0.8662109-0.6459961-1.7324219-0.9897461-2.6123047-0.9897461c-0.9897461,0-1.5673828,0.5087891-1.5673828,1.1411133v0.0273438
			c0,0.7426758,0.4399414,1.0727539,2.2958984,1.5126953c2.0351562,0.4946289,3.0795898,1.2231445,3.0795898,2.8183594V7.300293
			c0,1.8007812-1.4160156,2.8735352-3.4370117,2.8735352C163.7702484,10.1738281,162.3815765,9.6650391,161.2267914,8.6337891z"/>
		<path d="M174.5226898,0.4125977h7.1625977v1.5395508h-5.4716797V4.578125h4.8530273v1.5395508h-4.8530273v3.918457h-1.690918
			V0.4125977z"/>
		<path d="M182.1677094,6.4477539V6.4204102c0-2.0761719,1.6499023-3.7944336,3.8769531-3.7944336
			c2.2275391,0,3.8632812,1.690918,3.8632812,3.7670898v0.0273438c0,2.0620117-1.6494141,3.7807617-3.890625,3.7807617
			C183.8039398,10.2011719,182.1677094,8.5102539,182.1677094,6.4477539z M188.2443695,6.4477539V6.4204102
			c0-1.2788086-0.9208984-2.3374023-2.2270508-2.3374023c-1.3334961,0-2.1860352,1.0449219-2.1860352,2.3100586v0.0273438
			c0,1.2646484,0.9213867,2.3232422,2.2133789,2.3232422C187.3923187,8.7436523,188.2443695,7.6987305,188.2443695,6.4477539z"/>
		<path d="M190.9811859,7.3964844V2.7768555h1.6635742v4.1245117c0,1.1274414,0.5634766,1.7597656,1.5532227,1.7597656
			c0.9624023,0,1.6362305-0.659668,1.6362305-1.7871094v-4.097168h1.6772461v7.2592773h-1.6772461V8.9086914
			c-0.4672852,0.6875-1.1411133,1.2788086-2.2685547,1.2788086C191.9299164,10.1875,190.9811859,9.0874023,190.9811859,7.3964844z"
			/>
		<path d="M198.7912445,2.7768555h1.6635742V3.890625c0.4672852-0.6733398,1.1411133-1.2646484,2.2685547-1.2646484
			c1.6357422,0,2.5849609,1.0996094,2.5849609,2.7768555v4.6333008h-1.6640625V5.9116211
			c0-1.1274414-0.5634766-1.7734375-1.5537109-1.7734375c-0.9624023,0-1.6357422,0.6738281-1.6357422,1.8007812v4.097168h-1.6635742
			V2.7768555z"/>
		<path d="M206.4089203,6.4204102V6.3930664c0-2.40625,1.6357422-3.7670898,3.3681641-3.7670898
			c1.1962891,0,1.9521484,0.5913086,2.4746094,1.2783203V0h1.6640625v10.0361328h-1.6640625V8.8261719
			c-0.5361328,0.7563477-1.2919922,1.3613281-2.4746094,1.3613281C208.0729828,10.1875,206.4089203,8.8261719,206.4089203,6.4204102
			z M212.2790375,6.4204102V6.3930664c0-1.4023438-0.9892578-2.3237305-2.1035156-2.3237305
			c-1.140625,0-2.0888672,0.8798828-2.0888672,2.3237305v0.0273438c0,1.4023438,0.9619141,2.3232422,2.0888672,2.3232422
			C211.2897797,8.7436523,212.2790375,7.809082,212.2790375,6.4204102z"/>
		<path d="M214.7409515,7.9462891V7.9189453c0-1.5673828,1.2236328-2.3374023,2.9970703-2.3374023
			c0.8115234,0,1.3886719,0.1240234,1.953125,0.3027344V5.7055664c0-1.03125-0.6328125-1.5810547-1.8017578-1.5810547
			c-0.8105469,0-1.4160156,0.1787109-2.0751953,0.4536133l-0.4404297-1.3061523
			c0.7978516-0.3574219,1.5810547-0.5913086,2.7363281-0.5913086c1.0859375,0,1.8964844,0.2890625,2.4052734,0.8115234
			c0.5361328,0.5224609,0.7841797,1.2919922,0.7841797,2.2407227v4.3032227h-1.6230469V9.1289062
			c-0.4941406,0.5908203-1.2509766,1.0585938-2.3642578,1.0585938C215.9509125,10.1875,214.7409515,9.4038086,214.7409515,7.9462891
			z M219.7184906,7.4238281V6.9291992c-0.4267578-0.1650391-0.9902344-0.2890625-1.6503906-0.2890625
			c-1.0722656,0-1.7041016,0.4541016-1.7041016,1.2099609v0.0273438c0,0.7011719,0.6181641,1.1000977,1.4160156,1.1000977
			C218.8796234,8.9775391,219.7184906,8.3452148,219.7184906,7.4238281z"/>
		<path d="M222.9772797,8.0288086V4.2070312h-0.9208984V2.7768555h0.9208984V0.7836914h1.6640625v1.9931641h1.9521484v1.4301758
			h-1.9521484v3.5605469c0,0.6464844,0.3291016,0.9077148,0.8935547,0.9077148c0.3710938,0,0.7011719-0.0825195,1.03125-0.2475586
			v1.3608398c-0.4130859,0.2338867-0.8662109,0.3710938-1.4990234,0.3710938
			C223.8434906,10.159668,222.9772797,9.6235352,222.9772797,8.0288086z"/>
		<path d="M227.6520844,0.0825195h1.7871094v1.5810547h-1.7871094V0.0825195z M227.7214203,2.7768555h1.6630859v7.2592773
			h-1.6630859V2.7768555z"/>
		<path d="M230.5397797,6.4477539V6.4204102c0-2.0761719,1.6503906-3.7944336,3.8769531-3.7944336
			c2.2275391,0,3.8632812,1.690918,3.8632812,3.7670898v0.0273438c0,2.0620117-1.6494141,3.7807617-3.890625,3.7807617
			C232.1764984,10.2011719,230.5397797,8.5102539,230.5397797,6.4477539z M236.6169281,6.4477539V6.4204102
			c0-1.2788086-0.9208984-2.3374023-2.2275391-2.3374023c-1.3330078,0-2.1855469,1.0449219-2.1855469,2.3100586v0.0273438
			c0,1.2646484,0.9208984,2.3232422,2.2128906,2.3232422C235.764389,8.7436523,236.6169281,7.6987305,236.6169281,6.4477539z"/>
		<path d="M239.4225922,2.7768555h1.6640625V3.890625c0.4667969-0.6733398,1.140625-1.2646484,2.2685547-1.2646484
			c1.6357422,0,2.5839844,1.0996094,2.5839844,2.7768555v4.6333008h-1.6630859V5.9116211
			c0-1.1274414-0.5634766-1.7734375-1.5537109-1.7734375c-0.9628906,0-1.6357422,0.6738281-1.6357422,1.8007812v4.097168h-1.6640625
			V2.7768555z"/>
	</g>
	<g>
		<g>
			<path class="st2" d="M159.3080444,6.7265444c-0.4675903,0.6469159-1.2261505,1.0690022-2.0851746,1.0690022
				c-1.4216766,0-2.5747375-1.1524935-2.5747375-2.5741649c0-1.4216695,1.1530609-2.5747411,2.5747375-2.5747411
				c0.8584442,0,1.6170044,0.4220862,2.0845947,1.068037l1.9683228-1.4201295
				c-0.908783-1.2558419-2.3848267-2.073405-4.0529175-2.073405c-2.7617798,0-5.0000458,2.2384605-5.0000458,5.0002384
				s2.238266,5.0000482,5.0000458,5.0000482c1.6686707,0,3.1456909-0.81814,4.0542603-2.0747557L159.3080444,6.7265444z"/>
		</g>
		<g>
			<polygon points="139.897049,0.4105101 141.5595551,0.4105101 141.5595551,10.02882 140.1444397,10.02882 134.8404999,3.1863654 
				134.8404999,10.02882 133.178009,10.02882 133.178009,0.4105101 134.7440948,0.4105101 139.897049,7.0609159 			"/>
		</g>
		<g>
			<path d="M147.3721924,2.3614571l-1.6484222,3.847748h3.3113098L147.3721924,2.3614571z M152.4152374,10.0289936h-1.7862854
				l-0.975296-2.3217607h-4.5480804l-0.9895477,2.3217607h-1.7311554l4.2322388-9.6871462h1.5659027L152.4152374,10.0289936z"/>
		</g>
		<g>
			<path d="M166.66539,4.4502897c2.0336761,0.4943943,3.0918732,1.223258,3.0918732,2.830616
				c0,1.8138704-1.4152985,2.8857632-3.4354858,2.8857632c-1.470459,0-2.8578033-0.5088549-4.012619-1.539485l1.017334-1.2089887
				c0.9207153,0.7969298,1.8408661,1.2508311,3.0363617,1.2508311c1.0441132,0,1.7041473-0.4808969,1.7041473-1.2230654
				c0-0.7009058-0.3850708-1.0718927-2.1707764-1.4841447c-2.0479584-0.4943943-3.2016144-1.099082-3.2016144-2.8855708
				c0-1.6767733,1.3734741-2.8028488,3.2837524-2.8028488c1.4016113,0,2.5145874,0.4255566,3.4898682,1.2087958
				l-0.9066467,1.2780188c-0.8655701-0.6457567-1.7311401-0.9895579-2.6107941-0.9895579
				c-0.9889832,0-1.5661011,0.5084714-1.5661011,1.1546134C164.3846893,3.6811259,164.8237457,4.010272,166.66539,4.4502897"/>
		</g>
		<g>
			<path d="M170.2131195,9.2418013h-0.1488647v0.1905088h0.1488647c0.074234,0,0.1187744-0.036829,0.1187744-0.0948687
				C170.3318939,9.2749681,170.2873535,9.2418013,170.2131195,9.2418013 M170.3101044,9.5129089l0.1615906,0.2269497h-0.1369019
				l-0.1450043-0.20786h-0.1255341v0.20786h-0.1139526V9.1390285h0.2678223c0.1392212,0,0.2310028,0.071537,0.2310028,0.1918573
				C170.4491272,9.4288387,170.3922577,9.4889994,170.3101044,9.5129089 M170.1832275,8.9392653
				c-0.2930908,0-0.5150146,0.2331209-0.5150146,0.5184965c0,0.2847967,0.2203827,0.5142546,0.5115509,0.5142546
				c0.2930908,0,0.5150299-0.2321577,0.5150299-0.517725C170.6947937,9.1694937,170.4743958,8.9392653,170.1832275,8.9392653
				 M170.1797638,10.0294762c-0.3216248,0-0.5715179-0.2579947-0.5715179-0.5717144s0.2535553-0.5749931,0.5749817-0.5749931
				c0.3216248,0,0.5719147,0.2576084,0.5719147,0.5715227C170.7551422,9.7680111,170.5013885,10.0294762,170.1797638,10.0294762"/>
		</g>
	</g>
</g>
</svg>
