<?xml version="1.0" encoding="utf-8"?>
<!-- Generator: Adobe Illustrator 24.1.2, SVG Export Plug-In . SVG Version: 6.00 Build 0)  -->
<svg version="1.1" id="Layer_1" xmlns="http://www.w3.org/2000/svg" xmlns:xlink="http://www.w3.org/1999/xlink" x="0px" y="0px"
	 viewBox="0 0 439.59 330.23" style="enable-background:new 0 0 439.59 330.23;" xml:space="preserve">
<style type="text/css">
	.st0{fill:#FFFFFF;}
</style>
<g>
	<path class="st0" d="M439.59,82.11V0H0v82.11h21.17v237.73H5.19v10.38H434.4v-10.38h-15.97V82.11H439.59z M10.38,10.38h418.83
		v61.35H10.38V10.38z M130.33,144.44h83.96v175.41h-83.96V144.44z M224.67,144.44h84.6v175.41h-84.6V144.44z M309.27,134.05H130.33
		V82.11h178.94V134.05z M31.55,82.11h88.39v237.73H31.55V82.11z M408.05,319.85h-88.39V82.11h88.39V319.85z"/>
	<rect x="188.44" y="218.33" class="st0" width="10.38" height="24.99"/>
	<rect x="240.12" y="218.33" class="st0" width="10.38" height="24.99"/>
</g>
</svg>
