<?xml version="1.0" encoding="utf-8"?>
<!-- Generator: Adobe Illustrator 24.1.2, SVG Export Plug-In . SVG Version: 6.00 Build 0)  -->
<svg version="1.1" id="Layer_1" xmlns="http://www.w3.org/2000/svg" xmlns:xlink="http://www.w3.org/1999/xlink" x="0px" y="0px"
	 viewBox="0 0 349.46 330.23" style="enable-background:new 0 0 349.46 330.23;" xml:space="preserve">
<style type="text/css">
	.st0{fill:#FFFFFF;}
</style>
<g id="Group_234" transform="translate(-630.602 -205.283)">
	<g id="Path_315">
		<path class="st0" d="M820.42,535.51c-6.28,0-11.9-2.97-15.5-7.6c-3.51,4.49-8.95,7.4-15.1,7.51c-0.13,0-0.25,0-0.38,0
			c-10.65,0-19.42-8.56-19.62-19.26l4.14-0.08h-4.13V314.84h8.27l-0.01,201.26c0.08,3,1.31,5.8,3.47,7.89
			c2.18,2.1,5.03,3.21,8.09,3.17c6.12-0.12,11-4.99,11.14-11.1V405.97h8.27v110.1c0.1,6.25,5.25,11.35,11.5,11.17
			c6.2-0.08,11.12-5,11.2-11.2h0.01v-201.2h8.27v201.25h-4.35l4.34,0.06c-0.14,10.72-8.65,19.22-19.36,19.36
			C820.6,535.51,820.51,535.51,820.42,535.51z M706.44,535.51c-6.25,0-11.85-2.95-15.45-7.54c-3.53,4.54-9.02,7.46-15.26,7.54
			c-10.73,0.19-19.74-8.54-19.88-19.36l4.34-0.06h-4.34V334.5h8.27v181.57c0.09,6.25,5.29,11.36,11.5,11.18
			c6.19-0.08,11.1-4.99,11.2-11.17v-110.1h8.27v110.1c0.1,6.25,5.26,11.35,11.5,11.17c6.2-0.08,11.12-5,11.2-11.2h0V334.5h8.27
			v181.6h-4.35l4.34,0.06c-0.14,10.72-8.65,19.22-19.36,19.36C706.61,535.51,706.52,535.51,706.44,535.51z M934.41,535.51
			c-6.25,0-11.85-2.95-15.45-7.54c-3.53,4.54-9.02,7.46-15.26,7.54c-10.8,0.19-19.74-8.54-19.88-19.36l4.14-0.06h-4.14V334.5h8.27
			v181.56c0.1,6.25,5.22,11.36,11.5,11.18c6.19-0.08,11.1-4.99,11.2-11.17v-110.1h8.27v110.09c0.1,6.25,5.2,11.37,11.5,11.18
			c6.2-0.08,11.12-5,11.2-11.2h0.01V334.5h8.27v181.6h-3.95l3.93,0.05c-0.14,10.72-8.65,19.22-19.36,19.36
			C934.58,535.51,934.5,535.51,934.41,535.51z M980.07,405.97h-8.27v-89.83c-0.06-6.99-5.79-12.66-12.8-12.66c-0.03,0-0.07,0-0.1,0
			h-79.88v-8.27h79.84c0.06,0,0.11,0,0.17,0c11.51,0,20.95,9.34,21.04,20.9V405.97z M638.09,405.97h-8.27v-89.83
			c0.1-11.6,9.54-20.94,21.08-20.94c0.06,0,0.11,0,0.16,0h79.81v8.27h-79.84c-7.06-0.02-12.88,5.64-12.94,12.7V405.97z
			 M866.08,405.96h-8.27V296.48c-0.06-6.99-5.79-12.66-12.8-12.66c-0.03,0-0.07,0-0.1,0h-79.9c-0.03,0-0.07,0-0.1,0
			c-7.04,0-12.77,5.67-12.83,12.7v109.45h-8.27V296.48c0.09-11.59,9.53-20.94,21.07-20.94c0.06,0,0.11,0,0.16,0h79.83
			c0.05,0,0.11,0,0.16,0c11.51,0,20.95,9.34,21.04,20.9V405.96z M690.94,281.89c-15.49,0-28.21-12.47-28.46-28.01
			c-0.12-7.61,2.73-14.8,8.01-20.27c5.29-5.46,12.39-8.54,20-8.66l0.46,0c0.08,0,0.16,0,0.23,0c15.45,0,28.11,12.53,28.24,28.04
			l0.02,2.58l-0.11,0.05c-0.5,6.61-3.27,12.79-7.94,17.61c-5.29,5.46-12.39,8.54-20,8.66C691.25,281.89,691.1,281.89,690.94,281.89z
			 M691.15,233.22c-0.06,0-0.11,0-0.17,0l-0.34,0c-11.15,0.18-20.07,9.38-19.89,20.52c0.18,11.14,9.47,20.13,20.52,19.87
			c5.4-0.09,10.43-2.27,14.19-6.14c3.75-3.88,5.77-8.98,5.69-14.38l-0.01-0.74C710.69,241.72,701.88,233.22,691.15,233.22z
			 M918.92,281.88c-15.49,0-28.21-12.47-28.46-28.01c-0.25-15.69,12.32-28.67,28.01-28.91l0.45,0c0.08,0,0.16,0,0.24,0
			c15.45,0,28.11,12.53,28.24,28.04l0.04,4.17h-0.29c-1.82,13.75-13.5,24.49-27.77,24.72C919.23,281.87,919.07,281.88,918.92,281.88
			z M919.13,233.21c-0.06,0-0.11,0-0.17,0l-0.33,0c-11.16,0.18-20.07,9.38-19.89,20.51c0.18,11.02,9.2,19.87,20.19,19.87
			c0.11,0,0.22,0,0.32,0c5.39-0.08,10.43-2.26,14.18-6.14c3.75-3.87,5.77-8.98,5.69-14.37l-0.01-0.99
			c-0.27-4.97-2.36-9.62-5.95-13.15C929.38,235.25,924.41,233.21,919.13,233.21z M804.93,262.23c-15.49,0-28.21-12.47-28.46-28.01
			c-0.12-7.61,2.73-14.8,8.02-20.27c5.29-5.46,12.39-8.54,20-8.66l0.46,0c15.68-0.16,28.34,12.45,28.47,28.03l0.03,4.17l-0.28,0
			c-1.81,13.75-13.5,24.5-27.77,24.73C805.24,262.23,805.08,262.23,804.93,262.23z M805.15,213.56c-0.06,0-0.11,0-0.17,0l-0.35,0
			c-5.41,0.09-10.45,2.27-14.2,6.15c-3.75,3.88-5.77,8.98-5.69,14.38c0.18,11.14,9.42,20.17,20.52,19.87
			c11.14-0.18,20.05-9.38,19.87-20.52l-0.01-0.83C824.63,222.01,815.84,213.56,805.15,213.56z"/>
	</g>
</g>
</svg>
