<?xml version="1.0" encoding="utf-8"?>
<!-- Generator: Adobe Illustrator 24.1.2, SVG Export Plug-In . SVG Version: 6.00 Build 0)  -->
<svg version="1.1" id="Layer_1" xmlns="http://www.w3.org/2000/svg" xmlns:xlink="http://www.w3.org/1999/xlink" x="0px" y="0px"
	 viewBox="0 0 349.46 352.13" style="enable-background:new 0 0 349.46 352.13;" xml:space="preserve">
<style type="text/css">
	.st0{fill:#FFFFFF;}
</style>
<g id="Path_316">
	<path class="st0" d="M174.75,352.13c-0.01,0-0.01,0-0.02,0C78.38,352.13,0,273.11,0,175.96C0,78.83,78.38-0.2,174.73-0.2
		c0.01,0,0,0,0.02,0c0.01,0,0.02,0,0.02,0c96.33,0.02,174.7,79.04,174.7,176.17c0,97.13-78.36,176.15-174.7,176.17
		C174.76,352.13,174.75,352.13,174.75,352.13z M90.46,257.12c16.45,51.59,48.07,86.58,84.29,86.59c0.01,0,0.02,0,0.03,0
		c36.21-0.01,67.82-35.01,84.27-86.59H90.46z M29.21,257.12c22.15,40.24,60.23,70.39,105.59,81.71
		c-22.85-15.91-41.66-45.05-53.02-81.71H29.21z M267.71,257.12c-11.36,36.65-30.15,65.78-53,81.69
		c45.34-11.33,83.41-41.46,105.55-81.69H267.71z M270.15,248.7h54.43c10.55-22.01,16.46-46.69,16.46-72.74
		c0-26.4-6.08-51.39-16.89-73.63h-54.24c6.16,22.42,9.59,47.36,9.59,73.63C279.5,201.89,276.15,226.52,270.15,248.7z M87.95,248.7
		h173.6c6.11-22.01,9.54-46.69,9.54-72.74c0-26.4-3.52-51.39-9.79-73.63H88.2c-6.27,22.24-9.79,47.23-9.79,73.63
		C78.41,202.01,81.84,226.69,87.95,248.7z M24.88,248.7h54.46c-6-22.18-9.35-46.81-9.35-72.74c0-26.27,3.44-51.22,9.59-73.63H25.31
		C14.5,124.57,8.42,149.57,8.42,175.96C8.42,202.01,14.34,226.69,24.88,248.7z M267.43,93.91h52.33
		c-22.21-39.78-60.05-69.56-105.05-80.8C237.37,28.9,256.04,57.69,267.43,93.91z M90.74,93.91h168
		c-16.52-51.09-47.98-85.68-83.98-85.69c-0.01,0-0.02,0-0.03,0C138.73,8.23,107.27,42.82,90.74,93.91z M29.71,93.91h52.35
		c11.39-36.23,30.07-65.03,52.74-80.81C89.78,24.34,51.93,54.12,29.71,93.91z M150.38,219.13c-0.87,0-1.74-0.27-2.48-0.8
		c-1.47-1.07-2.09-2.97-1.53-4.71l8.78-27.01l-22.97-16.7c-1.47-1.07-2.09-2.97-1.53-4.71c0.56-1.73,2.18-2.91,4-2.91h28.38
		l8.79-27.01c0.56-1.73,2.18-2.91,4-2.91h0c1.82,0,3.44,1.17,4,2.91l8.77,27.01h28.4c1.82,0,3.44,1.17,4,2.91
		c0.56,1.74-0.05,3.63-1.53,4.71l-22.97,16.69l8.77,27.01c0.56,1.74-0.05,3.63-1.53,4.71c-1.48,1.07-3.47,1.07-4.95,0l-22.97-16.69
		l-22.98,16.7C152.12,218.86,151.25,219.13,150.38,219.13z M147.61,170.72l14.97,10.88c1.47,1.07,2.09,2.97,1.53,4.71l-5.72,17.59
		l14.97-10.88c1.47-1.07,3.47-1.07,4.95,0l14.96,10.87l-5.72-17.59c-0.56-1.74,0.05-3.63,1.53-4.71l14.96-10.87h-18.49
		c-1.82,0-3.44-1.17-4-2.91l-5.72-17.6l-5.73,17.6c-0.56,1.73-2.18,2.91-4,2.91H147.61z"/>
</g>
</svg>
